<svg width="136" height="47" viewBox="0 0 136 47" fill="none" xmlns="http://www.w3.org/2000/svg">
<path d="M36.7646 25.4521H34.2285V23.8525H36.7646C37.1566 23.8525 37.4756 23.7887 37.7217 23.6611C37.9678 23.529 38.1478 23.3467 38.2617 23.1143C38.3757 22.8818 38.4326 22.6198 38.4326 22.3281C38.4326 22.0319 38.3757 21.7562 38.2617 21.501C38.1478 21.2458 37.9678 21.0407 37.7217 20.8857C37.4756 20.7308 37.1566 20.6533 36.7646 20.6533H34.9395V29H32.8887V19.0469H36.7646C37.5439 19.0469 38.2116 19.1882 38.7676 19.4707C39.3281 19.7487 39.7565 20.1338 40.0527 20.626C40.349 21.1182 40.4971 21.681 40.4971 22.3145C40.4971 22.957 40.349 23.513 40.0527 23.9824C39.7565 24.4518 39.3281 24.8141 38.7676 25.0693C38.2116 25.3245 37.5439 25.4521 36.7646 25.4521ZM48.3105 27.4004V29H43.2998V27.4004H48.3105ZM43.9629 19.0469V29H41.9121V19.0469H43.9629ZM53.6699 20.749L50.9629 29H48.7822L52.4805 19.0469H53.8682L53.6699 20.749ZM55.9189 29L53.2051 20.749L52.9863 19.0469H54.3877L58.1064 29H55.9189ZM55.7959 25.2949V26.9014H50.5391V25.2949H55.7959ZM59.4941 19.0469L61.5723 23.5859L63.6504 19.0469H65.8857L62.6113 25.377V29H60.5332V25.377L57.252 19.0469H59.4941ZM73.1934 27.4004V29H68.1826V27.4004H73.1934ZM68.8457 19.0469V29H66.7949V19.0469H68.8457ZM76.5498 19.0469V29H74.5059V19.0469H76.5498ZM83.6523 26.3955C83.6523 26.2178 83.625 26.0583 83.5703 25.917C83.5202 25.7712 83.4245 25.639 83.2832 25.5205C83.1419 25.3975 82.9437 25.2767 82.6885 25.1582C82.4333 25.0397 82.1029 24.9167 81.6973 24.7891C81.2461 24.6432 80.8177 24.4792 80.4121 24.2969C80.0111 24.1146 79.6556 23.9027 79.3457 23.6611C79.0404 23.415 78.7988 23.1302 78.6211 22.8066C78.4479 22.4831 78.3613 22.1071 78.3613 21.6787C78.3613 21.264 78.4525 20.888 78.6348 20.5508C78.8171 20.209 79.0723 19.9173 79.4004 19.6758C79.7285 19.4297 80.1159 19.2406 80.5625 19.1084C81.0137 18.9762 81.5081 18.9102 82.0459 18.9102C82.7796 18.9102 83.4199 19.0423 83.9668 19.3066C84.5137 19.571 84.9375 19.9333 85.2383 20.3936C85.5436 20.8538 85.6963 21.3802 85.6963 21.9727H83.6592C83.6592 21.681 83.5977 21.4258 83.4746 21.207C83.3561 20.9837 83.1738 20.8083 82.9277 20.6807C82.6862 20.5531 82.3809 20.4893 82.0117 20.4893C81.6562 20.4893 81.36 20.5439 81.123 20.6533C80.8861 20.7581 80.7083 20.9017 80.5898 21.084C80.4714 21.2617 80.4121 21.4622 80.4121 21.6855C80.4121 21.8542 80.4531 22.0068 80.5352 22.1436C80.6217 22.2803 80.7493 22.4079 80.918 22.5264C81.0866 22.6449 81.2939 22.7565 81.54 22.8613C81.7861 22.9661 82.071 23.0687 82.3945 23.1689C82.9368 23.333 83.4131 23.5176 83.8232 23.7227C84.238 23.9277 84.5843 24.1579 84.8623 24.4131C85.1403 24.6683 85.3499 24.9577 85.4912 25.2812C85.6325 25.6048 85.7031 25.9717 85.7031 26.3818C85.7031 26.8148 85.6188 27.2021 85.4502 27.5439C85.2816 27.8857 85.0378 28.1751 84.7188 28.4121C84.3997 28.6491 84.0192 28.8291 83.5771 28.9521C83.1351 29.0752 82.6406 29.1367 82.0938 29.1367C81.6016 29.1367 81.1162 29.0729 80.6377 28.9453C80.1592 28.8132 79.724 28.6149 79.332 28.3506C78.9447 28.0863 78.6348 27.749 78.4023 27.3389C78.1699 26.9287 78.0537 26.4434 78.0537 25.8828H80.1113C80.1113 26.1927 80.1592 26.4548 80.2549 26.6689C80.3506 26.8831 80.485 27.0563 80.6582 27.1885C80.8359 27.3206 81.0456 27.4163 81.2871 27.4756C81.5332 27.5348 81.8021 27.5645 82.0938 27.5645C82.4492 27.5645 82.7409 27.5143 82.9688 27.4141C83.2012 27.3138 83.3721 27.1748 83.4814 26.9971C83.5954 26.8193 83.6523 26.6188 83.6523 26.3955ZM91.5479 19.0469V29H89.5039V19.0469H91.5479ZM94.6104 19.0469V20.6533H86.4893V19.0469H94.6104ZM100.852 26.3955C100.852 26.2178 100.824 26.0583 100.77 25.917C100.719 25.7712 100.624 25.639 100.482 25.5205C100.341 25.3975 100.143 25.2767 99.8877 25.1582C99.6325 25.0397 99.3021 24.9167 98.8965 24.7891C98.4453 24.6432 98.0169 24.4792 97.6113 24.2969C97.2103 24.1146 96.8548 23.9027 96.5449 23.6611C96.2396 23.415 95.998 23.1302 95.8203 22.8066C95.6471 22.4831 95.5605 22.1071 95.5605 21.6787C95.5605 21.264 95.6517 20.888 95.834 20.5508C96.0163 20.209 96.2715 19.9173 96.5996 19.6758C96.9277 19.4297 97.3151 19.2406 97.7617 19.1084C98.2129 18.9762 98.7074 18.9102 99.2451 18.9102C99.9788 18.9102 100.619 19.0423 101.166 19.3066C101.713 19.571 102.137 19.9333 102.438 20.3936C102.743 20.8538 102.896 21.3802 102.896 21.9727H100.858C100.858 21.681 100.797 21.4258 100.674 21.207C100.555 20.9837 100.373 20.8083 100.127 20.6807C99.8854 20.5531 99.5801 20.4893 99.2109 20.4893C98.8555 20.4893 98.5592 20.5439 98.3223 20.6533C98.0853 20.7581 97.9076 20.9017 97.7891 21.084C97.6706 21.2617 97.6113 21.4622 97.6113 21.6855C97.6113 21.8542 97.6523 22.0068 97.7344 22.1436C97.821 22.2803 97.9486 22.4079 98.1172 22.5264C98.2858 22.6449 98.4932 22.7565 98.7393 22.8613C98.9854 22.9661 99.2702 23.0687 99.5938 23.1689C100.136 23.333 100.612 23.5176 101.022 23.7227C101.437 23.9277 101.784 24.1579 102.062 24.4131C102.34 24.6683 102.549 24.9577 102.69 25.2812C102.832 25.6048 102.902 25.9717 102.902 26.3818C102.902 26.8148 102.818 27.2021 102.649 27.5439C102.481 27.8857 102.237 28.1751 101.918 28.4121C101.599 28.6491 101.218 28.8291 100.776 28.9521C100.334 29.0752 99.8398 29.1367 99.293 29.1367C98.8008 29.1367 98.3154 29.0729 97.8369 28.9453C97.3584 28.8132 96.9232 28.6149 96.5312 28.3506C96.1439 28.0863 95.834 27.749 95.6016 27.3389C95.3691 26.9287 95.2529 26.4434 95.2529 25.8828H97.3105C97.3105 26.1927 97.3584 26.4548 97.4541 26.6689C97.5498 26.8831 97.6842 27.0563 97.8574 27.1885C98.0352 27.3206 98.2448 27.4163 98.4863 27.4756C98.7324 27.5348 99.0013 27.5645 99.293 27.5645C99.6484 27.5645 99.9401 27.5143 100.168 27.4141C100.4 27.3138 100.571 27.1748 100.681 26.9971C100.795 26.8193 100.852 26.6188 100.852 26.3955Z" fill="#AAAAAA"/>
</svg>
