<svg width="110" height="47" viewBox="0 0 110 47" fill="none" xmlns="http://www.w3.org/2000/svg">
<path d="M36.9355 20.749L34.2285 29H32.0479L35.7461 19.0469H37.1338L36.9355 20.749ZM39.1846 29L36.4707 20.749L36.252 19.0469H37.6533L41.3721 29H39.1846ZM39.0615 25.2949V26.9014H33.8047V25.2949H39.0615ZM46.1914 24.6318H43.6348L43.6211 23.2236H45.7676C46.1458 23.2236 46.4557 23.1758 46.6973 23.0801C46.9388 22.9798 47.1188 22.8363 47.2373 22.6494C47.3604 22.458 47.4219 22.2256 47.4219 21.9521C47.4219 21.6423 47.3626 21.3916 47.2441 21.2002C47.1302 21.0088 46.9502 20.8698 46.7041 20.7832C46.4626 20.6966 46.1504 20.6533 45.7676 20.6533H44.3457V29H42.2949V19.0469H45.7676C46.3464 19.0469 46.8636 19.1016 47.3193 19.2109C47.7796 19.3203 48.1693 19.4867 48.4883 19.71C48.8073 19.9333 49.0511 20.2158 49.2197 20.5576C49.3883 20.8949 49.4727 21.2959 49.4727 21.7607C49.4727 22.1709 49.3792 22.5492 49.1924 22.8955C49.0101 23.2419 48.7207 23.5244 48.3242 23.7432C47.9323 23.9619 47.4196 24.0827 46.7861 24.1055L46.1914 24.6318ZM46.1025 29H43.0742L43.874 27.4004H46.1025C46.4626 27.4004 46.7565 27.3434 46.9844 27.2295C47.2122 27.111 47.3809 26.9515 47.4902 26.751C47.5996 26.5505 47.6543 26.3203 47.6543 26.0605C47.6543 25.7689 47.6042 25.516 47.5039 25.3018C47.4082 25.0876 47.2533 24.9235 47.0391 24.8096C46.8249 24.6911 46.5423 24.6318 46.1914 24.6318H44.2158L44.2295 23.2236H46.6904L47.1621 23.7773C47.7682 23.7682 48.2559 23.8753 48.625 24.0986C48.9987 24.3174 49.2699 24.6022 49.4385 24.9531C49.6117 25.304 49.6982 25.68 49.6982 26.0811C49.6982 26.7191 49.5592 27.2568 49.2812 27.6943C49.0033 28.1273 48.5954 28.4531 48.0576 28.6719C47.5244 28.8906 46.8727 29 46.1025 29ZM59.4121 23.791V24.2627C59.4121 25.0192 59.3096 25.6982 59.1045 26.2998C58.8994 26.9014 58.61 27.4141 58.2363 27.8379C57.8626 28.2572 57.416 28.5785 56.8965 28.8018C56.3815 29.0251 55.8096 29.1367 55.1807 29.1367C54.5563 29.1367 53.9844 29.0251 53.4648 28.8018C52.9499 28.5785 52.5033 28.2572 52.125 27.8379C51.7467 27.4141 51.4528 26.9014 51.2432 26.2998C51.0381 25.6982 50.9355 25.0192 50.9355 24.2627V23.791C50.9355 23.0299 51.0381 22.3509 51.2432 21.7539C51.4482 21.1523 51.7376 20.6396 52.1113 20.2158C52.4896 19.792 52.9362 19.4684 53.4512 19.2451C53.9707 19.0218 54.5426 18.9102 55.167 18.9102C55.7959 18.9102 56.3678 19.0218 56.8828 19.2451C57.4023 19.4684 57.849 19.792 58.2227 20.2158C58.6009 20.6396 58.8926 21.1523 59.0977 21.7539C59.3073 22.3509 59.4121 23.0299 59.4121 23.791ZM57.3408 24.2627V23.7773C57.3408 23.2487 57.293 22.7839 57.1973 22.3828C57.1016 21.9818 56.9603 21.6445 56.7734 21.3711C56.5866 21.0977 56.3587 20.8926 56.0898 20.7559C55.821 20.6146 55.5133 20.5439 55.167 20.5439C54.8206 20.5439 54.513 20.6146 54.2441 20.7559C53.9798 20.8926 53.7542 21.0977 53.5674 21.3711C53.3851 21.6445 53.2461 21.9818 53.1504 22.3828C53.0547 22.7839 53.0068 23.2487 53.0068 23.7773V24.2627C53.0068 24.7868 53.0547 25.2516 53.1504 25.6572C53.2461 26.0583 53.3874 26.3978 53.5742 26.6758C53.7611 26.9492 53.9889 27.1566 54.2578 27.2979C54.5267 27.4391 54.8343 27.5098 55.1807 27.5098C55.527 27.5098 55.8346 27.4391 56.1035 27.2979C56.3724 27.1566 56.598 26.9492 56.7803 26.6758C56.9626 26.3978 57.1016 26.0583 57.1973 25.6572C57.293 25.2516 57.3408 24.7868 57.3408 24.2627ZM66.3848 19.0469H68.4287V25.623C68.4287 26.3887 68.2646 27.0335 67.9365 27.5576C67.613 28.0817 67.1641 28.4759 66.5898 28.7402C66.0202 29.0046 65.3639 29.1367 64.6211 29.1367C63.8783 29.1367 63.2174 29.0046 62.6387 28.7402C62.0645 28.4759 61.6133 28.0817 61.2852 27.5576C60.9616 27.0335 60.7998 26.3887 60.7998 25.623V19.0469H62.8506V25.623C62.8506 26.0697 62.9212 26.4342 63.0625 26.7168C63.2038 26.9993 63.4066 27.2067 63.6709 27.3389C63.9398 27.471 64.2565 27.5371 64.6211 27.5371C64.9948 27.5371 65.3115 27.471 65.5713 27.3389C65.8356 27.2067 66.0361 26.9993 66.1729 26.7168C66.3141 26.4342 66.3848 26.0697 66.3848 25.623V19.0469ZM74.5674 19.0469V29H72.5234V19.0469H74.5674ZM77.6299 19.0469V20.6533H69.5088V19.0469H77.6299Z" fill="#AAAAAA"/>
</svg>
