<svg width="135" height="36" viewBox="0 0 135 36" fill="none" xmlns="http://www.w3.org/2000/svg">
<path d="M22 10L34 18L22 26V10Z" fill="#AAAAAA"/>
<path d="M53.4453 19.9453H50.5469V18.1172H53.4453C53.8932 18.1172 54.2578 18.0443 54.5391 17.8984C54.8203 17.7474 55.026 17.5391 55.1562 17.2734C55.2865 17.0078 55.3516 16.7083 55.3516 16.375C55.3516 16.0365 55.2865 15.7214 55.1562 15.4297C55.026 15.138 54.8203 14.9036 54.5391 14.7266C54.2578 14.5495 53.8932 14.4609 53.4453 14.4609H51.3594V24H49.0156V12.625H53.4453C54.3359 12.625 55.099 12.7865 55.7344 13.1094C56.375 13.4271 56.8646 13.8672 57.2031 14.4297C57.5417 14.9922 57.7109 15.6354 57.7109 16.3594C57.7109 17.0938 57.5417 17.7292 57.2031 18.2656C56.8646 18.8021 56.375 19.2161 55.7344 19.5078C55.099 19.7995 54.3359 19.9453 53.4453 19.9453ZM66.6406 22.1719V24H60.9141V22.1719H66.6406ZM61.6719 12.625V24H59.3281V12.625H61.6719ZM72.7656 14.5703L69.6719 24H67.1797L71.4062 12.625H72.9922L72.7656 14.5703ZM75.3359 24L72.2344 14.5703L71.9844 12.625H73.5859L77.8359 24H75.3359ZM75.1953 19.7656V21.6016H69.1875V19.7656H75.1953ZM79.4219 12.625L81.7969 17.8125L84.1719 12.625H86.7266L82.9844 19.8594V24H80.6094V19.8594L76.8594 12.625H79.4219ZM96.375 14.5703L93.2812 24H90.7891L95.0156 12.625H96.6016L96.375 14.5703ZM98.9453 24L95.8438 14.5703L95.5938 12.625H97.1953L101.445 24H98.9453ZM98.8047 19.7656V21.6016H92.7969V19.7656H98.8047ZM109.812 22.1719V24H104.086V22.1719H109.812ZM104.844 12.625V24H102.5V12.625H104.844ZM118.469 22.1719V24H112.742V22.1719H118.469ZM113.5 12.625V24H111.156V12.625H113.5Z" fill="#AAAAAA"/>
</svg>
