<svg width="116" height="36" viewBox="0 0 116 36" fill="none" xmlns="http://www.w3.org/2000/svg">
<rect width="116" height="36" rx="2" fill="#CC0000"/>
<path d="M22.0703 20.3955C22.0703 20.2178 22.043 20.0583 21.9883 19.917C21.9382 19.7712 21.8424 19.639 21.7012 19.5205C21.5599 19.3975 21.3617 19.2767 21.1064 19.1582C20.8512 19.0397 20.5208 18.9167 20.1152 18.7891C19.6641 18.6432 19.2357 18.4792 18.8301 18.2969C18.429 18.1146 18.0736 17.9027 17.7637 17.6611C17.4583 17.415 17.2168 17.1302 17.0391 16.8066C16.8659 16.4831 16.7793 16.1071 16.7793 15.6787C16.7793 15.264 16.8704 14.888 17.0527 14.5508C17.235 14.209 17.4902 13.9173 17.8184 13.6758C18.1465 13.4297 18.5339 13.2406 18.9805 13.1084C19.4316 12.9762 19.9261 12.9102 20.4639 12.9102C21.1976 12.9102 21.8379 13.0423 22.3848 13.3066C22.9316 13.571 23.3555 13.9333 23.6562 14.3936C23.9616 14.8538 24.1143 15.3802 24.1143 15.9727H22.0771C22.0771 15.681 22.0156 15.4258 21.8926 15.207C21.7741 14.9837 21.5918 14.8083 21.3457 14.6807C21.1042 14.5531 20.7988 14.4893 20.4297 14.4893C20.0742 14.4893 19.778 14.5439 19.541 14.6533C19.304 14.7581 19.1263 14.9017 19.0078 15.084C18.8893 15.2617 18.8301 15.4622 18.8301 15.6855C18.8301 15.8542 18.8711 16.0068 18.9531 16.1436C19.0397 16.2803 19.1673 16.4079 19.3359 16.5264C19.5046 16.6449 19.7119 16.7565 19.958 16.8613C20.2041 16.9661 20.4889 17.0687 20.8125 17.1689C21.3548 17.333 21.8311 17.5176 22.2412 17.7227C22.6559 17.9277 23.0023 18.1579 23.2803 18.4131C23.5583 18.6683 23.7679 18.9577 23.9092 19.2812C24.0505 19.6048 24.1211 19.9717 24.1211 20.3818C24.1211 20.8148 24.0368 21.2021 23.8682 21.5439C23.6995 21.8857 23.4557 22.1751 23.1367 22.4121C22.8177 22.6491 22.4372 22.8291 21.9951 22.9521C21.5531 23.0752 21.0586 23.1367 20.5117 23.1367C20.0195 23.1367 19.5342 23.0729 19.0557 22.9453C18.5771 22.8132 18.1419 22.6149 17.75 22.3506C17.3626 22.0863 17.0527 21.749 16.8203 21.3389C16.5879 20.9287 16.4717 20.4434 16.4717 19.8828H18.5293C18.5293 20.1927 18.5771 20.4548 18.6729 20.6689C18.7686 20.8831 18.903 21.0563 19.0762 21.1885C19.2539 21.3206 19.4635 21.4163 19.7051 21.4756C19.9512 21.5348 20.2201 21.5645 20.5117 21.5645C20.8672 21.5645 21.1589 21.5143 21.3867 21.4141C21.6191 21.3138 21.79 21.1748 21.8994 20.9971C22.0133 20.8193 22.0703 20.6188 22.0703 20.3955ZM31.0117 13.0469H33.0557V19.623C33.0557 20.3887 32.8916 21.0335 32.5635 21.5576C32.2399 22.0817 31.791 22.4759 31.2168 22.7402C30.6471 23.0046 29.9909 23.1367 29.248 23.1367C28.5052 23.1367 27.8444 23.0046 27.2656 22.7402C26.6914 22.4759 26.2402 22.0817 25.9121 21.5576C25.5885 21.0335 25.4268 20.3887 25.4268 19.623V13.0469H27.4775V19.623C27.4775 20.0697 27.5482 20.4342 27.6895 20.7168C27.8307 20.9993 28.0335 21.2067 28.2979 21.3389C28.5667 21.471 28.8835 21.5371 29.248 21.5371C29.6217 21.5371 29.9385 21.471 30.1982 21.3389C30.4626 21.2067 30.6631 20.9993 30.7998 20.7168C30.9411 20.4342 31.0117 20.0697 31.0117 19.623V13.0469ZM38.6406 18.6318H36.084L36.0703 17.2236H38.2168C38.5951 17.2236 38.9049 17.1758 39.1465 17.0801C39.388 16.9798 39.568 16.8363 39.6865 16.6494C39.8096 16.458 39.8711 16.2256 39.8711 15.9521C39.8711 15.6423 39.8118 15.3916 39.6934 15.2002C39.5794 15.0088 39.3994 14.8698 39.1533 14.7832C38.9118 14.6966 38.5996 14.6533 38.2168 14.6533H36.7949V23H34.7441V13.0469H38.2168C38.7956 13.0469 39.3128 13.1016 39.7686 13.2109C40.2288 13.3203 40.6185 13.4867 40.9375 13.71C41.2565 13.9333 41.5003 14.2158 41.6689 14.5576C41.8376 14.8949 41.9219 15.2959 41.9219 15.7607C41.9219 16.1709 41.8285 16.5492 41.6416 16.8955C41.4593 17.2419 41.1699 17.5244 40.7734 17.7432C40.3815 17.9619 39.8688 18.0827 39.2354 18.1055L38.6406 18.6318ZM38.5518 23H35.5234L36.3232 21.4004H38.5518C38.9118 21.4004 39.2057 21.3434 39.4336 21.2295C39.6615 21.111 39.8301 20.9515 39.9395 20.751C40.0488 20.5505 40.1035 20.3203 40.1035 20.0605C40.1035 19.7689 40.0534 19.516 39.9531 19.3018C39.8574 19.0876 39.7025 18.9235 39.4883 18.8096C39.2741 18.6911 38.9915 18.6318 38.6406 18.6318H36.665L36.6787 17.2236H39.1396L39.6113 17.7773C40.2174 17.7682 40.7051 17.8753 41.0742 18.0986C41.4479 18.3174 41.7191 18.6022 41.8877 18.9531C42.0609 19.304 42.1475 19.68 42.1475 20.0811C42.1475 20.7191 42.0085 21.2568 41.7305 21.6943C41.4525 22.1273 41.0446 22.4531 40.5068 22.6719C39.9736 22.8906 39.3219 23 38.5518 23ZM48.8672 20.3955C48.8672 20.2178 48.8398 20.0583 48.7852 19.917C48.735 19.7712 48.6393 19.639 48.498 19.5205C48.3568 19.3975 48.1585 19.2767 47.9033 19.1582C47.6481 19.0397 47.3177 18.9167 46.9121 18.7891C46.4609 18.6432 46.0326 18.4792 45.627 18.2969C45.2259 18.1146 44.8704 17.9027 44.5605 17.6611C44.2552 17.415 44.0137 17.1302 43.8359 16.8066C43.6628 16.4831 43.5762 16.1071 43.5762 15.6787C43.5762 15.264 43.6673 14.888 43.8496 14.5508C44.0319 14.209 44.2871 13.9173 44.6152 13.6758C44.9434 13.4297 45.3307 13.2406 45.7773 13.1084C46.2285 12.9762 46.723 12.9102 47.2607 12.9102C47.9945 12.9102 48.6348 13.0423 49.1816 13.3066C49.7285 13.571 50.1523 13.9333 50.4531 14.3936C50.7585 14.8538 50.9111 15.3802 50.9111 15.9727H48.874C48.874 15.681 48.8125 15.4258 48.6895 15.207C48.571 14.9837 48.3887 14.8083 48.1426 14.6807C47.901 14.5531 47.5957 14.4893 47.2266 14.4893C46.8711 14.4893 46.5749 14.5439 46.3379 14.6533C46.1009 14.7581 45.9232 14.9017 45.8047 15.084C45.6862 15.2617 45.627 15.4622 45.627 15.6855C45.627 15.8542 45.668 16.0068 45.75 16.1436C45.8366 16.2803 45.9642 16.4079 46.1328 16.5264C46.3014 16.6449 46.5088 16.7565 46.7549 16.8613C47.001 16.9661 47.2858 17.0687 47.6094 17.1689C48.1517 17.333 48.6279 17.5176 49.0381 17.7227C49.4528 17.9277 49.7992 18.1579 50.0771 18.4131C50.3551 18.6683 50.5648 18.9577 50.7061 19.2812C50.8473 19.6048 50.918 19.9717 50.918 20.3818C50.918 20.8148 50.8337 21.2021 50.665 21.5439C50.4964 21.8857 50.2526 22.1751 49.9336 22.4121C49.6146 22.6491 49.234 22.8291 48.792 22.9521C48.3499 23.0752 47.8555 23.1367 47.3086 23.1367C46.8164 23.1367 46.3311 23.0729 45.8525 22.9453C45.374 22.8132 44.9388 22.6149 44.5469 22.3506C44.1595 22.0863 43.8496 21.749 43.6172 21.3389C43.3848 20.9287 43.2686 20.4434 43.2686 19.8828H45.3262C45.3262 20.1927 45.374 20.4548 45.4697 20.6689C45.5654 20.8831 45.6999 21.0563 45.873 21.1885C46.0508 21.3206 46.2604 21.4163 46.502 21.4756C46.748 21.5348 47.0169 21.5645 47.3086 21.5645C47.6641 21.5645 47.9557 21.5143 48.1836 21.4141C48.416 21.3138 48.5869 21.1748 48.6963 20.9971C48.8102 20.8193 48.8672 20.6188 48.8672 20.3955ZM58.082 19.6982H60.126C60.085 20.3682 59.9004 20.9629 59.5723 21.4824C59.2487 22.002 58.7952 22.4076 58.2119 22.6992C57.6331 22.9909 56.9359 23.1367 56.1201 23.1367C55.4821 23.1367 54.9102 23.0273 54.4043 22.8086C53.8984 22.5853 53.4655 22.2663 53.1055 21.8516C52.75 21.4368 52.4788 20.9355 52.292 20.3477C52.1051 19.7598 52.0117 19.1012 52.0117 18.3721V17.6816C52.0117 16.9525 52.1074 16.2939 52.2988 15.7061C52.4948 15.1136 52.7728 14.61 53.1328 14.1953C53.4974 13.7806 53.9326 13.4616 54.4385 13.2383C54.9443 13.015 55.5094 12.9033 56.1338 12.9033C56.9632 12.9033 57.6628 13.0537 58.2324 13.3545C58.8066 13.6553 59.251 14.07 59.5654 14.5986C59.8844 15.1273 60.0758 15.7288 60.1396 16.4033H58.0889C58.0661 16.0023 57.9863 15.6628 57.8496 15.3848C57.7129 15.1022 57.5055 14.8903 57.2275 14.749C56.9541 14.6032 56.5895 14.5303 56.1338 14.5303C55.792 14.5303 55.4935 14.5941 55.2383 14.7217C54.9831 14.8493 54.7689 15.043 54.5957 15.3027C54.4225 15.5625 54.2926 15.8906 54.2061 16.2871C54.124 16.679 54.083 17.1393 54.083 17.668V18.3721C54.083 18.887 54.1217 19.3405 54.1992 19.7324C54.2767 20.1198 54.3952 20.4479 54.5547 20.7168C54.7188 20.9811 54.9284 21.1816 55.1836 21.3184C55.4434 21.4505 55.7555 21.5166 56.1201 21.5166C56.5485 21.5166 56.9017 21.4482 57.1797 21.3115C57.4577 21.1748 57.6696 20.972 57.8154 20.7031C57.9658 20.4342 58.0547 20.0993 58.082 19.6982ZM61.4727 13.0469H65.1846C65.9456 13.0469 66.5996 13.1608 67.1465 13.3887C67.6979 13.6165 68.1217 13.9538 68.418 14.4004C68.7142 14.847 68.8623 15.3962 68.8623 16.0479C68.8623 16.5811 68.7712 17.0391 68.5889 17.4219C68.4111 17.8001 68.1582 18.1169 67.8301 18.3721C67.5065 18.6227 67.126 18.8232 66.6885 18.9736L66.0391 19.3154H62.8125L62.7988 17.7158H65.1982C65.5583 17.7158 65.8568 17.652 66.0938 17.5244C66.3307 17.3968 66.5085 17.2191 66.627 16.9912C66.75 16.7633 66.8115 16.499 66.8115 16.1982C66.8115 15.8792 66.7523 15.6035 66.6338 15.3711C66.5153 15.1387 66.3353 14.9609 66.0938 14.8379C65.8522 14.7148 65.5492 14.6533 65.1846 14.6533H63.5234V23H61.4727V13.0469ZM67.0371 23L64.7676 18.5635L66.9346 18.5498L69.2314 22.9043V23H67.0371ZM72.6221 13.0469V23H70.5781V13.0469H72.6221ZM78.4395 18.6318H75.8828L75.8691 17.2236H78.0156C78.3939 17.2236 78.7038 17.1758 78.9453 17.0801C79.1868 16.9798 79.3669 16.8363 79.4854 16.6494C79.6084 16.458 79.6699 16.2256 79.6699 15.9521C79.6699 15.6423 79.6107 15.3916 79.4922 15.2002C79.3783 15.0088 79.1982 14.8698 78.9521 14.7832C78.7106 14.6966 78.3984 14.6533 78.0156 14.6533H76.5938V23H74.543V13.0469H78.0156C78.5944 13.0469 79.1117 13.1016 79.5674 13.2109C80.0277 13.3203 80.4173 13.4867 80.7363 13.71C81.0553 13.9333 81.2992 14.2158 81.4678 14.5576C81.6364 14.8949 81.7207 15.2959 81.7207 15.7607C81.7207 16.1709 81.6273 16.5492 81.4404 16.8955C81.2581 17.2419 80.9688 17.5244 80.5723 17.7432C80.1803 17.9619 79.6676 18.0827 79.0342 18.1055L78.4395 18.6318ZM78.3506 23H75.3223L76.1221 21.4004H78.3506C78.7106 21.4004 79.0046 21.3434 79.2324 21.2295C79.4603 21.111 79.6289 20.9515 79.7383 20.751C79.8477 20.5505 79.9023 20.3203 79.9023 20.0605C79.9023 19.7689 79.8522 19.516 79.752 19.3018C79.6562 19.0876 79.5013 18.9235 79.2871 18.8096C79.0729 18.6911 78.7904 18.6318 78.4395 18.6318H76.4639L76.4775 17.2236H78.9385L79.4102 17.7773C80.0163 17.7682 80.5039 17.8753 80.873 18.0986C81.2467 18.3174 81.5179 18.6022 81.6865 18.9531C81.8597 19.304 81.9463 19.68 81.9463 20.0811C81.9463 20.7191 81.8073 21.2568 81.5293 21.6943C81.2513 22.1273 80.8434 22.4531 80.3057 22.6719C79.7725 22.8906 79.1208 23 78.3506 23ZM90.1631 21.4004V23H84.8652V21.4004H90.1631ZM85.5352 13.0469V23H83.4844V13.0469H85.5352ZM89.4727 17.1006V18.6592H84.8652V17.1006H89.4727ZM90.1562 13.0469V14.6533H84.8652V13.0469H90.1562ZM96.541 20.3955C96.541 20.2178 96.5137 20.0583 96.459 19.917C96.4089 19.7712 96.3132 19.639 96.1719 19.5205C96.0306 19.3975 95.8324 19.2767 95.5771 19.1582C95.3219 19.0397 94.9915 18.9167 94.5859 18.7891C94.1348 18.6432 93.7064 18.4792 93.3008 18.2969C92.8997 18.1146 92.5443 17.9027 92.2344 17.6611C91.929 17.415 91.6875 17.1302 91.5098 16.8066C91.3366 16.4831 91.25 16.1071 91.25 15.6787C91.25 15.264 91.3411 14.888 91.5234 14.5508C91.7057 14.209 91.9609 13.9173 92.2891 13.6758C92.6172 13.4297 93.0046 13.2406 93.4512 13.1084C93.9023 12.9762 94.3968 12.9102 94.9346 12.9102C95.6683 12.9102 96.3086 13.0423 96.8555 13.3066C97.4023 13.571 97.8262 13.9333 98.127 14.3936C98.4323 14.8538 98.585 15.3802 98.585 15.9727H96.5479C96.5479 15.681 96.4863 15.4258 96.3633 15.207C96.2448 14.9837 96.0625 14.8083 95.8164 14.6807C95.5749 14.5531 95.2695 14.4893 94.9004 14.4893C94.5449 14.4893 94.2487 14.5439 94.0117 14.6533C93.7747 14.7581 93.597 14.9017 93.4785 15.084C93.36 15.2617 93.3008 15.4622 93.3008 15.6855C93.3008 15.8542 93.3418 16.0068 93.4238 16.1436C93.5104 16.2803 93.638 16.4079 93.8066 16.5264C93.9753 16.6449 94.1826 16.7565 94.4287 16.8613C94.6748 16.9661 94.9596 17.0687 95.2832 17.1689C95.8255 17.333 96.3018 17.5176 96.7119 17.7227C97.1266 17.9277 97.473 18.1579 97.751 18.4131C98.029 18.6683 98.2386 18.9577 98.3799 19.2812C98.5212 19.6048 98.5918 19.9717 98.5918 20.3818C98.5918 20.8148 98.5075 21.2021 98.3389 21.5439C98.1702 21.8857 97.9264 22.1751 97.6074 22.4121C97.2884 22.6491 96.9079 22.8291 96.4658 22.9521C96.0238 23.0752 95.5293 23.1367 94.9824 23.1367C94.4902 23.1367 94.0049 23.0729 93.5264 22.9453C93.0479 22.8132 92.6126 22.6149 92.2207 22.3506C91.8333 22.0863 91.5234 21.749 91.291 21.3389C91.0586 20.9287 90.9424 20.4434 90.9424 19.8828H93C93 20.1927 93.0479 20.4548 93.1436 20.6689C93.2393 20.8831 93.3737 21.0563 93.5469 21.1885C93.7246 21.3206 93.9342 21.4163 94.1758 21.4756C94.4219 21.5348 94.6908 21.5645 94.9824 21.5645C95.3379 21.5645 95.6296 21.5143 95.8574 21.4141C96.0898 21.3138 96.2607 21.1748 96.3701 20.9971C96.484 20.8193 96.541 20.6188 96.541 20.3955Z" fill="white"/>
</svg>
