<svg width="19" height="18" viewBox="0 0 19 18" fill="none" xmlns="http://www.w3.org/2000/svg">
<path d="M14.9925 0.892249H13.9925H4.56251C3.49251 0.892249 2.58251 1.56225 2.37251 2.50225L1.03251 8.50225C0.762509 9.74225 1.81251 10.8922 3.22251 10.8922H7.45251L5.93251 15.8322C5.61251 16.8622 6.45251 17.8922 7.61251 17.8922C8.19251 17.8922 8.75251 17.6522 9.13251 17.2422L14.9925 10.8922H18.9925V0.892249H14.9925ZM8.39251 16.5622C8.20251 16.7722 7.91251 16.8922 7.61251 16.8922C7.35251 16.8922 7.11251 16.7822 6.98251 16.5922C6.91251 16.4922 6.83251 16.3322 6.89251 16.1222L8.41251 11.1822L8.81251 9.89225H7.45251H5.33751H3.22251C2.81251 9.89225 2.42251 9.72225 2.19251 9.43225C2.07251 9.28225 1.94251 9.03225 2.01251 8.71225L3.35251 2.71225C3.45251 2.24225 3.96251 1.89225 4.56251 1.89225H13.9925V10.5022L8.39251 16.5622ZM17.9925 9.89225H14.9925V1.89225H17.9925V9.89225Z" fill="white"/>
</svg>
