<svg width="19" height="17" viewBox="0 0 19 17" fill="none" xmlns="http://www.w3.org/2000/svg">
<path d="M14.0025 0H13.0025H3.57251C2.50251 0 1.59251 0.67 1.38251 1.61L0.0425094 7.61C-0.227491 8.85 0.822509 10 2.23251 10H6.46251L4.94251 14.94C4.62251 15.97 5.46251 17 6.62251 17C7.20251 17 7.76251 16.76 8.14251 16.35L14.0025 10H18.0025V0H14.0025ZM7.40251 15.67C7.21251 15.88 6.92251 16 6.62251 16C6.36251 16 6.12251 15.89 5.99251 15.7C5.92251 15.6 5.84251 15.44 5.90251 15.23L7.42251 10.29L7.82251 9H6.46251H2.23251C1.82251 9 1.43251 8.83 1.20251 8.54C1.08251 8.39 0.952509 8.14 1.02251 7.82L2.36251 1.82C2.46251 1.35 2.97251 1 3.57251 1H13.0025V9.61L7.40251 15.67ZM17.0025 9H14.0025V1H17.0025V9Z" fill="white"/>
<path d="M0.5 8L2.5 1L3 0.5H17.5V9.5H13.5V10L7 16.5H6.5L5.5 16V15L7 9.5H1.5L1 9L0.5 8Z" fill="white"/>
</svg>
