<svg width="24" height="24" viewBox="0 0 24 24" fill="none" xmlns="http://www.w3.org/2000/svg">
<path d="M16.2227 5H15.2784H6.37357C5.36315 5 4.50383 5.63059 4.30552 6.51529L3.04014 12.1624C2.78518 13.3294 3.77671 14.4118 5.10819 14.4118H9.10263L7.66727 19.0612C7.36509 20.0306 8.15832 21 9.25372 21C9.80142 21 10.3302 20.7741 10.6891 20.3882L16.2227 14.4118H20V5H16.2227ZM9.99028 19.7482C9.81086 19.9459 9.53701 20.0588 9.25372 20.0588C9.0082 20.0588 8.78156 19.9553 8.6588 19.7765C8.5927 19.6824 8.51716 19.5318 8.57381 19.3341L10.0092 14.6847L10.3869 13.4706H9.10263H5.10819C4.72102 13.4706 4.35274 13.3106 4.13554 13.0376C4.02223 12.8965 3.89947 12.6612 3.96557 12.36L5.23095 6.71294C5.32538 6.27059 5.80698 5.94118 6.37357 5.94118H15.2784V14.0447L9.99028 19.7482ZM19.0557 13.4706H16.2227V5.94118H19.0557V13.4706Z" fill="white"/>
<circle cx="12" cy="12" r="12" fill="url(#paint0_radial_946_2966)"/>
<defs>
<radialGradient id="paint0_radial_946_2966" cx="0" cy="0" r="1" gradientUnits="userSpaceOnUse" gradientTransform="translate(12 12) rotate(90) scale(12)">
<stop stop-color="#D9D9D9"/>
<stop offset="1" stop-color="#D9D9D9" stop-opacity="0"/>
</radialGradient>
</defs>
</svg>
