<svg width="24" height="24" viewBox="0 0 24 24" fill="none" xmlns="http://www.w3.org/2000/svg">
<circle cx="12" cy="12" r="12" fill="url(#paint0_radial_945_2973)"/>
<path d="M19.0776 9.41184H15.0964L16.527 4.76243C16.8282 3.79302 16.0376 2.82361 14.9458 2.82361C14.3999 2.82361 13.8729 3.04949 13.5152 3.43537L7.99994 9.41184H4.23523V18.8236H7.99994H8.94111H13.3788H17.8164C18.8141 18.8236 19.6799 18.193 19.8776 17.3083L21.1388 11.6613C21.3929 10.4942 20.4046 9.41184 19.0776 9.41184ZM7.99994 17.8824H5.17641V10.353H7.99994V17.8824ZM20.2164 11.4542L18.9552 17.1013C18.8611 17.553 18.3811 17.8824 17.8164 17.8824H8.94111V9.7789L14.2117 4.07537C14.3905 3.87773 14.6635 3.76478 14.9458 3.76478C15.1905 3.76478 15.4164 3.86831 15.5388 4.04714C15.6046 4.14126 15.6799 4.29184 15.6235 4.48949L14.1929 9.1389L13.8164 10.353H15.087H19.0682C19.4541 10.353 19.8211 10.513 20.0376 10.786C20.1599 10.9271 20.2823 11.1624 20.2164 11.4542Z" fill="white"/>
<defs>
<radialGradient id="paint0_radial_945_2973" cx="0" cy="0" r="1" gradientUnits="userSpaceOnUse" gradientTransform="translate(12 12) rotate(90) scale(12)">
<stop stop-color="#D9D9D9"/>
<stop offset="1" stop-color="#D9D9D9" stop-opacity="0"/>
</radialGradient>
</defs>
</svg>
