<svg width="34" height="9" viewBox="0 0 34 9" fill="none" xmlns="http://www.w3.org/2000/svg">
<path d="M0.990234 0.46875H3.81445C4.45508 0.46875 4.99609 0.566406 5.4375 0.761719C5.88281 0.957031 6.2207 1.24609 6.45117 1.62891C6.68555 2.00781 6.80273 2.47461 6.80273 3.0293C6.80273 3.41992 6.72266 3.77734 6.5625 4.10156C6.40625 4.42188 6.17969 4.69531 5.88281 4.92188C5.58984 5.14453 5.23828 5.31055 4.82812 5.41992L4.51172 5.54297H1.85742L1.8457 4.62305H3.84961C4.25586 4.62305 4.59375 4.55273 4.86328 4.41211C5.13281 4.26758 5.33594 4.07422 5.47266 3.83203C5.60938 3.58984 5.67773 3.32227 5.67773 3.0293C5.67773 2.70117 5.61328 2.41406 5.48438 2.16797C5.35547 1.92188 5.15234 1.73242 4.875 1.59961C4.60156 1.46289 4.24805 1.39453 3.81445 1.39453H2.12109V9H0.990234V0.46875ZM5.97656 9L3.90234 5.13281L5.08008 5.12695L7.18359 8.92969V9H5.97656ZM13.8047 8.08008V9H9.28711V8.08008H13.8047ZM9.51562 0.46875V9H8.38477V0.46875H9.51562ZM13.207 4.13672V5.05664H9.28711V4.13672H13.207ZM13.7461 0.46875V1.39453H9.28711V0.46875H13.7461ZM18.3516 5.6543H16.0723V4.73438H18.3516C18.793 4.73438 19.1504 4.66406 19.4238 4.52344C19.6973 4.38281 19.8965 4.1875 20.0215 3.9375C20.1504 3.6875 20.2148 3.40234 20.2148 3.08203C20.2148 2.78906 20.1504 2.51367 20.0215 2.25586C19.8965 1.99805 19.6973 1.79102 19.4238 1.63477C19.1504 1.47461 18.793 1.39453 18.3516 1.39453H16.3359V9H15.2051V0.46875H18.3516C18.9961 0.46875 19.541 0.580078 19.9863 0.802734C20.4316 1.02539 20.7695 1.33398 21 1.72852C21.2305 2.11914 21.3457 2.56641 21.3457 3.07031C21.3457 3.61719 21.2305 4.08398 21 4.4707C20.7695 4.85742 20.4316 5.15234 19.9863 5.35547C19.541 5.55469 18.9961 5.6543 18.3516 5.6543ZM27.9492 8.08008V9H23.6836V8.08008H27.9492ZM23.9062 0.46875V9H22.7754V0.46875H23.9062ZM28.2305 0.46875L30.4453 4.75195L32.666 0.46875H33.9492L31.0078 5.8125V9H29.877V5.8125L26.9355 0.46875H28.2305Z" fill="#AAAAAA"/>
</svg>
