<svg width="104" height="48" viewBox="0 0 104 48" fill="none" xmlns="http://www.w3.org/2000/svg">
<path d="M39.5264 23.1006V24.7002H34.3311V23.1006H39.5264ZM34.9395 19.0469V29H32.8887V19.0469H34.9395ZM40.9893 19.0469V29H38.9453V19.0469H40.9893ZM50.9492 23.791V24.2627C50.9492 25.0192 50.8467 25.6982 50.6416 26.2998C50.4365 26.9014 50.1471 27.4141 49.7734 27.8379C49.3997 28.2572 48.9531 28.5785 48.4336 28.8018C47.9186 29.0251 47.3467 29.1367 46.7178 29.1367C46.0934 29.1367 45.5215 29.0251 45.002 28.8018C44.487 28.5785 44.0404 28.2572 43.6621 27.8379C43.2839 27.4141 42.9899 26.9014 42.7803 26.2998C42.5752 25.6982 42.4727 25.0192 42.4727 24.2627V23.791C42.4727 23.0299 42.5752 22.3509 42.7803 21.7539C42.9854 21.1523 43.2747 20.6396 43.6484 20.2158C44.0267 19.792 44.4733 19.4684 44.9883 19.2451C45.5078 19.0218 46.0798 18.9102 46.7041 18.9102C47.333 18.9102 47.9049 19.0218 48.4199 19.2451C48.9395 19.4684 49.3861 19.792 49.7598 20.2158C50.138 20.6396 50.4297 21.1523 50.6348 21.7539C50.8444 22.3509 50.9492 23.0299 50.9492 23.791ZM48.8779 24.2627V23.7773C48.8779 23.2487 48.8301 22.7839 48.7344 22.3828C48.6387 21.9818 48.4974 21.6445 48.3105 21.3711C48.1237 21.0977 47.8958 20.8926 47.627 20.7559C47.3581 20.6146 47.0505 20.5439 46.7041 20.5439C46.3577 20.5439 46.0501 20.6146 45.7812 20.7559C45.5169 20.8926 45.2913 21.0977 45.1045 21.3711C44.9222 21.6445 44.7832 21.9818 44.6875 22.3828C44.5918 22.7839 44.5439 23.2487 44.5439 23.7773V24.2627C44.5439 24.7868 44.5918 25.2516 44.6875 25.6572C44.7832 26.0583 44.9245 26.3978 45.1113 26.6758C45.2982 26.9492 45.526 27.1566 45.7949 27.2979C46.0638 27.4391 46.3714 27.5098 46.7178 27.5098C47.0641 27.5098 47.3717 27.4391 47.6406 27.2979C47.9095 27.1566 48.1351 26.9492 48.3174 26.6758C48.4997 26.3978 48.6387 26.0583 48.7344 25.6572C48.8301 25.2516 48.8779 24.7868 48.8779 24.2627ZM53.3623 19.0469H55.0986L57.6553 26.3545L60.2119 19.0469H61.9482L58.3525 29H56.958L53.3623 19.0469ZM52.4258 19.0469H54.1553L54.4697 26.1699V29H52.4258V19.0469ZM61.1553 19.0469H62.8916V29H60.8408V26.1699L61.1553 19.0469ZM71.3682 27.4004V29H66.0703V27.4004H71.3682ZM66.7402 19.0469V29H64.6895V19.0469H66.7402ZM70.6777 23.1006V24.6592H66.0703V23.1006H70.6777ZM71.3613 19.0469V20.6533H66.0703V19.0469H71.3613Z" fill="white"/>
<rect y="47" width="104" height="1" fill="#AAAAAA"/>
</svg>
