<svg width="148" height="47" viewBox="0 0 148 47" fill="none" xmlns="http://www.w3.org/2000/svg">
<path d="M38.6582 25.6982H40.7021C40.6611 26.3682 40.4766 26.9629 40.1484 27.4824C39.8249 28.002 39.3714 28.4076 38.7881 28.6992C38.2093 28.9909 37.512 29.1367 36.6963 29.1367C36.0583 29.1367 35.4863 29.0273 34.9805 28.8086C34.4746 28.5853 34.0417 28.2663 33.6816 27.8516C33.3262 27.4368 33.055 26.9355 32.8682 26.3477C32.6813 25.7598 32.5879 25.1012 32.5879 24.3721V23.6816C32.5879 22.9525 32.6836 22.2939 32.875 21.7061C33.071 21.1136 33.349 20.61 33.709 20.1953C34.0736 19.7806 34.5088 19.4616 35.0146 19.2383C35.5205 19.015 36.0856 18.9033 36.71 18.9033C37.5394 18.9033 38.2389 19.0537 38.8086 19.3545C39.3828 19.6553 39.8271 20.07 40.1416 20.5986C40.4606 21.1273 40.652 21.7288 40.7158 22.4033H38.665C38.6423 22.0023 38.5625 21.6628 38.4258 21.3848C38.2891 21.1022 38.0817 20.8903 37.8037 20.749C37.5303 20.6032 37.1657 20.5303 36.71 20.5303C36.3682 20.5303 36.0697 20.5941 35.8145 20.7217C35.5592 20.8493 35.3451 21.043 35.1719 21.3027C34.9987 21.5625 34.8688 21.8906 34.7822 22.2871C34.7002 22.679 34.6592 23.1393 34.6592 23.668V24.3721C34.6592 24.887 34.6979 25.3405 34.7754 25.7324C34.8529 26.1198 34.9714 26.4479 35.1309 26.7168C35.2949 26.9811 35.5046 27.1816 35.7598 27.3184C36.0195 27.4505 36.3317 27.5166 36.6963 27.5166C37.1247 27.5166 37.4779 27.4482 37.7559 27.3115C38.0339 27.1748 38.2458 26.972 38.3916 26.7031C38.542 26.4342 38.6309 26.0993 38.6582 25.6982ZM50.2246 23.791V24.2627C50.2246 25.0192 50.1221 25.6982 49.917 26.2998C49.7119 26.9014 49.4225 27.4141 49.0488 27.8379C48.6751 28.2572 48.2285 28.5785 47.709 28.8018C47.194 29.0251 46.6221 29.1367 45.9932 29.1367C45.3688 29.1367 44.7969 29.0251 44.2773 28.8018C43.7624 28.5785 43.3158 28.2572 42.9375 27.8379C42.5592 27.4141 42.2653 26.9014 42.0557 26.2998C41.8506 25.6982 41.748 25.0192 41.748 24.2627V23.791C41.748 23.0299 41.8506 22.3509 42.0557 21.7539C42.2607 21.1523 42.5501 20.6396 42.9238 20.2158C43.3021 19.792 43.7487 19.4684 44.2637 19.2451C44.7832 19.0218 45.3551 18.9102 45.9795 18.9102C46.6084 18.9102 47.1803 19.0218 47.6953 19.2451C48.2148 19.4684 48.6615 19.792 49.0352 20.2158C49.4134 20.6396 49.7051 21.1523 49.9102 21.7539C50.1198 22.3509 50.2246 23.0299 50.2246 23.791ZM48.1533 24.2627V23.7773C48.1533 23.2487 48.1055 22.7839 48.0098 22.3828C47.9141 21.9818 47.7728 21.6445 47.5859 21.3711C47.3991 21.0977 47.1712 20.8926 46.9023 20.7559C46.6335 20.6146 46.3258 20.5439 45.9795 20.5439C45.6331 20.5439 45.3255 20.6146 45.0566 20.7559C44.7923 20.8926 44.5667 21.0977 44.3799 21.3711C44.1976 21.6445 44.0586 21.9818 43.9629 22.3828C43.8672 22.7839 43.8193 23.2487 43.8193 23.7773V24.2627C43.8193 24.7868 43.8672 25.2516 43.9629 25.6572C44.0586 26.0583 44.1999 26.3978 44.3867 26.6758C44.5736 26.9492 44.8014 27.1566 45.0703 27.2979C45.3392 27.4391 45.6468 27.5098 45.9932 27.5098C46.3395 27.5098 46.6471 27.4391 46.916 27.2979C47.1849 27.1566 47.4105 26.9492 47.5928 26.6758C47.7751 26.3978 47.9141 26.0583 48.0098 25.6572C48.1055 25.2516 48.1533 24.7868 48.1533 24.2627ZM52.6377 19.0469H54.374L56.9307 26.3545L59.4873 19.0469H61.2236L57.6279 29H56.2334L52.6377 19.0469ZM51.7012 19.0469H53.4307L53.7451 26.1699V29H51.7012V19.0469ZM60.4307 19.0469H62.167V29H60.1162V26.1699L60.4307 19.0469ZM64.9014 19.0469H66.6377L69.1943 26.3545L71.751 19.0469H73.4873L69.8916 29H68.4971L64.9014 19.0469ZM63.9648 19.0469H65.6943L66.0088 26.1699V29H63.9648V19.0469ZM72.6943 19.0469H74.4307V29H72.3799V26.1699L72.6943 19.0469ZM81.7246 19.0469H83.7686V25.623C83.7686 26.3887 83.6045 27.0335 83.2764 27.5576C82.9528 28.0817 82.5039 28.4759 81.9297 28.7402C81.36 29.0046 80.7038 29.1367 79.9609 29.1367C79.2181 29.1367 78.5573 29.0046 77.9785 28.7402C77.4043 28.4759 76.9531 28.0817 76.625 27.5576C76.3014 27.0335 76.1396 26.3887 76.1396 25.623V19.0469H78.1904V25.623C78.1904 26.0697 78.2611 26.4342 78.4023 26.7168C78.5436 26.9993 78.7464 27.2067 79.0107 27.3389C79.2796 27.471 79.5964 27.5371 79.9609 27.5371C80.3346 27.5371 80.6514 27.471 80.9111 27.3389C81.1755 27.2067 81.376 26.9993 81.5127 26.7168C81.654 26.4342 81.7246 26.0697 81.7246 25.623V19.0469ZM93.5576 19.0469V29H91.5068L87.5078 22.3281V29H85.457V19.0469H87.5078L91.5137 25.7256V19.0469H93.5576ZM97.5225 19.0469V29H95.4785V19.0469H97.5225ZM103.688 19.0469V29H101.645V19.0469H103.688ZM106.751 19.0469V20.6533H98.6299V19.0469H106.751ZM109.396 19.0469L111.475 23.5859L113.553 19.0469H115.788L112.514 25.377V29H110.436V25.377L107.154 19.0469H109.396Z" fill="#AAAAAA"/>
</svg>
