<svg width="113" height="47" viewBox="0 0 113 47" fill="none" xmlns="http://www.w3.org/2000/svg">
<path d="M36.4775 26.9219L38.8223 19.0469H41.1055L37.6396 29H36.1357L36.4775 26.9219ZM34.3174 19.0469L36.6553 26.9219L37.0107 29H35.4932L32.0479 19.0469H34.3174ZM44.2158 19.0469V29H42.1719V19.0469H44.2158ZM49.1924 29H47.0254L47.0391 27.4004H49.1924C49.7301 27.4004 50.1836 27.2796 50.5527 27.0381C50.9219 26.792 51.1999 26.4342 51.3867 25.9648C51.5781 25.4954 51.6738 24.9281 51.6738 24.2627V23.7773C51.6738 23.2669 51.6191 22.818 51.5098 22.4307C51.4049 22.0433 51.2477 21.7174 51.0381 21.4531C50.8285 21.1888 50.571 20.9906 50.2656 20.8584C49.9603 20.7217 49.6094 20.6533 49.2129 20.6533H46.9844V19.0469H49.2129C49.8783 19.0469 50.4867 19.1608 51.0381 19.3887C51.5941 19.612 52.0749 19.9333 52.4805 20.3525C52.8861 20.7718 53.1982 21.2731 53.417 21.8564C53.6403 22.4352 53.752 23.0801 53.752 23.791V24.2627C53.752 24.9691 53.6403 25.6139 53.417 26.1973C53.1982 26.7806 52.8861 27.2819 52.4805 27.7012C52.0794 28.1159 51.5986 28.4372 51.0381 28.665C50.4821 28.8883 49.8669 29 49.1924 29ZM48.1875 19.0469V29H46.1367V19.0469H48.1875ZM61.9209 27.4004V29H56.623V27.4004H61.9209ZM57.293 19.0469V29H55.2422V19.0469H57.293ZM61.2305 23.1006V24.6592H56.623V23.1006H61.2305ZM61.9141 19.0469V20.6533H56.623V19.0469H61.9141ZM71.293 23.791V24.2627C71.293 25.0192 71.1904 25.6982 70.9854 26.2998C70.7803 26.9014 70.4909 27.4141 70.1172 27.8379C69.7435 28.2572 69.2969 28.5785 68.7773 28.8018C68.2624 29.0251 67.6904 29.1367 67.0615 29.1367C66.4372 29.1367 65.8652 29.0251 65.3457 28.8018C64.8307 28.5785 64.3841 28.2572 64.0059 27.8379C63.6276 27.4141 63.3337 26.9014 63.124 26.2998C62.9189 25.6982 62.8164 25.0192 62.8164 24.2627V23.791C62.8164 23.0299 62.9189 22.3509 63.124 21.7539C63.3291 21.1523 63.6185 20.6396 63.9922 20.2158C64.3704 19.792 64.8171 19.4684 65.332 19.2451C65.8516 19.0218 66.4235 18.9102 67.0479 18.9102C67.6768 18.9102 68.2487 19.0218 68.7637 19.2451C69.2832 19.4684 69.7298 19.792 70.1035 20.2158C70.4818 20.6396 70.7734 21.1523 70.9785 21.7539C71.1882 22.3509 71.293 23.0299 71.293 23.791ZM69.2217 24.2627V23.7773C69.2217 23.2487 69.1738 22.7839 69.0781 22.3828C68.9824 21.9818 68.8411 21.6445 68.6543 21.3711C68.4674 21.0977 68.2396 20.8926 67.9707 20.7559C67.7018 20.6146 67.3942 20.5439 67.0479 20.5439C66.7015 20.5439 66.3939 20.6146 66.125 20.7559C65.8607 20.8926 65.6351 21.0977 65.4482 21.3711C65.266 21.6445 65.127 21.9818 65.0312 22.3828C64.9355 22.7839 64.8877 23.2487 64.8877 23.7773V24.2627C64.8877 24.7868 64.9355 25.2516 65.0312 25.6572C65.127 26.0583 65.2682 26.3978 65.4551 26.6758C65.6419 26.9492 65.8698 27.1566 66.1387 27.2979C66.4076 27.4391 66.7152 27.5098 67.0615 27.5098C67.4079 27.5098 67.7155 27.4391 67.9844 27.2979C68.2533 27.1566 68.4788 26.9492 68.6611 26.6758C68.8434 26.3978 68.9824 26.0583 69.0781 25.6572C69.1738 25.2516 69.2217 24.7868 69.2217 24.2627ZM77.9512 26.3955C77.9512 26.2178 77.9238 26.0583 77.8691 25.917C77.819 25.7712 77.7233 25.639 77.582 25.5205C77.4408 25.3975 77.2425 25.2767 76.9873 25.1582C76.7321 25.0397 76.4017 24.9167 75.9961 24.7891C75.5449 24.6432 75.1165 24.4792 74.7109 24.2969C74.3099 24.1146 73.9544 23.9027 73.6445 23.6611C73.3392 23.415 73.0977 23.1302 72.9199 22.8066C72.7467 22.4831 72.6602 22.1071 72.6602 21.6787C72.6602 21.264 72.7513 20.888 72.9336 20.5508C73.1159 20.209 73.3711 19.9173 73.6992 19.6758C74.0273 19.4297 74.4147 19.2406 74.8613 19.1084C75.3125 18.9762 75.807 18.9102 76.3447 18.9102C77.0785 18.9102 77.7188 19.0423 78.2656 19.3066C78.8125 19.571 79.2363 19.9333 79.5371 20.3936C79.8424 20.8538 79.9951 21.3802 79.9951 21.9727H77.958C77.958 21.681 77.8965 21.4258 77.7734 21.207C77.6549 20.9837 77.4727 20.8083 77.2266 20.6807C76.985 20.5531 76.6797 20.4893 76.3105 20.4893C75.9551 20.4893 75.6589 20.5439 75.4219 20.6533C75.1849 20.7581 75.0072 20.9017 74.8887 21.084C74.7702 21.2617 74.7109 21.4622 74.7109 21.6855C74.7109 21.8542 74.752 22.0068 74.834 22.1436C74.9206 22.2803 75.0482 22.4079 75.2168 22.5264C75.3854 22.6449 75.5928 22.7565 75.8389 22.8613C76.085 22.9661 76.3698 23.0687 76.6934 23.1689C77.2357 23.333 77.7119 23.5176 78.1221 23.7227C78.5368 23.9277 78.8831 24.1579 79.1611 24.4131C79.4391 24.6683 79.6488 24.9577 79.79 25.2812C79.9313 25.6048 80.002 25.9717 80.002 26.3818C80.002 26.8148 79.9176 27.2021 79.749 27.5439C79.5804 27.8857 79.3366 28.1751 79.0176 28.4121C78.6986 28.6491 78.318 28.8291 77.876 28.9521C77.4339 29.0752 76.9395 29.1367 76.3926 29.1367C75.9004 29.1367 75.415 29.0729 74.9365 28.9453C74.458 28.8132 74.0228 28.6149 73.6309 28.3506C73.2435 28.0863 72.9336 27.749 72.7012 27.3389C72.4688 26.9287 72.3525 26.4434 72.3525 25.8828H74.4102C74.4102 26.1927 74.458 26.4548 74.5537 26.6689C74.6494 26.8831 74.7839 27.0563 74.957 27.1885C75.1348 27.3206 75.3444 27.4163 75.5859 27.4756C75.832 27.5348 76.1009 27.5645 76.3926 27.5645C76.748 27.5645 77.0397 27.5143 77.2676 27.4141C77.5 27.3138 77.6709 27.1748 77.7803 26.9971C77.8942 26.8193 77.9512 26.6188 77.9512 26.3955Z" fill="#AAAAAA"/>
</svg>
