<svg width="137" height="47" viewBox="0 0 137 47" fill="none" xmlns="http://www.w3.org/2000/svg">
<path d="M38.6582 25.6982H40.7021C40.6611 26.3682 40.4766 26.9629 40.1484 27.4824C39.8249 28.002 39.3714 28.4076 38.7881 28.6992C38.2093 28.9909 37.512 29.1367 36.6963 29.1367C36.0583 29.1367 35.4863 29.0273 34.9805 28.8086C34.4746 28.5853 34.0417 28.2663 33.6816 27.8516C33.3262 27.4368 33.055 26.9355 32.8682 26.3477C32.6813 25.7598 32.5879 25.1012 32.5879 24.3721V23.6816C32.5879 22.9525 32.6836 22.2939 32.875 21.7061C33.071 21.1136 33.349 20.61 33.709 20.1953C34.0736 19.7806 34.5088 19.4616 35.0146 19.2383C35.5205 19.015 36.0856 18.9033 36.71 18.9033C37.5394 18.9033 38.2389 19.0537 38.8086 19.3545C39.3828 19.6553 39.8271 20.07 40.1416 20.5986C40.4606 21.1273 40.652 21.7288 40.7158 22.4033H38.665C38.6423 22.0023 38.5625 21.6628 38.4258 21.3848C38.2891 21.1022 38.0817 20.8903 37.8037 20.749C37.5303 20.6032 37.1657 20.5303 36.71 20.5303C36.3682 20.5303 36.0697 20.5941 35.8145 20.7217C35.5592 20.8493 35.3451 21.043 35.1719 21.3027C34.9987 21.5625 34.8688 21.8906 34.7822 22.2871C34.7002 22.679 34.6592 23.1393 34.6592 23.668V24.3721C34.6592 24.887 34.6979 25.3405 34.7754 25.7324C34.8529 26.1198 34.9714 26.4479 35.1309 26.7168C35.2949 26.9811 35.5046 27.1816 35.7598 27.3184C36.0195 27.4505 36.3317 27.5166 36.6963 27.5166C37.1247 27.5166 37.4779 27.4482 37.7559 27.3115C38.0339 27.1748 38.2458 26.972 38.3916 26.7031C38.542 26.4342 38.6309 26.0993 38.6582 25.6982ZM48.6865 23.1006V24.7002H43.4912V23.1006H48.6865ZM44.0996 19.0469V29H42.0488V19.0469H44.0996ZM50.1494 19.0469V29H48.1055V19.0469H50.1494ZM56.1035 20.749L53.3965 29H51.2158L54.9141 19.0469H56.3018L56.1035 20.749ZM58.3525 29L55.6387 20.749L55.4199 19.0469H56.8213L60.54 29H58.3525ZM58.2295 25.2949V26.9014H52.9727V25.2949H58.2295ZM69.5635 19.0469V29H67.5127L63.5137 22.3281V29H61.4629V19.0469H63.5137L67.5195 25.7256V19.0469H69.5635ZM79.4482 19.0469V29H77.3975L73.3984 22.3281V29H71.3477V19.0469H73.3984L77.4043 25.7256V19.0469H79.4482ZM87.9111 27.4004V29H82.6133V27.4004H87.9111ZM83.2832 19.0469V29H81.2324V19.0469H83.2832ZM87.2207 23.1006V24.6592H82.6133V23.1006H87.2207ZM87.9043 19.0469V20.6533H82.6133V19.0469H87.9043ZM95.5059 27.4004V29H90.4951V27.4004H95.5059ZM91.1582 19.0469V29H89.1074V19.0469H91.1582ZM101.863 26.3955C101.863 26.2178 101.836 26.0583 101.781 25.917C101.731 25.7712 101.635 25.639 101.494 25.5205C101.353 25.3975 101.155 25.2767 100.899 25.1582C100.644 25.0397 100.314 24.9167 99.9082 24.7891C99.457 24.6432 99.0286 24.4792 98.623 24.2969C98.222 24.1146 97.8665 23.9027 97.5566 23.6611C97.2513 23.415 97.0098 23.1302 96.832 22.8066C96.6589 22.4831 96.5723 22.1071 96.5723 21.6787C96.5723 21.264 96.6634 20.888 96.8457 20.5508C97.028 20.209 97.2832 19.9173 97.6113 19.6758C97.9395 19.4297 98.3268 19.2406 98.7734 19.1084C99.2246 18.9762 99.7191 18.9102 100.257 18.9102C100.991 18.9102 101.631 19.0423 102.178 19.3066C102.725 19.571 103.148 19.9333 103.449 20.3936C103.755 20.8538 103.907 21.3802 103.907 21.9727H101.87C101.87 21.681 101.809 21.4258 101.686 21.207C101.567 20.9837 101.385 20.8083 101.139 20.6807C100.897 20.5531 100.592 20.4893 100.223 20.4893C99.8672 20.4893 99.571 20.5439 99.334 20.6533C99.097 20.7581 98.9193 20.9017 98.8008 21.084C98.6823 21.2617 98.623 21.4622 98.623 21.6855C98.623 21.8542 98.6641 22.0068 98.7461 22.1436C98.8327 22.2803 98.9603 22.4079 99.1289 22.5264C99.2975 22.6449 99.5049 22.7565 99.751 22.8613C99.9971 22.9661 100.282 23.0687 100.605 23.1689C101.148 23.333 101.624 23.5176 102.034 23.7227C102.449 23.9277 102.795 24.1579 103.073 24.4131C103.351 24.6683 103.561 24.9577 103.702 25.2812C103.843 25.6048 103.914 25.9717 103.914 26.3818C103.914 26.8148 103.83 27.2021 103.661 27.5439C103.493 27.8857 103.249 28.1751 102.93 28.4121C102.611 28.6491 102.23 28.8291 101.788 28.9521C101.346 29.0752 100.852 29.1367 100.305 29.1367C99.8125 29.1367 99.3271 29.0729 98.8486 28.9453C98.3701 28.8132 97.9349 28.6149 97.543 28.3506C97.1556 28.0863 96.8457 27.749 96.6133 27.3389C96.3809 26.9287 96.2646 26.4434 96.2646 25.8828H98.3223C98.3223 26.1927 98.3701 26.4548 98.4658 26.6689C98.5615 26.8831 98.696 27.0563 98.8691 27.1885C99.0469 27.3206 99.2565 27.4163 99.498 27.4756C99.7441 27.5348 100.013 27.5645 100.305 27.5645C100.66 27.5645 100.952 27.5143 101.18 27.4141C101.412 27.3138 101.583 27.1748 101.692 26.9971C101.806 26.8193 101.863 26.6188 101.863 26.3955Z" fill="#AAAAAA"/>
</svg>
