<svg width="124" height="80" viewBox="0 0 124 80" fill="none" xmlns="http://www.w3.org/2000/svg">
<rect x="4" y="22" width="116" height="36" rx="2" fill="#CC0000"/>
<path d="M26.0703 42.3955C26.0703 42.2178 26.043 42.0583 25.9883 41.917C25.9382 41.7712 25.8424 41.639 25.7012 41.5205C25.5599 41.3975 25.3617 41.2767 25.1064 41.1582C24.8512 41.0397 24.5208 40.9167 24.1152 40.7891C23.6641 40.6432 23.2357 40.4792 22.8301 40.2969C22.429 40.1146 22.0736 39.9027 21.7637 39.6611C21.4583 39.415 21.2168 39.1302 21.0391 38.8066C20.8659 38.4831 20.7793 38.1071 20.7793 37.6787C20.7793 37.264 20.8704 36.888 21.0527 36.5508C21.235 36.209 21.4902 35.9173 21.8184 35.6758C22.1465 35.4297 22.5339 35.2406 22.9805 35.1084C23.4316 34.9762 23.9261 34.9102 24.4639 34.9102C25.1976 34.9102 25.8379 35.0423 26.3848 35.3066C26.9316 35.571 27.3555 35.9333 27.6562 36.3936C27.9616 36.8538 28.1143 37.3802 28.1143 37.9727H26.0771C26.0771 37.681 26.0156 37.4258 25.8926 37.207C25.7741 36.9837 25.5918 36.8083 25.3457 36.6807C25.1042 36.5531 24.7988 36.4893 24.4297 36.4893C24.0742 36.4893 23.778 36.5439 23.541 36.6533C23.304 36.7581 23.1263 36.9017 23.0078 37.084C22.8893 37.2617 22.8301 37.4622 22.8301 37.6855C22.8301 37.8542 22.8711 38.0068 22.9531 38.1436C23.0397 38.2803 23.1673 38.4079 23.3359 38.5264C23.5046 38.6449 23.7119 38.7565 23.958 38.8613C24.2041 38.9661 24.4889 39.0687 24.8125 39.1689C25.3548 39.333 25.8311 39.5176 26.2412 39.7227C26.6559 39.9277 27.0023 40.1579 27.2803 40.4131C27.5583 40.6683 27.7679 40.9577 27.9092 41.2812C28.0505 41.6048 28.1211 41.9717 28.1211 42.3818C28.1211 42.8148 28.0368 43.2021 27.8682 43.5439C27.6995 43.8857 27.4557 44.1751 27.1367 44.4121C26.8177 44.6491 26.4372 44.8291 25.9951 44.9521C25.5531 45.0752 25.0586 45.1367 24.5117 45.1367C24.0195 45.1367 23.5342 45.0729 23.0557 44.9453C22.5771 44.8132 22.1419 44.6149 21.75 44.3506C21.3626 44.0863 21.0527 43.749 20.8203 43.3389C20.5879 42.9287 20.4717 42.4434 20.4717 41.8828H22.5293C22.5293 42.1927 22.5771 42.4548 22.6729 42.6689C22.7686 42.8831 22.903 43.0563 23.0762 43.1885C23.2539 43.3206 23.4635 43.4163 23.7051 43.4756C23.9512 43.5348 24.2201 43.5645 24.5117 43.5645C24.8672 43.5645 25.1589 43.5143 25.3867 43.4141C25.6191 43.3138 25.79 43.1748 25.8994 42.9971C26.0133 42.8193 26.0703 42.6188 26.0703 42.3955ZM35.0117 35.0469H37.0557V41.623C37.0557 42.3887 36.8916 43.0335 36.5635 43.5576C36.2399 44.0817 35.791 44.4759 35.2168 44.7402C34.6471 45.0046 33.9909 45.1367 33.248 45.1367C32.5052 45.1367 31.8444 45.0046 31.2656 44.7402C30.6914 44.4759 30.2402 44.0817 29.9121 43.5576C29.5885 43.0335 29.4268 42.3887 29.4268 41.623V35.0469H31.4775V41.623C31.4775 42.0697 31.5482 42.4342 31.6895 42.7168C31.8307 42.9993 32.0335 43.2067 32.2979 43.3389C32.5667 43.471 32.8835 43.5371 33.248 43.5371C33.6217 43.5371 33.9385 43.471 34.1982 43.3389C34.4626 43.2067 34.6631 42.9993 34.7998 42.7168C34.9411 42.4342 35.0117 42.0697 35.0117 41.623V35.0469ZM42.6406 40.6318H40.084L40.0703 39.2236H42.2168C42.5951 39.2236 42.9049 39.1758 43.1465 39.0801C43.388 38.9798 43.568 38.8363 43.6865 38.6494C43.8096 38.458 43.8711 38.2256 43.8711 37.9521C43.8711 37.6423 43.8118 37.3916 43.6934 37.2002C43.5794 37.0088 43.3994 36.8698 43.1533 36.7832C42.9118 36.6966 42.5996 36.6533 42.2168 36.6533H40.7949V45H38.7441V35.0469H42.2168C42.7956 35.0469 43.3128 35.1016 43.7686 35.2109C44.2288 35.3203 44.6185 35.4867 44.9375 35.71C45.2565 35.9333 45.5003 36.2158 45.6689 36.5576C45.8376 36.8949 45.9219 37.2959 45.9219 37.7607C45.9219 38.1709 45.8285 38.5492 45.6416 38.8955C45.4593 39.2419 45.1699 39.5244 44.7734 39.7432C44.3815 39.9619 43.8688 40.0827 43.2354 40.1055L42.6406 40.6318ZM42.5518 45H39.5234L40.3232 43.4004H42.5518C42.9118 43.4004 43.2057 43.3434 43.4336 43.2295C43.6615 43.111 43.8301 42.9515 43.9395 42.751C44.0488 42.5505 44.1035 42.3203 44.1035 42.0605C44.1035 41.7689 44.0534 41.516 43.9531 41.3018C43.8574 41.0876 43.7025 40.9235 43.4883 40.8096C43.2741 40.6911 42.9915 40.6318 42.6406 40.6318H40.665L40.6787 39.2236H43.1396L43.6113 39.7773C44.2174 39.7682 44.7051 39.8753 45.0742 40.0986C45.4479 40.3174 45.7191 40.6022 45.8877 40.9531C46.0609 41.304 46.1475 41.68 46.1475 42.0811C46.1475 42.7191 46.0085 43.2568 45.7305 43.6943C45.4525 44.1273 45.0446 44.4531 44.5068 44.6719C43.9736 44.8906 43.3219 45 42.5518 45ZM52.8672 42.3955C52.8672 42.2178 52.8398 42.0583 52.7852 41.917C52.735 41.7712 52.6393 41.639 52.498 41.5205C52.3568 41.3975 52.1585 41.2767 51.9033 41.1582C51.6481 41.0397 51.3177 40.9167 50.9121 40.7891C50.4609 40.6432 50.0326 40.4792 49.627 40.2969C49.2259 40.1146 48.8704 39.9027 48.5605 39.6611C48.2552 39.415 48.0137 39.1302 47.8359 38.8066C47.6628 38.4831 47.5762 38.1071 47.5762 37.6787C47.5762 37.264 47.6673 36.888 47.8496 36.5508C48.0319 36.209 48.2871 35.9173 48.6152 35.6758C48.9434 35.4297 49.3307 35.2406 49.7773 35.1084C50.2285 34.9762 50.723 34.9102 51.2607 34.9102C51.9945 34.9102 52.6348 35.0423 53.1816 35.3066C53.7285 35.571 54.1523 35.9333 54.4531 36.3936C54.7585 36.8538 54.9111 37.3802 54.9111 37.9727H52.874C52.874 37.681 52.8125 37.4258 52.6895 37.207C52.571 36.9837 52.3887 36.8083 52.1426 36.6807C51.901 36.5531 51.5957 36.4893 51.2266 36.4893C50.8711 36.4893 50.5749 36.5439 50.3379 36.6533C50.1009 36.7581 49.9232 36.9017 49.8047 37.084C49.6862 37.2617 49.627 37.4622 49.627 37.6855C49.627 37.8542 49.668 38.0068 49.75 38.1436C49.8366 38.2803 49.9642 38.4079 50.1328 38.5264C50.3014 38.6449 50.5088 38.7565 50.7549 38.8613C51.001 38.9661 51.2858 39.0687 51.6094 39.1689C52.1517 39.333 52.6279 39.5176 53.0381 39.7227C53.4528 39.9277 53.7992 40.1579 54.0771 40.4131C54.3551 40.6683 54.5648 40.9577 54.7061 41.2812C54.8473 41.6048 54.918 41.9717 54.918 42.3818C54.918 42.8148 54.8337 43.2021 54.665 43.5439C54.4964 43.8857 54.2526 44.1751 53.9336 44.4121C53.6146 44.6491 53.234 44.8291 52.792 44.9521C52.3499 45.0752 51.8555 45.1367 51.3086 45.1367C50.8164 45.1367 50.3311 45.0729 49.8525 44.9453C49.374 44.8132 48.9388 44.6149 48.5469 44.3506C48.1595 44.0863 47.8496 43.749 47.6172 43.3389C47.3848 42.9287 47.2686 42.4434 47.2686 41.8828H49.3262C49.3262 42.1927 49.374 42.4548 49.4697 42.6689C49.5654 42.8831 49.6999 43.0563 49.873 43.1885C50.0508 43.3206 50.2604 43.4163 50.502 43.4756C50.748 43.5348 51.0169 43.5645 51.3086 43.5645C51.6641 43.5645 51.9557 43.5143 52.1836 43.4141C52.416 43.3138 52.5869 43.1748 52.6963 42.9971C52.8102 42.8193 52.8672 42.6188 52.8672 42.3955ZM62.082 41.6982H64.126C64.085 42.3682 63.9004 42.9629 63.5723 43.4824C63.2487 44.002 62.7952 44.4076 62.2119 44.6992C61.6331 44.9909 60.9359 45.1367 60.1201 45.1367C59.4821 45.1367 58.9102 45.0273 58.4043 44.8086C57.8984 44.5853 57.4655 44.2663 57.1055 43.8516C56.75 43.4368 56.4788 42.9355 56.292 42.3477C56.1051 41.7598 56.0117 41.1012 56.0117 40.3721V39.6816C56.0117 38.9525 56.1074 38.2939 56.2988 37.7061C56.4948 37.1136 56.7728 36.61 57.1328 36.1953C57.4974 35.7806 57.9326 35.4616 58.4385 35.2383C58.9443 35.015 59.5094 34.9033 60.1338 34.9033C60.9632 34.9033 61.6628 35.0537 62.2324 35.3545C62.8066 35.6553 63.251 36.07 63.5654 36.5986C63.8844 37.1273 64.0758 37.7288 64.1396 38.4033H62.0889C62.0661 38.0023 61.9863 37.6628 61.8496 37.3848C61.7129 37.1022 61.5055 36.8903 61.2275 36.749C60.9541 36.6032 60.5895 36.5303 60.1338 36.5303C59.792 36.5303 59.4935 36.5941 59.2383 36.7217C58.9831 36.8493 58.7689 37.043 58.5957 37.3027C58.4225 37.5625 58.2926 37.8906 58.2061 38.2871C58.124 38.679 58.083 39.1393 58.083 39.668V40.3721C58.083 40.887 58.1217 41.3405 58.1992 41.7324C58.2767 42.1198 58.3952 42.4479 58.5547 42.7168C58.7188 42.9811 58.9284 43.1816 59.1836 43.3184C59.4434 43.4505 59.7555 43.5166 60.1201 43.5166C60.5485 43.5166 60.9017 43.4482 61.1797 43.3115C61.4577 43.1748 61.6696 42.972 61.8154 42.7031C61.9658 42.4342 62.0547 42.0993 62.082 41.6982ZM65.4727 35.0469H69.1846C69.9456 35.0469 70.5996 35.1608 71.1465 35.3887C71.6979 35.6165 72.1217 35.9538 72.418 36.4004C72.7142 36.847 72.8623 37.3962 72.8623 38.0479C72.8623 38.5811 72.7712 39.0391 72.5889 39.4219C72.4111 39.8001 72.1582 40.1169 71.8301 40.3721C71.5065 40.6227 71.126 40.8232 70.6885 40.9736L70.0391 41.3154H66.8125L66.7988 39.7158H69.1982C69.5583 39.7158 69.8568 39.652 70.0938 39.5244C70.3307 39.3968 70.5085 39.2191 70.627 38.9912C70.75 38.7633 70.8115 38.499 70.8115 38.1982C70.8115 37.8792 70.7523 37.6035 70.6338 37.3711C70.5153 37.1387 70.3353 36.9609 70.0938 36.8379C69.8522 36.7148 69.5492 36.6533 69.1846 36.6533H67.5234V45H65.4727V35.0469ZM71.0371 45L68.7676 40.5635L70.9346 40.5498L73.2314 44.9043V45H71.0371ZM76.6221 35.0469V45H74.5781V35.0469H76.6221ZM82.4395 40.6318H79.8828L79.8691 39.2236H82.0156C82.3939 39.2236 82.7038 39.1758 82.9453 39.0801C83.1868 38.9798 83.3669 38.8363 83.4854 38.6494C83.6084 38.458 83.6699 38.2256 83.6699 37.9521C83.6699 37.6423 83.6107 37.3916 83.4922 37.2002C83.3783 37.0088 83.1982 36.8698 82.9521 36.7832C82.7106 36.6966 82.3984 36.6533 82.0156 36.6533H80.5938V45H78.543V35.0469H82.0156C82.5944 35.0469 83.1117 35.1016 83.5674 35.2109C84.0277 35.3203 84.4173 35.4867 84.7363 35.71C85.0553 35.9333 85.2992 36.2158 85.4678 36.5576C85.6364 36.8949 85.7207 37.2959 85.7207 37.7607C85.7207 38.1709 85.6273 38.5492 85.4404 38.8955C85.2581 39.2419 84.9688 39.5244 84.5723 39.7432C84.1803 39.9619 83.6676 40.0827 83.0342 40.1055L82.4395 40.6318ZM82.3506 45H79.3223L80.1221 43.4004H82.3506C82.7106 43.4004 83.0046 43.3434 83.2324 43.2295C83.4603 43.111 83.6289 42.9515 83.7383 42.751C83.8477 42.5505 83.9023 42.3203 83.9023 42.0605C83.9023 41.7689 83.8522 41.516 83.752 41.3018C83.6562 41.0876 83.5013 40.9235 83.2871 40.8096C83.0729 40.6911 82.7904 40.6318 82.4395 40.6318H80.4639L80.4775 39.2236H82.9385L83.4102 39.7773C84.0163 39.7682 84.5039 39.8753 84.873 40.0986C85.2467 40.3174 85.5179 40.6022 85.6865 40.9531C85.8597 41.304 85.9463 41.68 85.9463 42.0811C85.9463 42.7191 85.8073 43.2568 85.5293 43.6943C85.2513 44.1273 84.8434 44.4531 84.3057 44.6719C83.7725 44.8906 83.1208 45 82.3506 45ZM94.1631 43.4004V45H88.8652V43.4004H94.1631ZM89.5352 35.0469V45H87.4844V35.0469H89.5352ZM93.4727 39.1006V40.6592H88.8652V39.1006H93.4727ZM94.1562 35.0469V36.6533H88.8652V35.0469H94.1562ZM100.541 42.3955C100.541 42.2178 100.514 42.0583 100.459 41.917C100.409 41.7712 100.313 41.639 100.172 41.5205C100.031 41.3975 99.8324 41.2767 99.5771 41.1582C99.3219 41.0397 98.9915 40.9167 98.5859 40.7891C98.1348 40.6432 97.7064 40.4792 97.3008 40.2969C96.8997 40.1146 96.5443 39.9027 96.2344 39.6611C95.929 39.415 95.6875 39.1302 95.5098 38.8066C95.3366 38.4831 95.25 38.1071 95.25 37.6787C95.25 37.264 95.3411 36.888 95.5234 36.5508C95.7057 36.209 95.9609 35.9173 96.2891 35.6758C96.6172 35.4297 97.0046 35.2406 97.4512 35.1084C97.9023 34.9762 98.3968 34.9102 98.9346 34.9102C99.6683 34.9102 100.309 35.0423 100.855 35.3066C101.402 35.571 101.826 35.9333 102.127 36.3936C102.432 36.8538 102.585 37.3802 102.585 37.9727H100.548C100.548 37.681 100.486 37.4258 100.363 37.207C100.245 36.9837 100.062 36.8083 99.8164 36.6807C99.5749 36.5531 99.2695 36.4893 98.9004 36.4893C98.5449 36.4893 98.2487 36.5439 98.0117 36.6533C97.7747 36.7581 97.597 36.9017 97.4785 37.084C97.36 37.2617 97.3008 37.4622 97.3008 37.6855C97.3008 37.8542 97.3418 38.0068 97.4238 38.1436C97.5104 38.2803 97.638 38.4079 97.8066 38.5264C97.9753 38.6449 98.1826 38.7565 98.4287 38.8613C98.6748 38.9661 98.9596 39.0687 99.2832 39.1689C99.8255 39.333 100.302 39.5176 100.712 39.7227C101.127 39.9277 101.473 40.1579 101.751 40.4131C102.029 40.6683 102.239 40.9577 102.38 41.2812C102.521 41.6048 102.592 41.9717 102.592 42.3818C102.592 42.8148 102.507 43.2021 102.339 43.5439C102.17 43.8857 101.926 44.1751 101.607 44.4121C101.288 44.6491 100.908 44.8291 100.466 44.9521C100.024 45.0752 99.5293 45.1367 98.9824 45.1367C98.4902 45.1367 98.0049 45.0729 97.5264 44.9453C97.0479 44.8132 96.6126 44.6149 96.2207 44.3506C95.8333 44.0863 95.5234 43.749 95.291 43.3389C95.0586 42.9287 94.9424 42.4434 94.9424 41.8828H97C97 42.1927 97.0479 42.4548 97.1436 42.6689C97.2393 42.8831 97.3737 43.0563 97.5469 43.1885C97.7246 43.3206 97.9342 43.4163 98.1758 43.4756C98.4219 43.5348 98.6908 43.5645 98.9824 43.5645C99.3379 43.5645 99.6296 43.5143 99.8574 43.4141C100.09 43.3138 100.261 43.1748 100.37 42.9971C100.484 42.8193 100.541 42.6188 100.541 42.3955Z" fill="white"/>
</svg>
