<svg width="224" height="40" viewBox="0 0 224 40" fill="none" xmlns="http://www.w3.org/2000/svg">
<g clip-path="url(#clip0_1142_921)">
<path d="M39.36 17.96C39.36 19.05 38.69 19.63 38.05 20.2C37.52 20.67 37.02 21.1 36.89 21.8L36.85 22H35.1L35.13 21.72C35.27 20.55 35.93 19.96 36.6 19.45C37.12 19.05 37.61 18.68 37.61 17.96C37.61 17.45 37.38 16.99 36.98 16.67C36.58 16.36 36.06 16.25 35.56 16.38C34.97 16.53 34.51 17.05 34.37 17.72L34.32 18H32.57L32.63 17.58C32.83 16.18 33.78 15.05 35.05 14.71C36.1 14.42 37.19 14.63 38.03 15.28C38.88 15.92 39.36 16.9 39.36 17.96ZM36 26C36.55 26 37 25.55 37 25C37 24.45 36.55 24 36 24C35.45 24 35 24.45 35 25C35 25.55 35.45 26 36 26ZM36 11C31.04 11 27 15.04 27 20C27 24.96 31.04 29 36 29C40.96 29 45 24.96 45 20C45 15.04 40.96 11 36 11ZM36 10C41.52 10 46 14.48 46 20C46 25.52 41.52 30 36 30C30.48 30 26 25.52 26 20C26 14.48 30.48 10 36 10Z" fill="white"/>
</g>
<path d="M79.6562 19.3262V20.3994H74.2695V19.3262H79.6562ZM74.4746 15.0469V25H73.1553V15.0469H74.4746ZM80.8047 15.0469V25H79.4922V15.0469H80.8047ZM86.0273 25.1367C85.5124 25.1367 85.0452 25.0501 84.626 24.877C84.2113 24.6992 83.8535 24.4508 83.5527 24.1318C83.2565 23.8128 83.0286 23.4346 82.8691 22.9971C82.7096 22.5596 82.6299 22.0811 82.6299 21.5615V21.2744C82.6299 20.6729 82.7188 20.1374 82.8965 19.668C83.0742 19.194 83.3158 18.793 83.6211 18.4648C83.9264 18.1367 84.2728 17.8883 84.6602 17.7197C85.0475 17.5511 85.4486 17.4668 85.8633 17.4668C86.3919 17.4668 86.8477 17.5579 87.2305 17.7402C87.6178 17.9225 87.9346 18.1777 88.1807 18.5059C88.4268 18.8294 88.609 19.2122 88.7275 19.6543C88.846 20.0918 88.9053 20.5703 88.9053 21.0898V21.6572H83.3818V20.625H87.6406V20.5293C87.6224 20.2012 87.554 19.8822 87.4355 19.5723C87.3216 19.2624 87.1393 19.0072 86.8887 18.8066C86.638 18.6061 86.2962 18.5059 85.8633 18.5059C85.5762 18.5059 85.3118 18.5674 85.0703 18.6904C84.8288 18.8089 84.6214 18.9867 84.4482 19.2236C84.2751 19.4606 84.1406 19.75 84.0449 20.0918C83.9492 20.4336 83.9014 20.8278 83.9014 21.2744V21.5615C83.9014 21.9124 83.9492 22.2428 84.0449 22.5527C84.1452 22.8581 84.2887 23.127 84.4756 23.3594C84.667 23.5918 84.8971 23.7741 85.166 23.9062C85.4395 24.0384 85.7493 24.1045 86.0957 24.1045C86.5423 24.1045 86.9206 24.0133 87.2305 23.8311C87.5404 23.6488 87.8115 23.4049 88.0439 23.0996L88.8096 23.708C88.6501 23.9495 88.4473 24.1797 88.2012 24.3984C87.9551 24.6172 87.652 24.7949 87.292 24.9316C86.9365 25.0684 86.515 25.1367 86.0273 25.1367ZM91.7559 14.5V25H90.4844V14.5H91.7559ZM95.0508 19.0254V27.8438H93.7793V17.6035H94.9414L95.0508 19.0254ZM100.034 21.2402V21.3838C100.034 21.9215 99.9704 22.4206 99.8428 22.8809C99.7152 23.3366 99.5283 23.7331 99.2822 24.0703C99.0407 24.4076 98.7422 24.6696 98.3867 24.8564C98.0312 25.0433 97.6234 25.1367 97.1631 25.1367C96.6937 25.1367 96.279 25.0592 95.9189 24.9043C95.5589 24.7493 95.2536 24.5238 95.0029 24.2275C94.7523 23.9313 94.5518 23.5758 94.4014 23.1611C94.2555 22.7464 94.1553 22.2793 94.1006 21.7598V20.9941C94.1553 20.4473 94.2578 19.9574 94.4082 19.5244C94.5586 19.0915 94.7568 18.7223 95.0029 18.417C95.2536 18.1071 95.5566 17.8724 95.9121 17.7129C96.2676 17.5488 96.6777 17.4668 97.1426 17.4668C97.6074 17.4668 98.0199 17.5579 98.3799 17.7402C98.7399 17.918 99.043 18.1732 99.2891 18.5059C99.5352 18.8385 99.7197 19.2373 99.8428 19.7021C99.9704 20.1624 100.034 20.6751 100.034 21.2402ZM98.7627 21.3838V21.2402C98.7627 20.8711 98.724 20.5247 98.6465 20.2012C98.569 19.873 98.4482 19.5859 98.2842 19.3398C98.1247 19.0892 97.9196 18.8932 97.6689 18.752C97.4183 18.6061 97.1198 18.5332 96.7734 18.5332C96.4544 18.5332 96.1764 18.5879 95.9395 18.6973C95.707 18.8066 95.5088 18.9548 95.3447 19.1416C95.1807 19.3239 95.0462 19.5335 94.9414 19.7705C94.8411 20.0029 94.766 20.2445 94.7158 20.4951V22.2656C94.807 22.5846 94.9346 22.8854 95.0986 23.168C95.2627 23.446 95.4814 23.6715 95.7549 23.8447C96.0283 24.0133 96.3724 24.0977 96.7871 24.0977C97.1289 24.0977 97.4229 24.027 97.6689 23.8857C97.9196 23.7399 98.1247 23.5417 98.2842 23.291C98.4482 23.0404 98.569 22.7533 98.6465 22.4297C98.724 22.1016 98.7627 21.7529 98.7627 21.3838Z" fill="white"/>
<defs>
<clipPath id="clip0_1142_921">
<rect width="24" height="24" fill="white" transform="translate(24 8)"/>
</clipPath>
</defs>
</svg>
