<svg width="24" height="24" viewBox="0 0 24 24" fill="none" xmlns="http://www.w3.org/2000/svg">
<g id="history">
<g id="Group">
<path id="Vector" d="M14.97 16.95L9.99996 13.87V7H12V12.76L16.03 15.25L14.97 16.95ZM22 12C22 17.51 17.51 22 12 22C6.48996 22 1.99996 17.51 1.99996 12H2.99996C2.99996 16.96 7.03996 21 12 21C16.96 21 21 16.96 21 12C21 7.04 16.96 3 12 3C8.80996 3 5.91996 4.64 4.27996 7.38C4.16996 7.56 4.05996 7.75 3.96996 7.94C3.95996 7.96 3.94996 7.98 3.93996 8H7.99996V9H1.95996V3H2.95996V7.74C2.99996 7.65 3.02996 7.57 3.06996 7.49C3.17996 7.27 3.29996 7.07 3.41996 6.86C5.21996 3.86 8.50996 2 12 2C17.51 2 22 6.49 22 12Z" fill="white"/>
</g>
</g>
</svg>
