<svg width="224" height="40" viewBox="0 0 224 40" fill="none" xmlns="http://www.w3.org/2000/svg">
<g clip-path="url(#clip0_1142_761)">
<path d="M38.97 24.95L34 21.87V15H36V20.76L40.03 23.25L38.97 24.95ZM46 20C46 25.51 41.51 30 36 30C30.49 30 26 25.51 26 20H27C27 24.96 31.04 29 36 29C40.96 29 45 24.96 45 20C45 15.04 40.96 11 36 11C32.81 11 29.92 12.64 28.28 15.38C28.17 15.56 28.06 15.75 27.97 15.94C27.96 15.96 27.95 15.98 27.94 16H32V17H25.96V11H26.96V15.74C27 15.65 27.03 15.57 27.07 15.49C27.18 15.27 27.3 15.07 27.42 14.86C29.22 11.86 32.51 10 36 10C41.51 10 46 14.49 46 20Z" fill="white"/>
</g>
<path d="M79.6562 19.3262V20.3994H74.2695V19.3262H79.6562ZM74.4746 15.0469V25H73.1553V15.0469H74.4746ZM80.8047 15.0469V25H79.4922V15.0469H80.8047ZM84.332 17.6035V25H83.0605V17.6035H84.332ZM82.9648 15.6416C82.9648 15.4365 83.0264 15.2633 83.1494 15.1221C83.277 14.9808 83.4639 14.9102 83.71 14.9102C83.9515 14.9102 84.1361 14.9808 84.2637 15.1221C84.3958 15.2633 84.4619 15.4365 84.4619 15.6416C84.4619 15.8376 84.3958 16.0062 84.2637 16.1475C84.1361 16.2842 83.9515 16.3525 83.71 16.3525C83.4639 16.3525 83.277 16.2842 83.1494 16.1475C83.0264 16.0062 82.9648 15.8376 82.9648 15.6416ZM90.6689 23.0381C90.6689 22.8558 90.6279 22.6872 90.5459 22.5322C90.4684 22.3727 90.3066 22.2292 90.0605 22.1016C89.819 21.9694 89.4544 21.8555 88.9668 21.7598C88.5566 21.6732 88.1852 21.5706 87.8525 21.4521C87.5244 21.3337 87.2441 21.1901 87.0117 21.0215C86.7839 20.8529 86.6084 20.6546 86.4854 20.4268C86.3623 20.1989 86.3008 19.9323 86.3008 19.627C86.3008 19.3353 86.3646 19.0596 86.4922 18.7998C86.6243 18.54 86.8089 18.3099 87.0459 18.1094C87.2874 17.9089 87.5768 17.7516 87.9141 17.6377C88.2513 17.5238 88.6273 17.4668 89.042 17.4668C89.6344 17.4668 90.1403 17.5716 90.5596 17.7812C90.9788 17.9909 91.3001 18.2712 91.5234 18.6221C91.7467 18.9684 91.8584 19.3535 91.8584 19.7773H90.5938C90.5938 19.5723 90.5322 19.374 90.4092 19.1826C90.2907 18.9867 90.1152 18.8249 89.8828 18.6973C89.6549 18.5697 89.3747 18.5059 89.042 18.5059C88.6911 18.5059 88.4062 18.5605 88.1875 18.6699C87.9733 18.7747 87.8161 18.9092 87.7158 19.0732C87.6201 19.2373 87.5723 19.4105 87.5723 19.5928C87.5723 19.7295 87.5951 19.8525 87.6406 19.9619C87.6908 20.0667 87.7773 20.1647 87.9004 20.2559C88.0234 20.3424 88.1966 20.4245 88.4199 20.502C88.6432 20.5794 88.9281 20.6569 89.2744 20.7344C89.8805 20.8711 90.3796 21.0352 90.7715 21.2266C91.1634 21.418 91.4551 21.6527 91.6465 21.9307C91.8379 22.2087 91.9336 22.5459 91.9336 22.9424C91.9336 23.266 91.8652 23.5622 91.7285 23.8311C91.5964 24.0999 91.4027 24.3324 91.1475 24.5283C90.8968 24.7197 90.596 24.8701 90.2451 24.9795C89.8988 25.0843 89.5091 25.1367 89.0762 25.1367C88.4245 25.1367 87.873 25.0205 87.4219 24.7881C86.9707 24.5557 86.6289 24.2549 86.3965 23.8857C86.1641 23.5166 86.0479 23.127 86.0479 22.7168H87.3193C87.3376 23.0632 87.4378 23.3389 87.6201 23.5439C87.8024 23.7445 88.0257 23.888 88.29 23.9746C88.5544 24.0566 88.8164 24.0977 89.0762 24.0977C89.4225 24.0977 89.7119 24.0521 89.9443 23.9609C90.1813 23.8698 90.3613 23.7445 90.4844 23.585C90.6074 23.4255 90.6689 23.2432 90.6689 23.0381ZM96.6914 17.6035V18.5742H92.6924V17.6035H96.6914ZM94.0459 15.8057H95.3105V23.168C95.3105 23.4186 95.3493 23.6077 95.4268 23.7354C95.5042 23.863 95.6045 23.9473 95.7275 23.9883C95.8506 24.0293 95.9827 24.0498 96.124 24.0498C96.2288 24.0498 96.3382 24.0407 96.4521 24.0225C96.5706 23.9997 96.6595 23.9814 96.7188 23.9678L96.7256 25C96.6253 25.0319 96.4932 25.0615 96.3291 25.0889C96.1696 25.1208 95.9759 25.1367 95.748 25.1367C95.4382 25.1367 95.1533 25.0752 94.8936 24.9521C94.6338 24.8291 94.4264 24.624 94.2715 24.3369C94.1211 24.0452 94.0459 23.6533 94.0459 23.1611V15.8057ZM97.7031 21.3838V21.2266C97.7031 20.6934 97.7806 20.1989 97.9355 19.7432C98.0905 19.2829 98.3138 18.8841 98.6055 18.5469C98.8971 18.2051 99.2503 17.9408 99.665 17.7539C100.08 17.5625 100.545 17.4668 101.06 17.4668C101.579 17.4668 102.046 17.5625 102.461 17.7539C102.88 17.9408 103.236 18.2051 103.527 18.5469C103.824 18.8841 104.049 19.2829 104.204 19.7432C104.359 20.1989 104.437 20.6934 104.437 21.2266V21.3838C104.437 21.917 104.359 22.4115 104.204 22.8672C104.049 23.3229 103.824 23.7217 103.527 24.0635C103.236 24.4007 102.882 24.665 102.468 24.8564C102.058 25.0433 101.593 25.1367 101.073 25.1367C100.554 25.1367 100.087 25.0433 99.6719 24.8564C99.2572 24.665 98.9017 24.4007 98.6055 24.0635C98.3138 23.7217 98.0905 23.3229 97.9355 22.8672C97.7806 22.4115 97.7031 21.917 97.7031 21.3838ZM98.9678 21.2266V21.3838C98.9678 21.7529 99.0111 22.1016 99.0977 22.4297C99.1842 22.7533 99.3141 23.0404 99.4873 23.291C99.665 23.5417 99.8861 23.7399 100.15 23.8857C100.415 24.027 100.722 24.0977 101.073 24.0977C101.42 24.0977 101.723 24.027 101.982 23.8857C102.247 23.7399 102.465 23.5417 102.639 23.291C102.812 23.0404 102.942 22.7533 103.028 22.4297C103.119 22.1016 103.165 21.7529 103.165 21.3838V21.2266C103.165 20.862 103.119 20.5179 103.028 20.1943C102.942 19.8662 102.81 19.5768 102.632 19.3262C102.459 19.071 102.24 18.8704 101.976 18.7246C101.716 18.5788 101.41 18.5059 101.06 18.5059C100.713 18.5059 100.408 18.5788 100.144 18.7246C99.8838 18.8704 99.665 19.071 99.4873 19.3262C99.3141 19.5768 99.1842 19.8662 99.0977 20.1943C99.0111 20.5179 98.9678 20.862 98.9678 21.2266ZM107.287 18.7656V25H106.022V17.6035H107.253L107.287 18.7656ZM109.598 17.5625L109.591 18.7383C109.486 18.7155 109.386 18.7018 109.29 18.6973C109.199 18.6882 109.094 18.6836 108.976 18.6836C108.684 18.6836 108.426 18.7292 108.203 18.8203C107.98 18.9115 107.791 19.0391 107.636 19.2031C107.481 19.3672 107.358 19.5632 107.267 19.791C107.18 20.0143 107.123 20.2604 107.096 20.5293L106.74 20.7344C106.74 20.2878 106.784 19.8685 106.87 19.4766C106.961 19.0846 107.1 18.7383 107.287 18.4375C107.474 18.1322 107.711 17.8952 107.998 17.7266C108.29 17.5534 108.636 17.4668 109.037 17.4668C109.128 17.4668 109.233 17.4782 109.352 17.501C109.47 17.5192 109.552 17.5397 109.598 17.5625ZM112.968 24.2344L115.025 17.6035H116.379L113.412 26.1416C113.344 26.3239 113.253 26.5199 113.139 26.7295C113.029 26.9437 112.888 27.1465 112.715 27.3379C112.542 27.5293 112.332 27.6842 112.086 27.8027C111.844 27.9258 111.555 27.9873 111.218 27.9873C111.118 27.9873 110.99 27.9736 110.835 27.9463C110.68 27.9189 110.571 27.8962 110.507 27.8779L110.5 26.8525C110.536 26.8571 110.593 26.8617 110.671 26.8662C110.753 26.8753 110.81 26.8799 110.842 26.8799C111.129 26.8799 111.373 26.8411 111.573 26.7637C111.774 26.6908 111.942 26.5654 112.079 26.3877C112.22 26.2145 112.341 25.9753 112.441 25.6699L112.968 24.2344ZM111.457 17.6035L113.378 23.3457L113.706 24.6787L112.797 25.1436L110.076 17.6035H111.457Z" fill="white"/>
<defs>
<clipPath id="clip0_1142_761">
<rect width="24" height="24" fill="white" transform="translate(24 8)"/>
</clipPath>
</defs>
</svg>
