<svg width="224" height="40" viewBox="0 0 224 40" fill="none" xmlns="http://www.w3.org/2000/svg">
<rect width="224" height="40" fill="#303030"/>
<g clip-path="url(#clip0_1282_726)">
<path d="M28 18V29H34V23H38V29H44V18L36 11L28 18Z" fill="white"/>
</g>
<path d="M79.6562 19.3262V20.3994H74.2695V19.3262H79.6562ZM74.4746 15.0469V25H73.1553V15.0469H74.4746ZM80.8047 15.0469V25H79.4922V15.0469H80.8047ZM82.623 21.3838V21.2266C82.623 20.6934 82.7005 20.1989 82.8555 19.7432C83.0104 19.2829 83.2337 18.8841 83.5254 18.5469C83.8171 18.2051 84.1702 17.9408 84.585 17.7539C84.9997 17.5625 85.4645 17.4668 85.9795 17.4668C86.499 17.4668 86.9661 17.5625 87.3809 17.7539C87.8001 17.9408 88.1556 18.2051 88.4473 18.5469C88.7435 18.8841 88.9691 19.2829 89.124 19.7432C89.279 20.1989 89.3564 20.6934 89.3564 21.2266V21.3838C89.3564 21.917 89.279 22.4115 89.124 22.8672C88.9691 23.3229 88.7435 23.7217 88.4473 24.0635C88.1556 24.4007 87.8024 24.665 87.3877 24.8564C86.9775 25.0433 86.5127 25.1367 85.9932 25.1367C85.4736 25.1367 85.0065 25.0433 84.5918 24.8564C84.1771 24.665 83.8216 24.4007 83.5254 24.0635C83.2337 23.7217 83.0104 23.3229 82.8555 22.8672C82.7005 22.4115 82.623 21.917 82.623 21.3838ZM83.8877 21.2266V21.3838C83.8877 21.7529 83.931 22.1016 84.0176 22.4297C84.1042 22.7533 84.234 23.0404 84.4072 23.291C84.585 23.5417 84.806 23.7399 85.0703 23.8857C85.3346 24.027 85.6423 24.0977 85.9932 24.0977C86.3395 24.0977 86.6426 24.027 86.9023 23.8857C87.1667 23.7399 87.3854 23.5417 87.5586 23.291C87.7318 23.0404 87.8617 22.7533 87.9482 22.4297C88.0394 22.1016 88.085 21.7529 88.085 21.3838V21.2266C88.085 20.862 88.0394 20.5179 87.9482 20.1943C87.8617 19.8662 87.7295 19.5768 87.5518 19.3262C87.3786 19.071 87.1598 18.8704 86.8955 18.7246C86.6357 18.5788 86.3304 18.5059 85.9795 18.5059C85.6331 18.5059 85.3278 18.5788 85.0635 18.7246C84.8037 18.8704 84.585 19.071 84.4072 19.3262C84.234 19.5768 84.1042 19.8662 84.0176 20.1943C83.931 20.5179 83.8877 20.862 83.8877 21.2266ZM92.2002 19.0732V25H90.9287V17.6035H92.1318L92.2002 19.0732ZM91.9404 21.0215L91.3525 21.001C91.3571 20.4951 91.4232 20.028 91.5508 19.5996C91.6784 19.1667 91.8675 18.7907 92.1182 18.4717C92.3688 18.1527 92.681 17.9066 93.0547 17.7334C93.4284 17.5557 93.8613 17.4668 94.3535 17.4668C94.6999 17.4668 95.0189 17.5169 95.3105 17.6172C95.6022 17.7129 95.8551 17.8656 96.0693 18.0752C96.2835 18.2848 96.4499 18.5537 96.5684 18.8818C96.6868 19.21 96.7461 19.6064 96.7461 20.0713V25H95.4814V20.1328C95.4814 19.7454 95.4154 19.4355 95.2832 19.2031C95.1556 18.9707 94.9733 18.8021 94.7363 18.6973C94.4993 18.5879 94.2214 18.5332 93.9023 18.5332C93.5286 18.5332 93.2165 18.5993 92.9658 18.7314C92.7152 18.8636 92.5146 19.0459 92.3643 19.2783C92.2139 19.5107 92.1045 19.7773 92.0361 20.0781C91.9723 20.3743 91.9404 20.6888 91.9404 21.0215ZM96.7324 20.3242L95.8848 20.584C95.8893 20.1784 95.9554 19.7887 96.083 19.415C96.2152 19.0413 96.4043 18.7087 96.6504 18.417C96.901 18.1253 97.2087 17.8952 97.5732 17.7266C97.9378 17.5534 98.3548 17.4668 98.8242 17.4668C99.2207 17.4668 99.5716 17.5192 99.877 17.624C100.187 17.7288 100.447 17.8906 100.656 18.1094C100.87 18.3236 101.032 18.5993 101.142 18.9365C101.251 19.2738 101.306 19.6748 101.306 20.1396V25H100.034V20.126C100.034 19.7113 99.9681 19.39 99.8359 19.1621C99.7083 18.9297 99.526 18.7679 99.2891 18.6768C99.0566 18.5811 98.7786 18.5332 98.4551 18.5332C98.1771 18.5332 97.931 18.5811 97.7168 18.6768C97.5026 18.7725 97.3226 18.9046 97.1768 19.0732C97.0309 19.2373 96.9193 19.4264 96.8418 19.6406C96.7689 19.8548 96.7324 20.0827 96.7324 20.3242ZM106.289 25.1367C105.774 25.1367 105.307 25.0501 104.888 24.877C104.473 24.6992 104.115 24.4508 103.814 24.1318C103.518 23.8128 103.29 23.4346 103.131 22.9971C102.971 22.5596 102.892 22.0811 102.892 21.5615V21.2744C102.892 20.6729 102.98 20.1374 103.158 19.668C103.336 19.194 103.577 18.793 103.883 18.4648C104.188 18.1367 104.535 17.8883 104.922 17.7197C105.309 17.5511 105.71 17.4668 106.125 17.4668C106.654 17.4668 107.109 17.5579 107.492 17.7402C107.88 17.9225 108.196 18.1777 108.442 18.5059C108.688 18.8294 108.871 19.2122 108.989 19.6543C109.108 20.0918 109.167 20.5703 109.167 21.0898V21.6572H103.644V20.625H107.902V20.5293C107.884 20.2012 107.816 19.8822 107.697 19.5723C107.583 19.2624 107.401 19.0072 107.15 18.8066C106.9 18.6061 106.558 18.5059 106.125 18.5059C105.838 18.5059 105.574 18.5674 105.332 18.6904C105.09 18.8089 104.883 18.9867 104.71 19.2236C104.537 19.4606 104.402 19.75 104.307 20.0918C104.211 20.4336 104.163 20.8278 104.163 21.2744V21.5615C104.163 21.9124 104.211 22.2428 104.307 22.5527C104.407 22.8581 104.55 23.127 104.737 23.3594C104.929 23.5918 105.159 23.7741 105.428 23.9062C105.701 24.0384 106.011 24.1045 106.357 24.1045C106.804 24.1045 107.182 24.0133 107.492 23.8311C107.802 23.6488 108.073 23.4049 108.306 23.0996L109.071 23.708C108.912 23.9495 108.709 24.1797 108.463 24.3984C108.217 24.6172 107.914 24.7949 107.554 24.9316C107.198 25.0684 106.777 25.1367 106.289 25.1367Z" fill="white"/>
<defs>
<clipPath id="clip0_1282_726">
<rect width="24" height="24" fill="white" transform="translate(24 8)"/>
</clipPath>
</defs>
</svg>
