<svg width="224" height="40" viewBox="0 0 224 40" fill="none" xmlns="http://www.w3.org/2000/svg">
<g clip-path="url(#clip0_1142_753)">
<path d="M35 15L41 18.5L35 22V15ZM42 28H28V14H27V29H42V28ZM45 26H30V11H45V26ZM31 25H44V12H31V25Z" fill="white"/>
</g>
<path d="M79.1914 23.9268V25H74.2148V23.9268H79.1914ZM74.4746 15.0469V25H73.1553V15.0469H74.4746ZM82.1172 15.0469V25H80.7979V15.0469H82.1172ZM80.709 13.4473C80.709 13.2467 80.7705 13.0758 80.8936 12.9346C81.0212 12.7933 81.208 12.7227 81.4541 12.7227C81.6956 12.7227 81.8802 12.7933 82.0078 12.9346C82.14 13.0758 82.2061 13.2467 82.2061 13.4473C82.2061 13.6478 82.14 13.8187 82.0078 13.96C81.8802 14.0967 81.6956 14.165 81.4541 14.165C81.208 14.165 81.0212 14.0967 80.8936 13.96C80.7705 13.8187 80.709 13.6478 80.709 13.4473ZM84.3184 14.5H85.5898V23.5645L85.4805 25H84.3184V14.5ZM90.5869 21.2402V21.3838C90.5869 21.9215 90.5231 22.4206 90.3955 22.8809C90.2679 23.3366 90.0811 23.7331 89.835 24.0703C89.5889 24.4076 89.2881 24.6696 88.9326 24.8564C88.5771 25.0433 88.1693 25.1367 87.709 25.1367C87.2396 25.1367 86.8271 25.057 86.4717 24.8975C86.1208 24.7334 85.8245 24.4987 85.583 24.1934C85.3415 23.888 85.1478 23.5189 85.002 23.0859C84.8607 22.653 84.7627 22.1654 84.708 21.623V20.9941C84.7627 20.4473 84.8607 19.9574 85.002 19.5244C85.1478 19.0915 85.3415 18.7223 85.583 18.417C85.8245 18.1071 86.1208 17.8724 86.4717 17.7129C86.8226 17.5488 87.2305 17.4668 87.6953 17.4668C88.1602 17.4668 88.5726 17.5579 88.9326 17.7402C89.2926 17.918 89.5934 18.1732 89.835 18.5059C90.0811 18.8385 90.2679 19.2373 90.3955 19.7021C90.5231 20.1624 90.5869 20.6751 90.5869 21.2402ZM89.3154 21.3838V21.2402C89.3154 20.8711 89.2812 20.5247 89.2129 20.2012C89.1445 19.873 89.0352 19.5859 88.8848 19.3398C88.7344 19.0892 88.5361 18.8932 88.29 18.752C88.0439 18.6061 87.7409 18.5332 87.3809 18.5332C87.0618 18.5332 86.7839 18.5879 86.5469 18.6973C86.3145 18.8066 86.1162 18.9548 85.9521 19.1416C85.7881 19.3239 85.6536 19.5335 85.5488 19.7705C85.4486 20.0029 85.3734 20.2445 85.3232 20.4951V22.1426C85.3962 22.4616 85.5146 22.7692 85.6787 23.0654C85.8473 23.3571 86.0706 23.5964 86.3486 23.7832C86.6312 23.9701 86.9798 24.0635 87.3945 24.0635C87.7363 24.0635 88.028 23.9951 88.2695 23.8584C88.5156 23.7171 88.7139 23.5234 88.8643 23.2773C89.0192 23.0312 89.1331 22.7464 89.2061 22.4229C89.279 22.0993 89.3154 21.7529 89.3154 21.3838ZM93.4512 18.7656V25H92.1865V17.6035H93.417L93.4512 18.7656ZM95.7617 17.5625L95.7549 18.7383C95.6501 18.7155 95.5498 18.7018 95.4541 18.6973C95.363 18.6882 95.2581 18.6836 95.1396 18.6836C94.848 18.6836 94.5905 18.7292 94.3672 18.8203C94.1439 18.9115 93.9548 19.0391 93.7998 19.2031C93.6449 19.3672 93.5218 19.5632 93.4307 19.791C93.3441 20.0143 93.2871 20.2604 93.2598 20.5293L92.9043 20.7344C92.9043 20.2878 92.9476 19.8685 93.0342 19.4766C93.1253 19.0846 93.2643 18.7383 93.4512 18.4375C93.638 18.1322 93.875 17.8952 94.1621 17.7266C94.4538 17.5534 94.8001 17.4668 95.2012 17.4668C95.2923 17.4668 95.3971 17.4782 95.5156 17.501C95.6341 17.5192 95.7161 17.5397 95.7617 17.5625ZM101.019 23.7354V19.9277C101.019 19.6361 100.959 19.3831 100.841 19.1689C100.727 18.9502 100.554 18.7816 100.321 18.6631C100.089 18.5446 99.8018 18.4854 99.46 18.4854C99.141 18.4854 98.8607 18.54 98.6191 18.6494C98.3822 18.7588 98.1953 18.9023 98.0586 19.0801C97.9264 19.2578 97.8604 19.4492 97.8604 19.6543H96.5957C96.5957 19.39 96.6641 19.1279 96.8008 18.8682C96.9375 18.6084 97.1335 18.3737 97.3887 18.1641C97.6484 17.9499 97.9583 17.7812 98.3184 17.6582C98.6829 17.5306 99.0885 17.4668 99.5352 17.4668C100.073 17.4668 100.547 17.5579 100.957 17.7402C101.372 17.9225 101.695 18.1982 101.928 18.5674C102.165 18.932 102.283 19.39 102.283 19.9414V23.3867C102.283 23.6328 102.304 23.8949 102.345 24.1729C102.39 24.4508 102.456 24.6901 102.543 24.8906V25H101.224C101.16 24.8542 101.11 24.6605 101.073 24.4189C101.037 24.1729 101.019 23.945 101.019 23.7354ZM101.237 20.5156L101.251 21.4043H99.9727C99.6126 21.4043 99.2913 21.4339 99.0088 21.4932C98.7262 21.5479 98.4893 21.6322 98.2979 21.7461C98.1064 21.86 97.9606 22.0036 97.8604 22.1768C97.7601 22.3454 97.71 22.5436 97.71 22.7715C97.71 23.0039 97.7624 23.2158 97.8672 23.4072C97.972 23.5986 98.1292 23.7513 98.3389 23.8652C98.5531 23.9746 98.8151 24.0293 99.125 24.0293C99.5124 24.0293 99.8542 23.9473 100.15 23.7832C100.447 23.6191 100.681 23.4186 100.854 23.1816C101.032 22.9447 101.128 22.7145 101.142 22.4912L101.682 23.0996C101.65 23.291 101.563 23.5029 101.422 23.7354C101.281 23.9678 101.091 24.1911 100.854 24.4053C100.622 24.6149 100.344 24.7904 100.021 24.9316C99.7015 25.0684 99.3415 25.1367 98.9404 25.1367C98.4391 25.1367 97.9993 25.0387 97.6211 24.8428C97.2474 24.6468 96.9557 24.3848 96.7461 24.0566C96.541 23.724 96.4385 23.3525 96.4385 22.9424C96.4385 22.5459 96.516 22.1973 96.6709 21.8965C96.8258 21.5911 97.0492 21.3382 97.3408 21.1377C97.6325 20.9326 97.9834 20.7777 98.3936 20.6729C98.8037 20.568 99.2617 20.5156 99.7676 20.5156H101.237ZM105.537 18.7656V25H104.272V17.6035H105.503L105.537 18.7656ZM107.848 17.5625L107.841 18.7383C107.736 18.7155 107.636 18.7018 107.54 18.6973C107.449 18.6882 107.344 18.6836 107.226 18.6836C106.934 18.6836 106.676 18.7292 106.453 18.8203C106.23 18.9115 106.041 19.0391 105.886 19.2031C105.731 19.3672 105.608 19.5632 105.517 19.791C105.43 20.0143 105.373 20.2604 105.346 20.5293L104.99 20.7344C104.99 20.2878 105.034 19.8685 105.12 19.4766C105.211 19.0846 105.35 18.7383 105.537 18.4375C105.724 18.1322 105.961 17.8952 106.248 17.7266C106.54 17.5534 106.886 17.4668 107.287 17.4668C107.378 17.4668 107.483 17.4782 107.602 17.501C107.72 17.5192 107.802 17.5397 107.848 17.5625ZM111.218 24.2344L113.275 17.6035H114.629L111.662 26.1416C111.594 26.3239 111.503 26.5199 111.389 26.7295C111.279 26.9437 111.138 27.1465 110.965 27.3379C110.792 27.5293 110.582 27.6842 110.336 27.8027C110.094 27.9258 109.805 27.9873 109.468 27.9873C109.368 27.9873 109.24 27.9736 109.085 27.9463C108.93 27.9189 108.821 27.8962 108.757 27.8779L108.75 26.8525C108.786 26.8571 108.843 26.8617 108.921 26.8662C109.003 26.8753 109.06 26.8799 109.092 26.8799C109.379 26.8799 109.623 26.8411 109.823 26.7637C110.024 26.6908 110.192 26.5654 110.329 26.3877C110.47 26.2145 110.591 25.9753 110.691 25.6699L111.218 24.2344ZM109.707 17.6035L111.628 23.3457L111.956 24.6787L111.047 25.1436L108.326 17.6035H109.707Z" fill="white"/>
<defs>
<clipPath id="clip0_1142_753">
<rect width="24" height="24" fill="white" transform="translate(24 8)"/>
</clipPath>
</defs>
</svg>
