<svg width="24" height="24" viewBox="0 0 24 24" fill="none" xmlns="http://www.w3.org/2000/svg">
<g id="premium">
<g id="Group">
<path id="Vector" d="M10 9.35L15 12L10 14.65V9.35ZM12 6C9.47427 5.95085 6.94814 6.07782 4.44003 6.38C4.18725 6.4509 3.95696 6.58564 3.77132 6.77129C3.58568 6.95693 3.45093 7.18722 3.38003 7.44C3.11214 8.94492 2.98493 10.4715 3.00003 12C2.98493 13.5285 3.11214 15.0551 3.38003 16.56C3.45093 16.8128 3.58568 17.0431 3.77132 17.2287C3.95696 17.4144 4.18725 17.5491 4.44003 17.62C6.94814 17.9222 9.47427 18.0492 12 18C14.5258 18.0492 17.0519 17.9222 19.56 17.62C19.8128 17.5491 20.0431 17.4144 20.2287 17.2287C20.4144 17.0431 20.5491 16.8128 20.62 16.56C20.8879 15.0551 21.0151 13.5285 21 12C21.0151 10.4715 20.8879 8.94492 20.62 7.44C20.5491 7.18722 20.4144 6.95693 20.2287 6.77129C20.0431 6.58564 19.8128 6.4509 19.56 6.38C17.0519 6.07782 14.5258 5.95085 12 6ZM12 5C12 5 18.25 5 19.81 5.42C20.2341 5.53436 20.6208 5.75801 20.9314 6.06861C21.242 6.37921 21.4657 6.76589 21.58 7.19C21.8697 8.77673 22.0103 10.3871 22 12C22.0103 13.6129 21.8697 15.2233 21.58 16.81C21.4657 17.2341 21.242 17.6208 20.9314 17.9314C20.6208 18.242 20.2341 18.4656 19.81 18.58C18.25 19 12 19 12 19C12 19 5.75003 19 4.19003 18.58C3.76592 18.4656 3.37925 18.242 3.06865 17.9314C2.75804 17.6208 2.53439 17.2341 2.42003 16.81C2.13039 15.2233 1.98978 13.6129 2.00003 12C1.98978 10.3871 2.13039 8.77673 2.42003 7.19C2.53439 6.76589 2.75804 6.37921 3.06865 6.06861C3.37925 5.75801 3.76592 5.53436 4.19003 5.42C5.75003 5 12 5 12 5Z" fill="white"/>
</g>
</g>
</svg>
