<svg width="224" height="40" viewBox="0 0 224 40" fill="none" xmlns="http://www.w3.org/2000/svg">
<g clip-path="url(#clip0_1142_867)">
<path d="M34 17.35L39 20L34 22.65V17.35ZM36 14C33.4743 13.9508 30.9481 14.0778 28.44 14.38C28.1873 14.4509 27.957 14.5856 27.7713 14.7713C27.5857 14.9569 27.4509 15.1872 27.38 15.44C27.1121 16.9449 26.9849 18.4715 27 20C26.9849 21.5285 27.1121 23.0551 27.38 24.56C27.4509 24.8128 27.5857 25.0431 27.7713 25.2287C27.957 25.4144 28.1873 25.5491 28.44 25.62C30.9481 25.9222 33.4743 26.0492 36 26C38.5258 26.0492 41.0519 25.9222 43.56 25.62C43.8128 25.5491 44.0431 25.4144 44.2287 25.2287C44.4144 25.0431 44.5491 24.8128 44.62 24.56C44.8879 23.0551 45.0151 21.5285 45 20C45.0151 18.4715 44.8879 16.9449 44.62 15.44C44.5491 15.1872 44.4144 14.9569 44.2287 14.7713C44.0431 14.5856 43.8128 14.4509 43.56 14.38C41.0519 14.0778 38.5258 13.9508 36 14ZM36 13C36 13 42.25 13 43.81 13.42C44.2341 13.5344 44.6208 13.758 44.9314 14.0686C45.242 14.3792 45.4657 14.7659 45.58 15.19C45.8697 16.7767 46.0103 18.3871 46 20C46.0103 21.6129 45.8697 23.2233 45.58 24.81C45.4657 25.2341 45.242 25.6208 44.9314 25.9314C44.6208 26.242 44.2341 26.4656 43.81 26.58C42.25 27 36 27 36 27C36 27 29.75 27 28.19 26.58C27.7659 26.4656 27.3792 26.242 27.0686 25.9314C26.758 25.6208 26.5344 25.2341 26.42 24.81C26.1304 23.2233 25.9898 21.6129 26 20C25.9898 18.3871 26.1304 16.7767 26.42 15.19C26.5344 14.7659 26.758 14.3792 27.0686 14.0686C27.3792 13.758 27.7659 13.5344 28.19 13.42C29.75 13 36 13 36 13Z" fill="white"/>
</g>
<path d="M73.6133 15.0469L76.1973 20.0439L78.7881 15.0469H80.2852L76.8535 21.2812V25H75.5342V21.2812L72.1025 15.0469H73.6133ZM80.5859 21.3838V21.2266C80.5859 20.6934 80.6634 20.1989 80.8184 19.7432C80.9733 19.2829 81.1966 18.8841 81.4883 18.5469C81.7799 18.2051 82.1331 17.9408 82.5479 17.7539C82.9626 17.5625 83.4274 17.4668 83.9424 17.4668C84.4619 17.4668 84.929 17.5625 85.3438 17.7539C85.763 17.9408 86.1185 18.2051 86.4102 18.5469C86.7064 18.8841 86.932 19.2829 87.0869 19.7432C87.2419 20.1989 87.3193 20.6934 87.3193 21.2266V21.3838C87.3193 21.917 87.2419 22.4115 87.0869 22.8672C86.932 23.3229 86.7064 23.7217 86.4102 24.0635C86.1185 24.4007 85.7653 24.665 85.3506 24.8564C84.9404 25.0433 84.4756 25.1367 83.9561 25.1367C83.4365 25.1367 82.9694 25.0433 82.5547 24.8564C82.14 24.665 81.7845 24.4007 81.4883 24.0635C81.1966 23.7217 80.9733 23.3229 80.8184 22.8672C80.6634 22.4115 80.5859 21.917 80.5859 21.3838ZM81.8506 21.2266V21.3838C81.8506 21.7529 81.8939 22.1016 81.9805 22.4297C82.0671 22.7533 82.1969 23.0404 82.3701 23.291C82.5479 23.5417 82.7689 23.7399 83.0332 23.8857C83.2975 24.027 83.6051 24.0977 83.9561 24.0977C84.3024 24.0977 84.6055 24.027 84.8652 23.8857C85.1296 23.7399 85.3483 23.5417 85.5215 23.291C85.6947 23.0404 85.8245 22.7533 85.9111 22.4297C86.0023 22.1016 86.0479 21.7529 86.0479 21.3838V21.2266C86.0479 20.862 86.0023 20.5179 85.9111 20.1943C85.8245 19.8662 85.6924 19.5768 85.5146 19.3262C85.3415 19.071 85.1227 18.8704 84.8584 18.7246C84.5986 18.5788 84.2933 18.5059 83.9424 18.5059C83.596 18.5059 83.2907 18.5788 83.0264 18.7246C82.7666 18.8704 82.5479 19.071 82.3701 19.3262C82.1969 19.5768 82.0671 19.8662 81.9805 20.1943C81.8939 20.5179 81.8506 20.862 81.8506 21.2266ZM93.4307 23.291V17.6035H94.7021V25H93.4922L93.4307 23.291ZM93.6699 21.7324L94.1963 21.7188C94.1963 22.2109 94.1439 22.6667 94.0391 23.0859C93.9388 23.5007 93.7747 23.8607 93.5469 24.166C93.319 24.4714 93.0205 24.7106 92.6514 24.8838C92.2822 25.0524 91.8333 25.1367 91.3047 25.1367C90.9447 25.1367 90.6143 25.0843 90.3135 24.9795C90.0173 24.8747 89.762 24.7129 89.5479 24.4941C89.3337 24.2754 89.1673 23.9906 89.0488 23.6396C88.9349 23.2887 88.8779 22.8672 88.8779 22.375V17.6035H90.1426V22.3887C90.1426 22.7214 90.179 22.9971 90.252 23.2158C90.3294 23.43 90.432 23.6009 90.5596 23.7285C90.6917 23.8516 90.8376 23.9382 90.9971 23.9883C91.1611 24.0384 91.3298 24.0635 91.5029 24.0635C92.0407 24.0635 92.4668 23.9609 92.7812 23.7559C93.0957 23.5462 93.3213 23.266 93.458 22.915C93.5993 22.5596 93.6699 22.1654 93.6699 21.7324ZM99.7266 17.6035V18.5742H95.7275V17.6035H99.7266ZM97.0811 15.8057H98.3457V23.168C98.3457 23.4186 98.3844 23.6077 98.4619 23.7354C98.5394 23.863 98.6396 23.9473 98.7627 23.9883C98.8857 24.0293 99.0179 24.0498 99.1592 24.0498C99.264 24.0498 99.3734 24.0407 99.4873 24.0225C99.6058 23.9997 99.6947 23.9814 99.7539 23.9678L99.7607 25C99.6605 25.0319 99.5283 25.0615 99.3643 25.0889C99.2048 25.1208 99.0111 25.1367 98.7832 25.1367C98.4733 25.1367 98.1885 25.0752 97.9287 24.9521C97.6689 24.8291 97.4616 24.624 97.3066 24.3369C97.1562 24.0452 97.0811 23.6533 97.0811 23.1611V15.8057ZM105.735 23.291V17.6035H107.007V25H105.797L105.735 23.291ZM105.975 21.7324L106.501 21.7188C106.501 22.2109 106.449 22.6667 106.344 23.0859C106.243 23.5007 106.079 23.8607 105.852 24.166C105.624 24.4714 105.325 24.7106 104.956 24.8838C104.587 25.0524 104.138 25.1367 103.609 25.1367C103.249 25.1367 102.919 25.0843 102.618 24.9795C102.322 24.8747 102.067 24.7129 101.853 24.4941C101.638 24.2754 101.472 23.9906 101.354 23.6396C101.24 23.2887 101.183 22.8672 101.183 22.375V17.6035H102.447V22.3887C102.447 22.7214 102.484 22.9971 102.557 23.2158C102.634 23.43 102.737 23.6009 102.864 23.7285C102.996 23.8516 103.142 23.9382 103.302 23.9883C103.466 24.0384 103.634 24.0635 103.808 24.0635C104.345 24.0635 104.771 23.9609 105.086 23.7559C105.4 23.5462 105.626 23.266 105.763 22.915C105.904 22.5596 105.975 22.1654 105.975 21.7324ZM108.928 14.5H110.199V23.5645L110.09 25H108.928V14.5ZM115.196 21.2402V21.3838C115.196 21.9215 115.132 22.4206 115.005 22.8809C114.877 23.3366 114.69 23.7331 114.444 24.0703C114.198 24.4076 113.897 24.6696 113.542 24.8564C113.187 25.0433 112.779 25.1367 112.318 25.1367C111.849 25.1367 111.437 25.057 111.081 24.8975C110.73 24.7334 110.434 24.4987 110.192 24.1934C109.951 23.888 109.757 23.5189 109.611 23.0859C109.47 22.653 109.372 22.1654 109.317 21.623V20.9941C109.372 20.4473 109.47 19.9574 109.611 19.5244C109.757 19.0915 109.951 18.7223 110.192 18.417C110.434 18.1071 110.73 17.8724 111.081 17.7129C111.432 17.5488 111.84 17.4668 112.305 17.4668C112.77 17.4668 113.182 17.5579 113.542 17.7402C113.902 17.918 114.203 18.1732 114.444 18.5059C114.69 18.8385 114.877 19.2373 115.005 19.7021C115.132 20.1624 115.196 20.6751 115.196 21.2402ZM113.925 21.3838V21.2402C113.925 20.8711 113.891 20.5247 113.822 20.2012C113.754 19.873 113.645 19.5859 113.494 19.3398C113.344 19.0892 113.146 18.8932 112.899 18.752C112.653 18.6061 112.35 18.5332 111.99 18.5332C111.671 18.5332 111.393 18.5879 111.156 18.6973C110.924 18.8066 110.726 18.9548 110.562 19.1416C110.397 19.3239 110.263 19.5335 110.158 19.7705C110.058 20.0029 109.983 20.2445 109.933 20.4951V22.1426C110.006 22.4616 110.124 22.7692 110.288 23.0654C110.457 23.3571 110.68 23.5964 110.958 23.7832C111.241 23.9701 111.589 24.0635 112.004 24.0635C112.346 24.0635 112.637 23.9951 112.879 23.8584C113.125 23.7171 113.323 23.5234 113.474 23.2773C113.629 23.0312 113.743 22.7464 113.815 22.4229C113.888 22.0993 113.925 21.7529 113.925 21.3838ZM119.865 25.1367C119.35 25.1367 118.883 25.0501 118.464 24.877C118.049 24.6992 117.691 24.4508 117.391 24.1318C117.094 23.8128 116.867 23.4346 116.707 22.9971C116.548 22.5596 116.468 22.0811 116.468 21.5615V21.2744C116.468 20.6729 116.557 20.1374 116.734 19.668C116.912 19.194 117.154 18.793 117.459 18.4648C117.764 18.1367 118.111 17.8883 118.498 17.7197C118.885 17.5511 119.286 17.4668 119.701 17.4668C120.23 17.4668 120.686 17.5579 121.068 17.7402C121.456 17.9225 121.772 18.1777 122.019 18.5059C122.265 18.8294 122.447 19.2122 122.565 19.6543C122.684 20.0918 122.743 20.5703 122.743 21.0898V21.6572H117.22V20.625H121.479V20.5293C121.46 20.2012 121.392 19.8822 121.273 19.5723C121.16 19.2624 120.977 19.0072 120.727 18.8066C120.476 18.6061 120.134 18.5059 119.701 18.5059C119.414 18.5059 119.15 18.5674 118.908 18.6904C118.667 18.8089 118.459 18.9867 118.286 19.2236C118.113 19.4606 117.979 19.75 117.883 20.0918C117.787 20.4336 117.739 20.8278 117.739 21.2744V21.5615C117.739 21.9124 117.787 22.2428 117.883 22.5527C117.983 22.8581 118.127 23.127 118.313 23.3594C118.505 23.5918 118.735 23.7741 119.004 23.9062C119.277 24.0384 119.587 24.1045 119.934 24.1045C120.38 24.1045 120.758 24.0133 121.068 23.8311C121.378 23.6488 121.649 23.4049 121.882 23.0996L122.647 23.708C122.488 23.9495 122.285 24.1797 122.039 24.3984C121.793 24.6172 121.49 24.7949 121.13 24.9316C120.774 25.0684 120.353 25.1367 119.865 25.1367ZM131.555 21.0967H128.896V20.0234H131.555C132.07 20.0234 132.487 19.9414 132.806 19.7773C133.125 19.6133 133.357 19.3854 133.503 19.0938C133.653 18.8021 133.729 18.4694 133.729 18.0957C133.729 17.7539 133.653 17.4326 133.503 17.1318C133.357 16.8311 133.125 16.5895 132.806 16.4072C132.487 16.2204 132.07 16.127 131.555 16.127H129.203V25H127.884V15.0469H131.555C132.307 15.0469 132.942 15.1768 133.462 15.4365C133.981 15.6963 134.376 16.0563 134.645 16.5166C134.913 16.9723 135.048 17.4941 135.048 18.082C135.048 18.7201 134.913 19.2646 134.645 19.7158C134.376 20.167 133.981 20.5111 133.462 20.748C132.942 20.9805 132.307 21.0967 131.555 21.0967ZM137.789 18.7656V25H136.524V17.6035H137.755L137.789 18.7656ZM140.1 17.5625L140.093 18.7383C139.988 18.7155 139.888 18.7018 139.792 18.6973C139.701 18.6882 139.596 18.6836 139.478 18.6836C139.186 18.6836 138.928 18.7292 138.705 18.8203C138.482 18.9115 138.293 19.0391 138.138 19.2031C137.983 19.3672 137.86 19.5632 137.769 19.791C137.682 20.0143 137.625 20.2604 137.598 20.5293L137.242 20.7344C137.242 20.2878 137.285 19.8685 137.372 19.4766C137.463 19.0846 137.602 18.7383 137.789 18.4375C137.976 18.1322 138.213 17.8952 138.5 17.7266C138.792 17.5534 139.138 17.4668 139.539 17.4668C139.63 17.4668 139.735 17.4782 139.854 17.501C139.972 17.5192 140.054 17.5397 140.1 17.5625ZM144.201 25.1367C143.686 25.1367 143.219 25.0501 142.8 24.877C142.385 24.6992 142.027 24.4508 141.727 24.1318C141.43 23.8128 141.202 23.4346 141.043 22.9971C140.883 22.5596 140.804 22.0811 140.804 21.5615V21.2744C140.804 20.6729 140.893 20.1374 141.07 19.668C141.248 19.194 141.49 18.793 141.795 18.4648C142.1 18.1367 142.447 17.8883 142.834 17.7197C143.221 17.5511 143.622 17.4668 144.037 17.4668C144.566 17.4668 145.021 17.5579 145.404 17.7402C145.792 17.9225 146.108 18.1777 146.354 18.5059C146.601 18.8294 146.783 19.2122 146.901 19.6543C147.02 20.0918 147.079 20.5703 147.079 21.0898V21.6572H141.556V20.625H145.814V20.5293C145.796 20.2012 145.728 19.8822 145.609 19.5723C145.495 19.2624 145.313 19.0072 145.062 18.8066C144.812 18.6061 144.47 18.5059 144.037 18.5059C143.75 18.5059 143.486 18.5674 143.244 18.6904C143.003 18.8089 142.795 18.9867 142.622 19.2236C142.449 19.4606 142.314 19.75 142.219 20.0918C142.123 20.4336 142.075 20.8278 142.075 21.2744V21.5615C142.075 21.9124 142.123 22.2428 142.219 22.5527C142.319 22.8581 142.463 23.127 142.649 23.3594C142.841 23.5918 143.071 23.7741 143.34 23.9062C143.613 24.0384 143.923 24.1045 144.27 24.1045C144.716 24.1045 145.094 24.0133 145.404 23.8311C145.714 23.6488 145.985 23.4049 146.218 23.0996L146.983 23.708C146.824 23.9495 146.621 24.1797 146.375 24.3984C146.129 24.6172 145.826 24.7949 145.466 24.9316C145.11 25.0684 144.689 25.1367 144.201 25.1367ZM149.813 19.0732V25H148.542V17.6035H149.745L149.813 19.0732ZM149.554 21.0215L148.966 21.001C148.97 20.4951 149.036 20.028 149.164 19.5996C149.292 19.1667 149.481 18.7907 149.731 18.4717C149.982 18.1527 150.294 17.9066 150.668 17.7334C151.042 17.5557 151.475 17.4668 151.967 17.4668C152.313 17.4668 152.632 17.5169 152.924 17.6172C153.215 17.7129 153.468 17.8656 153.683 18.0752C153.897 18.2848 154.063 18.5537 154.182 18.8818C154.3 19.21 154.359 19.6064 154.359 20.0713V25H153.095V20.1328C153.095 19.7454 153.029 19.4355 152.896 19.2031C152.769 18.9707 152.587 18.8021 152.35 18.6973C152.113 18.5879 151.835 18.5332 151.516 18.5332C151.142 18.5332 150.83 18.5993 150.579 18.7314C150.328 18.8636 150.128 19.0459 149.978 19.2783C149.827 19.5107 149.718 19.7773 149.649 20.0781C149.586 20.3743 149.554 20.6888 149.554 21.0215ZM154.346 20.3242L153.498 20.584C153.503 20.1784 153.569 19.7887 153.696 19.415C153.828 19.0413 154.018 18.7087 154.264 18.417C154.514 18.1253 154.822 17.8952 155.187 17.7266C155.551 17.5534 155.968 17.4668 156.438 17.4668C156.834 17.4668 157.185 17.5192 157.49 17.624C157.8 17.7288 158.06 17.8906 158.27 18.1094C158.484 18.3236 158.646 18.5993 158.755 18.9365C158.864 19.2738 158.919 19.6748 158.919 20.1396V25H157.647V20.126C157.647 19.7113 157.581 19.39 157.449 19.1621C157.322 18.9297 157.139 18.7679 156.902 18.6768C156.67 18.5811 156.392 18.5332 156.068 18.5332C155.79 18.5332 155.544 18.5811 155.33 18.6768C155.116 18.7725 154.936 18.9046 154.79 19.0732C154.644 19.2373 154.533 19.4264 154.455 19.6406C154.382 19.8548 154.346 20.0827 154.346 20.3242ZM162.207 17.6035V25H160.936V17.6035H162.207ZM160.84 15.6416C160.84 15.4365 160.901 15.2633 161.024 15.1221C161.152 14.9808 161.339 14.9102 161.585 14.9102C161.826 14.9102 162.011 14.9808 162.139 15.1221C162.271 15.2633 162.337 15.4365 162.337 15.6416C162.337 15.8376 162.271 16.0062 162.139 16.1475C162.011 16.2842 161.826 16.3525 161.585 16.3525C161.339 16.3525 161.152 16.2842 161.024 16.1475C160.901 16.0062 160.84 15.8376 160.84 15.6416ZM168.763 23.291V17.6035H170.034V25H168.824L168.763 23.291ZM169.002 21.7324L169.528 21.7188C169.528 22.2109 169.476 22.6667 169.371 23.0859C169.271 23.5007 169.107 23.8607 168.879 24.166C168.651 24.4714 168.353 24.7106 167.983 24.8838C167.614 25.0524 167.165 25.1367 166.637 25.1367C166.277 25.1367 165.946 25.0843 165.646 24.9795C165.349 24.8747 165.094 24.7129 164.88 24.4941C164.666 24.2754 164.499 23.9906 164.381 23.6396C164.267 23.2887 164.21 22.8672 164.21 22.375V17.6035H165.475V22.3887C165.475 22.7214 165.511 22.9971 165.584 23.2158C165.661 23.43 165.764 23.6009 165.892 23.7285C166.024 23.8516 166.17 23.9382 166.329 23.9883C166.493 24.0384 166.662 24.0635 166.835 24.0635C167.373 24.0635 167.799 23.9609 168.113 23.7559C168.428 23.5462 168.653 23.266 168.79 22.915C168.931 22.5596 169.002 22.1654 169.002 21.7324ZM173.22 19.0732V25H171.948V17.6035H173.151L173.22 19.0732ZM172.96 21.0215L172.372 21.001C172.377 20.4951 172.443 20.028 172.57 19.5996C172.698 19.1667 172.887 18.7907 173.138 18.4717C173.388 18.1527 173.701 17.9066 174.074 17.7334C174.448 17.5557 174.881 17.4668 175.373 17.4668C175.719 17.4668 176.038 17.5169 176.33 17.6172C176.622 17.7129 176.875 17.8656 177.089 18.0752C177.303 18.2848 177.469 18.5537 177.588 18.8818C177.706 19.21 177.766 19.6064 177.766 20.0713V25H176.501V20.1328C176.501 19.7454 176.435 19.4355 176.303 19.2031C176.175 18.9707 175.993 18.8021 175.756 18.6973C175.519 18.5879 175.241 18.5332 174.922 18.5332C174.548 18.5332 174.236 18.5993 173.985 18.7314C173.735 18.8636 173.534 19.0459 173.384 19.2783C173.233 19.5107 173.124 19.7773 173.056 20.0781C172.992 20.3743 172.96 20.6888 172.96 21.0215ZM177.752 20.3242L176.904 20.584C176.909 20.1784 176.975 19.7887 177.103 19.415C177.235 19.0413 177.424 18.7087 177.67 18.417C177.921 18.1253 178.228 17.8952 178.593 17.7266C178.957 17.5534 179.374 17.4668 179.844 17.4668C180.24 17.4668 180.591 17.5192 180.896 17.624C181.206 17.7288 181.466 17.8906 181.676 18.1094C181.89 18.3236 182.052 18.5993 182.161 18.9365C182.271 19.2738 182.325 19.6748 182.325 20.1396V25H181.054V20.126C181.054 19.7113 180.988 19.39 180.855 19.1621C180.728 18.9297 180.546 18.7679 180.309 18.6768C180.076 18.5811 179.798 18.5332 179.475 18.5332C179.197 18.5332 178.951 18.5811 178.736 18.6768C178.522 18.7725 178.342 18.9046 178.196 19.0732C178.05 19.2373 177.939 19.4264 177.861 19.6406C177.788 19.8548 177.752 20.0827 177.752 20.3242Z" fill="white"/>
<defs>
<clipPath id="clip0_1142_867">
<rect width="24" height="24" fill="white" transform="translate(24 8)"/>
</clipPath>
</defs>
</svg>
