<svg width="224" height="40" viewBox="0 0 224 40" fill="none" xmlns="http://www.w3.org/2000/svg">
<g clip-path="url(#clip0_1142_769)">
<path d="M34 16L40 20L34 24V16ZM45 11V29H27V11H45ZM44 12H28V28H44V12Z" fill="white"/>
</g>
<path d="M73.6133 15.0469L76.1973 20.0439L78.7881 15.0469H80.2852L76.8535 21.2812V25H75.5342V21.2812L72.1025 15.0469H73.6133ZM80.5859 21.3838V21.2266C80.5859 20.6934 80.6634 20.1989 80.8184 19.7432C80.9733 19.2829 81.1966 18.8841 81.4883 18.5469C81.7799 18.2051 82.1331 17.9408 82.5479 17.7539C82.9626 17.5625 83.4274 17.4668 83.9424 17.4668C84.4619 17.4668 84.929 17.5625 85.3438 17.7539C85.763 17.9408 86.1185 18.2051 86.4102 18.5469C86.7064 18.8841 86.932 19.2829 87.0869 19.7432C87.2419 20.1989 87.3193 20.6934 87.3193 21.2266V21.3838C87.3193 21.917 87.2419 22.4115 87.0869 22.8672C86.932 23.3229 86.7064 23.7217 86.4102 24.0635C86.1185 24.4007 85.7653 24.665 85.3506 24.8564C84.9404 25.0433 84.4756 25.1367 83.9561 25.1367C83.4365 25.1367 82.9694 25.0433 82.5547 24.8564C82.14 24.665 81.7845 24.4007 81.4883 24.0635C81.1966 23.7217 80.9733 23.3229 80.8184 22.8672C80.6634 22.4115 80.5859 21.917 80.5859 21.3838ZM81.8506 21.2266V21.3838C81.8506 21.7529 81.8939 22.1016 81.9805 22.4297C82.0671 22.7533 82.1969 23.0404 82.3701 23.291C82.5479 23.5417 82.7689 23.7399 83.0332 23.8857C83.2975 24.027 83.6051 24.0977 83.9561 24.0977C84.3024 24.0977 84.6055 24.027 84.8652 23.8857C85.1296 23.7399 85.3483 23.5417 85.5215 23.291C85.6947 23.0404 85.8245 22.7533 85.9111 22.4297C86.0023 22.1016 86.0479 21.7529 86.0479 21.3838V21.2266C86.0479 20.862 86.0023 20.5179 85.9111 20.1943C85.8245 19.8662 85.6924 19.5768 85.5146 19.3262C85.3415 19.071 85.1227 18.8704 84.8584 18.7246C84.5986 18.5788 84.2933 18.5059 83.9424 18.5059C83.596 18.5059 83.2907 18.5788 83.0264 18.7246C82.7666 18.8704 82.5479 19.071 82.3701 19.3262C82.1969 19.5768 82.0671 19.8662 81.9805 20.1943C81.8939 20.5179 81.8506 20.862 81.8506 21.2266ZM93.4307 23.291V17.6035H94.7021V25H93.4922L93.4307 23.291ZM93.6699 21.7324L94.1963 21.7188C94.1963 22.2109 94.1439 22.6667 94.0391 23.0859C93.9388 23.5007 93.7747 23.8607 93.5469 24.166C93.319 24.4714 93.0205 24.7106 92.6514 24.8838C92.2822 25.0524 91.8333 25.1367 91.3047 25.1367C90.9447 25.1367 90.6143 25.0843 90.3135 24.9795C90.0173 24.8747 89.762 24.7129 89.5479 24.4941C89.3337 24.2754 89.1673 23.9906 89.0488 23.6396C88.9349 23.2887 88.8779 22.8672 88.8779 22.375V17.6035H90.1426V22.3887C90.1426 22.7214 90.179 22.9971 90.252 23.2158C90.3294 23.43 90.432 23.6009 90.5596 23.7285C90.6917 23.8516 90.8376 23.9382 90.9971 23.9883C91.1611 24.0384 91.3298 24.0635 91.5029 24.0635C92.0407 24.0635 92.4668 23.9609 92.7812 23.7559C93.0957 23.5462 93.3213 23.266 93.458 22.915C93.5993 22.5596 93.6699 22.1654 93.6699 21.7324ZM97.8945 18.7656V25H96.6299V17.6035H97.8604L97.8945 18.7656ZM100.205 17.5625L100.198 18.7383C100.093 18.7155 99.9932 18.7018 99.8975 18.6973C99.8063 18.6882 99.7015 18.6836 99.583 18.6836C99.2913 18.6836 99.0339 18.7292 98.8105 18.8203C98.5872 18.9115 98.3981 19.0391 98.2432 19.2031C98.0882 19.3672 97.9652 19.5632 97.874 19.791C97.7874 20.0143 97.7305 20.2604 97.7031 20.5293L97.3477 20.7344C97.3477 20.2878 97.391 19.8685 97.4775 19.4766C97.5687 19.0846 97.7077 18.7383 97.8945 18.4375C98.0814 18.1322 98.3184 17.8952 98.6055 17.7266C98.8971 17.5534 99.2435 17.4668 99.6445 17.4668C99.7357 17.4668 99.8405 17.4782 99.959 17.501C100.077 17.5192 100.16 17.5397 100.205 17.5625ZM108.251 23.4893L111.184 15.0469H112.612L108.928 25H107.909L108.251 23.4893ZM105.51 15.0469L108.415 23.4893L108.777 25H107.759L104.081 15.0469H105.51ZM115.135 17.6035V25H113.863V17.6035H115.135ZM113.768 15.6416C113.768 15.4365 113.829 15.2633 113.952 15.1221C114.08 14.9808 114.267 14.9102 114.513 14.9102C114.754 14.9102 114.939 14.9808 115.066 15.1221C115.199 15.2633 115.265 15.4365 115.265 15.6416C115.265 15.8376 115.199 16.0062 115.066 16.1475C114.939 16.2842 114.754 16.3525 114.513 16.3525C114.267 16.3525 114.08 16.2842 113.952 16.1475C113.829 16.0062 113.768 15.8376 113.768 15.6416ZM121.827 23.5645V14.5H123.099V25H121.937L121.827 23.5645ZM116.851 21.3838V21.2402C116.851 20.6751 116.919 20.1624 117.056 19.7021C117.197 19.2373 117.395 18.8385 117.65 18.5059C117.91 18.1732 118.218 17.918 118.573 17.7402C118.933 17.5579 119.334 17.4668 119.776 17.4668C120.241 17.4668 120.647 17.5488 120.993 17.7129C121.344 17.8724 121.64 18.1071 121.882 18.417C122.128 18.7223 122.322 19.0915 122.463 19.5244C122.604 19.9574 122.702 20.4473 122.757 20.9941V21.623C122.707 22.1654 122.609 22.653 122.463 23.0859C122.322 23.5189 122.128 23.888 121.882 24.1934C121.64 24.4987 121.344 24.7334 120.993 24.8975C120.642 25.057 120.232 25.1367 119.763 25.1367C119.33 25.1367 118.933 25.0433 118.573 24.8564C118.218 24.6696 117.91 24.4076 117.65 24.0703C117.395 23.7331 117.197 23.3366 117.056 22.8809C116.919 22.4206 116.851 21.9215 116.851 21.3838ZM118.122 21.2402V21.3838C118.122 21.7529 118.159 22.0993 118.231 22.4229C118.309 22.7464 118.427 23.0312 118.587 23.2773C118.746 23.5234 118.949 23.7171 119.195 23.8584C119.441 23.9951 119.735 24.0635 120.077 24.0635C120.496 24.0635 120.84 23.9746 121.109 23.7969C121.383 23.6191 121.602 23.3844 121.766 23.0928C121.93 22.8011 122.057 22.4844 122.148 22.1426V20.4951C122.094 20.2445 122.014 20.0029 121.909 19.7705C121.809 19.5335 121.677 19.3239 121.513 19.1416C121.353 18.9548 121.155 18.8066 120.918 18.6973C120.686 18.5879 120.41 18.5332 120.091 18.5332C119.744 18.5332 119.446 18.6061 119.195 18.752C118.949 18.8932 118.746 19.0892 118.587 19.3398C118.427 19.5859 118.309 19.873 118.231 20.2012C118.159 20.5247 118.122 20.8711 118.122 21.2402ZM128.137 25.1367C127.622 25.1367 127.155 25.0501 126.735 24.877C126.321 24.6992 125.963 24.4508 125.662 24.1318C125.366 23.8128 125.138 23.4346 124.979 22.9971C124.819 22.5596 124.739 22.0811 124.739 21.5615V21.2744C124.739 20.6729 124.828 20.1374 125.006 19.668C125.184 19.194 125.425 18.793 125.73 18.4648C126.036 18.1367 126.382 17.8883 126.77 17.7197C127.157 17.5511 127.558 17.4668 127.973 17.4668C128.501 17.4668 128.957 17.5579 129.34 17.7402C129.727 17.9225 130.044 18.1777 130.29 18.5059C130.536 18.8294 130.718 19.2122 130.837 19.6543C130.955 20.0918 131.015 20.5703 131.015 21.0898V21.6572H125.491V20.625H129.75V20.5293C129.732 20.2012 129.663 19.8822 129.545 19.5723C129.431 19.2624 129.249 19.0072 128.998 18.8066C128.747 18.6061 128.406 18.5059 127.973 18.5059C127.686 18.5059 127.421 18.5674 127.18 18.6904C126.938 18.8089 126.731 18.9867 126.558 19.2236C126.384 19.4606 126.25 19.75 126.154 20.0918C126.059 20.4336 126.011 20.8278 126.011 21.2744V21.5615C126.011 21.9124 126.059 22.2428 126.154 22.5527C126.255 22.8581 126.398 23.127 126.585 23.3594C126.776 23.5918 127.007 23.7741 127.275 23.9062C127.549 24.0384 127.859 24.1045 128.205 24.1045C128.652 24.1045 129.03 24.0133 129.34 23.8311C129.65 23.6488 129.921 23.4049 130.153 23.0996L130.919 23.708C130.759 23.9495 130.557 24.1797 130.311 24.3984C130.064 24.6172 129.761 24.7949 129.401 24.9316C129.046 25.0684 128.624 25.1367 128.137 25.1367ZM132.156 21.3838V21.2266C132.156 20.6934 132.234 20.1989 132.389 19.7432C132.544 19.2829 132.767 18.8841 133.059 18.5469C133.35 18.2051 133.703 17.9408 134.118 17.7539C134.533 17.5625 134.998 17.4668 135.513 17.4668C136.032 17.4668 136.499 17.5625 136.914 17.7539C137.333 17.9408 137.689 18.2051 137.98 18.5469C138.277 18.8841 138.502 19.2829 138.657 19.7432C138.812 20.1989 138.89 20.6934 138.89 21.2266V21.3838C138.89 21.917 138.812 22.4115 138.657 22.8672C138.502 23.3229 138.277 23.7217 137.98 24.0635C137.689 24.4007 137.336 24.665 136.921 24.8564C136.511 25.0433 136.046 25.1367 135.526 25.1367C135.007 25.1367 134.54 25.0433 134.125 24.8564C133.71 24.665 133.355 24.4007 133.059 24.0635C132.767 23.7217 132.544 23.3229 132.389 22.8672C132.234 22.4115 132.156 21.917 132.156 21.3838ZM133.421 21.2266V21.3838C133.421 21.7529 133.464 22.1016 133.551 22.4297C133.637 22.7533 133.767 23.0404 133.94 23.291C134.118 23.5417 134.339 23.7399 134.604 23.8857C134.868 24.027 135.175 24.0977 135.526 24.0977C135.873 24.0977 136.176 24.027 136.436 23.8857C136.7 23.7399 136.919 23.5417 137.092 23.291C137.265 23.0404 137.395 22.7533 137.481 22.4297C137.573 22.1016 137.618 21.7529 137.618 21.3838V21.2266C137.618 20.862 137.573 20.5179 137.481 20.1943C137.395 19.8662 137.263 19.5768 137.085 19.3262C136.912 19.071 136.693 18.8704 136.429 18.7246C136.169 18.5788 135.864 18.5059 135.513 18.5059C135.166 18.5059 134.861 18.5788 134.597 18.7246C134.337 18.8704 134.118 19.071 133.94 19.3262C133.767 19.5768 133.637 19.8662 133.551 20.1943C133.464 20.5179 133.421 20.862 133.421 21.2266ZM144.782 23.0381C144.782 22.8558 144.741 22.6872 144.659 22.5322C144.582 22.3727 144.42 22.2292 144.174 22.1016C143.932 21.9694 143.568 21.8555 143.08 21.7598C142.67 21.6732 142.299 21.5706 141.966 21.4521C141.638 21.3337 141.357 21.1901 141.125 21.0215C140.897 20.8529 140.722 20.6546 140.599 20.4268C140.476 20.1989 140.414 19.9323 140.414 19.627C140.414 19.3353 140.478 19.0596 140.605 18.7998C140.738 18.54 140.922 18.3099 141.159 18.1094C141.401 17.9089 141.69 17.7516 142.027 17.6377C142.365 17.5238 142.741 17.4668 143.155 17.4668C143.748 17.4668 144.254 17.5716 144.673 17.7812C145.092 17.9909 145.413 18.2712 145.637 18.6221C145.86 18.9684 145.972 19.3535 145.972 19.7773H144.707C144.707 19.5723 144.646 19.374 144.522 19.1826C144.404 18.9867 144.229 18.8249 143.996 18.6973C143.768 18.5697 143.488 18.5059 143.155 18.5059C142.804 18.5059 142.52 18.5605 142.301 18.6699C142.087 18.7747 141.929 18.9092 141.829 19.0732C141.733 19.2373 141.686 19.4105 141.686 19.5928C141.686 19.7295 141.708 19.8525 141.754 19.9619C141.804 20.0667 141.891 20.1647 142.014 20.2559C142.137 20.3424 142.31 20.4245 142.533 20.502C142.757 20.5794 143.041 20.6569 143.388 20.7344C143.994 20.8711 144.493 21.0352 144.885 21.2266C145.277 21.418 145.568 21.6527 145.76 21.9307C145.951 22.2087 146.047 22.5459 146.047 22.9424C146.047 23.266 145.979 23.5622 145.842 23.8311C145.71 24.0999 145.516 24.3324 145.261 24.5283C145.01 24.7197 144.709 24.8701 144.358 24.9795C144.012 25.0843 143.622 25.1367 143.189 25.1367C142.538 25.1367 141.986 25.0205 141.535 24.7881C141.084 24.5557 140.742 24.2549 140.51 23.8857C140.277 23.5166 140.161 23.127 140.161 22.7168H141.433C141.451 23.0632 141.551 23.3389 141.733 23.5439C141.916 23.7445 142.139 23.888 142.403 23.9746C142.668 24.0566 142.93 24.0977 143.189 24.0977C143.536 24.0977 143.825 24.0521 144.058 23.9609C144.295 23.8698 144.475 23.7445 144.598 23.585C144.721 23.4255 144.782 23.2432 144.782 23.0381Z" fill="white"/>
<defs>
<clipPath id="clip0_1142_769">
<rect width="24" height="24" fill="white" transform="translate(24 8)"/>
</clipPath>
</defs>
</svg>
