<svg width="109" height="36" viewBox="0 0 109 36" fill="none" xmlns="http://www.w3.org/2000/svg">
<path d="M6.9375 21.0234C6.9375 20.8203 6.90625 20.638 6.84375 20.4766C6.78646 20.3099 6.67708 20.1589 6.51562 20.0234C6.35417 19.8828 6.1276 19.7448 5.83594 19.6094C5.54427 19.474 5.16667 19.3333 4.70312 19.1875C4.1875 19.0208 3.69792 18.8333 3.23438 18.625C2.77604 18.4167 2.36979 18.1745 2.01562 17.8984C1.66667 17.6172 1.39062 17.2917 1.1875 16.9219C0.989583 16.5521 0.890625 16.1224 0.890625 15.6328C0.890625 15.1589 0.994792 14.7292 1.20312 14.3438C1.41146 13.9531 1.70312 13.6198 2.07812 13.3438C2.45312 13.0625 2.89583 12.8464 3.40625 12.6953C3.92188 12.5443 4.48698 12.4688 5.10156 12.4688C5.9401 12.4688 6.67188 12.6198 7.29688 12.9219C7.92188 13.224 8.40625 13.638 8.75 14.1641C9.09896 14.6901 9.27344 15.2917 9.27344 15.9688H6.94531C6.94531 15.6354 6.875 15.3438 6.73438 15.0938C6.59896 14.8385 6.39062 14.638 6.10938 14.4922C5.83333 14.3464 5.48438 14.2734 5.0625 14.2734C4.65625 14.2734 4.31771 14.3359 4.04688 14.4609C3.77604 14.5807 3.57292 14.7448 3.4375 14.9531C3.30208 15.1562 3.23438 15.3854 3.23438 15.6406C3.23438 15.8333 3.28125 16.0078 3.375 16.1641C3.47396 16.3203 3.61979 16.4661 3.8125 16.6016C4.00521 16.737 4.24219 16.8646 4.52344 16.9844C4.80469 17.1042 5.13021 17.2214 5.5 17.3359C6.11979 17.5234 6.66406 17.7344 7.13281 17.9688C7.60677 18.2031 8.0026 18.4661 8.32031 18.7578C8.63802 19.0495 8.8776 19.3802 9.03906 19.75C9.20052 20.1198 9.28125 20.5391 9.28125 21.0078C9.28125 21.5026 9.1849 21.9453 8.99219 22.3359C8.79948 22.7266 8.52083 23.0573 8.15625 23.3281C7.79167 23.599 7.35677 23.8047 6.85156 23.9453C6.34635 24.0859 5.78125 24.1562 5.15625 24.1562C4.59375 24.1562 4.03906 24.0833 3.49219 23.9375C2.94531 23.7865 2.44792 23.5599 2 23.2578C1.55729 22.9557 1.20312 22.5703 0.9375 22.1016C0.671875 21.6328 0.539062 21.0781 0.539062 20.4375H2.89062C2.89062 20.7917 2.94531 21.0911 3.05469 21.3359C3.16406 21.5807 3.31771 21.7786 3.51562 21.9297C3.71875 22.0807 3.95833 22.1901 4.23438 22.2578C4.51562 22.3255 4.82292 22.3594 5.15625 22.3594C5.5625 22.3594 5.89583 22.3021 6.15625 22.1875C6.42188 22.0729 6.61719 21.9141 6.74219 21.7109C6.8724 21.5078 6.9375 21.2786 6.9375 21.0234ZM14.625 24.1562C13.9688 24.1562 13.3802 24.0521 12.8594 23.8438C12.3385 23.6302 11.8958 23.3359 11.5312 22.9609C11.1719 22.5859 10.8958 22.151 10.7031 21.6562C10.5104 21.1562 10.4141 20.625 10.4141 20.0625V19.75C10.4141 19.1094 10.5052 18.5234 10.6875 17.9922C10.8698 17.4609 11.1302 17 11.4688 16.6094C11.8125 16.2188 12.2292 15.9193 12.7188 15.7109C13.2083 15.4974 13.7604 15.3906 14.375 15.3906C14.974 15.3906 15.5052 15.4896 15.9688 15.6875C16.4323 15.8854 16.8203 16.1667 17.1328 16.5312C17.4505 16.8958 17.6901 17.3333 17.8516 17.8438C18.013 18.349 18.0938 18.9115 18.0938 19.5312V20.4688H11.375V18.9688H15.8828V18.7969C15.8828 18.4844 15.8255 18.2057 15.7109 17.9609C15.6016 17.7109 15.4349 17.513 15.2109 17.3672C14.987 17.2214 14.7005 17.1484 14.3516 17.1484C14.0547 17.1484 13.7995 17.2135 13.5859 17.3438C13.3724 17.474 13.1979 17.6562 13.0625 17.8906C12.9323 18.125 12.8333 18.401 12.7656 18.7188C12.7031 19.0312 12.6719 19.375 12.6719 19.75V20.0625C12.6719 20.401 12.7188 20.7135 12.8125 21C12.9115 21.2865 13.0495 21.5339 13.2266 21.7422C13.4089 21.9505 13.6276 22.112 13.8828 22.2266C14.1432 22.3411 14.4375 22.3984 14.7656 22.3984C15.1719 22.3984 15.5495 22.3203 15.8984 22.1641C16.2526 22.0026 16.5573 21.7604 16.8125 21.4375L17.9062 22.625C17.7292 22.8802 17.487 23.125 17.1797 23.3594C16.8776 23.5938 16.513 23.7865 16.0859 23.9375C15.6589 24.0833 15.1719 24.1562 14.625 24.1562ZM23.9375 22.0938V18.3281C23.9375 18.0573 23.8932 17.8255 23.8047 17.6328C23.7161 17.4349 23.5781 17.2812 23.3906 17.1719C23.2083 17.0625 22.9714 17.0078 22.6797 17.0078C22.4297 17.0078 22.2135 17.0521 22.0312 17.1406C21.849 17.224 21.7083 17.3464 21.6094 17.5078C21.5104 17.6641 21.4609 17.849 21.4609 18.0625H19.2109C19.2109 17.7031 19.2943 17.362 19.4609 17.0391C19.6276 16.7161 19.8698 16.4323 20.1875 16.1875C20.5052 15.9375 20.8828 15.7422 21.3203 15.6016C21.763 15.4609 22.2578 15.3906 22.8047 15.3906C23.4609 15.3906 24.0443 15.5 24.5547 15.7188C25.0651 15.9375 25.4661 16.2656 25.7578 16.7031C26.0547 17.1406 26.2031 17.6875 26.2031 18.3438V21.9609C26.2031 22.4245 26.2318 22.8047 26.2891 23.1016C26.3464 23.3932 26.4297 23.6484 26.5391 23.8672V24H24.2656C24.1562 23.7708 24.0729 23.4844 24.0156 23.1406C23.9635 22.7917 23.9375 22.4427 23.9375 22.0938ZM24.2344 18.8516L24.25 20.125H22.9922C22.6953 20.125 22.4375 20.1589 22.2188 20.2266C22 20.2943 21.8203 20.3906 21.6797 20.5156C21.5391 20.6354 21.4349 20.776 21.3672 20.9375C21.3047 21.099 21.2734 21.276 21.2734 21.4688C21.2734 21.6615 21.3177 21.8359 21.4062 21.9922C21.4948 22.1432 21.6224 22.263 21.7891 22.3516C21.9557 22.4349 22.151 22.4766 22.375 22.4766C22.7135 22.4766 23.0078 22.4089 23.2578 22.2734C23.5078 22.138 23.7005 21.9714 23.8359 21.7734C23.9766 21.5755 24.0495 21.388 24.0547 21.2109L24.6484 22.1641C24.5651 22.3776 24.4505 22.599 24.3047 22.8281C24.1641 23.0573 23.9844 23.2734 23.7656 23.4766C23.5469 23.6745 23.2839 23.8385 22.9766 23.9688C22.6693 24.0938 22.3047 24.1562 21.8828 24.1562C21.3464 24.1562 20.8594 24.0495 20.4219 23.8359C19.9896 23.6172 19.6458 23.3177 19.3906 22.9375C19.1406 22.5521 19.0156 22.1146 19.0156 21.625C19.0156 21.1823 19.099 20.7891 19.2656 20.4453C19.4323 20.1016 19.6771 19.8125 20 19.5781C20.3281 19.3385 20.737 19.1589 21.2266 19.0391C21.7161 18.9141 22.2839 18.8516 22.9297 18.8516H24.2344ZM30.1875 17.3906V24H27.9375V15.5469H30.0547L30.1875 17.3906ZM32.7344 15.4922L32.6953 17.5781C32.5859 17.5625 32.4531 17.5495 32.2969 17.5391C32.1458 17.5234 32.0078 17.5156 31.8828 17.5156C31.5651 17.5156 31.2891 17.5573 31.0547 17.6406C30.8255 17.7188 30.6328 17.8359 30.4766 17.9922C30.3255 18.1484 30.2109 18.3385 30.1328 18.5625C30.0599 18.7865 30.0182 19.0417 30.0078 19.3281L29.5547 19.1875C29.5547 18.6406 29.6094 18.138 29.7188 17.6797C29.8281 17.2161 29.987 16.8125 30.1953 16.4688C30.4089 16.125 30.6693 15.8594 30.9766 15.6719C31.2839 15.4844 31.6354 15.3906 32.0312 15.3906C32.1562 15.3906 32.2839 15.401 32.4141 15.4219C32.5443 15.4375 32.651 15.4609 32.7344 15.4922ZM37.1328 22.3984C37.4089 22.3984 37.6536 22.3464 37.8672 22.2422C38.0807 22.1328 38.2474 21.9818 38.3672 21.7891C38.4922 21.5911 38.5573 21.3594 38.5625 21.0938H40.6797C40.6745 21.6875 40.5156 22.2161 40.2031 22.6797C39.8906 23.138 39.4714 23.5 38.9453 23.7656C38.4193 24.026 37.8307 24.1562 37.1797 24.1562C36.5234 24.1562 35.9505 24.0469 35.4609 23.8281C34.9766 23.6094 34.5729 23.3073 34.25 22.9219C33.9271 22.5312 33.6849 22.0781 33.5234 21.5625C33.362 21.0417 33.2812 20.4844 33.2812 19.8906V19.6641C33.2812 19.0651 33.362 18.5078 33.5234 17.9922C33.6849 17.4714 33.9271 17.0182 34.25 16.6328C34.5729 16.2422 34.9766 15.9375 35.4609 15.7188C35.9453 15.5 36.513 15.3906 37.1641 15.3906C37.8568 15.3906 38.4635 15.5234 38.9844 15.7891C39.5104 16.0547 39.9219 16.4349 40.2188 16.9297C40.5208 17.4193 40.6745 18 40.6797 18.6719H38.5625C38.5573 18.3906 38.4974 18.1354 38.3828 17.9062C38.2734 17.6771 38.112 17.4948 37.8984 17.3594C37.6901 17.2188 37.4323 17.1484 37.125 17.1484C36.7969 17.1484 36.5286 17.2188 36.3203 17.3594C36.112 17.4948 35.9505 17.6823 35.8359 17.9219C35.7214 18.1562 35.6406 18.4245 35.5938 18.7266C35.5521 19.0234 35.5312 19.3359 35.5312 19.6641V19.8906C35.5312 20.2188 35.5521 20.5339 35.5938 20.8359C35.6354 21.138 35.7135 21.4062 35.8281 21.6406C35.9479 21.875 36.112 22.0599 36.3203 22.1953C36.5286 22.3307 36.7995 22.3984 37.1328 22.3984ZM44.1797 12V24H41.9297V12H44.1797ZM43.8594 19.4766H43.2422C43.2474 18.888 43.3255 18.3464 43.4766 17.8516C43.6276 17.3516 43.8438 16.9193 44.125 16.5547C44.4062 16.1849 44.7422 15.8984 45.1328 15.6953C45.5286 15.4922 45.9661 15.3906 46.4453 15.3906C46.862 15.3906 47.2396 15.4505 47.5781 15.5703C47.9219 15.6849 48.2161 15.8724 48.4609 16.1328C48.7109 16.388 48.9036 16.724 49.0391 17.1406C49.1745 17.5573 49.2422 18.0625 49.2422 18.6562V24H46.9766V18.6406C46.9766 18.2656 46.9219 17.9714 46.8125 17.7578C46.7083 17.5391 46.5547 17.3854 46.3516 17.2969C46.1536 17.2031 45.9089 17.1562 45.6172 17.1562C45.2943 17.1562 45.0182 17.2161 44.7891 17.3359C44.5651 17.4557 44.3854 17.6224 44.25 17.8359C44.1146 18.0443 44.0156 18.2891 43.9531 18.5703C43.8906 18.8516 43.8594 19.1536 43.8594 19.4766ZM64.4219 18.0469V18.5859C64.4219 19.4505 64.3047 20.2266 64.0703 20.9141C63.8359 21.6016 63.5052 22.1875 63.0781 22.6719C62.651 23.151 62.1406 23.5182 61.5469 23.7734C60.9583 24.0286 60.3047 24.1562 59.5859 24.1562C58.8724 24.1562 58.2188 24.0286 57.625 23.7734C57.0365 23.5182 56.526 23.151 56.0938 22.6719C55.6615 22.1875 55.3255 21.6016 55.0859 20.9141C54.8516 20.2266 54.7344 19.4505 54.7344 18.5859V18.0469C54.7344 17.1771 54.8516 16.401 55.0859 15.7188C55.3203 15.0312 55.651 14.4453 56.0781 13.9609C56.5104 13.4766 57.0208 13.1068 57.6094 12.8516C58.2031 12.5964 58.8568 12.4688 59.5703 12.4688C60.2891 12.4688 60.9427 12.5964 61.5312 12.8516C62.125 13.1068 62.6354 13.4766 63.0625 13.9609C63.4948 14.4453 63.8281 15.0312 64.0625 15.7188C64.3021 16.401 64.4219 17.1771 64.4219 18.0469ZM62.0547 18.5859V18.0312C62.0547 17.4271 62 16.8958 61.8906 16.4375C61.7812 15.9792 61.6198 15.5938 61.4062 15.2812C61.1927 14.9688 60.9323 14.7344 60.625 14.5781C60.3177 14.4167 59.9661 14.3359 59.5703 14.3359C59.1745 14.3359 58.8229 14.4167 58.5156 14.5781C58.2135 14.7344 57.9557 14.9688 57.7422 15.2812C57.5339 15.5938 57.375 15.9792 57.2656 16.4375C57.1562 16.8958 57.1016 17.4271 57.1016 18.0312V18.5859C57.1016 19.1849 57.1562 19.7161 57.2656 20.1797C57.375 20.638 57.5365 21.026 57.75 21.3438C57.9635 21.6562 58.224 21.8932 58.5312 22.0547C58.8385 22.2161 59.1901 22.2969 59.5859 22.2969C59.9818 22.2969 60.3333 22.2161 60.6406 22.0547C60.9479 21.8932 61.2057 21.6562 61.4141 21.3438C61.6224 21.026 61.7812 20.638 61.8906 20.1797C62 19.7161 62.0547 19.1849 62.0547 18.5859ZM68.1719 17.3516V24H65.9219V15.5469H68.0312L68.1719 17.3516ZM67.8438 19.4766H67.2344C67.2344 18.8516 67.3151 18.2891 67.4766 17.7891C67.638 17.2839 67.8646 16.8542 68.1562 16.5C68.4479 16.1406 68.7943 15.8672 69.1953 15.6797C69.6016 15.487 70.0547 15.3906 70.5547 15.3906C70.9505 15.3906 71.3125 15.4479 71.6406 15.5625C71.9688 15.6771 72.25 15.8594 72.4844 16.1094C72.724 16.3594 72.9062 16.6901 73.0312 17.1016C73.1615 17.513 73.2266 18.0156 73.2266 18.6094V24H70.9609V18.6016C70.9609 18.2266 70.9089 17.9349 70.8047 17.7266C70.7005 17.5182 70.5469 17.3724 70.3438 17.2891C70.1458 17.2005 69.901 17.1562 69.6094 17.1562C69.3073 17.1562 69.0443 17.2161 68.8203 17.3359C68.6016 17.4557 68.4193 17.6224 68.2734 17.8359C68.1328 18.0443 68.026 18.2891 67.9531 18.5703C67.8802 18.8516 67.8438 19.1536 67.8438 19.4766ZM78.8594 15.7812V14.6172C78.8594 14.2786 78.9245 13.9297 79.0547 13.5703C79.1849 13.2109 79.3568 12.8724 79.5703 12.5547C79.7839 12.2318 80.0182 11.9583 80.2734 11.7344L81.3203 12.3438C81.1328 12.6562 80.9714 12.9922 80.8359 13.3516C80.7005 13.7109 80.6328 14.1328 80.6328 14.6172V15.7812H78.8594ZM90.3438 22.2422V24H82.5625V22.5L86.2422 18.5547C86.612 18.1432 86.9036 17.7812 87.1172 17.4688C87.3307 17.151 87.4844 16.8672 87.5781 16.6172C87.6771 16.362 87.7266 16.1198 87.7266 15.8906C87.7266 15.5469 87.6693 15.2526 87.5547 15.0078C87.4401 14.7578 87.2708 14.5651 87.0469 14.4297C86.8281 14.2943 86.5573 14.2266 86.2344 14.2266C85.8906 14.2266 85.5938 14.3099 85.3438 14.4766C85.099 14.6432 84.9115 14.875 84.7812 15.1719C84.6562 15.4688 84.5938 15.8047 84.5938 16.1797H82.3359C82.3359 15.5026 82.4974 14.8828 82.8203 14.3203C83.1432 13.7526 83.599 13.3021 84.1875 12.9688C84.776 12.6302 85.474 12.4609 86.2812 12.4609C87.0781 12.4609 87.75 12.5911 88.2969 12.8516C88.849 13.1068 89.2656 13.4766 89.5469 13.9609C89.8333 14.4401 89.9766 15.013 89.9766 15.6797C89.9766 16.0547 89.9167 16.4219 89.7969 16.7812C89.6771 17.1354 89.5052 17.4896 89.2812 17.8438C89.0625 18.1927 88.7969 18.5469 88.4844 18.9062C88.1719 19.2656 87.8255 19.638 87.4453 20.0234L85.4688 22.2422H90.3438ZM97.2344 12.6016V24H94.9844V15.1953L92.2812 16.0547V14.2812L96.9922 12.6016H97.2344Z" fill="#3A1116"/>
</svg>
