<svg width="36" height="36" viewBox="0 0 36 36" fill="none" xmlns="http://www.w3.org/2000/svg">
<path d="M24.77 17H20.54L22.06 12.06C22.38 11.03 21.54 10 20.38 10C19.8 10 19.24 10.24 18.86 10.65L13 17H9V27H13H14H23.43C24.49 27 25.41 26.33 25.62 25.39L26.96 19.39C27.23 18.15 26.18 17 24.77 17ZM13 26H10V18H13V26ZM25.98 19.17L24.64 25.17C24.54 25.65 24.03 26 23.43 26H14V17.39L19.6 11.33C19.79 11.12 20.08 11 20.38 11C20.64 11 20.88 11.11 21.01 11.3C21.08 11.4 21.16 11.56 21.1 11.77L19.58 16.71L19.18 18H20.53H24.76C25.17 18 25.56 18.17 25.79 18.46C25.92 18.61 26.05 18.86 25.98 19.17Z" fill="white"/>
</svg>
