<svg width="87" height="40" viewBox="0 0 87 40" fill="none" xmlns="http://www.w3.org/2000/svg">
<path d="M21 13.63L26.66 20L21 26.37V23V22H20C16.04 22 12.86 23 10.25 25.09C12.09 21.02 15.36 18.69 20.14 17.99L21 17.86V17V13.63ZM20 11V17C12.22 18.13 9.11 23.33 8 29C10.78 25.03 14.44 23 20 23V29L28 20L20 11Z" fill="white"/>
<path d="M42.0703 22.3955C42.0703 22.2178 42.043 22.0583 41.9883 21.917C41.9382 21.7712 41.8424 21.639 41.7012 21.5205C41.5599 21.3975 41.3617 21.2767 41.1064 21.1582C40.8512 21.0397 40.5208 20.9167 40.1152 20.7891C39.6641 20.6432 39.2357 20.4792 38.8301 20.2969C38.429 20.1146 38.0736 19.9027 37.7637 19.6611C37.4583 19.415 37.2168 19.1302 37.0391 18.8066C36.8659 18.4831 36.7793 18.1071 36.7793 17.6787C36.7793 17.264 36.8704 16.888 37.0527 16.5508C37.235 16.209 37.4902 15.9173 37.8184 15.6758C38.1465 15.4297 38.5339 15.2406 38.9805 15.1084C39.4316 14.9762 39.9261 14.9102 40.4639 14.9102C41.1976 14.9102 41.8379 15.0423 42.3848 15.3066C42.9316 15.571 43.3555 15.9333 43.6562 16.3936C43.9616 16.8538 44.1143 17.3802 44.1143 17.9727H42.0771C42.0771 17.681 42.0156 17.4258 41.8926 17.207C41.7741 16.9837 41.5918 16.8083 41.3457 16.6807C41.1042 16.5531 40.7988 16.4893 40.4297 16.4893C40.0742 16.4893 39.778 16.5439 39.541 16.6533C39.304 16.7581 39.1263 16.9017 39.0078 17.084C38.8893 17.2617 38.8301 17.4622 38.8301 17.6855C38.8301 17.8542 38.8711 18.0068 38.9531 18.1436C39.0397 18.2803 39.1673 18.4079 39.3359 18.5264C39.5046 18.6449 39.7119 18.7565 39.958 18.8613C40.2041 18.9661 40.4889 19.0687 40.8125 19.1689C41.3548 19.333 41.8311 19.5176 42.2412 19.7227C42.6559 19.9277 43.0023 20.1579 43.2803 20.4131C43.5583 20.6683 43.7679 20.9577 43.9092 21.2812C44.0505 21.6048 44.1211 21.9717 44.1211 22.3818C44.1211 22.8148 44.0368 23.2021 43.8682 23.5439C43.6995 23.8857 43.4557 24.1751 43.1367 24.4121C42.8177 24.6491 42.4372 24.8291 41.9951 24.9521C41.5531 25.0752 41.0586 25.1367 40.5117 25.1367C40.0195 25.1367 39.5342 25.0729 39.0557 24.9453C38.5771 24.8132 38.1419 24.6149 37.75 24.3506C37.3626 24.0863 37.0527 23.749 36.8203 23.3389C36.5879 22.9287 36.4717 22.4434 36.4717 21.8828H38.5293C38.5293 22.1927 38.5771 22.4548 38.6729 22.6689C38.7686 22.8831 38.903 23.0563 39.0762 23.1885C39.2539 23.3206 39.4635 23.4163 39.7051 23.4756C39.9512 23.5348 40.2201 23.5645 40.5117 23.5645C40.8672 23.5645 41.1589 23.5143 41.3867 23.4141C41.6191 23.3138 41.79 23.1748 41.8994 22.9971C42.0133 22.8193 42.0703 22.6188 42.0703 22.3955ZM52.1533 19.1006V20.7002H46.958V19.1006H52.1533ZM47.5664 15.0469V25H45.5156V15.0469H47.5664ZM53.6162 15.0469V25H51.5723V15.0469H53.6162ZM59.5703 16.749L56.8633 25H54.6826L58.3809 15.0469H59.7686L59.5703 16.749ZM61.8193 25L59.1055 16.749L58.8867 15.0469H60.2881L64.0068 25H61.8193ZM61.6963 21.2949V22.9014H56.4395V21.2949H61.6963ZM64.9297 15.0469H68.6416C69.4027 15.0469 70.0566 15.1608 70.6035 15.3887C71.1549 15.6165 71.5788 15.9538 71.875 16.4004C72.1712 16.847 72.3193 17.3962 72.3193 18.0479C72.3193 18.5811 72.2282 19.0391 72.0459 19.4219C71.8682 19.8001 71.6152 20.1169 71.2871 20.3721C70.9635 20.6227 70.583 20.8232 70.1455 20.9736L69.4961 21.3154H66.2695L66.2559 19.7158H68.6553C69.0153 19.7158 69.3138 19.652 69.5508 19.5244C69.7878 19.3968 69.9655 19.2191 70.084 18.9912C70.207 18.7633 70.2686 18.499 70.2686 18.1982C70.2686 17.8792 70.2093 17.6035 70.0908 17.3711C69.9723 17.1387 69.7923 16.9609 69.5508 16.8379C69.3092 16.7148 69.0062 16.6533 68.6416 16.6533H66.9805V25H64.9297V15.0469ZM70.4941 25L68.2246 20.5635L70.3916 20.5498L72.6885 24.9043V25H70.4941ZM80.5771 23.4004V25H75.2793V23.4004H80.5771ZM75.9492 15.0469V25H73.8984V15.0469H75.9492ZM79.8867 19.1006V20.6592H75.2793V19.1006H79.8867ZM80.5703 15.0469V16.6533H75.2793V15.0469H80.5703Z" fill="white"/>
</svg>
