<svg width="224" height="40" viewBox="0 0 224 40" fill="none" xmlns="http://www.w3.org/2000/svg">
<g clip-path="url(#clip0_1142_785)">
<path d="M42.77 19H38.54L40.06 14.06C40.38 13.03 39.54 12 38.38 12C37.8 12 37.24 12.24 36.86 12.65L31 19H27V29H31H32H41.43C42.49 29 43.41 28.33 43.62 27.39L44.96 21.39C45.23 20.15 44.18 19 42.77 19ZM31 28H28V20H31V28ZM43.98 21.17L42.64 27.17C42.54 27.65 42.03 28 41.43 28H32V19.39L37.6 13.33C37.79 13.12 38.08 13 38.38 13C38.64 13 38.88 13.11 39.01 13.3C39.08 13.4 39.16 13.56 39.1 13.77L37.58 18.71L37.18 20H38.53H42.76C43.17 20 43.56 20.17 43.79 20.46C43.92 20.61 44.05 20.86 43.98 21.17Z" fill="white"/>
</g>
<path d="M79.1914 23.9268V25H74.2148V23.9268H79.1914ZM74.4746 15.0469V25H73.1553V15.0469H74.4746ZM81.8848 17.6035V25H80.6133V17.6035H81.8848ZM80.5176 15.6416C80.5176 15.4365 80.5791 15.2633 80.7021 15.1221C80.8298 14.9808 81.0166 14.9102 81.2627 14.9102C81.5042 14.9102 81.6888 14.9808 81.8164 15.1221C81.9486 15.2633 82.0146 15.4365 82.0146 15.6416C82.0146 15.8376 81.9486 16.0062 81.8164 16.1475C81.6888 16.2842 81.5042 16.3525 81.2627 16.3525C81.0166 16.3525 80.8298 16.2842 80.7021 16.1475C80.5791 16.0062 80.5176 15.8376 80.5176 15.6416ZM85.1865 14.5V25H83.915V14.5H85.1865ZM89.7051 17.6035L86.4785 21.0557L84.6738 22.9287L84.5713 21.582L85.8633 20.0371L88.1602 17.6035H89.7051ZM88.5498 25L85.9111 21.4727L86.5674 20.3447L90.04 25H88.5498ZM93.9434 25.1367C93.4284 25.1367 92.9613 25.0501 92.542 24.877C92.1273 24.6992 91.7695 24.4508 91.4688 24.1318C91.1725 23.8128 90.9447 23.4346 90.7852 22.9971C90.6257 22.5596 90.5459 22.0811 90.5459 21.5615V21.2744C90.5459 20.6729 90.6348 20.1374 90.8125 19.668C90.9902 19.194 91.2318 18.793 91.5371 18.4648C91.8424 18.1367 92.1888 17.8883 92.5762 17.7197C92.9635 17.5511 93.3646 17.4668 93.7793 17.4668C94.3079 17.4668 94.7637 17.5579 95.1465 17.7402C95.5339 17.9225 95.8506 18.1777 96.0967 18.5059C96.3428 18.8294 96.5251 19.2122 96.6436 19.6543C96.762 20.0918 96.8213 20.5703 96.8213 21.0898V21.6572H91.2979V20.625H95.5566V20.5293C95.5384 20.2012 95.4701 19.8822 95.3516 19.5723C95.2376 19.2624 95.0553 19.0072 94.8047 18.8066C94.554 18.6061 94.2122 18.5059 93.7793 18.5059C93.4922 18.5059 93.2279 18.5674 92.9863 18.6904C92.7448 18.8089 92.5374 18.9867 92.3643 19.2236C92.1911 19.4606 92.0566 19.75 91.9609 20.0918C91.8652 20.4336 91.8174 20.8278 91.8174 21.2744V21.5615C91.8174 21.9124 91.8652 22.2428 91.9609 22.5527C92.0612 22.8581 92.2048 23.127 92.3916 23.3594C92.583 23.5918 92.8132 23.7741 93.082 23.9062C93.3555 24.0384 93.6654 24.1045 94.0117 24.1045C94.4583 24.1045 94.8366 24.0133 95.1465 23.8311C95.4564 23.6488 95.7275 23.4049 95.96 23.0996L96.7256 23.708C96.5661 23.9495 96.3633 24.1797 96.1172 24.3984C95.8711 24.6172 95.568 24.7949 95.208 24.9316C94.8525 25.0684 94.431 25.1367 93.9434 25.1367ZM102.96 23.5645V14.5H104.231V25H103.069L102.96 23.5645ZM97.9834 21.3838V21.2402C97.9834 20.6751 98.0518 20.1624 98.1885 19.7021C98.3298 19.2373 98.528 18.8385 98.7832 18.5059C99.043 18.1732 99.3506 17.918 99.7061 17.7402C100.066 17.5579 100.467 17.4668 100.909 17.4668C101.374 17.4668 101.78 17.5488 102.126 17.7129C102.477 17.8724 102.773 18.1071 103.015 18.417C103.261 18.7223 103.454 19.0915 103.596 19.5244C103.737 19.9574 103.835 20.4473 103.89 20.9941V21.623C103.84 22.1654 103.742 22.653 103.596 23.0859C103.454 23.5189 103.261 23.888 103.015 24.1934C102.773 24.4987 102.477 24.7334 102.126 24.8975C101.775 25.057 101.365 25.1367 100.896 25.1367C100.463 25.1367 100.066 25.0433 99.7061 24.8564C99.3506 24.6696 99.043 24.4076 98.7832 24.0703C98.528 23.7331 98.3298 23.3366 98.1885 22.8809C98.0518 22.4206 97.9834 21.9215 97.9834 21.3838ZM99.2549 21.2402V21.3838C99.2549 21.7529 99.2913 22.0993 99.3643 22.4229C99.4417 22.7464 99.5602 23.0312 99.7197 23.2773C99.8792 23.5234 100.082 23.7171 100.328 23.8584C100.574 23.9951 100.868 24.0635 101.21 24.0635C101.629 24.0635 101.973 23.9746 102.242 23.7969C102.516 23.6191 102.734 23.3844 102.898 23.0928C103.062 22.8011 103.19 22.4844 103.281 22.1426V20.4951C103.227 20.2445 103.147 20.0029 103.042 19.7705C102.942 19.5335 102.81 19.3239 102.646 19.1416C102.486 18.9548 102.288 18.8066 102.051 18.6973C101.818 18.5879 101.543 18.5332 101.224 18.5332C100.877 18.5332 100.579 18.6061 100.328 18.752C100.082 18.8932 99.8792 19.0892 99.7197 19.3398C99.5602 19.5859 99.4417 19.873 99.3643 20.2012C99.2913 20.5247 99.2549 20.8711 99.2549 21.2402ZM113.077 23.4893L116.01 15.0469H117.438L113.754 25H112.735L113.077 23.4893ZM110.336 15.0469L113.241 23.4893L113.604 25H112.585L108.907 15.0469H110.336ZM119.961 17.6035V25H118.689V17.6035H119.961ZM118.594 15.6416C118.594 15.4365 118.655 15.2633 118.778 15.1221C118.906 14.9808 119.093 14.9102 119.339 14.9102C119.58 14.9102 119.765 14.9808 119.893 15.1221C120.025 15.2633 120.091 15.4365 120.091 15.6416C120.091 15.8376 120.025 16.0062 119.893 16.1475C119.765 16.2842 119.58 16.3525 119.339 16.3525C119.093 16.3525 118.906 16.2842 118.778 16.1475C118.655 16.0062 118.594 15.8376 118.594 15.6416ZM126.653 23.5645V14.5H127.925V25H126.763L126.653 23.5645ZM121.677 21.3838V21.2402C121.677 20.6751 121.745 20.1624 121.882 19.7021C122.023 19.2373 122.221 18.8385 122.477 18.5059C122.736 18.1732 123.044 17.918 123.399 17.7402C123.759 17.5579 124.16 17.4668 124.603 17.4668C125.067 17.4668 125.473 17.5488 125.819 17.7129C126.17 17.8724 126.466 18.1071 126.708 18.417C126.954 18.7223 127.148 19.0915 127.289 19.5244C127.43 19.9574 127.528 20.4473 127.583 20.9941V21.623C127.533 22.1654 127.435 22.653 127.289 23.0859C127.148 23.5189 126.954 23.888 126.708 24.1934C126.466 24.4987 126.17 24.7334 125.819 24.8975C125.468 25.057 125.058 25.1367 124.589 25.1367C124.156 25.1367 123.759 25.0433 123.399 24.8564C123.044 24.6696 122.736 24.4076 122.477 24.0703C122.221 23.7331 122.023 23.3366 121.882 22.8809C121.745 22.4206 121.677 21.9215 121.677 21.3838ZM122.948 21.2402V21.3838C122.948 21.7529 122.985 22.0993 123.058 22.4229C123.135 22.7464 123.254 23.0312 123.413 23.2773C123.573 23.5234 123.775 23.7171 124.021 23.8584C124.268 23.9951 124.562 24.0635 124.903 24.0635C125.323 24.0635 125.667 23.9746 125.936 23.7969C126.209 23.6191 126.428 23.3844 126.592 23.0928C126.756 22.8011 126.883 22.4844 126.975 22.1426V20.4951C126.92 20.2445 126.84 20.0029 126.735 19.7705C126.635 19.5335 126.503 19.3239 126.339 19.1416C126.179 18.9548 125.981 18.8066 125.744 18.6973C125.512 18.5879 125.236 18.5332 124.917 18.5332C124.571 18.5332 124.272 18.6061 124.021 18.752C123.775 18.8932 123.573 19.0892 123.413 19.3398C123.254 19.5859 123.135 19.873 123.058 20.2012C122.985 20.5247 122.948 20.8711 122.948 21.2402ZM132.963 25.1367C132.448 25.1367 131.981 25.0501 131.562 24.877C131.147 24.6992 130.789 24.4508 130.488 24.1318C130.192 23.8128 129.964 23.4346 129.805 22.9971C129.645 22.5596 129.565 22.0811 129.565 21.5615V21.2744C129.565 20.6729 129.654 20.1374 129.832 19.668C130.01 19.194 130.251 18.793 130.557 18.4648C130.862 18.1367 131.208 17.8883 131.596 17.7197C131.983 17.5511 132.384 17.4668 132.799 17.4668C133.327 17.4668 133.783 17.5579 134.166 17.7402C134.553 17.9225 134.87 18.1777 135.116 18.5059C135.362 18.8294 135.545 19.2122 135.663 19.6543C135.782 20.0918 135.841 20.5703 135.841 21.0898V21.6572H130.317V20.625H134.576V20.5293C134.558 20.2012 134.49 19.8822 134.371 19.5723C134.257 19.2624 134.075 19.0072 133.824 18.8066C133.574 18.6061 133.232 18.5059 132.799 18.5059C132.512 18.5059 132.247 18.5674 132.006 18.6904C131.764 18.8089 131.557 18.9867 131.384 19.2236C131.211 19.4606 131.076 19.75 130.98 20.0918C130.885 20.4336 130.837 20.8278 130.837 21.2744V21.5615C130.837 21.9124 130.885 22.2428 130.98 22.5527C131.081 22.8581 131.224 23.127 131.411 23.3594C131.603 23.5918 131.833 23.7741 132.102 23.9062C132.375 24.0384 132.685 24.1045 133.031 24.1045C133.478 24.1045 133.856 24.0133 134.166 23.8311C134.476 23.6488 134.747 23.4049 134.979 23.0996L135.745 23.708C135.586 23.9495 135.383 24.1797 135.137 24.3984C134.891 24.6172 134.588 24.7949 134.228 24.9316C133.872 25.0684 133.451 25.1367 132.963 25.1367ZM136.982 21.3838V21.2266C136.982 20.6934 137.06 20.1989 137.215 19.7432C137.37 19.2829 137.593 18.8841 137.885 18.5469C138.176 18.2051 138.53 17.9408 138.944 17.7539C139.359 17.5625 139.824 17.4668 140.339 17.4668C140.858 17.4668 141.326 17.5625 141.74 17.7539C142.16 17.9408 142.515 18.2051 142.807 18.5469C143.103 18.8841 143.328 19.2829 143.483 19.7432C143.638 20.1989 143.716 20.6934 143.716 21.2266V21.3838C143.716 21.917 143.638 22.4115 143.483 22.8672C143.328 23.3229 143.103 23.7217 142.807 24.0635C142.515 24.4007 142.162 24.665 141.747 24.8564C141.337 25.0433 140.872 25.1367 140.353 25.1367C139.833 25.1367 139.366 25.0433 138.951 24.8564C138.536 24.665 138.181 24.4007 137.885 24.0635C137.593 23.7217 137.37 23.3229 137.215 22.8672C137.06 22.4115 136.982 21.917 136.982 21.3838ZM138.247 21.2266V21.3838C138.247 21.7529 138.29 22.1016 138.377 22.4297C138.464 22.7533 138.593 23.0404 138.767 23.291C138.944 23.5417 139.165 23.7399 139.43 23.8857C139.694 24.027 140.002 24.0977 140.353 24.0977C140.699 24.0977 141.002 24.027 141.262 23.8857C141.526 23.7399 141.745 23.5417 141.918 23.291C142.091 23.0404 142.221 22.7533 142.308 22.4297C142.399 22.1016 142.444 21.7529 142.444 21.3838V21.2266C142.444 20.862 142.399 20.5179 142.308 20.1943C142.221 19.8662 142.089 19.5768 141.911 19.3262C141.738 19.071 141.519 18.8704 141.255 18.7246C140.995 18.5788 140.69 18.5059 140.339 18.5059C139.993 18.5059 139.687 18.5788 139.423 18.7246C139.163 18.8704 138.944 19.071 138.767 19.3262C138.593 19.5768 138.464 19.8662 138.377 20.1943C138.29 20.5179 138.247 20.862 138.247 21.2266ZM149.608 23.0381C149.608 22.8558 149.567 22.6872 149.485 22.5322C149.408 22.3727 149.246 22.2292 149 22.1016C148.758 21.9694 148.394 21.8555 147.906 21.7598C147.496 21.6732 147.125 21.5706 146.792 21.4521C146.464 21.3337 146.184 21.1901 145.951 21.0215C145.723 20.8529 145.548 20.6546 145.425 20.4268C145.302 20.1989 145.24 19.9323 145.24 19.627C145.24 19.3353 145.304 19.0596 145.432 18.7998C145.564 18.54 145.748 18.3099 145.985 18.1094C146.227 17.9089 146.516 17.7516 146.854 17.6377C147.191 17.5238 147.567 17.4668 147.981 17.4668C148.574 17.4668 149.08 17.5716 149.499 17.7812C149.918 17.9909 150.24 18.2712 150.463 18.6221C150.686 18.9684 150.798 19.3535 150.798 19.7773H149.533C149.533 19.5723 149.472 19.374 149.349 19.1826C149.23 18.9867 149.055 18.8249 148.822 18.6973C148.594 18.5697 148.314 18.5059 147.981 18.5059C147.631 18.5059 147.346 18.5605 147.127 18.6699C146.913 18.7747 146.756 18.9092 146.655 19.0732C146.56 19.2373 146.512 19.4105 146.512 19.5928C146.512 19.7295 146.535 19.8525 146.58 19.9619C146.63 20.0667 146.717 20.1647 146.84 20.2559C146.963 20.3424 147.136 20.4245 147.359 20.502C147.583 20.5794 147.868 20.6569 148.214 20.7344C148.82 20.8711 149.319 21.0352 149.711 21.2266C150.103 21.418 150.395 21.6527 150.586 21.9307C150.777 22.2087 150.873 22.5459 150.873 22.9424C150.873 23.266 150.805 23.5622 150.668 23.8311C150.536 24.0999 150.342 24.3324 150.087 24.5283C149.836 24.7197 149.535 24.8701 149.185 24.9795C148.838 25.0843 148.449 25.1367 148.016 25.1367C147.364 25.1367 146.812 25.0205 146.361 24.7881C145.91 24.5557 145.568 24.2549 145.336 23.8857C145.104 23.5166 144.987 23.127 144.987 22.7168H146.259C146.277 23.0632 146.377 23.3389 146.56 23.5439C146.742 23.7445 146.965 23.888 147.229 23.9746C147.494 24.0566 147.756 24.0977 148.016 24.0977C148.362 24.0977 148.651 24.0521 148.884 23.9609C149.121 23.8698 149.301 23.7445 149.424 23.585C149.547 23.4255 149.608 23.2432 149.608 23.0381Z" fill="white"/>
<defs>
<clipPath id="clip0_1142_785">
<rect width="24" height="24" fill="white" transform="translate(24 8)"/>
</clipPath>
</defs>
</svg>
