<svg width="224" height="40" viewBox="0 0 224 40" fill="none" xmlns="http://www.w3.org/2000/svg">
<g clip-path="url(#clip0_1142_913)">
<path d="M37.18 12L37.42 13.2L37.58 14H38.4H43V21H37.82L37.58 19.8L37.42 19H36.6H30V12H37.18ZM38 11H29V29H30V20H36.6L37 22H44V13H38.4L38 11Z" fill="white"/>
</g>
<path d="M73.1553 15.0469H76.4502C77.1976 15.0469 77.8288 15.1608 78.3438 15.3887C78.8633 15.6165 79.2575 15.9538 79.5264 16.4004C79.7998 16.8424 79.9365 17.387 79.9365 18.0342C79.9365 18.4899 79.8431 18.9069 79.6562 19.2852C79.474 19.6589 79.2096 19.9779 78.8633 20.2422C78.5215 20.502 78.1113 20.6956 77.6328 20.8232L77.2637 20.9668H74.167L74.1533 19.8936H76.4912C76.9652 19.8936 77.3594 19.8115 77.6738 19.6475C77.9883 19.4788 78.2253 19.2533 78.3848 18.9707C78.5443 18.6882 78.624 18.376 78.624 18.0342C78.624 17.6514 78.5488 17.3164 78.3984 17.0293C78.248 16.7422 78.0111 16.5212 77.6875 16.3662C77.3685 16.2067 76.9561 16.127 76.4502 16.127H74.4746V25H73.1553V15.0469ZM78.9727 25L76.5527 20.4883L77.9268 20.4814L80.3809 24.918V25H78.9727ZM84.6602 25.1367C84.1452 25.1367 83.6781 25.0501 83.2588 24.877C82.8441 24.6992 82.4863 24.4508 82.1855 24.1318C81.8893 23.8128 81.6615 23.4346 81.502 22.9971C81.3424 22.5596 81.2627 22.0811 81.2627 21.5615V21.2744C81.2627 20.6729 81.3516 20.1374 81.5293 19.668C81.707 19.194 81.9486 18.793 82.2539 18.4648C82.5592 18.1367 82.9056 17.8883 83.293 17.7197C83.6803 17.5511 84.0814 17.4668 84.4961 17.4668C85.0247 17.4668 85.4805 17.5579 85.8633 17.7402C86.2507 17.9225 86.5674 18.1777 86.8135 18.5059C87.0596 18.8294 87.2419 19.2122 87.3604 19.6543C87.4788 20.0918 87.5381 20.5703 87.5381 21.0898V21.6572H82.0146V20.625H86.2734V20.5293C86.2552 20.2012 86.1868 19.8822 86.0684 19.5723C85.9544 19.2624 85.7721 19.0072 85.5215 18.8066C85.2708 18.6061 84.929 18.5059 84.4961 18.5059C84.209 18.5059 83.9447 18.5674 83.7031 18.6904C83.4616 18.8089 83.2542 18.9867 83.0811 19.2236C82.9079 19.4606 82.7734 19.75 82.6777 20.0918C82.582 20.4336 82.5342 20.8278 82.5342 21.2744V21.5615C82.5342 21.9124 82.582 22.2428 82.6777 22.5527C82.778 22.8581 82.9215 23.127 83.1084 23.3594C83.2998 23.5918 83.5299 23.7741 83.7988 23.9062C84.0723 24.0384 84.3822 24.1045 84.7285 24.1045C85.1751 24.1045 85.5534 24.0133 85.8633 23.8311C86.1732 23.6488 86.4443 23.4049 86.6768 23.0996L87.4424 23.708C87.2829 23.9495 87.0801 24.1797 86.834 24.3984C86.5879 24.6172 86.2848 24.7949 85.9248 24.9316C85.5693 25.0684 85.1478 25.1367 84.6602 25.1367ZM90.2793 19.0254V27.8438H89.0078V17.6035H90.1699L90.2793 19.0254ZM95.2627 21.2402V21.3838C95.2627 21.9215 95.1989 22.4206 95.0713 22.8809C94.9437 23.3366 94.7568 23.7331 94.5107 24.0703C94.2692 24.4076 93.9707 24.6696 93.6152 24.8564C93.2598 25.0433 92.8519 25.1367 92.3916 25.1367C91.9222 25.1367 91.5075 25.0592 91.1475 24.9043C90.7874 24.7493 90.4821 24.5238 90.2314 24.2275C89.9808 23.9313 89.7803 23.5758 89.6299 23.1611C89.484 22.7464 89.3838 22.2793 89.3291 21.7598V20.9941C89.3838 20.4473 89.4863 19.9574 89.6367 19.5244C89.7871 19.0915 89.9854 18.7223 90.2314 18.417C90.4821 18.1071 90.7852 17.8724 91.1406 17.7129C91.4961 17.5488 91.9062 17.4668 92.3711 17.4668C92.8359 17.4668 93.2484 17.5579 93.6084 17.7402C93.9684 17.918 94.2715 18.1732 94.5176 18.5059C94.7637 18.8385 94.9482 19.2373 95.0713 19.7021C95.1989 20.1624 95.2627 20.6751 95.2627 21.2402ZM93.9912 21.3838V21.2402C93.9912 20.8711 93.9525 20.5247 93.875 20.2012C93.7975 19.873 93.6768 19.5859 93.5127 19.3398C93.3532 19.0892 93.1481 18.8932 92.8975 18.752C92.6468 18.6061 92.3483 18.5332 92.002 18.5332C91.6829 18.5332 91.4049 18.5879 91.168 18.6973C90.9355 18.8066 90.7373 18.9548 90.5732 19.1416C90.4092 19.3239 90.2747 19.5335 90.1699 19.7705C90.0697 20.0029 89.9945 20.2445 89.9443 20.4951V22.2656C90.0355 22.5846 90.1631 22.8854 90.3271 23.168C90.4912 23.446 90.71 23.6715 90.9834 23.8447C91.2568 24.0133 91.6009 24.0977 92.0156 24.0977C92.3574 24.0977 92.6514 24.027 92.8975 23.8857C93.1481 23.7399 93.3532 23.5417 93.5127 23.291C93.6768 23.0404 93.7975 22.7533 93.875 22.4297C93.9525 22.1016 93.9912 21.7529 93.9912 21.3838ZM96.541 21.3838V21.2266C96.541 20.6934 96.6185 20.1989 96.7734 19.7432C96.9284 19.2829 97.1517 18.8841 97.4434 18.5469C97.735 18.2051 98.0882 17.9408 98.5029 17.7539C98.9176 17.5625 99.3825 17.4668 99.8975 17.4668C100.417 17.4668 100.884 17.5625 101.299 17.7539C101.718 17.9408 102.074 18.2051 102.365 18.5469C102.661 18.8841 102.887 19.2829 103.042 19.7432C103.197 20.1989 103.274 20.6934 103.274 21.2266V21.3838C103.274 21.917 103.197 22.4115 103.042 22.8672C102.887 23.3229 102.661 23.7217 102.365 24.0635C102.074 24.4007 101.72 24.665 101.306 24.8564C100.896 25.0433 100.431 25.1367 99.9111 25.1367C99.3916 25.1367 98.9245 25.0433 98.5098 24.8564C98.0951 24.665 97.7396 24.4007 97.4434 24.0635C97.1517 23.7217 96.9284 23.3229 96.7734 22.8672C96.6185 22.4115 96.541 21.917 96.541 21.3838ZM97.8057 21.2266V21.3838C97.8057 21.7529 97.849 22.1016 97.9355 22.4297C98.0221 22.7533 98.152 23.0404 98.3252 23.291C98.5029 23.5417 98.724 23.7399 98.9883 23.8857C99.2526 24.027 99.5602 24.0977 99.9111 24.0977C100.257 24.0977 100.561 24.027 100.82 23.8857C101.085 23.7399 101.303 23.5417 101.477 23.291C101.65 23.0404 101.78 22.7533 101.866 22.4297C101.957 22.1016 102.003 21.7529 102.003 21.3838V21.2266C102.003 20.862 101.957 20.5179 101.866 20.1943C101.78 19.8662 101.647 19.5768 101.47 19.3262C101.297 19.071 101.078 18.8704 100.813 18.7246C100.554 18.5788 100.248 18.5059 99.8975 18.5059C99.5511 18.5059 99.2458 18.5788 98.9814 18.7246C98.7217 18.8704 98.5029 19.071 98.3252 19.3262C98.152 19.5768 98.0221 19.8662 97.9355 20.1943C97.849 20.5179 97.8057 20.862 97.8057 21.2266ZM106.125 18.7656V25H104.86V17.6035H106.091L106.125 18.7656ZM108.436 17.5625L108.429 18.7383C108.324 18.7155 108.224 18.7018 108.128 18.6973C108.037 18.6882 107.932 18.6836 107.813 18.6836C107.522 18.6836 107.264 18.7292 107.041 18.8203C106.818 18.9115 106.629 19.0391 106.474 19.2031C106.319 19.3672 106.196 19.5632 106.104 19.791C106.018 20.0143 105.961 20.2604 105.934 20.5293L105.578 20.7344C105.578 20.2878 105.621 19.8685 105.708 19.4766C105.799 19.0846 105.938 18.7383 106.125 18.4375C106.312 18.1322 106.549 17.8952 106.836 17.7266C107.128 17.5534 107.474 17.4668 107.875 17.4668C107.966 17.4668 108.071 17.4782 108.189 17.501C108.308 17.5192 108.39 17.5397 108.436 17.5625ZM113.043 17.6035V18.5742H109.044V17.6035H113.043ZM110.397 15.8057H111.662V23.168C111.662 23.4186 111.701 23.6077 111.778 23.7354C111.856 23.863 111.956 23.9473 112.079 23.9883C112.202 24.0293 112.334 24.0498 112.476 24.0498C112.58 24.0498 112.69 24.0407 112.804 24.0225C112.922 23.9997 113.011 23.9814 113.07 23.9678L113.077 25C112.977 25.0319 112.845 25.0615 112.681 25.0889C112.521 25.1208 112.327 25.1367 112.1 25.1367C111.79 25.1367 111.505 25.0752 111.245 24.9521C110.985 24.8291 110.778 24.624 110.623 24.3369C110.473 24.0452 110.397 23.6533 110.397 23.1611V15.8057ZM119.264 14.5V25H117.999V14.5H119.264ZM118.963 21.0215L118.437 21.001C118.441 20.4951 118.516 20.028 118.662 19.5996C118.808 19.1667 119.013 18.7907 119.277 18.4717C119.542 18.1527 119.856 17.9066 120.221 17.7334C120.59 17.5557 120.998 17.4668 121.444 17.4668C121.809 17.4668 122.137 17.5169 122.429 17.6172C122.72 17.7129 122.969 17.8678 123.174 18.082C123.383 18.2962 123.543 18.5742 123.652 18.916C123.762 19.2533 123.816 19.6657 123.816 20.1533V25H122.545V20.1396C122.545 19.7523 122.488 19.4424 122.374 19.21C122.26 18.973 122.094 18.8021 121.875 18.6973C121.656 18.5879 121.387 18.5332 121.068 18.5332C120.754 18.5332 120.467 18.5993 120.207 18.7314C119.952 18.8636 119.731 19.0459 119.544 19.2783C119.362 19.5107 119.218 19.7773 119.113 20.0781C119.013 20.3743 118.963 20.6888 118.963 21.0215ZM127.084 17.6035V25H125.812V17.6035H127.084ZM125.717 15.6416C125.717 15.4365 125.778 15.2633 125.901 15.1221C126.029 14.9808 126.216 14.9102 126.462 14.9102C126.703 14.9102 126.888 14.9808 127.016 15.1221C127.148 15.2633 127.214 15.4365 127.214 15.6416C127.214 15.8376 127.148 16.0062 127.016 16.1475C126.888 16.2842 126.703 16.3525 126.462 16.3525C126.216 16.3525 126.029 16.2842 125.901 16.1475C125.778 16.0062 125.717 15.8376 125.717 15.6416ZM133.421 23.0381C133.421 22.8558 133.38 22.6872 133.298 22.5322C133.22 22.3727 133.059 22.2292 132.812 22.1016C132.571 21.9694 132.206 21.8555 131.719 21.7598C131.309 21.6732 130.937 21.5706 130.604 21.4521C130.276 21.3337 129.996 21.1901 129.764 21.0215C129.536 20.8529 129.36 20.6546 129.237 20.4268C129.114 20.1989 129.053 19.9323 129.053 19.627C129.053 19.3353 129.117 19.0596 129.244 18.7998C129.376 18.54 129.561 18.3099 129.798 18.1094C130.039 17.9089 130.329 17.7516 130.666 17.6377C131.003 17.5238 131.379 17.4668 131.794 17.4668C132.386 17.4668 132.892 17.5716 133.312 17.7812C133.731 17.9909 134.052 18.2712 134.275 18.6221C134.499 18.9684 134.61 19.3535 134.61 19.7773H133.346C133.346 19.5723 133.284 19.374 133.161 19.1826C133.043 18.9867 132.867 18.8249 132.635 18.6973C132.407 18.5697 132.127 18.5059 131.794 18.5059C131.443 18.5059 131.158 18.5605 130.939 18.6699C130.725 18.7747 130.568 18.9092 130.468 19.0732C130.372 19.2373 130.324 19.4105 130.324 19.5928C130.324 19.7295 130.347 19.8525 130.393 19.9619C130.443 20.0667 130.529 20.1647 130.652 20.2559C130.775 20.3424 130.949 20.4245 131.172 20.502C131.395 20.5794 131.68 20.6569 132.026 20.7344C132.632 20.8711 133.132 21.0352 133.523 21.2266C133.915 21.418 134.207 21.6527 134.398 21.9307C134.59 22.2087 134.686 22.5459 134.686 22.9424C134.686 23.266 134.617 23.5622 134.48 23.8311C134.348 24.0999 134.155 24.3324 133.899 24.5283C133.649 24.7197 133.348 24.8701 132.997 24.9795C132.651 25.0843 132.261 25.1367 131.828 25.1367C131.176 25.1367 130.625 25.0205 130.174 24.7881C129.723 24.5557 129.381 24.2549 129.148 23.8857C128.916 23.5166 128.8 23.127 128.8 22.7168H130.071C130.09 23.0632 130.19 23.3389 130.372 23.5439C130.554 23.7445 130.778 23.888 131.042 23.9746C131.306 24.0566 131.568 24.0977 131.828 24.0977C132.174 24.0977 132.464 24.0521 132.696 23.9609C132.933 23.8698 133.113 23.7445 133.236 23.585C133.359 23.4255 133.421 23.2432 133.421 23.0381ZM139.443 17.6035V18.5742H135.444V17.6035H139.443ZM136.798 15.8057H138.062V23.168C138.062 23.4186 138.101 23.6077 138.179 23.7354C138.256 23.863 138.356 23.9473 138.479 23.9883C138.603 24.0293 138.735 24.0498 138.876 24.0498C138.981 24.0498 139.09 24.0407 139.204 24.0225C139.323 23.9997 139.411 23.9814 139.471 23.9678L139.478 25C139.377 25.0319 139.245 25.0615 139.081 25.0889C138.922 25.1208 138.728 25.1367 138.5 25.1367C138.19 25.1367 137.905 25.0752 137.646 24.9521C137.386 24.8291 137.178 24.624 137.023 24.3369C136.873 24.0452 136.798 23.6533 136.798 23.1611V15.8057ZM140.455 21.3838V21.2266C140.455 20.6934 140.533 20.1989 140.688 19.7432C140.842 19.2829 141.066 18.8841 141.357 18.5469C141.649 18.2051 142.002 17.9408 142.417 17.7539C142.832 17.5625 143.297 17.4668 143.812 17.4668C144.331 17.4668 144.798 17.5625 145.213 17.7539C145.632 17.9408 145.988 18.2051 146.279 18.5469C146.576 18.8841 146.801 19.2829 146.956 19.7432C147.111 20.1989 147.188 20.6934 147.188 21.2266V21.3838C147.188 21.917 147.111 22.4115 146.956 22.8672C146.801 23.3229 146.576 23.7217 146.279 24.0635C145.988 24.4007 145.634 24.665 145.22 24.8564C144.81 25.0433 144.345 25.1367 143.825 25.1367C143.306 25.1367 142.839 25.0433 142.424 24.8564C142.009 24.665 141.654 24.4007 141.357 24.0635C141.066 23.7217 140.842 23.3229 140.688 22.8672C140.533 22.4115 140.455 21.917 140.455 21.3838ZM141.72 21.2266V21.3838C141.72 21.7529 141.763 22.1016 141.85 22.4297C141.936 22.7533 142.066 23.0404 142.239 23.291C142.417 23.5417 142.638 23.7399 142.902 23.8857C143.167 24.027 143.474 24.0977 143.825 24.0977C144.172 24.0977 144.475 24.027 144.734 23.8857C144.999 23.7399 145.217 23.5417 145.391 23.291C145.564 23.0404 145.694 22.7533 145.78 22.4297C145.871 22.1016 145.917 21.7529 145.917 21.3838V21.2266C145.917 20.862 145.871 20.5179 145.78 20.1943C145.694 19.8662 145.562 19.5768 145.384 19.3262C145.211 19.071 144.992 18.8704 144.728 18.7246C144.468 18.5788 144.162 18.5059 143.812 18.5059C143.465 18.5059 143.16 18.5788 142.896 18.7246C142.636 18.8704 142.417 19.071 142.239 19.3262C142.066 19.5768 141.936 19.8662 141.85 20.1943C141.763 20.5179 141.72 20.862 141.72 21.2266ZM150.039 18.7656V25H148.774V17.6035H150.005L150.039 18.7656ZM152.35 17.5625L152.343 18.7383C152.238 18.7155 152.138 18.7018 152.042 18.6973C151.951 18.6882 151.846 18.6836 151.728 18.6836C151.436 18.6836 151.178 18.7292 150.955 18.8203C150.732 18.9115 150.543 19.0391 150.388 19.2031C150.233 19.3672 150.11 19.5632 150.019 19.791C149.932 20.0143 149.875 20.2604 149.848 20.5293L149.492 20.7344C149.492 20.2878 149.535 19.8685 149.622 19.4766C149.713 19.0846 149.852 18.7383 150.039 18.4375C150.226 18.1322 150.463 17.8952 150.75 17.7266C151.042 17.5534 151.388 17.4668 151.789 17.4668C151.88 17.4668 151.985 17.4782 152.104 17.501C152.222 17.5192 152.304 17.5397 152.35 17.5625ZM155.72 24.2344L157.777 17.6035H159.131L156.164 26.1416C156.096 26.3239 156.005 26.5199 155.891 26.7295C155.781 26.9437 155.64 27.1465 155.467 27.3379C155.294 27.5293 155.084 27.6842 154.838 27.8027C154.596 27.9258 154.307 27.9873 153.97 27.9873C153.869 27.9873 153.742 27.9736 153.587 27.9463C153.432 27.9189 153.323 27.8962 153.259 27.8779L153.252 26.8525C153.288 26.8571 153.345 26.8617 153.423 26.8662C153.505 26.8753 153.562 26.8799 153.594 26.8799C153.881 26.8799 154.125 26.8411 154.325 26.7637C154.526 26.6908 154.694 26.5654 154.831 26.3877C154.972 26.2145 155.093 25.9753 155.193 25.6699L155.72 24.2344ZM154.209 17.6035L156.13 23.3457L156.458 24.6787L155.549 25.1436L152.828 17.6035H154.209Z" fill="white"/>
<defs>
<clipPath id="clip0_1142_913">
<rect width="24" height="24" fill="white" transform="translate(24 8)"/>
</clipPath>
</defs>
</svg>
