<svg width="224" height="40" viewBox="0 0 224 40" fill="none" xmlns="http://www.w3.org/2000/svg">
<g clip-path="url(#clip0_1142_929)">
<path d="M37 22H35V20H37V22ZM37 13H35V19H37V13ZM43 11H29V27.59L32.29 24.3L32.59 24H33H43V11ZM44 10V25H33L28 30V10H44Z" fill="white"/>
</g>
<path d="M78.46 22.4844C78.46 22.252 78.4235 22.0469 78.3506 21.8691C78.2822 21.6868 78.1592 21.5228 77.9814 21.377C77.8083 21.2311 77.5667 21.0921 77.2568 20.96C76.9515 20.8278 76.5641 20.6934 76.0947 20.5566C75.6025 20.4108 75.1582 20.249 74.7617 20.0713C74.3652 19.889 74.0257 19.6816 73.7432 19.4492C73.4606 19.2168 73.2441 18.9502 73.0938 18.6494C72.9434 18.3486 72.8682 18.0046 72.8682 17.6172C72.8682 17.2298 72.9479 16.8721 73.1074 16.5439C73.2669 16.2158 73.4948 15.931 73.791 15.6895C74.0918 15.4434 74.4495 15.252 74.8643 15.1152C75.279 14.9785 75.7415 14.9102 76.252 14.9102C76.9993 14.9102 77.6328 15.0537 78.1523 15.3408C78.6764 15.6234 79.0752 15.9948 79.3486 16.4551C79.6221 16.9108 79.7588 17.3984 79.7588 17.918H78.4463C78.4463 17.5443 78.3665 17.2139 78.207 16.9268C78.0475 16.6351 77.806 16.4072 77.4824 16.2432C77.1589 16.0745 76.7487 15.9902 76.252 15.9902C75.7826 15.9902 75.3952 16.0609 75.0898 16.2021C74.7845 16.3434 74.5566 16.5348 74.4062 16.7764C74.2604 17.0179 74.1875 17.2936 74.1875 17.6035C74.1875 17.8132 74.2308 18.0046 74.3174 18.1777C74.4085 18.3464 74.5475 18.5036 74.7344 18.6494C74.9258 18.7952 75.1673 18.9297 75.459 19.0527C75.7552 19.1758 76.1084 19.2943 76.5186 19.4082C77.0837 19.5677 77.5713 19.7454 77.9814 19.9414C78.3916 20.1374 78.7288 20.3584 78.9932 20.6045C79.262 20.846 79.4603 21.1217 79.5879 21.4316C79.7201 21.737 79.7861 22.0833 79.7861 22.4707C79.7861 22.8763 79.7041 23.2432 79.54 23.5713C79.376 23.8994 79.1413 24.1797 78.8359 24.4121C78.5306 24.6445 78.1637 24.8245 77.7354 24.9521C77.3115 25.0752 76.8376 25.1367 76.3135 25.1367C75.8532 25.1367 75.3997 25.0729 74.9531 24.9453C74.5111 24.8177 74.1077 24.6263 73.7432 24.3711C73.3831 24.1159 73.0938 23.8014 72.875 23.4277C72.6608 23.0495 72.5537 22.612 72.5537 22.1152H73.8662C73.8662 22.457 73.9323 22.751 74.0645 22.9971C74.1966 23.2386 74.3766 23.4391 74.6045 23.5986C74.8369 23.7581 75.099 23.8766 75.3906 23.9541C75.6868 24.027 75.9945 24.0635 76.3135 24.0635C76.7738 24.0635 77.1634 23.9997 77.4824 23.8721C77.8014 23.7445 78.043 23.5622 78.207 23.3252C78.3757 23.0882 78.46 22.8079 78.46 22.4844ZM84.3457 25.1367C83.8307 25.1367 83.3636 25.0501 82.9443 24.877C82.5296 24.6992 82.1719 24.4508 81.8711 24.1318C81.5749 23.8128 81.347 23.4346 81.1875 22.9971C81.028 22.5596 80.9482 22.0811 80.9482 21.5615V21.2744C80.9482 20.6729 81.0371 20.1374 81.2148 19.668C81.3926 19.194 81.6341 18.793 81.9395 18.4648C82.2448 18.1367 82.5911 17.8883 82.9785 17.7197C83.3659 17.5511 83.7669 17.4668 84.1816 17.4668C84.7103 17.4668 85.166 17.5579 85.5488 17.7402C85.9362 17.9225 86.2529 18.1777 86.499 18.5059C86.7451 18.8294 86.9274 19.2122 87.0459 19.6543C87.1644 20.0918 87.2236 20.5703 87.2236 21.0898V21.6572H81.7002V20.625H85.959V20.5293C85.9408 20.2012 85.8724 19.8822 85.7539 19.5723C85.64 19.2624 85.4577 19.0072 85.207 18.8066C84.9564 18.6061 84.6146 18.5059 84.1816 18.5059C83.8945 18.5059 83.6302 18.5674 83.3887 18.6904C83.1471 18.8089 82.9398 18.9867 82.7666 19.2236C82.5934 19.4606 82.459 19.75 82.3633 20.0918C82.2676 20.4336 82.2197 20.8278 82.2197 21.2744V21.5615C82.2197 21.9124 82.2676 22.2428 82.3633 22.5527C82.4635 22.8581 82.6071 23.127 82.7939 23.3594C82.9854 23.5918 83.2155 23.7741 83.4844 23.9062C83.7578 24.0384 84.0677 24.1045 84.4141 24.1045C84.8607 24.1045 85.2389 24.0133 85.5488 23.8311C85.8587 23.6488 86.1299 23.4049 86.3623 23.0996L87.1279 23.708C86.9684 23.9495 86.7656 24.1797 86.5195 24.3984C86.2734 24.6172 85.9704 24.7949 85.6104 24.9316C85.2549 25.0684 84.8333 25.1367 84.3457 25.1367ZM89.9648 19.1826V25H88.7002V17.6035H89.8965L89.9648 19.1826ZM89.6641 21.0215L89.1377 21.001C89.1423 20.4951 89.2174 20.028 89.3633 19.5996C89.5091 19.1667 89.7142 18.7907 89.9785 18.4717C90.2428 18.1527 90.5573 17.9066 90.9219 17.7334C91.291 17.5557 91.6989 17.4668 92.1455 17.4668C92.5101 17.4668 92.8382 17.5169 93.1299 17.6172C93.4215 17.7129 93.6699 17.8678 93.875 18.082C94.0846 18.2962 94.2441 18.5742 94.3535 18.916C94.4629 19.2533 94.5176 19.6657 94.5176 20.1533V25H93.2461V20.1396C93.2461 19.7523 93.1891 19.4424 93.0752 19.21C92.9613 18.973 92.7949 18.8021 92.5762 18.6973C92.3574 18.5879 92.0885 18.5332 91.7695 18.5332C91.4551 18.5332 91.168 18.5993 90.9082 18.7314C90.653 18.8636 90.432 19.0459 90.2451 19.2783C90.0628 19.5107 89.9193 19.7773 89.8145 20.0781C89.7142 20.3743 89.6641 20.6888 89.6641 21.0215ZM101.101 23.5645V14.5H102.372V25H101.21L101.101 23.5645ZM96.124 21.3838V21.2402C96.124 20.6751 96.1924 20.1624 96.3291 19.7021C96.4704 19.2373 96.6686 18.8385 96.9238 18.5059C97.1836 18.1732 97.4912 17.918 97.8467 17.7402C98.2067 17.5579 98.6077 17.4668 99.0498 17.4668C99.5146 17.4668 99.9202 17.5488 100.267 17.7129C100.618 17.8724 100.914 18.1071 101.155 18.417C101.401 18.7223 101.595 19.0915 101.736 19.5244C101.878 19.9574 101.976 20.4473 102.03 20.9941V21.623C101.98 22.1654 101.882 22.653 101.736 23.0859C101.595 23.5189 101.401 23.888 101.155 24.1934C100.914 24.4987 100.618 24.7334 100.267 24.8975C99.9157 25.057 99.5055 25.1367 99.0361 25.1367C98.6032 25.1367 98.2067 25.0433 97.8467 24.8564C97.4912 24.6696 97.1836 24.4076 96.9238 24.0703C96.6686 23.7331 96.4704 23.3366 96.3291 22.8809C96.1924 22.4206 96.124 21.9215 96.124 21.3838ZM97.3955 21.2402V21.3838C97.3955 21.7529 97.432 22.0993 97.5049 22.4229C97.5824 22.7464 97.7008 23.0312 97.8604 23.2773C98.0199 23.5234 98.2227 23.7171 98.4688 23.8584C98.7148 23.9951 99.0088 24.0635 99.3506 24.0635C99.7699 24.0635 100.114 23.9746 100.383 23.7969C100.656 23.6191 100.875 23.3844 101.039 23.0928C101.203 22.8011 101.331 22.4844 101.422 22.1426V20.4951C101.367 20.2445 101.287 20.0029 101.183 19.7705C101.082 19.5335 100.95 19.3239 100.786 19.1416C100.627 18.9548 100.428 18.8066 100.191 18.6973C99.959 18.5879 99.6833 18.5332 99.3643 18.5332C99.0179 18.5332 98.7194 18.6061 98.4688 18.752C98.2227 18.8932 98.0199 19.0892 97.8604 19.3398C97.7008 19.5859 97.5824 19.873 97.5049 20.2012C97.432 20.5247 97.3955 20.8711 97.3955 21.2402ZM109.7 25H108.436V16.8242C108.436 16.291 108.531 15.8421 108.723 15.4775C108.919 15.1084 109.199 14.8304 109.563 14.6436C109.928 14.4521 110.361 14.3564 110.862 14.3564C111.008 14.3564 111.154 14.3656 111.3 14.3838C111.45 14.402 111.596 14.4294 111.737 14.4658L111.669 15.498C111.573 15.4753 111.464 15.4593 111.341 15.4502C111.222 15.4411 111.104 15.4365 110.985 15.4365C110.716 15.4365 110.484 15.4912 110.288 15.6006C110.097 15.7054 109.951 15.8604 109.851 16.0654C109.75 16.2705 109.7 16.5234 109.7 16.8242V25ZM111.272 17.6035V18.5742H107.267V17.6035H111.272ZM115.586 25.1367C115.071 25.1367 114.604 25.0501 114.185 24.877C113.77 24.6992 113.412 24.4508 113.111 24.1318C112.815 23.8128 112.587 23.4346 112.428 22.9971C112.268 22.5596 112.188 22.0811 112.188 21.5615V21.2744C112.188 20.6729 112.277 20.1374 112.455 19.668C112.633 19.194 112.874 18.793 113.18 18.4648C113.485 18.1367 113.831 17.8883 114.219 17.7197C114.606 17.5511 115.007 17.4668 115.422 17.4668C115.951 17.4668 116.406 17.5579 116.789 17.7402C117.176 17.9225 117.493 18.1777 117.739 18.5059C117.985 18.8294 118.168 19.2122 118.286 19.6543C118.405 20.0918 118.464 20.5703 118.464 21.0898V21.6572H112.94V20.625H117.199V20.5293C117.181 20.2012 117.113 19.8822 116.994 19.5723C116.88 19.2624 116.698 19.0072 116.447 18.8066C116.197 18.6061 115.855 18.5059 115.422 18.5059C115.135 18.5059 114.87 18.5674 114.629 18.6904C114.387 18.8089 114.18 18.9867 114.007 19.2236C113.834 19.4606 113.699 19.75 113.604 20.0918C113.508 20.4336 113.46 20.8278 113.46 21.2744V21.5615C113.46 21.9124 113.508 22.2428 113.604 22.5527C113.704 22.8581 113.847 23.127 114.034 23.3594C114.226 23.5918 114.456 23.7741 114.725 23.9062C114.998 24.0384 115.308 24.1045 115.654 24.1045C116.101 24.1045 116.479 24.0133 116.789 23.8311C117.099 23.6488 117.37 23.4049 117.603 23.0996L118.368 23.708C118.209 23.9495 118.006 24.1797 117.76 24.3984C117.514 24.6172 117.211 24.7949 116.851 24.9316C116.495 25.0684 116.074 25.1367 115.586 25.1367ZM123.01 25.1367C122.495 25.1367 122.028 25.0501 121.608 24.877C121.194 24.6992 120.836 24.4508 120.535 24.1318C120.239 23.8128 120.011 23.4346 119.852 22.9971C119.692 22.5596 119.612 22.0811 119.612 21.5615V21.2744C119.612 20.6729 119.701 20.1374 119.879 19.668C120.057 19.194 120.298 18.793 120.604 18.4648C120.909 18.1367 121.255 17.8883 121.643 17.7197C122.03 17.5511 122.431 17.4668 122.846 17.4668C123.374 17.4668 123.83 17.5579 124.213 17.7402C124.6 17.9225 124.917 18.1777 125.163 18.5059C125.409 18.8294 125.591 19.2122 125.71 19.6543C125.828 20.0918 125.888 20.5703 125.888 21.0898V21.6572H120.364V20.625H124.623V20.5293C124.605 20.2012 124.536 19.8822 124.418 19.5723C124.304 19.2624 124.122 19.0072 123.871 18.8066C123.62 18.6061 123.279 18.5059 122.846 18.5059C122.559 18.5059 122.294 18.5674 122.053 18.6904C121.811 18.8089 121.604 18.9867 121.431 19.2236C121.257 19.4606 121.123 19.75 121.027 20.0918C120.932 20.4336 120.884 20.8278 120.884 21.2744V21.5615C120.884 21.9124 120.932 22.2428 121.027 22.5527C121.128 22.8581 121.271 23.127 121.458 23.3594C121.649 23.5918 121.88 23.7741 122.148 23.9062C122.422 24.0384 122.732 24.1045 123.078 24.1045C123.525 24.1045 123.903 24.0133 124.213 23.8311C124.523 23.6488 124.794 23.4049 125.026 23.0996L125.792 23.708C125.632 23.9495 125.43 24.1797 125.184 24.3984C124.938 24.6172 124.634 24.7949 124.274 24.9316C123.919 25.0684 123.497 25.1367 123.01 25.1367ZM132.026 23.5645V14.5H133.298V25H132.136L132.026 23.5645ZM127.05 21.3838V21.2402C127.05 20.6751 127.118 20.1624 127.255 19.7021C127.396 19.2373 127.594 18.8385 127.85 18.5059C128.109 18.1732 128.417 17.918 128.772 17.7402C129.132 17.5579 129.534 17.4668 129.976 17.4668C130.44 17.4668 130.846 17.5488 131.192 17.7129C131.543 17.8724 131.84 18.1071 132.081 18.417C132.327 18.7223 132.521 19.0915 132.662 19.5244C132.803 19.9574 132.901 20.4473 132.956 20.9941V21.623C132.906 22.1654 132.808 22.653 132.662 23.0859C132.521 23.5189 132.327 23.888 132.081 24.1934C131.84 24.4987 131.543 24.7334 131.192 24.8975C130.841 25.057 130.431 25.1367 129.962 25.1367C129.529 25.1367 129.132 25.0433 128.772 24.8564C128.417 24.6696 128.109 24.4076 127.85 24.0703C127.594 23.7331 127.396 23.3366 127.255 22.8809C127.118 22.4206 127.05 21.9215 127.05 21.3838ZM128.321 21.2402V21.3838C128.321 21.7529 128.358 22.0993 128.431 22.4229C128.508 22.7464 128.627 23.0312 128.786 23.2773C128.946 23.5234 129.148 23.7171 129.395 23.8584C129.641 23.9951 129.935 24.0635 130.276 24.0635C130.696 24.0635 131.04 23.9746 131.309 23.7969C131.582 23.6191 131.801 23.3844 131.965 23.0928C132.129 22.8011 132.257 22.4844 132.348 22.1426V20.4951C132.293 20.2445 132.213 20.0029 132.108 19.7705C132.008 19.5335 131.876 19.3239 131.712 19.1416C131.552 18.9548 131.354 18.8066 131.117 18.6973C130.885 18.5879 130.609 18.5332 130.29 18.5332C129.944 18.5332 129.645 18.6061 129.395 18.752C129.148 18.8932 128.946 19.0892 128.786 19.3398C128.627 19.5859 128.508 19.873 128.431 20.2012C128.358 20.5247 128.321 20.8711 128.321 21.2402ZM135.26 14.5H136.531V23.5645L136.422 25H135.26V14.5ZM141.528 21.2402V21.3838C141.528 21.9215 141.465 22.4206 141.337 22.8809C141.209 23.3366 141.022 23.7331 140.776 24.0703C140.53 24.4076 140.229 24.6696 139.874 24.8564C139.519 25.0433 139.111 25.1367 138.65 25.1367C138.181 25.1367 137.769 25.057 137.413 24.8975C137.062 24.7334 136.766 24.4987 136.524 24.1934C136.283 23.888 136.089 23.5189 135.943 23.0859C135.802 22.653 135.704 22.1654 135.649 21.623V20.9941C135.704 20.4473 135.802 19.9574 135.943 19.5244C136.089 19.0915 136.283 18.7223 136.524 18.417C136.766 18.1071 137.062 17.8724 137.413 17.7129C137.764 17.5488 138.172 17.4668 138.637 17.4668C139.102 17.4668 139.514 17.5579 139.874 17.7402C140.234 17.918 140.535 18.1732 140.776 18.5059C141.022 18.8385 141.209 19.2373 141.337 19.7021C141.465 20.1624 141.528 20.6751 141.528 21.2402ZM140.257 21.3838V21.2402C140.257 20.8711 140.223 20.5247 140.154 20.2012C140.086 19.873 139.977 19.5859 139.826 19.3398C139.676 19.0892 139.478 18.8932 139.231 18.752C138.985 18.6061 138.682 18.5332 138.322 18.5332C138.003 18.5332 137.725 18.5879 137.488 18.6973C137.256 18.8066 137.058 18.9548 136.894 19.1416C136.729 19.3239 136.595 19.5335 136.49 19.7705C136.39 20.0029 136.315 20.2445 136.265 20.4951V22.1426C136.338 22.4616 136.456 22.7692 136.62 23.0654C136.789 23.3571 137.012 23.5964 137.29 23.7832C137.573 23.9701 137.921 24.0635 138.336 24.0635C138.678 24.0635 138.969 23.9951 139.211 23.8584C139.457 23.7171 139.655 23.5234 139.806 23.2773C139.961 23.0312 140.075 22.7464 140.147 22.4229C140.22 22.0993 140.257 21.7529 140.257 21.3838ZM147.489 23.7354V19.9277C147.489 19.6361 147.43 19.3831 147.312 19.1689C147.198 18.9502 147.024 18.7816 146.792 18.6631C146.56 18.5446 146.272 18.4854 145.931 18.4854C145.612 18.4854 145.331 18.54 145.09 18.6494C144.853 18.7588 144.666 18.9023 144.529 19.0801C144.397 19.2578 144.331 19.4492 144.331 19.6543H143.066C143.066 19.39 143.135 19.1279 143.271 18.8682C143.408 18.6084 143.604 18.3737 143.859 18.1641C144.119 17.9499 144.429 17.7812 144.789 17.6582C145.154 17.5306 145.559 17.4668 146.006 17.4668C146.544 17.4668 147.018 17.5579 147.428 17.7402C147.842 17.9225 148.166 18.1982 148.398 18.5674C148.635 18.932 148.754 19.39 148.754 19.9414V23.3867C148.754 23.6328 148.774 23.8949 148.815 24.1729C148.861 24.4508 148.927 24.6901 149.014 24.8906V25H147.694C147.631 24.8542 147.58 24.6605 147.544 24.4189C147.507 24.1729 147.489 23.945 147.489 23.7354ZM147.708 20.5156L147.722 21.4043H146.443C146.083 21.4043 145.762 21.4339 145.479 21.4932C145.197 21.5479 144.96 21.6322 144.769 21.7461C144.577 21.86 144.431 22.0036 144.331 22.1768C144.231 22.3454 144.181 22.5436 144.181 22.7715C144.181 23.0039 144.233 23.2158 144.338 23.4072C144.443 23.5986 144.6 23.7513 144.81 23.8652C145.024 23.9746 145.286 24.0293 145.596 24.0293C145.983 24.0293 146.325 23.9473 146.621 23.7832C146.917 23.6191 147.152 23.4186 147.325 23.1816C147.503 22.9447 147.599 22.7145 147.612 22.4912L148.152 23.0996C148.12 23.291 148.034 23.5029 147.893 23.7354C147.751 23.9678 147.562 24.1911 147.325 24.4053C147.093 24.6149 146.815 24.7904 146.491 24.9316C146.172 25.0684 145.812 25.1367 145.411 25.1367C144.91 25.1367 144.47 25.0387 144.092 24.8428C143.718 24.6468 143.426 24.3848 143.217 24.0566C143.012 23.724 142.909 23.3525 142.909 22.9424C142.909 22.5459 142.987 22.1973 143.142 21.8965C143.297 21.5911 143.52 21.3382 143.812 21.1377C144.103 20.9326 144.454 20.7777 144.864 20.6729C145.274 20.568 145.732 20.5156 146.238 20.5156H147.708ZM153.703 24.0977C154.004 24.0977 154.282 24.0361 154.537 23.9131C154.792 23.79 155.002 23.6214 155.166 23.4072C155.33 23.1885 155.424 22.9401 155.446 22.6621H156.649C156.627 23.0996 156.479 23.5075 156.205 23.8857C155.936 24.2594 155.583 24.5625 155.146 24.7949C154.708 25.0228 154.227 25.1367 153.703 25.1367C153.147 25.1367 152.662 25.0387 152.247 24.8428C151.837 24.6468 151.495 24.3779 151.222 24.0361C150.953 23.6943 150.75 23.3024 150.613 22.8604C150.481 22.4137 150.415 21.9421 150.415 21.4453V21.1582C150.415 20.6615 150.481 20.1921 150.613 19.75C150.75 19.3034 150.953 18.9092 151.222 18.5674C151.495 18.2256 151.837 17.9567 152.247 17.7607C152.662 17.5648 153.147 17.4668 153.703 17.4668C154.282 17.4668 154.788 17.5853 155.221 17.8223C155.654 18.0547 155.993 18.3737 156.239 18.7793C156.49 19.1803 156.627 19.6361 156.649 20.1465H155.446C155.424 19.8411 155.337 19.5654 155.187 19.3193C155.041 19.0732 154.84 18.8773 154.585 18.7314C154.334 18.5811 154.04 18.5059 153.703 18.5059C153.316 18.5059 152.99 18.5833 152.726 18.7383C152.466 18.8887 152.258 19.0938 152.104 19.3535C151.953 19.6087 151.844 19.8936 151.775 20.208C151.712 20.5179 151.68 20.8346 151.68 21.1582V21.4453C151.68 21.7689 151.712 22.0879 151.775 22.4023C151.839 22.7168 151.946 23.0016 152.097 23.2568C152.252 23.512 152.459 23.7171 152.719 23.8721C152.983 24.0225 153.311 24.0977 153.703 24.0977ZM159.343 14.5V25H158.071V14.5H159.343ZM163.861 17.6035L160.635 21.0557L158.83 22.9287L158.728 21.582L160.02 20.0371L162.316 17.6035H163.861ZM162.706 25L160.067 21.4727L160.724 20.3447L164.196 25H162.706Z" fill="white"/>
<defs>
<clipPath id="clip0_1142_929">
<rect width="24" height="24" fill="white" transform="translate(24 8)"/>
</clipPath>
</defs>
</svg>
