<svg width="224" height="40" viewBox="0 0 224 40" fill="none" xmlns="http://www.w3.org/2000/svg">
<g clip-path="url(#clip0_1142_905)">
<path d="M36.0001 17C37.6501 17 39.0001 18.35 39.0001 20C39.0001 21.65 37.6501 23 36.0001 23C34.3501 23 33.0001 21.65 33.0001 20C33.0001 18.35 34.3501 17 36.0001 17ZM36.0001 16C33.7901 16 32.0001 17.79 32.0001 20C32.0001 22.21 33.7901 24 36.0001 24C38.2101 24 40.0001 22.21 40.0001 20C40.0001 17.79 38.2101 16 36.0001 16ZM37.2201 11L37.7701 13.2L37.9001 13.71L38.4001 13.89C39.0101 14.12 39.5901 14.45 40.1201 14.87L40.5201 15.19L41.0201 15.05L43.1901 14.43L44.4101 16.54L42.7801 18.13L42.4101 18.49L42.4901 19C42.5401 19.32 42.5701 19.64 42.5701 19.98C42.5701 20.32 42.5401 20.64 42.4901 20.96L42.4101 21.47L42.7801 21.83L44.4101 23.42L43.1901 25.53L41.0201 24.91L40.5201 24.77L40.1201 25.09C39.5901 25.52 39.0101 25.85 38.4001 26.07L37.9001 26.25L37.7701 26.76L37.2201 29H34.7801L34.2301 26.8L34.1001 26.29L33.6001 26.11C33.0001 25.88 32.4201 25.55 31.8801 25.12L31.4801 24.8L30.9801 24.94L28.8101 25.56L27.6001 23.44L29.2301 21.85L29.6001 21.49L29.5201 20.98C29.4701 20.66 29.4401 20.33 29.4401 20C29.4401 19.67 29.4701 19.34 29.5201 19.02L29.6001 18.51L29.2301 18.15L27.6001 16.56L28.8201 14.45L30.9901 15.07L31.4901 15.21L31.8901 14.89C32.4201 14.45 33.0001 14.12 33.6101 13.9L34.1101 13.72L34.2401 13.21L34.7801 11H37.2201ZM38.0001 10H34.0001L33.2601 12.96C32.5301 13.23 31.8601 13.62 31.2601 14.1L28.3401 13.27L26.3401 16.73L28.5301 18.86C28.4701 19.23 28.4401 19.61 28.4401 20C28.4401 20.39 28.4701 20.77 28.5301 21.14L26.3401 23.27L28.3401 26.73L31.2601 25.9C31.8601 26.38 32.5301 26.77 33.2601 27.04L34.0001 30H38.0001L38.7401 27.04C39.4701 26.77 40.1401 26.38 40.7401 25.9L43.6601 26.73L45.6601 23.27L43.4701 21.14C43.5301 20.77 43.5601 20.39 43.5601 20C43.5601 19.61 43.5301 19.23 43.4701 18.86L45.6601 16.73L43.6601 13.27L40.7401 14.1C40.1401 13.62 39.4701 13.23 38.7401 12.96L38.0001 10Z" fill="white"/>
</g>
<path d="M78.46 22.4844C78.46 22.252 78.4235 22.0469 78.3506 21.8691C78.2822 21.6868 78.1592 21.5228 77.9814 21.377C77.8083 21.2311 77.5667 21.0921 77.2568 20.96C76.9515 20.8278 76.5641 20.6934 76.0947 20.5566C75.6025 20.4108 75.1582 20.249 74.7617 20.0713C74.3652 19.889 74.0257 19.6816 73.7432 19.4492C73.4606 19.2168 73.2441 18.9502 73.0938 18.6494C72.9434 18.3486 72.8682 18.0046 72.8682 17.6172C72.8682 17.2298 72.9479 16.8721 73.1074 16.5439C73.2669 16.2158 73.4948 15.931 73.791 15.6895C74.0918 15.4434 74.4495 15.252 74.8643 15.1152C75.279 14.9785 75.7415 14.9102 76.252 14.9102C76.9993 14.9102 77.6328 15.0537 78.1523 15.3408C78.6764 15.6234 79.0752 15.9948 79.3486 16.4551C79.6221 16.9108 79.7588 17.3984 79.7588 17.918H78.4463C78.4463 17.5443 78.3665 17.2139 78.207 16.9268C78.0475 16.6351 77.806 16.4072 77.4824 16.2432C77.1589 16.0745 76.7487 15.9902 76.252 15.9902C75.7826 15.9902 75.3952 16.0609 75.0898 16.2021C74.7845 16.3434 74.5566 16.5348 74.4062 16.7764C74.2604 17.0179 74.1875 17.2936 74.1875 17.6035C74.1875 17.8132 74.2308 18.0046 74.3174 18.1777C74.4085 18.3464 74.5475 18.5036 74.7344 18.6494C74.9258 18.7952 75.1673 18.9297 75.459 19.0527C75.7552 19.1758 76.1084 19.2943 76.5186 19.4082C77.0837 19.5677 77.5713 19.7454 77.9814 19.9414C78.3916 20.1374 78.7288 20.3584 78.9932 20.6045C79.262 20.846 79.4603 21.1217 79.5879 21.4316C79.7201 21.737 79.7861 22.0833 79.7861 22.4707C79.7861 22.8763 79.7041 23.2432 79.54 23.5713C79.376 23.8994 79.1413 24.1797 78.8359 24.4121C78.5306 24.6445 78.1637 24.8245 77.7354 24.9521C77.3115 25.0752 76.8376 25.1367 76.3135 25.1367C75.8532 25.1367 75.3997 25.0729 74.9531 24.9453C74.5111 24.8177 74.1077 24.6263 73.7432 24.3711C73.3831 24.1159 73.0938 23.8014 72.875 23.4277C72.6608 23.0495 72.5537 22.612 72.5537 22.1152H73.8662C73.8662 22.457 73.9323 22.751 74.0645 22.9971C74.1966 23.2386 74.3766 23.4391 74.6045 23.5986C74.8369 23.7581 75.099 23.8766 75.3906 23.9541C75.6868 24.027 75.9945 24.0635 76.3135 24.0635C76.7738 24.0635 77.1634 23.9997 77.4824 23.8721C77.8014 23.7445 78.043 23.5622 78.207 23.3252C78.3757 23.0882 78.46 22.8079 78.46 22.4844ZM84.3457 25.1367C83.8307 25.1367 83.3636 25.0501 82.9443 24.877C82.5296 24.6992 82.1719 24.4508 81.8711 24.1318C81.5749 23.8128 81.347 23.4346 81.1875 22.9971C81.028 22.5596 80.9482 22.0811 80.9482 21.5615V21.2744C80.9482 20.6729 81.0371 20.1374 81.2148 19.668C81.3926 19.194 81.6341 18.793 81.9395 18.4648C82.2448 18.1367 82.5911 17.8883 82.9785 17.7197C83.3659 17.5511 83.7669 17.4668 84.1816 17.4668C84.7103 17.4668 85.166 17.5579 85.5488 17.7402C85.9362 17.9225 86.2529 18.1777 86.499 18.5059C86.7451 18.8294 86.9274 19.2122 87.0459 19.6543C87.1644 20.0918 87.2236 20.5703 87.2236 21.0898V21.6572H81.7002V20.625H85.959V20.5293C85.9408 20.2012 85.8724 19.8822 85.7539 19.5723C85.64 19.2624 85.4577 19.0072 85.207 18.8066C84.9564 18.6061 84.6146 18.5059 84.1816 18.5059C83.8945 18.5059 83.6302 18.5674 83.3887 18.6904C83.1471 18.8089 82.9398 18.9867 82.7666 19.2236C82.5934 19.4606 82.459 19.75 82.3633 20.0918C82.2676 20.4336 82.2197 20.8278 82.2197 21.2744V21.5615C82.2197 21.9124 82.2676 22.2428 82.3633 22.5527C82.4635 22.8581 82.6071 23.127 82.7939 23.3594C82.9854 23.5918 83.2155 23.7741 83.4844 23.9062C83.7578 24.0384 84.0677 24.1045 84.4141 24.1045C84.8607 24.1045 85.2389 24.0133 85.5488 23.8311C85.8587 23.6488 86.1299 23.4049 86.3623 23.0996L87.1279 23.708C86.9684 23.9495 86.7656 24.1797 86.5195 24.3984C86.2734 24.6172 85.9704 24.7949 85.6104 24.9316C85.2549 25.0684 84.8333 25.1367 84.3457 25.1367ZM91.7969 17.6035V18.5742H87.7979V17.6035H91.7969ZM89.1514 15.8057H90.416V23.168C90.416 23.4186 90.4548 23.6077 90.5322 23.7354C90.6097 23.863 90.71 23.9473 90.833 23.9883C90.9561 24.0293 91.0882 24.0498 91.2295 24.0498C91.3343 24.0498 91.4437 24.0407 91.5576 24.0225C91.6761 23.9997 91.765 23.9814 91.8242 23.9678L91.8311 25C91.7308 25.0319 91.5986 25.0615 91.4346 25.0889C91.2751 25.1208 91.0814 25.1367 90.8535 25.1367C90.5436 25.1367 90.2588 25.0752 89.999 24.9521C89.7393 24.8291 89.5319 24.624 89.377 24.3369C89.2266 24.0452 89.1514 23.6533 89.1514 23.1611V15.8057ZM96.377 17.6035V18.5742H92.3779V17.6035H96.377ZM93.7314 15.8057H94.9961V23.168C94.9961 23.4186 95.0348 23.6077 95.1123 23.7354C95.1898 23.863 95.29 23.9473 95.4131 23.9883C95.5361 24.0293 95.6683 24.0498 95.8096 24.0498C95.9144 24.0498 96.0238 24.0407 96.1377 24.0225C96.2562 23.9997 96.3451 23.9814 96.4043 23.9678L96.4111 25C96.3109 25.0319 96.1787 25.0615 96.0146 25.0889C95.8551 25.1208 95.6615 25.1367 95.4336 25.1367C95.1237 25.1367 94.8389 25.0752 94.5791 24.9521C94.3193 24.8291 94.112 24.624 93.957 24.3369C93.8066 24.0452 93.7314 23.6533 93.7314 23.1611V15.8057ZM99.2344 17.6035V25H97.9629V17.6035H99.2344ZM97.8672 15.6416C97.8672 15.4365 97.9287 15.2633 98.0518 15.1221C98.1794 14.9808 98.3662 14.9102 98.6123 14.9102C98.8538 14.9102 99.0384 14.9808 99.166 15.1221C99.2982 15.2633 99.3643 15.4365 99.3643 15.6416C99.3643 15.8376 99.2982 16.0062 99.166 16.1475C99.0384 16.2842 98.8538 16.3525 98.6123 16.3525C98.3662 16.3525 98.1794 16.2842 98.0518 16.1475C97.9287 16.0062 97.8672 15.8376 97.8672 15.6416ZM102.529 19.1826V25H101.265V17.6035H102.461L102.529 19.1826ZM102.229 21.0215L101.702 21.001C101.707 20.4951 101.782 20.028 101.928 19.5996C102.074 19.1667 102.279 18.7907 102.543 18.4717C102.807 18.1527 103.122 17.9066 103.486 17.7334C103.855 17.5557 104.263 17.4668 104.71 17.4668C105.075 17.4668 105.403 17.5169 105.694 17.6172C105.986 17.7129 106.234 17.8678 106.439 18.082C106.649 18.2962 106.809 18.5742 106.918 18.916C107.027 19.2533 107.082 19.6657 107.082 20.1533V25H105.811V20.1396C105.811 19.7523 105.754 19.4424 105.64 19.21C105.526 18.973 105.359 18.8021 105.141 18.6973C104.922 18.5879 104.653 18.5332 104.334 18.5332C104.02 18.5332 103.732 18.5993 103.473 18.7314C103.217 18.8636 102.996 19.0459 102.81 19.2783C102.627 19.5107 102.484 19.7773 102.379 20.0781C102.279 20.3743 102.229 20.6888 102.229 21.0215ZM113.795 17.6035H114.943V24.8428C114.943 25.4945 114.811 26.0505 114.547 26.5107C114.283 26.971 113.913 27.3197 113.439 27.5566C112.97 27.7982 112.428 27.9189 111.812 27.9189C111.557 27.9189 111.257 27.8779 110.91 27.7959C110.568 27.7184 110.231 27.584 109.898 27.3926C109.57 27.2057 109.295 26.9528 109.071 26.6338L109.734 25.8818C110.044 26.2555 110.368 26.5153 110.705 26.6611C111.047 26.807 111.384 26.8799 111.717 26.8799C112.118 26.8799 112.464 26.8047 112.756 26.6543C113.048 26.5039 113.273 26.2806 113.433 25.9844C113.597 25.6927 113.679 25.3327 113.679 24.9043V19.2305L113.795 17.6035ZM108.702 21.3838V21.2402C108.702 20.6751 108.768 20.1624 108.9 19.7021C109.037 19.2373 109.231 18.8385 109.481 18.5059C109.737 18.1732 110.044 17.918 110.404 17.7402C110.764 17.5579 111.17 17.4668 111.621 17.4668C112.086 17.4668 112.492 17.5488 112.838 17.7129C113.189 17.8724 113.485 18.1071 113.727 18.417C113.973 18.7223 114.166 19.0915 114.308 19.5244C114.449 19.9574 114.547 20.4473 114.602 20.9941V21.623C114.551 22.1654 114.453 22.653 114.308 23.0859C114.166 23.5189 113.973 23.888 113.727 24.1934C113.485 24.4987 113.189 24.7334 112.838 24.8975C112.487 25.057 112.077 25.1367 111.607 25.1367C111.165 25.1367 110.764 25.0433 110.404 24.8564C110.049 24.6696 109.743 24.4076 109.488 24.0703C109.233 23.7331 109.037 23.3366 108.9 22.8809C108.768 22.4206 108.702 21.9215 108.702 21.3838ZM109.967 21.2402V21.3838C109.967 21.7529 110.003 22.0993 110.076 22.4229C110.154 22.7464 110.27 23.0312 110.425 23.2773C110.584 23.5234 110.787 23.7171 111.033 23.8584C111.279 23.9951 111.573 24.0635 111.915 24.0635C112.334 24.0635 112.681 23.9746 112.954 23.7969C113.228 23.6191 113.444 23.3844 113.604 23.0928C113.768 22.8011 113.895 22.4844 113.986 22.1426V20.4951C113.936 20.2445 113.859 20.0029 113.754 19.7705C113.654 19.5335 113.521 19.3239 113.357 19.1416C113.198 18.9548 113 18.8066 112.763 18.6973C112.526 18.5879 112.248 18.5332 111.929 18.5332C111.582 18.5332 111.284 18.6061 111.033 18.752C110.787 18.8932 110.584 19.0892 110.425 19.3398C110.27 19.5859 110.154 19.873 110.076 20.2012C110.003 20.5247 109.967 20.8711 109.967 21.2402ZM121.171 23.0381C121.171 22.8558 121.13 22.6872 121.048 22.5322C120.97 22.3727 120.809 22.2292 120.562 22.1016C120.321 21.9694 119.956 21.8555 119.469 21.7598C119.059 21.6732 118.687 21.5706 118.354 21.4521C118.026 21.3337 117.746 21.1901 117.514 21.0215C117.286 20.8529 117.11 20.6546 116.987 20.4268C116.864 20.1989 116.803 19.9323 116.803 19.627C116.803 19.3353 116.867 19.0596 116.994 18.7998C117.126 18.54 117.311 18.3099 117.548 18.1094C117.789 17.9089 118.079 17.7516 118.416 17.6377C118.753 17.5238 119.129 17.4668 119.544 17.4668C120.136 17.4668 120.642 17.5716 121.062 17.7812C121.481 17.9909 121.802 18.2712 122.025 18.6221C122.249 18.9684 122.36 19.3535 122.36 19.7773H121.096C121.096 19.5723 121.034 19.374 120.911 19.1826C120.793 18.9867 120.617 18.8249 120.385 18.6973C120.157 18.5697 119.877 18.5059 119.544 18.5059C119.193 18.5059 118.908 18.5605 118.689 18.6699C118.475 18.7747 118.318 18.9092 118.218 19.0732C118.122 19.2373 118.074 19.4105 118.074 19.5928C118.074 19.7295 118.097 19.8525 118.143 19.9619C118.193 20.0667 118.279 20.1647 118.402 20.2559C118.525 20.3424 118.699 20.4245 118.922 20.502C119.145 20.5794 119.43 20.6569 119.776 20.7344C120.382 20.8711 120.882 21.0352 121.273 21.2266C121.665 21.418 121.957 21.6527 122.148 21.9307C122.34 22.2087 122.436 22.5459 122.436 22.9424C122.436 23.266 122.367 23.5622 122.23 23.8311C122.098 24.0999 121.905 24.3324 121.649 24.5283C121.399 24.7197 121.098 24.8701 120.747 24.9795C120.401 25.0843 120.011 25.1367 119.578 25.1367C118.926 25.1367 118.375 25.0205 117.924 24.7881C117.473 24.5557 117.131 24.2549 116.898 23.8857C116.666 23.5166 116.55 23.127 116.55 22.7168H117.821C117.84 23.0632 117.94 23.3389 118.122 23.5439C118.304 23.7445 118.528 23.888 118.792 23.9746C119.056 24.0566 119.318 24.0977 119.578 24.0977C119.924 24.0977 120.214 24.0521 120.446 23.9609C120.683 23.8698 120.863 23.7445 120.986 23.585C121.109 23.4255 121.171 23.2432 121.171 23.0381Z" fill="white"/>
<defs>
<clipPath id="clip0_1142_905">
<rect width="24" height="24" fill="white" transform="translate(24 8)"/>
</clipPath>
</defs>
</svg>
