<svg width="224" height="32" viewBox="0 0 224 32" fill="none" xmlns="http://www.w3.org/2000/svg">
<path d="M25.8252 11.0469H27.5615L30.1182 18.3545L32.6748 11.0469H34.4111L30.8154 21H29.4209L25.8252 11.0469ZM24.8887 11.0469H26.6182L26.9326 18.1699V21H24.8887V11.0469ZM33.6182 11.0469H35.3545V21H33.3037V18.1699L33.6182 11.0469ZM45.3281 15.791V16.2627C45.3281 17.0192 45.2256 17.6982 45.0205 18.2998C44.8154 18.9014 44.526 19.4141 44.1523 19.8379C43.7786 20.2572 43.332 20.5785 42.8125 20.8018C42.2975 21.0251 41.7256 21.1367 41.0967 21.1367C40.4723 21.1367 39.9004 21.0251 39.3809 20.8018C38.8659 20.5785 38.4193 20.2572 38.041 19.8379C37.6628 19.4141 37.3688 18.9014 37.1592 18.2998C36.9541 17.6982 36.8516 17.0192 36.8516 16.2627V15.791C36.8516 15.0299 36.9541 14.3509 37.1592 13.7539C37.3643 13.1523 37.6536 12.6396 38.0273 12.2158C38.4056 11.792 38.8522 11.4684 39.3672 11.2451C39.8867 11.0218 40.4587 10.9102 41.083 10.9102C41.7119 10.9102 42.2839 11.0218 42.7988 11.2451C43.3184 11.4684 43.765 11.792 44.1387 12.2158C44.5169 12.6396 44.8086 13.1523 45.0137 13.7539C45.2233 14.3509 45.3281 15.0299 45.3281 15.791ZM43.2568 16.2627V15.7773C43.2568 15.2487 43.209 14.7839 43.1133 14.3828C43.0176 13.9818 42.8763 13.6445 42.6895 13.3711C42.5026 13.0977 42.2747 12.8926 42.0059 12.7559C41.737 12.6146 41.4294 12.5439 41.083 12.5439C40.7367 12.5439 40.429 12.6146 40.1602 12.7559C39.8958 12.8926 39.6702 13.0977 39.4834 13.3711C39.3011 13.6445 39.1621 13.9818 39.0664 14.3828C38.9707 14.7839 38.9229 15.2487 38.9229 15.7773V16.2627C38.9229 16.7868 38.9707 17.2516 39.0664 17.6572C39.1621 18.0583 39.3034 18.3978 39.4902 18.6758C39.6771 18.9492 39.9049 19.1566 40.1738 19.2979C40.4427 19.4391 40.7503 19.5098 41.0967 19.5098C41.443 19.5098 41.7507 19.4391 42.0195 19.2979C42.2884 19.1566 42.514 18.9492 42.6963 18.6758C42.8786 18.3978 43.0176 18.0583 43.1133 17.6572C43.209 17.2516 43.2568 16.7868 43.2568 16.2627ZM46.8047 11.0469H50.5166C51.2777 11.0469 51.9316 11.1608 52.4785 11.3887C53.0299 11.6165 53.4538 11.9538 53.75 12.4004C54.0462 12.847 54.1943 13.3962 54.1943 14.0479C54.1943 14.5811 54.1032 15.0391 53.9209 15.4219C53.7432 15.8001 53.4902 16.1169 53.1621 16.3721C52.8385 16.6227 52.458 16.8232 52.0205 16.9736L51.3711 17.3154H48.1445L48.1309 15.7158H50.5303C50.8903 15.7158 51.1888 15.652 51.4258 15.5244C51.6628 15.3968 51.8405 15.2191 51.959 14.9912C52.082 14.7633 52.1436 14.499 52.1436 14.1982C52.1436 13.8792 52.0843 13.6035 51.9658 13.3711C51.8473 13.1387 51.6673 12.9609 51.4258 12.8379C51.1842 12.7148 50.8812 12.6533 50.5166 12.6533H48.8555V21H46.8047V11.0469ZM52.3691 21L50.0996 16.5635L52.2666 16.5498L54.5635 20.9043V21H52.3691ZM62.4521 19.4004V21H57.1543V19.4004H62.4521ZM57.8242 11.0469V21H55.7734V11.0469H57.8242ZM61.7617 15.1006V16.6592H57.1543V15.1006H61.7617ZM62.4453 11.0469V12.6533H57.1543V11.0469H62.4453ZM69.1855 11.0469V21H67.1348V11.0469H69.1855ZM73.1504 15.2988V16.8984H68.625V15.2988H73.1504ZM73.6289 11.0469V12.6533H68.625V11.0469H73.6289ZM74.8184 11.0469H78.5303C79.2913 11.0469 79.9453 11.1608 80.4922 11.3887C81.0436 11.6165 81.4674 11.9538 81.7637 12.4004C82.0599 12.847 82.208 13.3962 82.208 14.0479C82.208 14.5811 82.1169 15.0391 81.9346 15.4219C81.7568 15.8001 81.5039 16.1169 81.1758 16.3721C80.8522 16.6227 80.4717 16.8232 80.0342 16.9736L79.3848 17.3154H76.1582L76.1445 15.7158H78.5439C78.904 15.7158 79.2025 15.652 79.4395 15.5244C79.6764 15.3968 79.8542 15.2191 79.9727 14.9912C80.0957 14.7633 80.1572 14.499 80.1572 14.1982C80.1572 13.8792 80.098 13.6035 79.9795 13.3711C79.861 13.1387 79.681 12.9609 79.4395 12.8379C79.1979 12.7148 78.8949 12.6533 78.5303 12.6533H76.8691V21H74.8184V11.0469ZM80.3828 21L78.1133 16.5635L80.2803 16.5498L82.5771 20.9043V21H80.3828ZM91.9629 15.791V16.2627C91.9629 17.0192 91.8604 17.6982 91.6553 18.2998C91.4502 18.9014 91.1608 19.4141 90.7871 19.8379C90.4134 20.2572 89.9668 20.5785 89.4473 20.8018C88.9323 21.0251 88.3604 21.1367 87.7314 21.1367C87.1071 21.1367 86.5352 21.0251 86.0156 20.8018C85.5007 20.5785 85.054 20.2572 84.6758 19.8379C84.2975 19.4141 84.0036 18.9014 83.7939 18.2998C83.5889 17.6982 83.4863 17.0192 83.4863 16.2627V15.791C83.4863 15.0299 83.5889 14.3509 83.7939 13.7539C83.999 13.1523 84.2884 12.6396 84.6621 12.2158C85.0404 11.792 85.487 11.4684 86.002 11.2451C86.5215 11.0218 87.0934 10.9102 87.7178 10.9102C88.3467 10.9102 88.9186 11.0218 89.4336 11.2451C89.9531 11.4684 90.3997 11.792 90.7734 12.2158C91.1517 12.6396 91.4434 13.1523 91.6484 13.7539C91.8581 14.3509 91.9629 15.0299 91.9629 15.791ZM89.8916 16.2627V15.7773C89.8916 15.2487 89.8438 14.7839 89.748 14.3828C89.6523 13.9818 89.5111 13.6445 89.3242 13.3711C89.1374 13.0977 88.9095 12.8926 88.6406 12.7559C88.3717 12.6146 88.0641 12.5439 87.7178 12.5439C87.3714 12.5439 87.0638 12.6146 86.7949 12.7559C86.5306 12.8926 86.305 13.0977 86.1182 13.3711C85.9359 13.6445 85.7969 13.9818 85.7012 14.3828C85.6055 14.7839 85.5576 15.2487 85.5576 15.7773V16.2627C85.5576 16.7868 85.6055 17.2516 85.7012 17.6572C85.7969 18.0583 85.9382 18.3978 86.125 18.6758C86.3118 18.9492 86.5397 19.1566 86.8086 19.2979C87.0775 19.4391 87.3851 19.5098 87.7314 19.5098C88.0778 19.5098 88.3854 19.4391 88.6543 19.2979C88.9232 19.1566 89.1488 18.9492 89.3311 18.6758C89.5133 18.3978 89.6523 18.0583 89.748 17.6572C89.8438 17.2516 89.8916 16.7868 89.8916 16.2627ZM94.376 11.0469H96.1123L98.6689 18.3545L101.226 11.0469H102.962L99.3662 21H97.9717L94.376 11.0469ZM93.4395 11.0469H95.1689L95.4834 18.1699V21H93.4395V11.0469ZM102.169 11.0469H103.905V21H101.854V18.1699L102.169 11.0469ZM110.557 11.0469L112.635 15.5859L114.713 11.0469H116.948L113.674 17.377V21H111.596V17.377L108.314 11.0469H110.557ZM125.828 15.791V16.2627C125.828 17.0192 125.726 17.6982 125.521 18.2998C125.315 18.9014 125.026 19.4141 124.652 19.8379C124.279 20.2572 123.832 20.5785 123.312 20.8018C122.798 21.0251 122.226 21.1367 121.597 21.1367C120.972 21.1367 120.4 21.0251 119.881 20.8018C119.366 20.5785 118.919 20.2572 118.541 19.8379C118.163 19.4141 117.869 18.9014 117.659 18.2998C117.454 17.6982 117.352 17.0192 117.352 16.2627V15.791C117.352 15.0299 117.454 14.3509 117.659 13.7539C117.864 13.1523 118.154 12.6396 118.527 12.2158C118.906 11.792 119.352 11.4684 119.867 11.2451C120.387 11.0218 120.959 10.9102 121.583 10.9102C122.212 10.9102 122.784 11.0218 123.299 11.2451C123.818 11.4684 124.265 11.792 124.639 12.2158C125.017 12.6396 125.309 13.1523 125.514 13.7539C125.723 14.3509 125.828 15.0299 125.828 15.791ZM123.757 16.2627V15.7773C123.757 15.2487 123.709 14.7839 123.613 14.3828C123.518 13.9818 123.376 13.6445 123.189 13.3711C123.003 13.0977 122.775 12.8926 122.506 12.7559C122.237 12.6146 121.929 12.5439 121.583 12.5439C121.237 12.5439 120.929 12.6146 120.66 12.7559C120.396 12.8926 120.17 13.0977 119.983 13.3711C119.801 13.6445 119.662 13.9818 119.566 14.3828C119.471 14.7839 119.423 15.2487 119.423 15.7773V16.2627C119.423 16.7868 119.471 17.2516 119.566 17.6572C119.662 18.0583 119.803 18.3978 119.99 18.6758C120.177 18.9492 120.405 19.1566 120.674 19.2979C120.943 19.4391 121.25 19.5098 121.597 19.5098C121.943 19.5098 122.251 19.4391 122.52 19.2979C122.788 19.1566 123.014 18.9492 123.196 18.6758C123.379 18.3978 123.518 18.0583 123.613 17.6572C123.709 17.2516 123.757 16.7868 123.757 16.2627ZM132.801 11.0469H134.845V17.623C134.845 18.3887 134.681 19.0335 134.353 19.5576C134.029 20.0817 133.58 20.4759 133.006 20.7402C132.436 21.0046 131.78 21.1367 131.037 21.1367C130.294 21.1367 129.633 21.0046 129.055 20.7402C128.48 20.4759 128.029 20.0817 127.701 19.5576C127.378 19.0335 127.216 18.3887 127.216 17.623V11.0469H129.267V17.623C129.267 18.0697 129.337 18.4342 129.479 18.7168C129.62 18.9993 129.823 19.2067 130.087 19.3389C130.356 19.471 130.673 19.5371 131.037 19.5371C131.411 19.5371 131.728 19.471 131.987 19.3389C132.252 19.2067 132.452 18.9993 132.589 18.7168C132.73 18.4342 132.801 18.0697 132.801 17.623V11.0469ZM140.983 11.0469V21H138.939V11.0469H140.983ZM144.046 11.0469V12.6533H135.925V11.0469H144.046ZM150.711 11.0469H152.755V17.623C152.755 18.3887 152.591 19.0335 152.263 19.5576C151.939 20.0817 151.49 20.4759 150.916 20.7402C150.346 21.0046 149.69 21.1367 148.947 21.1367C148.204 21.1367 147.544 21.0046 146.965 20.7402C146.391 20.4759 145.939 20.0817 145.611 19.5576C145.288 19.0335 145.126 18.3887 145.126 17.623V11.0469H147.177V17.623C147.177 18.0697 147.247 18.4342 147.389 18.7168C147.53 18.9993 147.733 19.2067 147.997 19.3389C148.266 19.471 148.583 19.5371 148.947 19.5371C149.321 19.5371 149.638 19.471 149.897 19.3389C150.162 19.2067 150.362 18.9993 150.499 18.7168C150.64 18.4342 150.711 18.0697 150.711 17.623V11.0469ZM158.34 16.6318H155.783L155.77 15.2236H157.916C158.294 15.2236 158.604 15.1758 158.846 15.0801C159.087 14.9798 159.267 14.8363 159.386 14.6494C159.509 14.458 159.57 14.2256 159.57 13.9521C159.57 13.6423 159.511 13.3916 159.393 13.2002C159.279 13.0088 159.099 12.8698 158.853 12.7832C158.611 12.6966 158.299 12.6533 157.916 12.6533H156.494V21H154.443V11.0469H157.916C158.495 11.0469 159.012 11.1016 159.468 11.2109C159.928 11.3203 160.318 11.4867 160.637 11.71C160.956 11.9333 161.2 12.2158 161.368 12.5576C161.537 12.8949 161.621 13.2959 161.621 13.7607C161.621 14.1709 161.528 14.5492 161.341 14.8955C161.159 15.2419 160.869 15.5244 160.473 15.7432C160.081 15.9619 159.568 16.0827 158.935 16.1055L158.34 16.6318ZM158.251 21H155.223L156.022 19.4004H158.251C158.611 19.4004 158.905 19.3434 159.133 19.2295C159.361 19.111 159.529 18.9515 159.639 18.751C159.748 18.5505 159.803 18.3203 159.803 18.0605C159.803 17.7689 159.753 17.516 159.652 17.3018C159.557 17.0876 159.402 16.9235 159.188 16.8096C158.973 16.6911 158.691 16.6318 158.34 16.6318H156.364L156.378 15.2236H158.839L159.311 15.7773C159.917 15.7682 160.404 15.8753 160.773 16.0986C161.147 16.3174 161.418 16.6022 161.587 16.9531C161.76 17.304 161.847 17.68 161.847 18.0811C161.847 18.7191 161.708 19.2568 161.43 19.6943C161.152 20.1273 160.744 20.4531 160.206 20.6719C159.673 20.8906 159.021 21 158.251 21ZM170.063 19.4004V21H164.766V19.4004H170.063ZM165.436 11.0469V21H163.385V11.0469H165.436ZM169.373 15.1006V16.6592H164.766V15.1006H169.373ZM170.057 11.0469V12.6533H164.766V11.0469H170.057Z" fill="#3A1116"/>
</svg>
