<svg width="224" height="40" viewBox="0 0 224 40" fill="none" xmlns="http://www.w3.org/2000/svg">
<g clip-path="url(#clip0_1013_4737)">
<path d="M38.97 24.95L34 21.87V15H36V20.76L40.03 23.25L38.97 24.95ZM36 11C31.04 11 27 15.04 27 20C27 24.96 31.04 29 36 29C40.96 29 45 24.96 45 20C45 15.04 40.96 11 36 11ZM36 10C41.52 10 46 14.48 46 20C46 25.52 41.52 30 36 30C30.48 30 26 25.52 26 20C26 14.48 30.48 10 36 10Z" fill="#3A1116"/>
</g>
<path d="M75.7734 21.9922L77.749 15.0469H78.7061L78.1523 17.7471L76.0264 25H75.0762L75.7734 21.9922ZM73.7295 15.0469L75.3018 21.8555L75.7734 25H74.8301L72.417 15.0469H73.7295ZM81.2627 21.8486L82.8008 15.0469H84.1201L81.7139 25H80.7705L81.2627 21.8486ZM78.8496 15.0469L80.7705 21.9922L81.4678 25H80.5176L78.4668 17.7471L77.9062 15.0469H78.8496ZM89.5205 23.7354V19.9277C89.5205 19.6361 89.4613 19.3831 89.3428 19.1689C89.2288 18.9502 89.0557 18.7816 88.8232 18.6631C88.5908 18.5446 88.3037 18.4854 87.9619 18.4854C87.6429 18.4854 87.3626 18.54 87.1211 18.6494C86.8841 18.7588 86.6973 18.9023 86.5605 19.0801C86.4284 19.2578 86.3623 19.4492 86.3623 19.6543H85.0977C85.0977 19.39 85.166 19.1279 85.3027 18.8682C85.4395 18.6084 85.6354 18.3737 85.8906 18.1641C86.1504 17.9499 86.4603 17.7812 86.8203 17.6582C87.1849 17.5306 87.5905 17.4668 88.0371 17.4668C88.5749 17.4668 89.0488 17.5579 89.459 17.7402C89.8737 17.9225 90.1973 18.1982 90.4297 18.5674C90.6667 18.932 90.7852 19.39 90.7852 19.9414V23.3867C90.7852 23.6328 90.8057 23.8949 90.8467 24.1729C90.8923 24.4508 90.9583 24.6901 91.0449 24.8906V25H89.7256C89.6618 24.8542 89.6117 24.6605 89.5752 24.4189C89.5387 24.1729 89.5205 23.945 89.5205 23.7354ZM89.7393 20.5156L89.7529 21.4043H88.4746C88.1146 21.4043 87.7933 21.4339 87.5107 21.4932C87.2282 21.5479 86.9912 21.6322 86.7998 21.7461C86.6084 21.86 86.4626 22.0036 86.3623 22.1768C86.262 22.3454 86.2119 22.5436 86.2119 22.7715C86.2119 23.0039 86.2643 23.2158 86.3691 23.4072C86.474 23.5986 86.6312 23.7513 86.8408 23.8652C87.055 23.9746 87.3171 24.0293 87.627 24.0293C88.0143 24.0293 88.3561 23.9473 88.6523 23.7832C88.9486 23.6191 89.1833 23.4186 89.3564 23.1816C89.5342 22.9447 89.6299 22.7145 89.6436 22.4912L90.1836 23.0996C90.1517 23.291 90.0651 23.5029 89.9238 23.7354C89.7826 23.9678 89.5934 24.1911 89.3564 24.4053C89.124 24.6149 88.846 24.7904 88.5225 24.9316C88.2035 25.0684 87.8434 25.1367 87.4424 25.1367C86.9411 25.1367 86.5013 25.0387 86.123 24.8428C85.7493 24.6468 85.4577 24.3848 85.248 24.0566C85.043 23.724 84.9404 23.3525 84.9404 22.9424C84.9404 22.5459 85.0179 22.1973 85.1729 21.8965C85.3278 21.5911 85.5511 21.3382 85.8428 21.1377C86.1344 20.9326 86.4854 20.7777 86.8955 20.6729C87.3057 20.568 87.7637 20.5156 88.2695 20.5156H89.7393ZM95.8711 17.6035V18.5742H91.8721V17.6035H95.8711ZM93.2256 15.8057H94.4902V23.168C94.4902 23.4186 94.529 23.6077 94.6064 23.7354C94.6839 23.863 94.7842 23.9473 94.9072 23.9883C95.0303 24.0293 95.1624 24.0498 95.3037 24.0498C95.4085 24.0498 95.5179 24.0407 95.6318 24.0225C95.7503 23.9997 95.8392 23.9814 95.8984 23.9678L95.9053 25C95.805 25.0319 95.6729 25.0615 95.5088 25.0889C95.3493 25.1208 95.1556 25.1367 94.9277 25.1367C94.6178 25.1367 94.333 25.0752 94.0732 24.9521C93.8135 24.8291 93.6061 24.624 93.4512 24.3369C93.3008 24.0452 93.2256 23.6533 93.2256 23.1611V15.8057ZM100.314 24.0977C100.615 24.0977 100.893 24.0361 101.148 23.9131C101.404 23.79 101.613 23.6214 101.777 23.4072C101.941 23.1885 102.035 22.9401 102.058 22.6621H103.261C103.238 23.0996 103.09 23.5075 102.816 23.8857C102.548 24.2594 102.194 24.5625 101.757 24.7949C101.319 25.0228 100.839 25.1367 100.314 25.1367C99.7585 25.1367 99.2731 25.0387 98.8584 24.8428C98.4482 24.6468 98.1064 24.3779 97.833 24.0361C97.5641 23.6943 97.3613 23.3024 97.2246 22.8604C97.0924 22.4137 97.0264 21.9421 97.0264 21.4453V21.1582C97.0264 20.6615 97.0924 20.1921 97.2246 19.75C97.3613 19.3034 97.5641 18.9092 97.833 18.5674C98.1064 18.2256 98.4482 17.9567 98.8584 17.7607C99.2731 17.5648 99.7585 17.4668 100.314 17.4668C100.893 17.4668 101.399 17.5853 101.832 17.8223C102.265 18.0547 102.604 18.3737 102.851 18.7793C103.101 19.1803 103.238 19.6361 103.261 20.1465H102.058C102.035 19.8411 101.948 19.5654 101.798 19.3193C101.652 19.0732 101.451 18.8773 101.196 18.7314C100.946 18.5811 100.652 18.5059 100.314 18.5059C99.9271 18.5059 99.6012 18.5833 99.3369 18.7383C99.0771 18.8887 98.8698 19.0938 98.7148 19.3535C98.5645 19.6087 98.4551 19.8936 98.3867 20.208C98.3229 20.5179 98.291 20.8346 98.291 21.1582V21.4453C98.291 21.7689 98.3229 22.0879 98.3867 22.4023C98.4505 22.7168 98.5576 23.0016 98.708 23.2568C98.863 23.512 99.0703 23.7171 99.3301 23.8721C99.5944 24.0225 99.9225 24.0977 100.314 24.0977ZM105.947 14.5V25H104.683V14.5H105.947ZM105.646 21.0215L105.12 21.001C105.125 20.4951 105.2 20.028 105.346 19.5996C105.492 19.1667 105.697 18.7907 105.961 18.4717C106.225 18.1527 106.54 17.9066 106.904 17.7334C107.273 17.5557 107.681 17.4668 108.128 17.4668C108.493 17.4668 108.821 17.5169 109.112 17.6172C109.404 17.7129 109.652 17.8678 109.857 18.082C110.067 18.2962 110.227 18.5742 110.336 18.916C110.445 19.2533 110.5 19.6657 110.5 20.1533V25H109.229V20.1396C109.229 19.7523 109.172 19.4424 109.058 19.21C108.944 18.973 108.777 18.8021 108.559 18.6973C108.34 18.5879 108.071 18.5332 107.752 18.5332C107.438 18.5332 107.15 18.5993 106.891 18.7314C106.635 18.8636 106.414 19.0459 106.228 19.2783C106.045 19.5107 105.902 19.7773 105.797 20.0781C105.697 20.3743 105.646 20.6888 105.646 21.0215ZM122.094 23.9268V25H117.117V23.9268H122.094ZM117.377 15.0469V25H116.058V15.0469H117.377ZM127.774 23.7354V19.9277C127.774 19.6361 127.715 19.3831 127.597 19.1689C127.483 18.9502 127.31 18.7816 127.077 18.6631C126.845 18.5446 126.558 18.4854 126.216 18.4854C125.897 18.4854 125.617 18.54 125.375 18.6494C125.138 18.7588 124.951 18.9023 124.814 19.0801C124.682 19.2578 124.616 19.4492 124.616 19.6543H123.352C123.352 19.39 123.42 19.1279 123.557 18.8682C123.693 18.6084 123.889 18.3737 124.145 18.1641C124.404 17.9499 124.714 17.7812 125.074 17.6582C125.439 17.5306 125.844 17.4668 126.291 17.4668C126.829 17.4668 127.303 17.5579 127.713 17.7402C128.128 17.9225 128.451 18.1982 128.684 18.5674C128.921 18.932 129.039 19.39 129.039 19.9414V23.3867C129.039 23.6328 129.06 23.8949 129.101 24.1729C129.146 24.4508 129.212 24.6901 129.299 24.8906V25H127.979C127.916 24.8542 127.866 24.6605 127.829 24.4189C127.793 24.1729 127.774 23.945 127.774 23.7354ZM127.993 20.5156L128.007 21.4043H126.729C126.368 21.4043 126.047 21.4339 125.765 21.4932C125.482 21.5479 125.245 21.6322 125.054 21.7461C124.862 21.86 124.716 22.0036 124.616 22.1768C124.516 22.3454 124.466 22.5436 124.466 22.7715C124.466 23.0039 124.518 23.2158 124.623 23.4072C124.728 23.5986 124.885 23.7513 125.095 23.8652C125.309 23.9746 125.571 24.0293 125.881 24.0293C126.268 24.0293 126.61 23.9473 126.906 23.7832C127.202 23.6191 127.437 23.4186 127.61 23.1816C127.788 22.9447 127.884 22.7145 127.897 22.4912L128.438 23.0996C128.406 23.291 128.319 23.5029 128.178 23.7354C128.036 23.9678 127.847 24.1911 127.61 24.4053C127.378 24.6149 127.1 24.7904 126.776 24.9316C126.457 25.0684 126.097 25.1367 125.696 25.1367C125.195 25.1367 124.755 25.0387 124.377 24.8428C124.003 24.6468 123.712 24.3848 123.502 24.0566C123.297 23.724 123.194 23.3525 123.194 22.9424C123.194 22.5459 123.272 22.1973 123.427 21.8965C123.582 21.5911 123.805 21.3382 124.097 21.1377C124.388 20.9326 124.739 20.7777 125.149 20.6729C125.56 20.568 126.018 20.5156 126.523 20.5156H127.993ZM134.125 17.6035V18.5742H130.126V17.6035H134.125ZM131.479 15.8057H132.744V23.168C132.744 23.4186 132.783 23.6077 132.86 23.7354C132.938 23.863 133.038 23.9473 133.161 23.9883C133.284 24.0293 133.416 24.0498 133.558 24.0498C133.662 24.0498 133.772 24.0407 133.886 24.0225C134.004 23.9997 134.093 23.9814 134.152 23.9678L134.159 25C134.059 25.0319 133.927 25.0615 133.763 25.0889C133.603 25.1208 133.41 25.1367 133.182 25.1367C132.872 25.1367 132.587 25.0752 132.327 24.9521C132.067 24.8291 131.86 24.624 131.705 24.3369C131.555 24.0452 131.479 23.6533 131.479 23.1611V15.8057ZM138.678 25.1367C138.163 25.1367 137.696 25.0501 137.276 24.877C136.862 24.6992 136.504 24.4508 136.203 24.1318C135.907 23.8128 135.679 23.4346 135.52 22.9971C135.36 22.5596 135.28 22.0811 135.28 21.5615V21.2744C135.28 20.6729 135.369 20.1374 135.547 19.668C135.725 19.194 135.966 18.793 136.271 18.4648C136.577 18.1367 136.923 17.8883 137.311 17.7197C137.698 17.5511 138.099 17.4668 138.514 17.4668C139.042 17.4668 139.498 17.5579 139.881 17.7402C140.268 17.9225 140.585 18.1777 140.831 18.5059C141.077 18.8294 141.259 19.2122 141.378 19.6543C141.496 20.0918 141.556 20.5703 141.556 21.0898V21.6572H136.032V20.625H140.291V20.5293C140.273 20.2012 140.204 19.8822 140.086 19.5723C139.972 19.2624 139.79 19.0072 139.539 18.8066C139.288 18.6061 138.947 18.5059 138.514 18.5059C138.227 18.5059 137.962 18.5674 137.721 18.6904C137.479 18.8089 137.272 18.9867 137.099 19.2236C136.925 19.4606 136.791 19.75 136.695 20.0918C136.6 20.4336 136.552 20.8278 136.552 21.2744V21.5615C136.552 21.9124 136.6 22.2428 136.695 22.5527C136.796 22.8581 136.939 23.127 137.126 23.3594C137.317 23.5918 137.548 23.7741 137.816 23.9062C138.09 24.0384 138.4 24.1045 138.746 24.1045C139.193 24.1045 139.571 24.0133 139.881 23.8311C140.191 23.6488 140.462 23.4049 140.694 23.0996L141.46 23.708C141.3 23.9495 141.098 24.1797 140.852 24.3984C140.605 24.6172 140.302 24.7949 139.942 24.9316C139.587 25.0684 139.165 25.1367 138.678 25.1367ZM144.297 18.7656V25H143.032V17.6035H144.263L144.297 18.7656ZM146.607 17.5625L146.601 18.7383C146.496 18.7155 146.396 18.7018 146.3 18.6973C146.209 18.6882 146.104 18.6836 145.985 18.6836C145.694 18.6836 145.436 18.7292 145.213 18.8203C144.99 18.9115 144.8 19.0391 144.646 19.2031C144.491 19.3672 144.368 19.5632 144.276 19.791C144.19 20.0143 144.133 20.2604 144.105 20.5293L143.75 20.7344C143.75 20.2878 143.793 19.8685 143.88 19.4766C143.971 19.0846 144.11 18.7383 144.297 18.4375C144.484 18.1322 144.721 17.8952 145.008 17.7266C145.299 17.5534 145.646 17.4668 146.047 17.4668C146.138 17.4668 146.243 17.4782 146.361 17.501C146.48 17.5192 146.562 17.5397 146.607 17.5625Z" fill="#3A1116"/>
<defs>
<clipPath id="clip0_1013_4737">
<rect width="24" height="24" fill="white" transform="translate(24 8)"/>
</clipPath>
</defs>
</svg>
