<svg width="224" height="40" viewBox="0 0 224 40" fill="none" xmlns="http://www.w3.org/2000/svg">
<g clip-path="url(#clip0_1013_4753)">
<path d="M36 23.7L29.6 17.4L30.3 16.7L35.9 22.3L41.5 16.7L42.2 17.4L36 23.7Z" fill="#3A1116"/>
</g>
<path d="M78.46 22.4844C78.46 22.252 78.4235 22.0469 78.3506 21.8691C78.2822 21.6868 78.1592 21.5228 77.9814 21.377C77.8083 21.2311 77.5667 21.0921 77.2568 20.96C76.9515 20.8278 76.5641 20.6934 76.0947 20.5566C75.6025 20.4108 75.1582 20.249 74.7617 20.0713C74.3652 19.889 74.0257 19.6816 73.7432 19.4492C73.4606 19.2168 73.2441 18.9502 73.0938 18.6494C72.9434 18.3486 72.8682 18.0046 72.8682 17.6172C72.8682 17.2298 72.9479 16.8721 73.1074 16.5439C73.2669 16.2158 73.4948 15.931 73.791 15.6895C74.0918 15.4434 74.4495 15.252 74.8643 15.1152C75.279 14.9785 75.7415 14.9102 76.252 14.9102C76.9993 14.9102 77.6328 15.0537 78.1523 15.3408C78.6764 15.6234 79.0752 15.9948 79.3486 16.4551C79.6221 16.9108 79.7588 17.3984 79.7588 17.918H78.4463C78.4463 17.5443 78.3665 17.2139 78.207 16.9268C78.0475 16.6351 77.806 16.4072 77.4824 16.2432C77.1589 16.0745 76.7487 15.9902 76.252 15.9902C75.7826 15.9902 75.3952 16.0609 75.0898 16.2021C74.7845 16.3434 74.5566 16.5348 74.4062 16.7764C74.2604 17.0179 74.1875 17.2936 74.1875 17.6035C74.1875 17.8132 74.2308 18.0046 74.3174 18.1777C74.4085 18.3464 74.5475 18.5036 74.7344 18.6494C74.9258 18.7952 75.1673 18.9297 75.459 19.0527C75.7552 19.1758 76.1084 19.2943 76.5186 19.4082C77.0837 19.5677 77.5713 19.7454 77.9814 19.9414C78.3916 20.1374 78.7288 20.3584 78.9932 20.6045C79.262 20.846 79.4603 21.1217 79.5879 21.4316C79.7201 21.737 79.7861 22.0833 79.7861 22.4707C79.7861 22.8763 79.7041 23.2432 79.54 23.5713C79.376 23.8994 79.1413 24.1797 78.8359 24.4121C78.5306 24.6445 78.1637 24.8245 77.7354 24.9521C77.3115 25.0752 76.8376 25.1367 76.3135 25.1367C75.8532 25.1367 75.3997 25.0729 74.9531 24.9453C74.5111 24.8177 74.1077 24.6263 73.7432 24.3711C73.3831 24.1159 73.0938 23.8014 72.875 23.4277C72.6608 23.0495 72.5537 22.612 72.5537 22.1152H73.8662C73.8662 22.457 73.9323 22.751 74.0645 22.9971C74.1966 23.2386 74.3766 23.4391 74.6045 23.5986C74.8369 23.7581 75.099 23.8766 75.3906 23.9541C75.6868 24.027 75.9945 24.0635 76.3135 24.0635C76.7738 24.0635 77.1634 23.9997 77.4824 23.8721C77.8014 23.7445 78.043 23.5622 78.207 23.3252C78.3757 23.0882 78.46 22.8079 78.46 22.4844ZM82.541 14.5V25H81.2764V14.5H82.541ZM82.2402 21.0215L81.7139 21.001C81.7184 20.4951 81.7936 20.028 81.9395 19.5996C82.0853 19.1667 82.2904 18.7907 82.5547 18.4717C82.819 18.1527 83.1335 17.9066 83.498 17.7334C83.8672 17.5557 84.2751 17.4668 84.7217 17.4668C85.0863 17.4668 85.4144 17.5169 85.7061 17.6172C85.9977 17.7129 86.2461 17.8678 86.4512 18.082C86.6608 18.2962 86.8203 18.5742 86.9297 18.916C87.0391 19.2533 87.0938 19.6657 87.0938 20.1533V25H85.8223V20.1396C85.8223 19.7523 85.7653 19.4424 85.6514 19.21C85.5374 18.973 85.3711 18.8021 85.1523 18.6973C84.9336 18.5879 84.6647 18.5332 84.3457 18.5332C84.0312 18.5332 83.7441 18.5993 83.4844 18.7314C83.2292 18.8636 83.0081 19.0459 82.8213 19.2783C82.639 19.5107 82.4954 19.7773 82.3906 20.0781C82.2904 20.3743 82.2402 20.6888 82.2402 21.0215ZM88.6523 21.3838V21.2266C88.6523 20.6934 88.7298 20.1989 88.8848 19.7432C89.0397 19.2829 89.263 18.8841 89.5547 18.5469C89.8464 18.2051 90.1995 17.9408 90.6143 17.7539C91.029 17.5625 91.4938 17.4668 92.0088 17.4668C92.5283 17.4668 92.9954 17.5625 93.4102 17.7539C93.8294 17.9408 94.1849 18.2051 94.4766 18.5469C94.7728 18.8841 94.9984 19.2829 95.1533 19.7432C95.3083 20.1989 95.3857 20.6934 95.3857 21.2266V21.3838C95.3857 21.917 95.3083 22.4115 95.1533 22.8672C94.9984 23.3229 94.7728 23.7217 94.4766 24.0635C94.1849 24.4007 93.8317 24.665 93.417 24.8564C93.0068 25.0433 92.542 25.1367 92.0225 25.1367C91.5029 25.1367 91.0358 25.0433 90.6211 24.8564C90.2064 24.665 89.8509 24.4007 89.5547 24.0635C89.263 23.7217 89.0397 23.3229 88.8848 22.8672C88.7298 22.4115 88.6523 21.917 88.6523 21.3838ZM89.917 21.2266V21.3838C89.917 21.7529 89.9603 22.1016 90.0469 22.4297C90.1335 22.7533 90.2633 23.0404 90.4365 23.291C90.6143 23.5417 90.8353 23.7399 91.0996 23.8857C91.3639 24.027 91.6715 24.0977 92.0225 24.0977C92.3688 24.0977 92.6719 24.027 92.9316 23.8857C93.196 23.7399 93.4147 23.5417 93.5879 23.291C93.7611 23.0404 93.891 22.7533 93.9775 22.4297C94.0687 22.1016 94.1143 21.7529 94.1143 21.3838V21.2266C94.1143 20.862 94.0687 20.5179 93.9775 20.1943C93.891 19.8662 93.7588 19.5768 93.5811 19.3262C93.4079 19.071 93.1891 18.8704 92.9248 18.7246C92.665 18.5788 92.3597 18.5059 92.0088 18.5059C91.6624 18.5059 91.3571 18.5788 91.0928 18.7246C90.833 18.8704 90.6143 19.071 90.4365 19.3262C90.2633 19.5768 90.1335 19.8662 90.0469 20.1943C89.9603 20.5179 89.917 20.862 89.917 21.2266ZM98.8447 23.6875L100.745 17.6035H101.579L101.415 18.8135L99.4805 25H98.667L98.8447 23.6875ZM97.5664 17.6035L99.1865 23.7559L99.3027 25H98.4482L96.3018 17.6035H97.5664ZM103.397 23.708L104.942 17.6035H106.2L104.054 25H103.206L103.397 23.708ZM101.764 17.6035L103.623 23.585L103.835 25H103.028L101.039 18.7998L100.875 17.6035H101.764ZM111.58 15.0469H112.858L116.119 23.1611L119.373 15.0469H120.658L116.611 25H115.613L111.58 15.0469ZM111.163 15.0469H112.291L112.476 21.1172V25H111.163V15.0469ZM119.94 15.0469H121.068V25H119.756V21.1172L119.94 15.0469ZM122.859 21.3838V21.2266C122.859 20.6934 122.937 20.1989 123.092 19.7432C123.247 19.2829 123.47 18.8841 123.762 18.5469C124.053 18.2051 124.407 17.9408 124.821 17.7539C125.236 17.5625 125.701 17.4668 126.216 17.4668C126.735 17.4668 127.202 17.5625 127.617 17.7539C128.036 17.9408 128.392 18.2051 128.684 18.5469C128.98 18.8841 129.205 19.2829 129.36 19.7432C129.515 20.1989 129.593 20.6934 129.593 21.2266V21.3838C129.593 21.917 129.515 22.4115 129.36 22.8672C129.205 23.3229 128.98 23.7217 128.684 24.0635C128.392 24.4007 128.039 24.665 127.624 24.8564C127.214 25.0433 126.749 25.1367 126.229 25.1367C125.71 25.1367 125.243 25.0433 124.828 24.8564C124.413 24.665 124.058 24.4007 123.762 24.0635C123.47 23.7217 123.247 23.3229 123.092 22.8672C122.937 22.4115 122.859 21.917 122.859 21.3838ZM124.124 21.2266V21.3838C124.124 21.7529 124.167 22.1016 124.254 22.4297C124.34 22.7533 124.47 23.0404 124.644 23.291C124.821 23.5417 125.042 23.7399 125.307 23.8857C125.571 24.027 125.879 24.0977 126.229 24.0977C126.576 24.0977 126.879 24.027 127.139 23.8857C127.403 23.7399 127.622 23.5417 127.795 23.291C127.968 23.0404 128.098 22.7533 128.185 22.4297C128.276 22.1016 128.321 21.7529 128.321 21.3838V21.2266C128.321 20.862 128.276 20.5179 128.185 20.1943C128.098 19.8662 127.966 19.5768 127.788 19.3262C127.615 19.071 127.396 18.8704 127.132 18.7246C126.872 18.5788 126.567 18.5059 126.216 18.5059C125.869 18.5059 125.564 18.5788 125.3 18.7246C125.04 18.8704 124.821 19.071 124.644 19.3262C124.47 19.5768 124.34 19.8662 124.254 20.1943C124.167 20.5179 124.124 20.862 124.124 21.2266ZM132.443 18.7656V25H131.179V17.6035H132.409L132.443 18.7656ZM134.754 17.5625L134.747 18.7383C134.642 18.7155 134.542 18.7018 134.446 18.6973C134.355 18.6882 134.25 18.6836 134.132 18.6836C133.84 18.6836 133.583 18.7292 133.359 18.8203C133.136 18.9115 132.947 19.0391 132.792 19.2031C132.637 19.3672 132.514 19.5632 132.423 19.791C132.336 20.0143 132.279 20.2604 132.252 20.5293L131.896 20.7344C131.896 20.2878 131.94 19.8685 132.026 19.4766C132.118 19.0846 132.257 18.7383 132.443 18.4375C132.63 18.1322 132.867 17.8952 133.154 17.7266C133.446 17.5534 133.792 17.4668 134.193 17.4668C134.285 17.4668 134.389 17.4782 134.508 17.501C134.626 17.5192 134.708 17.5397 134.754 17.5625ZM138.855 25.1367C138.34 25.1367 137.873 25.0501 137.454 24.877C137.039 24.6992 136.682 24.4508 136.381 24.1318C136.085 23.8128 135.857 23.4346 135.697 22.9971C135.538 22.5596 135.458 22.0811 135.458 21.5615V21.2744C135.458 20.6729 135.547 20.1374 135.725 19.668C135.902 19.194 136.144 18.793 136.449 18.4648C136.755 18.1367 137.101 17.8883 137.488 17.7197C137.876 17.5511 138.277 17.4668 138.691 17.4668C139.22 17.4668 139.676 17.5579 140.059 17.7402C140.446 17.9225 140.763 18.1777 141.009 18.5059C141.255 18.8294 141.437 19.2122 141.556 19.6543C141.674 20.0918 141.733 20.5703 141.733 21.0898V21.6572H136.21V20.625H140.469V20.5293C140.451 20.2012 140.382 19.8822 140.264 19.5723C140.15 19.2624 139.967 19.0072 139.717 18.8066C139.466 18.6061 139.124 18.5059 138.691 18.5059C138.404 18.5059 138.14 18.5674 137.898 18.6904C137.657 18.8089 137.45 18.9867 137.276 19.2236C137.103 19.4606 136.969 19.75 136.873 20.0918C136.777 20.4336 136.729 20.8278 136.729 21.2744V21.5615C136.729 21.9124 136.777 22.2428 136.873 22.5527C136.973 22.8581 137.117 23.127 137.304 23.3594C137.495 23.5918 137.725 23.7741 137.994 23.9062C138.268 24.0384 138.577 24.1045 138.924 24.1045C139.37 24.1045 139.749 24.0133 140.059 23.8311C140.368 23.6488 140.64 23.4049 140.872 23.0996L141.638 23.708C141.478 23.9495 141.275 24.1797 141.029 24.3984C140.783 24.6172 140.48 24.7949 140.12 24.9316C139.765 25.0684 139.343 25.1367 138.855 25.1367Z" fill="#3A1116"/>
<defs>
<clipPath id="clip0_1013_4753">
<rect width="24" height="24" fill="white" transform="translate(24 8)"/>
</clipPath>
</defs>
</svg>
