<svg width="224" height="40" viewBox="0 0 224 40" fill="none" xmlns="http://www.w3.org/2000/svg">
<g clip-path="url(#clip0_1013_4813)">
<path d="M36 23.7L29.6 17.4L30.3 16.7L35.9 22.3L41.5 16.7L42.2 17.4L36 23.7Z" fill="#3A1116"/>
</g>
<path d="M78.46 22.4844C78.46 22.252 78.4235 22.0469 78.3506 21.8691C78.2822 21.6868 78.1592 21.5228 77.9814 21.377C77.8083 21.2311 77.5667 21.0921 77.2568 20.96C76.9515 20.8278 76.5641 20.6934 76.0947 20.5566C75.6025 20.4108 75.1582 20.249 74.7617 20.0713C74.3652 19.889 74.0257 19.6816 73.7432 19.4492C73.4606 19.2168 73.2441 18.9502 73.0938 18.6494C72.9434 18.3486 72.8682 18.0046 72.8682 17.6172C72.8682 17.2298 72.9479 16.8721 73.1074 16.5439C73.2669 16.2158 73.4948 15.931 73.791 15.6895C74.0918 15.4434 74.4495 15.252 74.8643 15.1152C75.279 14.9785 75.7415 14.9102 76.252 14.9102C76.9993 14.9102 77.6328 15.0537 78.1523 15.3408C78.6764 15.6234 79.0752 15.9948 79.3486 16.4551C79.6221 16.9108 79.7588 17.3984 79.7588 17.918H78.4463C78.4463 17.5443 78.3665 17.2139 78.207 16.9268C78.0475 16.6351 77.806 16.4072 77.4824 16.2432C77.1589 16.0745 76.7487 15.9902 76.252 15.9902C75.7826 15.9902 75.3952 16.0609 75.0898 16.2021C74.7845 16.3434 74.5566 16.5348 74.4062 16.7764C74.2604 17.0179 74.1875 17.2936 74.1875 17.6035C74.1875 17.8132 74.2308 18.0046 74.3174 18.1777C74.4085 18.3464 74.5475 18.5036 74.7344 18.6494C74.9258 18.7952 75.1673 18.9297 75.459 19.0527C75.7552 19.1758 76.1084 19.2943 76.5186 19.4082C77.0837 19.5677 77.5713 19.7454 77.9814 19.9414C78.3916 20.1374 78.7288 20.3584 78.9932 20.6045C79.262 20.846 79.4603 21.1217 79.5879 21.4316C79.7201 21.737 79.7861 22.0833 79.7861 22.4707C79.7861 22.8763 79.7041 23.2432 79.54 23.5713C79.376 23.8994 79.1413 24.1797 78.8359 24.4121C78.5306 24.6445 78.1637 24.8245 77.7354 24.9521C77.3115 25.0752 76.8376 25.1367 76.3135 25.1367C75.8532 25.1367 75.3997 25.0729 74.9531 24.9453C74.5111 24.8177 74.1077 24.6263 73.7432 24.3711C73.3831 24.1159 73.0938 23.8014 72.875 23.4277C72.6608 23.0495 72.5537 22.612 72.5537 22.1152H73.8662C73.8662 22.457 73.9323 22.751 74.0645 22.9971C74.1966 23.2386 74.3766 23.4391 74.6045 23.5986C74.8369 23.7581 75.099 23.8766 75.3906 23.9541C75.6868 24.027 75.9945 24.0635 76.3135 24.0635C76.7738 24.0635 77.1634 23.9997 77.4824 23.8721C77.8014 23.7445 78.043 23.5622 78.207 23.3252C78.3757 23.0882 78.46 22.8079 78.46 22.4844ZM82.541 14.5V25H81.2764V14.5H82.541ZM82.2402 21.0215L81.7139 21.001C81.7184 20.4951 81.7936 20.028 81.9395 19.5996C82.0853 19.1667 82.2904 18.7907 82.5547 18.4717C82.819 18.1527 83.1335 17.9066 83.498 17.7334C83.8672 17.5557 84.2751 17.4668 84.7217 17.4668C85.0863 17.4668 85.4144 17.5169 85.7061 17.6172C85.9977 17.7129 86.2461 17.8678 86.4512 18.082C86.6608 18.2962 86.8203 18.5742 86.9297 18.916C87.0391 19.2533 87.0938 19.6657 87.0938 20.1533V25H85.8223V20.1396C85.8223 19.7523 85.7653 19.4424 85.6514 19.21C85.5374 18.973 85.3711 18.8021 85.1523 18.6973C84.9336 18.5879 84.6647 18.5332 84.3457 18.5332C84.0312 18.5332 83.7441 18.5993 83.4844 18.7314C83.2292 18.8636 83.0081 19.0459 82.8213 19.2783C82.639 19.5107 82.4954 19.7773 82.3906 20.0781C82.2904 20.3743 82.2402 20.6888 82.2402 21.0215ZM88.6523 21.3838V21.2266C88.6523 20.6934 88.7298 20.1989 88.8848 19.7432C89.0397 19.2829 89.263 18.8841 89.5547 18.5469C89.8464 18.2051 90.1995 17.9408 90.6143 17.7539C91.029 17.5625 91.4938 17.4668 92.0088 17.4668C92.5283 17.4668 92.9954 17.5625 93.4102 17.7539C93.8294 17.9408 94.1849 18.2051 94.4766 18.5469C94.7728 18.8841 94.9984 19.2829 95.1533 19.7432C95.3083 20.1989 95.3857 20.6934 95.3857 21.2266V21.3838C95.3857 21.917 95.3083 22.4115 95.1533 22.8672C94.9984 23.3229 94.7728 23.7217 94.4766 24.0635C94.1849 24.4007 93.8317 24.665 93.417 24.8564C93.0068 25.0433 92.542 25.1367 92.0225 25.1367C91.5029 25.1367 91.0358 25.0433 90.6211 24.8564C90.2064 24.665 89.8509 24.4007 89.5547 24.0635C89.263 23.7217 89.0397 23.3229 88.8848 22.8672C88.7298 22.4115 88.6523 21.917 88.6523 21.3838ZM89.917 21.2266V21.3838C89.917 21.7529 89.9603 22.1016 90.0469 22.4297C90.1335 22.7533 90.2633 23.0404 90.4365 23.291C90.6143 23.5417 90.8353 23.7399 91.0996 23.8857C91.3639 24.027 91.6715 24.0977 92.0225 24.0977C92.3688 24.0977 92.6719 24.027 92.9316 23.8857C93.196 23.7399 93.4147 23.5417 93.5879 23.291C93.7611 23.0404 93.891 22.7533 93.9775 22.4297C94.0687 22.1016 94.1143 21.7529 94.1143 21.3838V21.2266C94.1143 20.862 94.0687 20.5179 93.9775 20.1943C93.891 19.8662 93.7588 19.5768 93.5811 19.3262C93.4079 19.071 93.1891 18.8704 92.9248 18.7246C92.665 18.5788 92.3597 18.5059 92.0088 18.5059C91.6624 18.5059 91.3571 18.5788 91.0928 18.7246C90.833 18.8704 90.6143 19.071 90.4365 19.3262C90.2633 19.5768 90.1335 19.8662 90.0469 20.1943C89.9603 20.5179 89.917 20.862 89.917 21.2266ZM98.8447 23.6875L100.745 17.6035H101.579L101.415 18.8135L99.4805 25H98.667L98.8447 23.6875ZM97.5664 17.6035L99.1865 23.7559L99.3027 25H98.4482L96.3018 17.6035H97.5664ZM103.397 23.708L104.942 17.6035H106.2L104.054 25H103.206L103.397 23.708ZM101.764 17.6035L103.623 23.585L103.835 25H103.028L101.039 18.7998L100.875 17.6035H101.764ZM114.991 14.9922V25H113.727V16.5713L111.177 17.501V16.3594L114.793 14.9922H114.991ZM120.556 19.4014H121.458C121.9 19.4014 122.265 19.3285 122.552 19.1826C122.843 19.0322 123.06 18.8294 123.201 18.5742C123.347 18.3145 123.42 18.0228 123.42 17.6992C123.42 17.3164 123.356 16.9951 123.229 16.7354C123.101 16.4756 122.91 16.2796 122.654 16.1475C122.399 16.0153 122.076 15.9492 121.684 15.9492C121.328 15.9492 121.014 16.0199 120.74 16.1611C120.471 16.2979 120.259 16.4938 120.104 16.749C119.954 17.0042 119.879 17.305 119.879 17.6514H118.614C118.614 17.1455 118.742 16.6852 118.997 16.2705C119.252 15.8558 119.61 15.5254 120.07 15.2793C120.535 15.0332 121.073 14.9102 121.684 14.9102C122.285 14.9102 122.812 15.0173 123.263 15.2314C123.714 15.4411 124.065 15.7555 124.315 16.1748C124.566 16.5895 124.691 17.1068 124.691 17.7266C124.691 17.9772 124.632 18.2461 124.514 18.5332C124.4 18.8158 124.22 19.0801 123.974 19.3262C123.732 19.5723 123.418 19.7751 123.03 19.9346C122.643 20.0895 122.178 20.167 121.636 20.167H120.556V19.4014ZM120.556 20.4404V19.6816H121.636C122.269 19.6816 122.793 19.7568 123.208 19.9072C123.623 20.0576 123.949 20.2581 124.186 20.5088C124.427 20.7594 124.596 21.0352 124.691 21.3359C124.792 21.6322 124.842 21.9284 124.842 22.2246C124.842 22.6895 124.762 23.1019 124.603 23.4619C124.448 23.8219 124.227 24.1273 123.939 24.3779C123.657 24.6286 123.324 24.8177 122.941 24.9453C122.559 25.0729 122.142 25.1367 121.69 25.1367C121.257 25.1367 120.85 25.0752 120.467 24.9521C120.089 24.8291 119.754 24.6514 119.462 24.4189C119.17 24.182 118.942 23.8926 118.778 23.5508C118.614 23.2044 118.532 22.8102 118.532 22.3682H119.797C119.797 22.7145 119.872 23.0176 120.022 23.2773C120.177 23.5371 120.396 23.7399 120.679 23.8857C120.966 24.027 121.303 24.0977 121.69 24.0977C122.078 24.0977 122.41 24.0316 122.688 23.8994C122.971 23.7627 123.188 23.5576 123.338 23.2842C123.493 23.0107 123.57 22.6667 123.57 22.252C123.57 21.8372 123.484 21.4977 123.311 21.2334C123.137 20.9645 122.891 20.7663 122.572 20.6387C122.258 20.5065 121.886 20.4404 121.458 20.4404H120.556ZM131.452 19.0732V25H130.181V17.6035H131.384L131.452 19.0732ZM131.192 21.0215L130.604 21.001C130.609 20.4951 130.675 20.028 130.803 19.5996C130.93 19.1667 131.119 18.7907 131.37 18.4717C131.621 18.1527 131.933 17.9066 132.307 17.7334C132.68 17.5557 133.113 17.4668 133.605 17.4668C133.952 17.4668 134.271 17.5169 134.562 17.6172C134.854 17.7129 135.107 17.8656 135.321 18.0752C135.535 18.2848 135.702 18.5537 135.82 18.8818C135.939 19.21 135.998 19.6064 135.998 20.0713V25H134.733V20.1328C134.733 19.7454 134.667 19.4355 134.535 19.2031C134.408 18.9707 134.225 18.8021 133.988 18.6973C133.751 18.5879 133.473 18.5332 133.154 18.5332C132.781 18.5332 132.468 18.5993 132.218 18.7314C131.967 18.8636 131.767 19.0459 131.616 19.2783C131.466 19.5107 131.356 19.7773 131.288 20.0781C131.224 20.3743 131.192 20.6888 131.192 21.0215ZM135.984 20.3242L135.137 20.584C135.141 20.1784 135.207 19.7887 135.335 19.415C135.467 19.0413 135.656 18.7087 135.902 18.417C136.153 18.1253 136.461 17.8952 136.825 17.7266C137.19 17.5534 137.607 17.4668 138.076 17.4668C138.473 17.4668 138.824 17.5192 139.129 17.624C139.439 17.7288 139.699 17.8906 139.908 18.1094C140.122 18.3236 140.284 18.5993 140.394 18.9365C140.503 19.2738 140.558 19.6748 140.558 20.1396V25H139.286V20.126C139.286 19.7113 139.22 19.39 139.088 19.1621C138.96 18.9297 138.778 18.7679 138.541 18.6768C138.309 18.5811 138.031 18.5332 137.707 18.5332C137.429 18.5332 137.183 18.5811 136.969 18.6768C136.755 18.7725 136.575 18.9046 136.429 19.0732C136.283 19.2373 136.171 19.4264 136.094 19.6406C136.021 19.8548 135.984 20.0827 135.984 20.3242ZM142.137 21.3838V21.2266C142.137 20.6934 142.214 20.1989 142.369 19.7432C142.524 19.2829 142.747 18.8841 143.039 18.5469C143.331 18.2051 143.684 17.9408 144.099 17.7539C144.513 17.5625 144.978 17.4668 145.493 17.4668C146.013 17.4668 146.48 17.5625 146.895 17.7539C147.314 17.9408 147.669 18.2051 147.961 18.5469C148.257 18.8841 148.483 19.2829 148.638 19.7432C148.793 20.1989 148.87 20.6934 148.87 21.2266V21.3838C148.87 21.917 148.793 22.4115 148.638 22.8672C148.483 23.3229 148.257 23.7217 147.961 24.0635C147.669 24.4007 147.316 24.665 146.901 24.8564C146.491 25.0433 146.026 25.1367 145.507 25.1367C144.987 25.1367 144.52 25.0433 144.105 24.8564C143.691 24.665 143.335 24.4007 143.039 24.0635C142.747 23.7217 142.524 23.3229 142.369 22.8672C142.214 22.4115 142.137 21.917 142.137 21.3838ZM143.401 21.2266V21.3838C143.401 21.7529 143.445 22.1016 143.531 22.4297C143.618 22.7533 143.748 23.0404 143.921 23.291C144.099 23.5417 144.32 23.7399 144.584 23.8857C144.848 24.027 145.156 24.0977 145.507 24.0977C145.853 24.0977 146.156 24.027 146.416 23.8857C146.68 23.7399 146.899 23.5417 147.072 23.291C147.245 23.0404 147.375 22.7533 147.462 22.4297C147.553 22.1016 147.599 21.7529 147.599 21.3838V21.2266C147.599 20.862 147.553 20.5179 147.462 20.1943C147.375 19.8662 147.243 19.5768 147.065 19.3262C146.892 19.071 146.674 18.8704 146.409 18.7246C146.149 18.5788 145.844 18.5059 145.493 18.5059C145.147 18.5059 144.841 18.5788 144.577 18.7246C144.317 18.8704 144.099 19.071 143.921 19.3262C143.748 19.5768 143.618 19.8662 143.531 20.1943C143.445 20.5179 143.401 20.862 143.401 21.2266ZM151.721 18.7656V25H150.456V17.6035H151.687L151.721 18.7656ZM154.031 17.5625L154.024 18.7383C153.92 18.7155 153.819 18.7018 153.724 18.6973C153.632 18.6882 153.528 18.6836 153.409 18.6836C153.118 18.6836 152.86 18.7292 152.637 18.8203C152.413 18.9115 152.224 19.0391 152.069 19.2031C151.914 19.3672 151.791 19.5632 151.7 19.791C151.614 20.0143 151.557 20.2604 151.529 20.5293L151.174 20.7344C151.174 20.2878 151.217 19.8685 151.304 19.4766C151.395 19.0846 151.534 18.7383 151.721 18.4375C151.908 18.1322 152.145 17.8952 152.432 17.7266C152.723 17.5534 153.07 17.4668 153.471 17.4668C153.562 17.4668 153.667 17.4782 153.785 17.501C153.904 17.5192 153.986 17.5397 154.031 17.5625ZM158.133 25.1367C157.618 25.1367 157.151 25.0501 156.731 24.877C156.317 24.6992 155.959 24.4508 155.658 24.1318C155.362 23.8128 155.134 23.4346 154.975 22.9971C154.815 22.5596 154.735 22.0811 154.735 21.5615V21.2744C154.735 20.6729 154.824 20.1374 155.002 19.668C155.18 19.194 155.421 18.793 155.727 18.4648C156.032 18.1367 156.378 17.8883 156.766 17.7197C157.153 17.5511 157.554 17.4668 157.969 17.4668C158.497 17.4668 158.953 17.5579 159.336 17.7402C159.723 17.9225 160.04 18.1777 160.286 18.5059C160.532 18.8294 160.715 19.2122 160.833 19.6543C160.951 20.0918 161.011 20.5703 161.011 21.0898V21.6572H155.487V20.625H159.746V20.5293C159.728 20.2012 159.66 19.8822 159.541 19.5723C159.427 19.2624 159.245 19.0072 158.994 18.8066C158.743 18.6061 158.402 18.5059 157.969 18.5059C157.682 18.5059 157.417 18.5674 157.176 18.6904C156.934 18.8089 156.727 18.9867 156.554 19.2236C156.381 19.4606 156.246 19.75 156.15 20.0918C156.055 20.4336 156.007 20.8278 156.007 21.2744V21.5615C156.007 21.9124 156.055 22.2428 156.15 22.5527C156.251 22.8581 156.394 23.127 156.581 23.3594C156.772 23.5918 157.003 23.7741 157.271 23.9062C157.545 24.0384 157.855 24.1045 158.201 24.1045C158.648 24.1045 159.026 24.0133 159.336 23.8311C159.646 23.6488 159.917 23.4049 160.149 23.0996L160.915 23.708C160.756 23.9495 160.553 24.1797 160.307 24.3984C160.061 24.6172 159.757 24.7949 159.397 24.9316C159.042 25.0684 158.62 25.1367 158.133 25.1367Z" fill="#3A1116"/>
<defs>
<clipPath id="clip0_1013_4813">
<rect width="24" height="24" fill="white" transform="translate(24 8)"/>
</clipPath>
</defs>
</svg>
