<svg width="224" height="17" viewBox="0 0 224 17" fill="none" xmlns="http://www.w3.org/2000/svg">
<g clip-path="url(#clip0_1013_4851)">
<path d="M41 11V13V14V18V18.51L40.99 18.97C40.94 21.1 39.66 22.94 37.74 23.67H37.72L37.66 23.69L37 23.95V24.65V27V28H38V29H39H34V28H35V27V24.65V23.95L34.34 23.71L34.26 23.68H34.25C32.33 22.95 31.05 21.11 31 18.98V18.51V18V14V13V11H41ZM42 10H30V13H28V14V18V19H30.01C30.07 21.53 31.63 23.78 33.97 24.64C33.98 24.64 33.99 24.64 34 24.65V27H33V28H32V30H40V28H39V27H38V24.65C38.01 24.65 38.02 24.65 38.03 24.64C40.36 23.78 41.93 21.54 41.99 19H44V18V14V13H42V10ZM42 18V14H43V18H42ZM29 18V14H30V18H29Z" fill="#3A1116"/>
</g>
<path d="M78.46 22.4844C78.46 22.252 78.4235 22.0469 78.3506 21.8691C78.2822 21.6868 78.1592 21.5228 77.9814 21.377C77.8083 21.2311 77.5667 21.0921 77.2568 20.96C76.9515 20.8278 76.5641 20.6934 76.0947 20.5566C75.6025 20.4108 75.1582 20.249 74.7617 20.0713C74.3652 19.889 74.0257 19.6816 73.7432 19.4492C73.4606 19.2168 73.2441 18.9502 73.0938 18.6494C72.9434 18.3486 72.8682 18.0046 72.8682 17.6172C72.8682 17.2298 72.9479 16.8721 73.1074 16.5439C73.2669 16.2158 73.4948 15.931 73.791 15.6895C74.0918 15.4434 74.4495 15.252 74.8643 15.1152C75.279 14.9785 75.7415 14.9102 76.252 14.9102C76.9993 14.9102 77.6328 15.0537 78.1523 15.3408C78.6764 15.6234 79.0752 15.9948 79.3486 16.4551C79.6221 16.9108 79.7588 17.3984 79.7588 17.918H78.4463C78.4463 17.5443 78.3665 17.2139 78.207 16.9268C78.0475 16.6351 77.806 16.4072 77.4824 16.2432C77.1589 16.0745 76.7487 15.9902 76.252 15.9902C75.7826 15.9902 75.3952 16.0609 75.0898 16.2021C74.7845 16.3434 74.5566 16.5348 74.4062 16.7764C74.2604 17.0179 74.1875 17.2936 74.1875 17.6035C74.1875 17.8132 74.2308 18.0046 74.3174 18.1777C74.4085 18.3464 74.5475 18.5036 74.7344 18.6494C74.9258 18.7952 75.1673 18.9297 75.459 19.0527C75.7552 19.1758 76.1084 19.2943 76.5186 19.4082C77.0837 19.5677 77.5713 19.7454 77.9814 19.9414C78.3916 20.1374 78.7288 20.3584 78.9932 20.6045C79.262 20.846 79.4603 21.1217 79.5879 21.4316C79.7201 21.737 79.7861 22.0833 79.7861 22.4707C79.7861 22.8763 79.7041 23.2432 79.54 23.5713C79.376 23.8994 79.1413 24.1797 78.8359 24.4121C78.5306 24.6445 78.1637 24.8245 77.7354 24.9521C77.3115 25.0752 76.8376 25.1367 76.3135 25.1367C75.8532 25.1367 75.3997 25.0729 74.9531 24.9453C74.5111 24.8177 74.1077 24.6263 73.7432 24.3711C73.3831 24.1159 73.0938 23.8014 72.875 23.4277C72.6608 23.0495 72.5537 22.612 72.5537 22.1152H73.8662C73.8662 22.457 73.9323 22.751 74.0645 22.9971C74.1966 23.2386 74.3766 23.4391 74.6045 23.5986C74.8369 23.7581 75.099 23.8766 75.3906 23.9541C75.6868 24.027 75.9945 24.0635 76.3135 24.0635C76.7738 24.0635 77.1634 23.9997 77.4824 23.8721C77.8014 23.7445 78.043 23.5622 78.207 23.3252C78.3757 23.0882 78.46 22.8079 78.46 22.4844ZM82.541 19.0254V27.8438H81.2695V17.6035H82.4316L82.541 19.0254ZM87.5244 21.2402V21.3838C87.5244 21.9215 87.4606 22.4206 87.333 22.8809C87.2054 23.3366 87.0186 23.7331 86.7725 24.0703C86.5309 24.4076 86.2324 24.6696 85.877 24.8564C85.5215 25.0433 85.1136 25.1367 84.6533 25.1367C84.1839 25.1367 83.7692 25.0592 83.4092 24.9043C83.0492 24.7493 82.7438 24.5238 82.4932 24.2275C82.2425 23.9313 82.042 23.5758 81.8916 23.1611C81.7458 22.7464 81.6455 22.2793 81.5908 21.7598V20.9941C81.6455 20.4473 81.748 19.9574 81.8984 19.5244C82.0488 19.0915 82.2471 18.7223 82.4932 18.417C82.7438 18.1071 83.0469 17.8724 83.4023 17.7129C83.7578 17.5488 84.168 17.4668 84.6328 17.4668C85.0977 17.4668 85.5101 17.5579 85.8701 17.7402C86.2301 17.918 86.5332 18.1732 86.7793 18.5059C87.0254 18.8385 87.21 19.2373 87.333 19.7021C87.4606 20.1624 87.5244 20.6751 87.5244 21.2402ZM86.2529 21.3838V21.2402C86.2529 20.8711 86.2142 20.5247 86.1367 20.2012C86.0592 19.873 85.9385 19.5859 85.7744 19.3398C85.6149 19.0892 85.4098 18.8932 85.1592 18.752C84.9085 18.6061 84.61 18.5332 84.2637 18.5332C83.9447 18.5332 83.6667 18.5879 83.4297 18.6973C83.1973 18.8066 82.999 18.9548 82.835 19.1416C82.6709 19.3239 82.5365 19.5335 82.4316 19.7705C82.3314 20.0029 82.2562 20.2445 82.2061 20.4951V22.2656C82.2972 22.5846 82.4248 22.8854 82.5889 23.168C82.7529 23.446 82.9717 23.6715 83.2451 23.8447C83.5186 24.0133 83.8626 24.0977 84.2773 24.0977C84.6191 24.0977 84.9131 24.027 85.1592 23.8857C85.4098 23.7399 85.6149 23.5417 85.7744 23.291C85.9385 23.0404 86.0592 22.7533 86.1367 22.4297C86.2142 22.1016 86.2529 21.7529 86.2529 21.3838ZM88.8027 21.3838V21.2266C88.8027 20.6934 88.8802 20.1989 89.0352 19.7432C89.1901 19.2829 89.4134 18.8841 89.7051 18.5469C89.9967 18.2051 90.3499 17.9408 90.7646 17.7539C91.1794 17.5625 91.6442 17.4668 92.1592 17.4668C92.6787 17.4668 93.1458 17.5625 93.5605 17.7539C93.9798 17.9408 94.3353 18.2051 94.627 18.5469C94.9232 18.8841 95.1488 19.2829 95.3037 19.7432C95.4587 20.1989 95.5361 20.6934 95.5361 21.2266V21.3838C95.5361 21.917 95.4587 22.4115 95.3037 22.8672C95.1488 23.3229 94.9232 23.7217 94.627 24.0635C94.3353 24.4007 93.9821 24.665 93.5674 24.8564C93.1572 25.0433 92.6924 25.1367 92.1729 25.1367C91.6533 25.1367 91.1862 25.0433 90.7715 24.8564C90.3568 24.665 90.0013 24.4007 89.7051 24.0635C89.4134 23.7217 89.1901 23.3229 89.0352 22.8672C88.8802 22.4115 88.8027 21.917 88.8027 21.3838ZM90.0674 21.2266V21.3838C90.0674 21.7529 90.1107 22.1016 90.1973 22.4297C90.2839 22.7533 90.4137 23.0404 90.5869 23.291C90.7646 23.5417 90.9857 23.7399 91.25 23.8857C91.5143 24.027 91.8219 24.0977 92.1729 24.0977C92.5192 24.0977 92.8223 24.027 93.082 23.8857C93.3464 23.7399 93.5651 23.5417 93.7383 23.291C93.9115 23.0404 94.0413 22.7533 94.1279 22.4297C94.2191 22.1016 94.2646 21.7529 94.2646 21.3838V21.2266C94.2646 20.862 94.2191 20.5179 94.1279 20.1943C94.0413 19.8662 93.9092 19.5768 93.7314 19.3262C93.5583 19.071 93.3395 18.8704 93.0752 18.7246C92.8154 18.5788 92.5101 18.5059 92.1592 18.5059C91.8128 18.5059 91.5075 18.5788 91.2432 18.7246C90.9834 18.8704 90.7646 19.071 90.5869 19.3262C90.4137 19.5768 90.2839 19.8662 90.1973 20.1943C90.1107 20.5179 90.0674 20.862 90.0674 21.2266ZM98.3867 18.7656V25H97.1221V17.6035H98.3525L98.3867 18.7656ZM100.697 17.5625L100.69 18.7383C100.586 18.7155 100.485 18.7018 100.39 18.6973C100.299 18.6882 100.194 18.6836 100.075 18.6836C99.7835 18.6836 99.526 18.7292 99.3027 18.8203C99.0794 18.9115 98.8903 19.0391 98.7354 19.2031C98.5804 19.3672 98.4574 19.5632 98.3662 19.791C98.2796 20.0143 98.2227 20.2604 98.1953 20.5293L97.8398 20.7344C97.8398 20.2878 97.8831 19.8685 97.9697 19.4766C98.0609 19.0846 98.1999 18.7383 98.3867 18.4375C98.5736 18.1322 98.8105 17.8952 99.0977 17.7266C99.3893 17.5534 99.7357 17.4668 100.137 17.4668C100.228 17.4668 100.333 17.4782 100.451 17.501C100.57 17.5192 100.652 17.5397 100.697 17.5625ZM105.305 17.6035V18.5742H101.306V17.6035H105.305ZM102.659 15.8057H103.924V23.168C103.924 23.4186 103.963 23.6077 104.04 23.7354C104.118 23.863 104.218 23.9473 104.341 23.9883C104.464 24.0293 104.596 24.0498 104.737 24.0498C104.842 24.0498 104.951 24.0407 105.065 24.0225C105.184 23.9997 105.273 23.9814 105.332 23.9678L105.339 25C105.239 25.0319 105.106 25.0615 104.942 25.0889C104.783 25.1208 104.589 25.1367 104.361 25.1367C104.051 25.1367 103.767 25.0752 103.507 24.9521C103.247 24.8291 103.04 24.624 102.885 24.3369C102.734 24.0452 102.659 23.6533 102.659 23.1611V15.8057ZM111.095 23.0381C111.095 22.8558 111.054 22.6872 110.972 22.5322C110.894 22.3727 110.732 22.2292 110.486 22.1016C110.245 21.9694 109.88 21.8555 109.393 21.7598C108.982 21.6732 108.611 21.5706 108.278 21.4521C107.95 21.3337 107.67 21.1901 107.438 21.0215C107.21 20.8529 107.034 20.6546 106.911 20.4268C106.788 20.1989 106.727 19.9323 106.727 19.627C106.727 19.3353 106.79 19.0596 106.918 18.7998C107.05 18.54 107.235 18.3099 107.472 18.1094C107.713 17.9089 108.003 17.7516 108.34 17.6377C108.677 17.5238 109.053 17.4668 109.468 17.4668C110.06 17.4668 110.566 17.5716 110.985 17.7812C111.405 17.9909 111.726 18.2712 111.949 18.6221C112.173 18.9684 112.284 19.3535 112.284 19.7773H111.02C111.02 19.5723 110.958 19.374 110.835 19.1826C110.716 18.9867 110.541 18.8249 110.309 18.6973C110.081 18.5697 109.8 18.5059 109.468 18.5059C109.117 18.5059 108.832 18.5605 108.613 18.6699C108.399 18.7747 108.242 18.9092 108.142 19.0732C108.046 19.2373 107.998 19.4105 107.998 19.5928C107.998 19.7295 108.021 19.8525 108.066 19.9619C108.117 20.0667 108.203 20.1647 108.326 20.2559C108.449 20.3424 108.622 20.4245 108.846 20.502C109.069 20.5794 109.354 20.6569 109.7 20.7344C110.306 20.8711 110.805 21.0352 111.197 21.2266C111.589 21.418 111.881 21.6527 112.072 21.9307C112.264 22.2087 112.359 22.5459 112.359 22.9424C112.359 23.266 112.291 23.5622 112.154 23.8311C112.022 24.0999 111.828 24.3324 111.573 24.5283C111.323 24.7197 111.022 24.8701 110.671 24.9795C110.325 25.0843 109.935 25.1367 109.502 25.1367C108.85 25.1367 108.299 25.0205 107.848 24.7881C107.396 24.5557 107.055 24.2549 106.822 23.8857C106.59 23.5166 106.474 23.127 106.474 22.7168H107.745C107.763 23.0632 107.864 23.3389 108.046 23.5439C108.228 23.7445 108.451 23.888 108.716 23.9746C108.98 24.0566 109.242 24.0977 109.502 24.0977C109.848 24.0977 110.138 24.0521 110.37 23.9609C110.607 23.8698 110.787 23.7445 110.91 23.585C111.033 23.4255 111.095 23.2432 111.095 23.0381Z" fill="#3A1116"/>
<defs>
<clipPath id="clip0_1013_4851">
<rect width="24" height="24" fill="white" transform="translate(24 8)"/>
</clipPath>
</defs>
</svg>
