<svg width="224" height="40" viewBox="0 0 224 40" fill="none" xmlns="http://www.w3.org/2000/svg">
<g clip-path="url(#clip0_1013_4835)">
<path d="M34 20H32V22H30V20H28V18H30V16H32V18H34V20ZM41 20.5C41 19.67 40.33 19 39.5 19C38.67 19 38 19.67 38 20.5C38 21.33 38.67 22 39.5 22C40.33 22 41 21.33 41 20.5ZM44 17.5C44 16.67 43.33 16 42.5 16C41.67 16 41 16.67 41 17.5C41 18.33 41.67 19 42.5 19C43.33 19 44 18.33 44 17.5ZM40.97 13.15L36.47 15.68L35.98 15.95L35.49 15.68L30.99 13.15L27 15.39V21.82L35.98 26.86L44.96 21.82V15.39L40.97 13.15ZM40.97 12L45.96 14.8V22.4L35.98 28L26 22.4V14.8L30.99 12L35.98 14.8L40.97 12Z" fill="#3A1116"/>
</g>
<path d="M80.5107 20.0439V23.6875C80.3877 23.8698 80.1917 24.0749 79.9229 24.3027C79.654 24.526 79.2826 24.722 78.8086 24.8906C78.3392 25.0547 77.7331 25.1367 76.9902 25.1367C76.3841 25.1367 75.8258 25.0319 75.3154 24.8223C74.8096 24.6081 74.3698 24.2982 73.9961 23.8926C73.627 23.4824 73.3398 22.9857 73.1348 22.4023C72.9342 21.8145 72.834 21.1491 72.834 20.4062V19.6338C72.834 18.891 72.9206 18.2279 73.0938 17.6445C73.2715 17.0612 73.5312 16.5667 73.873 16.1611C74.2148 15.751 74.6341 15.4411 75.1309 15.2314C75.6276 15.0173 76.1973 14.9102 76.8398 14.9102C77.6009 14.9102 78.2367 15.0423 78.7471 15.3066C79.262 15.5664 79.6631 15.9264 79.9502 16.3867C80.2419 16.847 80.4287 17.3711 80.5107 17.959H79.1914C79.1322 17.599 79.0137 17.2708 78.8359 16.9746C78.6628 16.6784 78.4144 16.4414 78.0908 16.2637C77.7673 16.0814 77.3503 15.9902 76.8398 15.9902C76.3796 15.9902 75.9808 16.0745 75.6436 16.2432C75.3063 16.4118 75.0283 16.6533 74.8096 16.9678C74.5908 17.2822 74.4268 17.6628 74.3174 18.1094C74.2126 18.556 74.1602 19.0596 74.1602 19.6201V20.4062C74.1602 20.9805 74.2262 21.4932 74.3584 21.9443C74.4951 22.3955 74.6888 22.7806 74.9395 23.0996C75.1901 23.4141 75.4886 23.6533 75.835 23.8174C76.1859 23.9814 76.5732 24.0635 76.9971 24.0635C77.4665 24.0635 77.847 24.0247 78.1387 23.9473C78.4303 23.8652 78.6582 23.7695 78.8223 23.6602C78.9863 23.5462 79.1117 23.4391 79.1982 23.3389V21.1104H76.8945V20.0439H80.5107ZM86.8682 23.7354V19.9277C86.8682 19.6361 86.8089 19.3831 86.6904 19.1689C86.5765 18.9502 86.4033 18.7816 86.1709 18.6631C85.9385 18.5446 85.6514 18.4854 85.3096 18.4854C84.9906 18.4854 84.7103 18.54 84.4688 18.6494C84.2318 18.7588 84.0449 18.9023 83.9082 19.0801C83.776 19.2578 83.71 19.4492 83.71 19.6543H82.4453C82.4453 19.39 82.5137 19.1279 82.6504 18.8682C82.7871 18.6084 82.9831 18.3737 83.2383 18.1641C83.498 17.9499 83.8079 17.7812 84.168 17.6582C84.5326 17.5306 84.9382 17.4668 85.3848 17.4668C85.9225 17.4668 86.3965 17.5579 86.8066 17.7402C87.2214 17.9225 87.5449 18.1982 87.7773 18.5674C88.0143 18.932 88.1328 19.39 88.1328 19.9414V23.3867C88.1328 23.6328 88.1533 23.8949 88.1943 24.1729C88.2399 24.4508 88.306 24.6901 88.3926 24.8906V25H87.0732C87.0094 24.8542 86.9593 24.6605 86.9229 24.4189C86.8864 24.1729 86.8682 23.945 86.8682 23.7354ZM87.0869 20.5156L87.1006 21.4043H85.8223C85.4622 21.4043 85.141 21.4339 84.8584 21.4932C84.5758 21.5479 84.3389 21.6322 84.1475 21.7461C83.9561 21.86 83.8102 22.0036 83.71 22.1768C83.6097 22.3454 83.5596 22.5436 83.5596 22.7715C83.5596 23.0039 83.612 23.2158 83.7168 23.4072C83.8216 23.5986 83.9788 23.7513 84.1885 23.8652C84.4027 23.9746 84.6647 24.0293 84.9746 24.0293C85.362 24.0293 85.7038 23.9473 86 23.7832C86.2962 23.6191 86.5309 23.4186 86.7041 23.1816C86.8818 22.9447 86.9775 22.7145 86.9912 22.4912L87.5312 23.0996C87.4993 23.291 87.4128 23.5029 87.2715 23.7354C87.1302 23.9678 86.9411 24.1911 86.7041 24.4053C86.4717 24.6149 86.1937 24.7904 85.8701 24.9316C85.5511 25.0684 85.1911 25.1367 84.79 25.1367C84.2887 25.1367 83.849 25.0387 83.4707 24.8428C83.097 24.6468 82.8053 24.3848 82.5957 24.0566C82.3906 23.724 82.2881 23.3525 82.2881 22.9424C82.2881 22.5459 82.3656 22.1973 82.5205 21.8965C82.6755 21.5911 82.8988 21.3382 83.1904 21.1377C83.4821 20.9326 83.833 20.7777 84.2432 20.6729C84.6533 20.568 85.1113 20.5156 85.6172 20.5156H87.0869ZM91.3799 19.0732V25H90.1084V17.6035H91.3115L91.3799 19.0732ZM91.1201 21.0215L90.5322 21.001C90.5368 20.4951 90.6029 20.028 90.7305 19.5996C90.8581 19.1667 91.0472 18.7907 91.2979 18.4717C91.5485 18.1527 91.8607 17.9066 92.2344 17.7334C92.6081 17.5557 93.041 17.4668 93.5332 17.4668C93.8796 17.4668 94.1986 17.5169 94.4902 17.6172C94.7819 17.7129 95.0348 17.8656 95.249 18.0752C95.4632 18.2848 95.6296 18.5537 95.748 18.8818C95.8665 19.21 95.9258 19.6064 95.9258 20.0713V25H94.6611V20.1328C94.6611 19.7454 94.5951 19.4355 94.4629 19.2031C94.3353 18.9707 94.153 18.8021 93.916 18.6973C93.679 18.5879 93.401 18.5332 93.082 18.5332C92.7083 18.5332 92.3962 18.5993 92.1455 18.7314C91.8949 18.8636 91.6943 19.0459 91.5439 19.2783C91.3936 19.5107 91.2842 19.7773 91.2158 20.0781C91.152 20.3743 91.1201 20.6888 91.1201 21.0215ZM95.9121 20.3242L95.0645 20.584C95.069 20.1784 95.1351 19.7887 95.2627 19.415C95.3949 19.0413 95.584 18.7087 95.8301 18.417C96.0807 18.1253 96.3883 17.8952 96.7529 17.7266C97.1175 17.5534 97.5345 17.4668 98.0039 17.4668C98.4004 17.4668 98.7513 17.5192 99.0566 17.624C99.3665 17.7288 99.6263 17.8906 99.8359 18.1094C100.05 18.3236 100.212 18.5993 100.321 18.9365C100.431 19.2738 100.485 19.6748 100.485 20.1396V25H99.2139V20.126C99.2139 19.7113 99.1478 19.39 99.0156 19.1621C98.888 18.9297 98.7057 18.7679 98.4688 18.6768C98.2363 18.5811 97.9583 18.5332 97.6348 18.5332C97.3568 18.5332 97.1107 18.5811 96.8965 18.6768C96.6823 18.7725 96.5023 18.9046 96.3564 19.0732C96.2106 19.2373 96.099 19.4264 96.0215 19.6406C95.9486 19.8548 95.9121 20.0827 95.9121 20.3242ZM103.773 17.6035V25H102.502V17.6035H103.773ZM102.406 15.6416C102.406 15.4365 102.468 15.2633 102.591 15.1221C102.718 14.9808 102.905 14.9102 103.151 14.9102C103.393 14.9102 103.577 14.9808 103.705 15.1221C103.837 15.2633 103.903 15.4365 103.903 15.6416C103.903 15.8376 103.837 16.0062 103.705 16.1475C103.577 16.2842 103.393 16.3525 103.151 16.3525C102.905 16.3525 102.718 16.2842 102.591 16.1475C102.468 16.0062 102.406 15.8376 102.406 15.6416ZM107.068 19.1826V25H105.804V17.6035H107L107.068 19.1826ZM106.768 21.0215L106.241 21.001C106.246 20.4951 106.321 20.028 106.467 19.5996C106.613 19.1667 106.818 18.7907 107.082 18.4717C107.346 18.1527 107.661 17.9066 108.025 17.7334C108.395 17.5557 108.802 17.4668 109.249 17.4668C109.614 17.4668 109.942 17.5169 110.233 17.6172C110.525 17.7129 110.773 17.8678 110.979 18.082C111.188 18.2962 111.348 18.5742 111.457 18.916C111.566 19.2533 111.621 19.6657 111.621 20.1533V25H110.35V20.1396C110.35 19.7523 110.293 19.4424 110.179 19.21C110.065 18.973 109.898 18.8021 109.68 18.6973C109.461 18.5879 109.192 18.5332 108.873 18.5332C108.559 18.5332 108.271 18.5993 108.012 18.7314C107.757 18.8636 107.535 19.0459 107.349 19.2783C107.166 19.5107 107.023 19.7773 106.918 20.0781C106.818 20.3743 106.768 20.6888 106.768 21.0215ZM118.334 17.6035H119.482V24.8428C119.482 25.4945 119.35 26.0505 119.086 26.5107C118.822 26.971 118.452 27.3197 117.979 27.5566C117.509 27.7982 116.967 27.9189 116.352 27.9189C116.096 27.9189 115.796 27.8779 115.449 27.7959C115.107 27.7184 114.77 27.584 114.438 27.3926C114.109 27.2057 113.834 26.9528 113.61 26.6338L114.273 25.8818C114.583 26.2555 114.907 26.5153 115.244 26.6611C115.586 26.807 115.923 26.8799 116.256 26.8799C116.657 26.8799 117.003 26.8047 117.295 26.6543C117.587 26.5039 117.812 26.2806 117.972 25.9844C118.136 25.6927 118.218 25.3327 118.218 24.9043V19.2305L118.334 17.6035ZM113.241 21.3838V21.2402C113.241 20.6751 113.307 20.1624 113.439 19.7021C113.576 19.2373 113.77 18.8385 114.021 18.5059C114.276 18.1732 114.583 17.918 114.943 17.7402C115.303 17.5579 115.709 17.4668 116.16 17.4668C116.625 17.4668 117.031 17.5488 117.377 17.7129C117.728 17.8724 118.024 18.1071 118.266 18.417C118.512 18.7223 118.705 19.0915 118.847 19.5244C118.988 19.9574 119.086 20.4473 119.141 20.9941V21.623C119.09 22.1654 118.993 22.653 118.847 23.0859C118.705 23.5189 118.512 23.888 118.266 24.1934C118.024 24.4987 117.728 24.7334 117.377 24.8975C117.026 25.057 116.616 25.1367 116.146 25.1367C115.704 25.1367 115.303 25.0433 114.943 24.8564C114.588 24.6696 114.283 24.4076 114.027 24.0703C113.772 23.7331 113.576 23.3366 113.439 22.8809C113.307 22.4206 113.241 21.9215 113.241 21.3838ZM114.506 21.2402V21.3838C114.506 21.7529 114.542 22.0993 114.615 22.4229C114.693 22.7464 114.809 23.0312 114.964 23.2773C115.123 23.5234 115.326 23.7171 115.572 23.8584C115.818 23.9951 116.112 24.0635 116.454 24.0635C116.873 24.0635 117.22 23.9746 117.493 23.7969C117.767 23.6191 117.983 23.3844 118.143 23.0928C118.307 22.8011 118.434 22.4844 118.525 22.1426V20.4951C118.475 20.2445 118.398 20.0029 118.293 19.7705C118.193 19.5335 118.061 19.3239 117.896 19.1416C117.737 18.9548 117.539 18.8066 117.302 18.6973C117.065 18.5879 116.787 18.5332 116.468 18.5332C116.121 18.5332 115.823 18.6061 115.572 18.752C115.326 18.8932 115.123 19.0892 114.964 19.3398C114.809 19.5859 114.693 19.873 114.615 20.2012C114.542 20.5247 114.506 20.8711 114.506 21.2402Z" fill="#3A1116"/>
<defs>
<clipPath id="clip0_1013_4835">
<rect width="24" height="24" fill="white" transform="translate(24 8)"/>
</clipPath>
</defs>
</svg>
