<svg width="224" height="40" viewBox="0 0 224 40" fill="none" xmlns="http://www.w3.org/2000/svg">
<g clip-path="url(#clip0_1013_4694)">
<path d="M33.8 17.8L29.97 26.03L38.2 22.2L42.03 13.97L33.8 17.8ZM37.08 20.77C36.87 21.06 36.57 21.25 36.22 21.31C36.15 21.32 36.07 21.33 36 21.33C35.72 21.33 35.46 21.25 35.23 21.08C34.94 20.87 34.75 20.57 34.69 20.22C34.63 19.87 34.71 19.51 34.92 19.23C35.13 18.94 35.43 18.75 35.78 18.69C36.13 18.63 36.48 18.71 36.77 18.92C37.06 19.13 37.25 19.43 37.31 19.78C37.37 20.13 37.29 20.48 37.08 20.77ZM36 11C40.96 11 45 15.04 45 20C45 24.96 40.96 29 36 29C31.04 29 27 24.96 27 20C27 15.04 31.04 11 36 11ZM36 10C30.48 10 26 14.48 26 20C26 25.52 30.48 30 36 30C41.52 30 46 25.52 46 20C46 14.48 41.52 10 36 10Z" fill="#3A1116"/>
</g>
<path d="M79.4785 23.9268V25H74.208V23.9268H79.4785ZM74.4746 15.0469V25H73.1553V15.0469H74.4746ZM78.7812 19.3262V20.3994H74.208V19.3262H78.7812ZM79.4102 15.0469V16.127H74.208V15.0469H79.4102ZM81.7754 17.6035L83.3955 20.2969L85.0361 17.6035H86.5195L84.0996 21.2539L86.5947 25H85.1318L83.4229 22.2246L81.7139 25H80.2441L82.7324 21.2539L80.3193 17.6035H81.7754ZM89.1309 19.0254V27.8438H87.8594V17.6035H89.0215L89.1309 19.0254ZM94.1143 21.2402V21.3838C94.1143 21.9215 94.0505 22.4206 93.9229 22.8809C93.7952 23.3366 93.6084 23.7331 93.3623 24.0703C93.1208 24.4076 92.8223 24.6696 92.4668 24.8564C92.1113 25.0433 91.7035 25.1367 91.2432 25.1367C90.7738 25.1367 90.359 25.0592 89.999 24.9043C89.639 24.7493 89.3337 24.5238 89.083 24.2275C88.8324 23.9313 88.6318 23.5758 88.4814 23.1611C88.3356 22.7464 88.2354 22.2793 88.1807 21.7598V20.9941C88.2354 20.4473 88.3379 19.9574 88.4883 19.5244C88.6387 19.0915 88.8369 18.7223 89.083 18.417C89.3337 18.1071 89.6367 17.8724 89.9922 17.7129C90.3477 17.5488 90.7578 17.4668 91.2227 17.4668C91.6875 17.4668 92.0999 17.5579 92.46 17.7402C92.82 17.918 93.123 18.1732 93.3691 18.5059C93.6152 18.8385 93.7998 19.2373 93.9229 19.7021C94.0505 20.1624 94.1143 20.6751 94.1143 21.2402ZM92.8428 21.3838V21.2402C92.8428 20.8711 92.804 20.5247 92.7266 20.2012C92.6491 19.873 92.5283 19.5859 92.3643 19.3398C92.2048 19.0892 91.9997 18.8932 91.749 18.752C91.4984 18.6061 91.1999 18.5332 90.8535 18.5332C90.5345 18.5332 90.2565 18.5879 90.0195 18.6973C89.7871 18.8066 89.5889 18.9548 89.4248 19.1416C89.2607 19.3239 89.1263 19.5335 89.0215 19.7705C88.9212 20.0029 88.846 20.2445 88.7959 20.4951V22.2656C88.887 22.5846 89.0146 22.8854 89.1787 23.168C89.3428 23.446 89.5615 23.6715 89.835 23.8447C90.1084 24.0133 90.4525 24.0977 90.8672 24.0977C91.209 24.0977 91.5029 24.027 91.749 23.8857C91.9997 23.7399 92.2048 23.5417 92.3643 23.291C92.5283 23.0404 92.6491 22.7533 92.7266 22.4297C92.804 22.1016 92.8428 21.7529 92.8428 21.3838ZM97.1016 14.5V25H95.8301V14.5H97.1016ZM98.7969 21.3838V21.2266C98.7969 20.6934 98.8743 20.1989 99.0293 19.7432C99.1842 19.2829 99.4076 18.8841 99.6992 18.5469C99.9909 18.2051 100.344 17.9408 100.759 17.7539C101.174 17.5625 101.638 17.4668 102.153 17.4668C102.673 17.4668 103.14 17.5625 103.555 17.7539C103.974 17.9408 104.329 18.2051 104.621 18.5469C104.917 18.8841 105.143 19.2829 105.298 19.7432C105.453 20.1989 105.53 20.6934 105.53 21.2266V21.3838C105.53 21.917 105.453 22.4115 105.298 22.8672C105.143 23.3229 104.917 23.7217 104.621 24.0635C104.329 24.4007 103.976 24.665 103.562 24.8564C103.151 25.0433 102.687 25.1367 102.167 25.1367C101.647 25.1367 101.18 25.0433 100.766 24.8564C100.351 24.665 99.9954 24.4007 99.6992 24.0635C99.4076 23.7217 99.1842 23.3229 99.0293 22.8672C98.8743 22.4115 98.7969 21.917 98.7969 21.3838ZM100.062 21.2266V21.3838C100.062 21.7529 100.105 22.1016 100.191 22.4297C100.278 22.7533 100.408 23.0404 100.581 23.291C100.759 23.5417 100.98 23.7399 101.244 23.8857C101.508 24.027 101.816 24.0977 102.167 24.0977C102.513 24.0977 102.816 24.027 103.076 23.8857C103.34 23.7399 103.559 23.5417 103.732 23.291C103.906 23.0404 104.035 22.7533 104.122 22.4297C104.213 22.1016 104.259 21.7529 104.259 21.3838V21.2266C104.259 20.862 104.213 20.5179 104.122 20.1943C104.035 19.8662 103.903 19.5768 103.726 19.3262C103.552 19.071 103.334 18.8704 103.069 18.7246C102.81 18.5788 102.504 18.5059 102.153 18.5059C101.807 18.5059 101.502 18.5788 101.237 18.7246C100.978 18.8704 100.759 19.071 100.581 19.3262C100.408 19.5768 100.278 19.8662 100.191 20.1943C100.105 20.5179 100.062 20.862 100.062 21.2266ZM108.381 18.7656V25H107.116V17.6035H108.347L108.381 18.7656ZM110.691 17.5625L110.685 18.7383C110.58 18.7155 110.479 18.7018 110.384 18.6973C110.293 18.6882 110.188 18.6836 110.069 18.6836C109.778 18.6836 109.52 18.7292 109.297 18.8203C109.074 18.9115 108.884 19.0391 108.729 19.2031C108.575 19.3672 108.451 19.5632 108.36 19.791C108.274 20.0143 108.217 20.2604 108.189 20.5293L107.834 20.7344C107.834 20.2878 107.877 19.8685 107.964 19.4766C108.055 19.0846 108.194 18.7383 108.381 18.4375C108.568 18.1322 108.805 17.8952 109.092 17.7266C109.383 17.5534 109.73 17.4668 110.131 17.4668C110.222 17.4668 110.327 17.4782 110.445 17.501C110.564 17.5192 110.646 17.5397 110.691 17.5625ZM114.793 25.1367C114.278 25.1367 113.811 25.0501 113.392 24.877C112.977 24.6992 112.619 24.4508 112.318 24.1318C112.022 23.8128 111.794 23.4346 111.635 22.9971C111.475 22.5596 111.396 22.0811 111.396 21.5615V21.2744C111.396 20.6729 111.484 20.1374 111.662 19.668C111.84 19.194 112.081 18.793 112.387 18.4648C112.692 18.1367 113.038 17.8883 113.426 17.7197C113.813 17.5511 114.214 17.4668 114.629 17.4668C115.158 17.4668 115.613 17.5579 115.996 17.7402C116.383 17.9225 116.7 18.1777 116.946 18.5059C117.192 18.8294 117.375 19.2122 117.493 19.6543C117.612 20.0918 117.671 20.5703 117.671 21.0898V21.6572H112.147V20.625H116.406V20.5293C116.388 20.2012 116.32 19.8822 116.201 19.5723C116.087 19.2624 115.905 19.0072 115.654 18.8066C115.404 18.6061 115.062 18.5059 114.629 18.5059C114.342 18.5059 114.077 18.5674 113.836 18.6904C113.594 18.8089 113.387 18.9867 113.214 19.2236C113.041 19.4606 112.906 19.75 112.811 20.0918C112.715 20.4336 112.667 20.8278 112.667 21.2744V21.5615C112.667 21.9124 112.715 22.2428 112.811 22.5527C112.911 22.8581 113.054 23.127 113.241 23.3594C113.433 23.5918 113.663 23.7741 113.932 23.9062C114.205 24.0384 114.515 24.1045 114.861 24.1045C115.308 24.1045 115.686 24.0133 115.996 23.8311C116.306 23.6488 116.577 23.4049 116.81 23.0996L117.575 23.708C117.416 23.9495 117.213 24.1797 116.967 24.3984C116.721 24.6172 116.418 24.7949 116.058 24.9316C115.702 25.0684 115.281 25.1367 114.793 25.1367Z" fill="#3A1116"/>
<defs>
<clipPath id="clip0_1013_4694">
<rect width="24" height="24" fill="white" transform="translate(24 8)"/>
</clipPath>
</defs>
</svg>
