<svg width="224" height="32" viewBox="0 0 224 32" fill="none" xmlns="http://www.w3.org/2000/svg">
<path d="M30.0703 18.3955C30.0703 18.2178 30.043 18.0583 29.9883 17.917C29.9382 17.7712 29.8424 17.639 29.7012 17.5205C29.5599 17.3975 29.3617 17.2767 29.1064 17.1582C28.8512 17.0397 28.5208 16.9167 28.1152 16.7891C27.6641 16.6432 27.2357 16.4792 26.8301 16.2969C26.429 16.1146 26.0736 15.9027 25.7637 15.6611C25.4583 15.415 25.2168 15.1302 25.0391 14.8066C24.8659 14.4831 24.7793 14.1071 24.7793 13.6787C24.7793 13.264 24.8704 12.888 25.0527 12.5508C25.235 12.209 25.4902 11.9173 25.8184 11.6758C26.1465 11.4297 26.5339 11.2406 26.9805 11.1084C27.4316 10.9762 27.9261 10.9102 28.4639 10.9102C29.1976 10.9102 29.8379 11.0423 30.3848 11.3066C30.9316 11.571 31.3555 11.9333 31.6562 12.3936C31.9616 12.8538 32.1143 13.3802 32.1143 13.9727H30.0771C30.0771 13.681 30.0156 13.4258 29.8926 13.207C29.7741 12.9837 29.5918 12.8083 29.3457 12.6807C29.1042 12.5531 28.7988 12.4893 28.4297 12.4893C28.0742 12.4893 27.778 12.5439 27.541 12.6533C27.304 12.7581 27.1263 12.9017 27.0078 13.084C26.8893 13.2617 26.8301 13.4622 26.8301 13.6855C26.8301 13.8542 26.8711 14.0068 26.9531 14.1436C27.0397 14.2803 27.1673 14.4079 27.3359 14.5264C27.5046 14.6449 27.7119 14.7565 27.958 14.8613C28.2041 14.9661 28.4889 15.0687 28.8125 15.1689C29.3548 15.333 29.8311 15.5176 30.2412 15.7227C30.6559 15.9277 31.0023 16.1579 31.2803 16.4131C31.5583 16.6683 31.7679 16.9577 31.9092 17.2812C32.0505 17.6048 32.1211 17.9717 32.1211 18.3818C32.1211 18.8148 32.0368 19.2021 31.8682 19.5439C31.6995 19.8857 31.4557 20.1751 31.1367 20.4121C30.8177 20.6491 30.4372 20.8291 29.9951 20.9521C29.5531 21.0752 29.0586 21.1367 28.5117 21.1367C28.0195 21.1367 27.5342 21.0729 27.0557 20.9453C26.5771 20.8132 26.1419 20.6149 25.75 20.3506C25.3626 20.0863 25.0527 19.749 24.8203 19.3389C24.5879 18.9287 24.4717 18.4434 24.4717 17.8828H26.5293C26.5293 18.1927 26.5771 18.4548 26.6729 18.6689C26.7686 18.8831 26.903 19.0563 27.0762 19.1885C27.2539 19.3206 27.4635 19.4163 27.7051 19.4756C27.9512 19.5348 28.2201 19.5645 28.5117 19.5645C28.8672 19.5645 29.1589 19.5143 29.3867 19.4141C29.6191 19.3138 29.79 19.1748 29.8994 18.9971C30.0133 18.8193 30.0703 18.6188 30.0703 18.3955ZM39.0117 11.0469H41.0557V17.623C41.0557 18.3887 40.8916 19.0335 40.5635 19.5576C40.2399 20.0817 39.791 20.4759 39.2168 20.7402C38.6471 21.0046 37.9909 21.1367 37.248 21.1367C36.5052 21.1367 35.8444 21.0046 35.2656 20.7402C34.6914 20.4759 34.2402 20.0817 33.9121 19.5576C33.5885 19.0335 33.4268 18.3887 33.4268 17.623V11.0469H35.4775V17.623C35.4775 18.0697 35.5482 18.4342 35.6895 18.7168C35.8307 18.9993 36.0335 19.2067 36.2979 19.3389C36.5667 19.471 36.8835 19.5371 37.248 19.5371C37.6217 19.5371 37.9385 19.471 38.1982 19.3389C38.4626 19.2067 38.6631 18.9993 38.7998 18.7168C38.9411 18.4342 39.0117 18.0697 39.0117 17.623V11.0469ZM46.6406 16.6318H44.084L44.0703 15.2236H46.2168C46.5951 15.2236 46.9049 15.1758 47.1465 15.0801C47.388 14.9798 47.568 14.8363 47.6865 14.6494C47.8096 14.458 47.8711 14.2256 47.8711 13.9521C47.8711 13.6423 47.8118 13.3916 47.6934 13.2002C47.5794 13.0088 47.3994 12.8698 47.1533 12.7832C46.9118 12.6966 46.5996 12.6533 46.2168 12.6533H44.7949V21H42.7441V11.0469H46.2168C46.7956 11.0469 47.3128 11.1016 47.7686 11.2109C48.2288 11.3203 48.6185 11.4867 48.9375 11.71C49.2565 11.9333 49.5003 12.2158 49.6689 12.5576C49.8376 12.8949 49.9219 13.2959 49.9219 13.7607C49.9219 14.1709 49.8285 14.5492 49.6416 14.8955C49.4593 15.2419 49.1699 15.5244 48.7734 15.7432C48.3815 15.9619 47.8688 16.0827 47.2354 16.1055L46.6406 16.6318ZM46.5518 21H43.5234L44.3232 19.4004H46.5518C46.9118 19.4004 47.2057 19.3434 47.4336 19.2295C47.6615 19.111 47.8301 18.9515 47.9395 18.751C48.0488 18.5505 48.1035 18.3203 48.1035 18.0605C48.1035 17.7689 48.0534 17.516 47.9531 17.3018C47.8574 17.0876 47.7025 16.9235 47.4883 16.8096C47.2741 16.6911 46.9915 16.6318 46.6406 16.6318H44.665L44.6787 15.2236H47.1396L47.6113 15.7773C48.2174 15.7682 48.7051 15.8753 49.0742 16.0986C49.4479 16.3174 49.7191 16.6022 49.8877 16.9531C50.0609 17.304 50.1475 17.68 50.1475 18.0811C50.1475 18.7191 50.0085 19.2568 49.7305 19.6943C49.4525 20.1273 49.0446 20.4531 48.5068 20.6719C47.9736 20.8906 47.3219 21 46.5518 21ZM56.8672 18.3955C56.8672 18.2178 56.8398 18.0583 56.7852 17.917C56.735 17.7712 56.6393 17.639 56.498 17.5205C56.3568 17.3975 56.1585 17.2767 55.9033 17.1582C55.6481 17.0397 55.3177 16.9167 54.9121 16.7891C54.4609 16.6432 54.0326 16.4792 53.627 16.2969C53.2259 16.1146 52.8704 15.9027 52.5605 15.6611C52.2552 15.415 52.0137 15.1302 51.8359 14.8066C51.6628 14.4831 51.5762 14.1071 51.5762 13.6787C51.5762 13.264 51.6673 12.888 51.8496 12.5508C52.0319 12.209 52.2871 11.9173 52.6152 11.6758C52.9434 11.4297 53.3307 11.2406 53.7773 11.1084C54.2285 10.9762 54.723 10.9102 55.2607 10.9102C55.9945 10.9102 56.6348 11.0423 57.1816 11.3066C57.7285 11.571 58.1523 11.9333 58.4531 12.3936C58.7585 12.8538 58.9111 13.3802 58.9111 13.9727H56.874C56.874 13.681 56.8125 13.4258 56.6895 13.207C56.571 12.9837 56.3887 12.8083 56.1426 12.6807C55.901 12.5531 55.5957 12.4893 55.2266 12.4893C54.8711 12.4893 54.5749 12.5439 54.3379 12.6533C54.1009 12.7581 53.9232 12.9017 53.8047 13.084C53.6862 13.2617 53.627 13.4622 53.627 13.6855C53.627 13.8542 53.668 14.0068 53.75 14.1436C53.8366 14.2803 53.9642 14.4079 54.1328 14.5264C54.3014 14.6449 54.5088 14.7565 54.7549 14.8613C55.001 14.9661 55.2858 15.0687 55.6094 15.1689C56.1517 15.333 56.6279 15.5176 57.0381 15.7227C57.4528 15.9277 57.7992 16.1579 58.0771 16.4131C58.3551 16.6683 58.5648 16.9577 58.7061 17.2812C58.8473 17.6048 58.918 17.9717 58.918 18.3818C58.918 18.8148 58.8337 19.2021 58.665 19.5439C58.4964 19.8857 58.2526 20.1751 57.9336 20.4121C57.6146 20.6491 57.234 20.8291 56.792 20.9521C56.3499 21.0752 55.8555 21.1367 55.3086 21.1367C54.8164 21.1367 54.3311 21.0729 53.8525 20.9453C53.374 20.8132 52.9388 20.6149 52.5469 20.3506C52.1595 20.0863 51.8496 19.749 51.6172 19.3389C51.3848 18.9287 51.2686 18.4434 51.2686 17.8828H53.3262C53.3262 18.1927 53.374 18.4548 53.4697 18.6689C53.5654 18.8831 53.6999 19.0563 53.873 19.1885C54.0508 19.3206 54.2604 19.4163 54.502 19.4756C54.748 19.5348 55.0169 19.5645 55.3086 19.5645C55.6641 19.5645 55.9557 19.5143 56.1836 19.4141C56.416 19.3138 56.5869 19.1748 56.6963 18.9971C56.8102 18.8193 56.8672 18.6188 56.8672 18.3955ZM66.082 17.6982H68.126C68.085 18.3682 67.9004 18.9629 67.5723 19.4824C67.2487 20.002 66.7952 20.4076 66.2119 20.6992C65.6331 20.9909 64.9359 21.1367 64.1201 21.1367C63.4821 21.1367 62.9102 21.0273 62.4043 20.8086C61.8984 20.5853 61.4655 20.2663 61.1055 19.8516C60.75 19.4368 60.4788 18.9355 60.292 18.3477C60.1051 17.7598 60.0117 17.1012 60.0117 16.3721V15.6816C60.0117 14.9525 60.1074 14.2939 60.2988 13.7061C60.4948 13.1136 60.7728 12.61 61.1328 12.1953C61.4974 11.7806 61.9326 11.4616 62.4385 11.2383C62.9443 11.015 63.5094 10.9033 64.1338 10.9033C64.9632 10.9033 65.6628 11.0537 66.2324 11.3545C66.8066 11.6553 67.251 12.07 67.5654 12.5986C67.8844 13.1273 68.0758 13.7288 68.1396 14.4033H66.0889C66.0661 14.0023 65.9863 13.6628 65.8496 13.3848C65.7129 13.1022 65.5055 12.8903 65.2275 12.749C64.9541 12.6032 64.5895 12.5303 64.1338 12.5303C63.792 12.5303 63.4935 12.5941 63.2383 12.7217C62.9831 12.8493 62.7689 13.043 62.5957 13.3027C62.4225 13.5625 62.2926 13.8906 62.2061 14.2871C62.124 14.679 62.083 15.1393 62.083 15.668V16.3721C62.083 16.887 62.1217 17.3405 62.1992 17.7324C62.2767 18.1198 62.3952 18.4479 62.5547 18.7168C62.7188 18.9811 62.9284 19.1816 63.1836 19.3184C63.4434 19.4505 63.7555 19.5166 64.1201 19.5166C64.5485 19.5166 64.9017 19.4482 65.1797 19.3115C65.4577 19.1748 65.6696 18.972 65.8154 18.7031C65.9658 18.4342 66.0547 18.0993 66.082 17.6982ZM69.4727 11.0469H73.1846C73.9456 11.0469 74.5996 11.1608 75.1465 11.3887C75.6979 11.6165 76.1217 11.9538 76.418 12.4004C76.7142 12.847 76.8623 13.3962 76.8623 14.0479C76.8623 14.5811 76.7712 15.0391 76.5889 15.4219C76.4111 15.8001 76.1582 16.1169 75.8301 16.3721C75.5065 16.6227 75.126 16.8232 74.6885 16.9736L74.0391 17.3154H70.8125L70.7988 15.7158H73.1982C73.5583 15.7158 73.8568 15.652 74.0938 15.5244C74.3307 15.3968 74.5085 15.2191 74.627 14.9912C74.75 14.7633 74.8115 14.499 74.8115 14.1982C74.8115 13.8792 74.7523 13.6035 74.6338 13.3711C74.5153 13.1387 74.3353 12.9609 74.0938 12.8379C73.8522 12.7148 73.5492 12.6533 73.1846 12.6533H71.5234V21H69.4727V11.0469ZM75.0371 21L72.7676 16.5635L74.9346 16.5498L77.2314 20.9043V21H75.0371ZM80.6221 11.0469V21H78.5781V11.0469H80.6221ZM86.4189 17.4521H83.8828V15.8525H86.4189C86.8109 15.8525 87.1299 15.7887 87.376 15.6611C87.6221 15.529 87.8021 15.3467 87.916 15.1143C88.0299 14.8818 88.0869 14.6198 88.0869 14.3281C88.0869 14.0319 88.0299 13.7562 87.916 13.501C87.8021 13.2458 87.6221 13.0407 87.376 12.8857C87.1299 12.7308 86.8109 12.6533 86.4189 12.6533H84.5938V21H82.543V11.0469H86.4189C87.1982 11.0469 87.8659 11.1882 88.4219 11.4707C88.9824 11.7487 89.4108 12.1338 89.707 12.626C90.0033 13.1182 90.1514 13.681 90.1514 14.3145C90.1514 14.957 90.0033 15.513 89.707 15.9824C89.4108 16.4518 88.9824 16.8141 88.4219 17.0693C87.8659 17.3245 87.1982 17.4521 86.4189 17.4521ZM96.0166 11.0469V21H93.9727V11.0469H96.0166ZM99.0791 11.0469V12.6533H90.958V11.0469H99.0791ZM102.429 11.0469V21H100.385V11.0469H102.429ZM112.525 15.791V16.2627C112.525 17.0192 112.423 17.6982 112.218 18.2998C112.013 18.9014 111.723 19.4141 111.35 19.8379C110.976 20.2572 110.529 20.5785 110.01 20.8018C109.495 21.0251 108.923 21.1367 108.294 21.1367C107.67 21.1367 107.098 21.0251 106.578 20.8018C106.063 20.5785 105.617 20.2572 105.238 19.8379C104.86 19.4141 104.566 18.9014 104.356 18.2998C104.151 17.6982 104.049 17.0192 104.049 16.2627V15.791C104.049 15.0299 104.151 14.3509 104.356 13.7539C104.562 13.1523 104.851 12.6396 105.225 12.2158C105.603 11.792 106.049 11.4684 106.564 11.2451C107.084 11.0218 107.656 10.9102 108.28 10.9102C108.909 10.9102 109.481 11.0218 109.996 11.2451C110.516 11.4684 110.962 11.792 111.336 12.2158C111.714 12.6396 112.006 13.1523 112.211 13.7539C112.421 14.3509 112.525 15.0299 112.525 15.791ZM110.454 16.2627V15.7773C110.454 15.2487 110.406 14.7839 110.311 14.3828C110.215 13.9818 110.074 13.6445 109.887 13.3711C109.7 13.0977 109.472 12.8926 109.203 12.7559C108.934 12.6146 108.627 12.5439 108.28 12.5439C107.934 12.5439 107.626 12.6146 107.357 12.7559C107.093 12.8926 106.868 13.0977 106.681 13.3711C106.498 13.6445 106.359 13.9818 106.264 14.3828C106.168 14.7839 106.12 15.2487 106.12 15.7773V16.2627C106.12 16.7868 106.168 17.2516 106.264 17.6572C106.359 18.0583 106.501 18.3978 106.688 18.6758C106.874 18.9492 107.102 19.1566 107.371 19.2979C107.64 19.4391 107.948 19.5098 108.294 19.5098C108.64 19.5098 108.948 19.4391 109.217 19.2979C109.486 19.1566 109.711 18.9492 109.894 18.6758C110.076 18.3978 110.215 18.0583 110.311 17.6572C110.406 17.2516 110.454 16.7868 110.454 16.2627ZM122.103 11.0469V21H120.052L116.053 14.3281V21H114.002V11.0469H116.053L120.059 17.7256V11.0469H122.103ZM129.068 18.3955C129.068 18.2178 129.041 18.0583 128.986 17.917C128.936 17.7712 128.84 17.639 128.699 17.5205C128.558 17.3975 128.36 17.2767 128.104 17.1582C127.849 17.0397 127.519 16.9167 127.113 16.7891C126.662 16.6432 126.234 16.4792 125.828 16.2969C125.427 16.1146 125.072 15.9027 124.762 15.6611C124.456 15.415 124.215 15.1302 124.037 14.8066C123.864 14.4831 123.777 14.1071 123.777 13.6787C123.777 13.264 123.868 12.888 124.051 12.5508C124.233 12.209 124.488 11.9173 124.816 11.6758C125.145 11.4297 125.532 11.2406 125.979 11.1084C126.43 10.9762 126.924 10.9102 127.462 10.9102C128.196 10.9102 128.836 11.0423 129.383 11.3066C129.93 11.571 130.354 11.9333 130.654 12.3936C130.96 12.8538 131.112 13.3802 131.112 13.9727H129.075C129.075 13.681 129.014 13.4258 128.891 13.207C128.772 12.9837 128.59 12.8083 128.344 12.6807C128.102 12.5531 127.797 12.4893 127.428 12.4893C127.072 12.4893 126.776 12.5439 126.539 12.6533C126.302 12.7581 126.124 12.9017 126.006 13.084C125.887 13.2617 125.828 13.4622 125.828 13.6855C125.828 13.8542 125.869 14.0068 125.951 14.1436C126.038 14.2803 126.165 14.4079 126.334 14.5264C126.503 14.6449 126.71 14.7565 126.956 14.8613C127.202 14.9661 127.487 15.0687 127.811 15.1689C128.353 15.333 128.829 15.5176 129.239 15.7227C129.654 15.9277 130 16.1579 130.278 16.4131C130.556 16.6683 130.766 16.9577 130.907 17.2812C131.049 17.6048 131.119 17.9717 131.119 18.3818C131.119 18.8148 131.035 19.2021 130.866 19.5439C130.698 19.8857 130.454 20.1751 130.135 20.4121C129.816 20.6491 129.435 20.8291 128.993 20.9521C128.551 21.0752 128.057 21.1367 127.51 21.1367C127.018 21.1367 126.532 21.0729 126.054 20.9453C125.575 20.8132 125.14 20.6149 124.748 20.3506C124.361 20.0863 124.051 19.749 123.818 19.3389C123.586 18.9287 123.47 18.4434 123.47 17.8828H125.527C125.527 18.1927 125.575 18.4548 125.671 18.6689C125.767 18.8831 125.901 19.0563 126.074 19.1885C126.252 19.3206 126.462 19.4163 126.703 19.4756C126.949 19.5348 127.218 19.5645 127.51 19.5645C127.865 19.5645 128.157 19.5143 128.385 19.4141C128.617 19.3138 128.788 19.1748 128.897 18.9971C129.011 18.8193 129.068 18.6188 129.068 18.3955Z" fill="#3A1116"/>
</svg>
