<svg width="224" height="40" viewBox="0 0 224 40" fill="none" xmlns="http://www.w3.org/2000/svg">
<g clip-path="url(#clip0_1013_4702)">
<path d="M34 26V20L39 23L34 26ZM41 11H31V12H41V11ZM44 14H28V15H44V14ZM46 17H26V29H46V17ZM27 18H45V28H27V18Z" fill="#3A1116"/>
</g>
<path d="M78.46 22.4844C78.46 22.252 78.4235 22.0469 78.3506 21.8691C78.2822 21.6868 78.1592 21.5228 77.9814 21.377C77.8083 21.2311 77.5667 21.0921 77.2568 20.96C76.9515 20.8278 76.5641 20.6934 76.0947 20.5566C75.6025 20.4108 75.1582 20.249 74.7617 20.0713C74.3652 19.889 74.0257 19.6816 73.7432 19.4492C73.4606 19.2168 73.2441 18.9502 73.0938 18.6494C72.9434 18.3486 72.8682 18.0046 72.8682 17.6172C72.8682 17.2298 72.9479 16.8721 73.1074 16.5439C73.2669 16.2158 73.4948 15.931 73.791 15.6895C74.0918 15.4434 74.4495 15.252 74.8643 15.1152C75.279 14.9785 75.7415 14.9102 76.252 14.9102C76.9993 14.9102 77.6328 15.0537 78.1523 15.3408C78.6764 15.6234 79.0752 15.9948 79.3486 16.4551C79.6221 16.9108 79.7588 17.3984 79.7588 17.918H78.4463C78.4463 17.5443 78.3665 17.2139 78.207 16.9268C78.0475 16.6351 77.806 16.4072 77.4824 16.2432C77.1589 16.0745 76.7487 15.9902 76.252 15.9902C75.7826 15.9902 75.3952 16.0609 75.0898 16.2021C74.7845 16.3434 74.5566 16.5348 74.4062 16.7764C74.2604 17.0179 74.1875 17.2936 74.1875 17.6035C74.1875 17.8132 74.2308 18.0046 74.3174 18.1777C74.4085 18.3464 74.5475 18.5036 74.7344 18.6494C74.9258 18.7952 75.1673 18.9297 75.459 19.0527C75.7552 19.1758 76.1084 19.2943 76.5186 19.4082C77.0837 19.5677 77.5713 19.7454 77.9814 19.9414C78.3916 20.1374 78.7288 20.3584 78.9932 20.6045C79.262 20.846 79.4603 21.1217 79.5879 21.4316C79.7201 21.737 79.7861 22.0833 79.7861 22.4707C79.7861 22.8763 79.7041 23.2432 79.54 23.5713C79.376 23.8994 79.1413 24.1797 78.8359 24.4121C78.5306 24.6445 78.1637 24.8245 77.7354 24.9521C77.3115 25.0752 76.8376 25.1367 76.3135 25.1367C75.8532 25.1367 75.3997 25.0729 74.9531 24.9453C74.5111 24.8177 74.1077 24.6263 73.7432 24.3711C73.3831 24.1159 73.0938 23.8014 72.875 23.4277C72.6608 23.0495 72.5537 22.612 72.5537 22.1152H73.8662C73.8662 22.457 73.9323 22.751 74.0645 22.9971C74.1966 23.2386 74.3766 23.4391 74.6045 23.5986C74.8369 23.7581 75.099 23.8766 75.3906 23.9541C75.6868 24.027 75.9945 24.0635 76.3135 24.0635C76.7738 24.0635 77.1634 23.9997 77.4824 23.8721C77.8014 23.7445 78.043 23.5622 78.207 23.3252C78.3757 23.0882 78.46 22.8079 78.46 22.4844ZM85.8018 23.291V17.6035H87.0732V25H85.8633L85.8018 23.291ZM86.041 21.7324L86.5674 21.7188C86.5674 22.2109 86.515 22.6667 86.4102 23.0859C86.3099 23.5007 86.1458 23.8607 85.918 24.166C85.6901 24.4714 85.3916 24.7106 85.0225 24.8838C84.6533 25.0524 84.2044 25.1367 83.6758 25.1367C83.3158 25.1367 82.9854 25.0843 82.6846 24.9795C82.3883 24.8747 82.1331 24.7129 81.9189 24.4941C81.7048 24.2754 81.5384 23.9906 81.4199 23.6396C81.306 23.2887 81.249 22.8672 81.249 22.375V17.6035H82.5137V22.3887C82.5137 22.7214 82.5501 22.9971 82.623 23.2158C82.7005 23.43 82.8031 23.6009 82.9307 23.7285C83.0628 23.8516 83.2087 23.9382 83.3682 23.9883C83.5322 24.0384 83.7008 24.0635 83.874 24.0635C84.4118 24.0635 84.8379 23.9609 85.1523 23.7559C85.4668 23.5462 85.6924 23.266 85.8291 22.915C85.9704 22.5596 86.041 22.1654 86.041 21.7324ZM88.9941 14.5H90.2656V23.5645L90.1562 25H88.9941V14.5ZM95.2627 21.2402V21.3838C95.2627 21.9215 95.1989 22.4206 95.0713 22.8809C94.9437 23.3366 94.7568 23.7331 94.5107 24.0703C94.2646 24.4076 93.9639 24.6696 93.6084 24.8564C93.2529 25.0433 92.8451 25.1367 92.3848 25.1367C91.9154 25.1367 91.5029 25.057 91.1475 24.8975C90.7965 24.7334 90.5003 24.4987 90.2588 24.1934C90.0173 23.888 89.8236 23.5189 89.6777 23.0859C89.5365 22.653 89.4385 22.1654 89.3838 21.623V20.9941C89.4385 20.4473 89.5365 19.9574 89.6777 19.5244C89.8236 19.0915 90.0173 18.7223 90.2588 18.417C90.5003 18.1071 90.7965 17.8724 91.1475 17.7129C91.4984 17.5488 91.9062 17.4668 92.3711 17.4668C92.8359 17.4668 93.2484 17.5579 93.6084 17.7402C93.9684 17.918 94.2692 18.1732 94.5107 18.5059C94.7568 18.8385 94.9437 19.2373 95.0713 19.7021C95.1989 20.1624 95.2627 20.6751 95.2627 21.2402ZM93.9912 21.3838V21.2402C93.9912 20.8711 93.957 20.5247 93.8887 20.2012C93.8203 19.873 93.7109 19.5859 93.5605 19.3398C93.4102 19.0892 93.2119 18.8932 92.9658 18.752C92.7197 18.6061 92.4167 18.5332 92.0566 18.5332C91.7376 18.5332 91.4596 18.5879 91.2227 18.6973C90.9902 18.8066 90.792 18.9548 90.6279 19.1416C90.4639 19.3239 90.3294 19.5335 90.2246 19.7705C90.1243 20.0029 90.0492 20.2445 89.999 20.4951V22.1426C90.0719 22.4616 90.1904 22.7692 90.3545 23.0654C90.5231 23.3571 90.7464 23.5964 91.0244 23.7832C91.307 23.9701 91.6556 24.0635 92.0703 24.0635C92.4121 24.0635 92.7038 23.9951 92.9453 23.8584C93.1914 23.7171 93.3896 23.5234 93.54 23.2773C93.695 23.0312 93.8089 22.7464 93.8818 22.4229C93.9548 22.0993 93.9912 21.7529 93.9912 21.3838ZM101.169 23.0381C101.169 22.8558 101.128 22.6872 101.046 22.5322C100.968 22.3727 100.807 22.2292 100.561 22.1016C100.319 21.9694 99.9544 21.8555 99.4668 21.7598C99.0566 21.6732 98.6852 21.5706 98.3525 21.4521C98.0244 21.3337 97.7441 21.1901 97.5117 21.0215C97.2839 20.8529 97.1084 20.6546 96.9854 20.4268C96.8623 20.1989 96.8008 19.9323 96.8008 19.627C96.8008 19.3353 96.8646 19.0596 96.9922 18.7998C97.1243 18.54 97.3089 18.3099 97.5459 18.1094C97.7874 17.9089 98.0768 17.7516 98.4141 17.6377C98.7513 17.5238 99.1273 17.4668 99.542 17.4668C100.134 17.4668 100.64 17.5716 101.06 17.7812C101.479 17.9909 101.8 18.2712 102.023 18.6221C102.247 18.9684 102.358 19.3535 102.358 19.7773H101.094C101.094 19.5723 101.032 19.374 100.909 19.1826C100.791 18.9867 100.615 18.8249 100.383 18.6973C100.155 18.5697 99.8747 18.5059 99.542 18.5059C99.1911 18.5059 98.9062 18.5605 98.6875 18.6699C98.4733 18.7747 98.3161 18.9092 98.2158 19.0732C98.1201 19.2373 98.0723 19.4105 98.0723 19.5928C98.0723 19.7295 98.0951 19.8525 98.1406 19.9619C98.1908 20.0667 98.2773 20.1647 98.4004 20.2559C98.5234 20.3424 98.6966 20.4245 98.9199 20.502C99.1432 20.5794 99.4281 20.6569 99.7744 20.7344C100.381 20.8711 100.88 21.0352 101.271 21.2266C101.663 21.418 101.955 21.6527 102.146 21.9307C102.338 22.2087 102.434 22.5459 102.434 22.9424C102.434 23.266 102.365 23.5622 102.229 23.8311C102.096 24.0999 101.903 24.3324 101.647 24.5283C101.397 24.7197 101.096 24.8701 100.745 24.9795C100.399 25.0843 100.009 25.1367 99.5762 25.1367C98.9245 25.1367 98.373 25.0205 97.9219 24.7881C97.4707 24.5557 97.1289 24.2549 96.8965 23.8857C96.6641 23.5166 96.5479 23.127 96.5479 22.7168H97.8193C97.8376 23.0632 97.9378 23.3389 98.1201 23.5439C98.3024 23.7445 98.5257 23.888 98.79 23.9746C99.0544 24.0566 99.3164 24.0977 99.5762 24.0977C99.9225 24.0977 100.212 24.0521 100.444 23.9609C100.681 23.8698 100.861 23.7445 100.984 23.585C101.107 23.4255 101.169 23.2432 101.169 23.0381ZM107.055 24.0977C107.355 24.0977 107.633 24.0361 107.889 23.9131C108.144 23.79 108.354 23.6214 108.518 23.4072C108.682 23.1885 108.775 22.9401 108.798 22.6621H110.001C109.978 23.0996 109.83 23.5075 109.557 23.8857C109.288 24.2594 108.935 24.5625 108.497 24.7949C108.06 25.0228 107.579 25.1367 107.055 25.1367C106.499 25.1367 106.013 25.0387 105.599 24.8428C105.188 24.6468 104.847 24.3779 104.573 24.0361C104.304 23.6943 104.102 23.3024 103.965 22.8604C103.833 22.4137 103.767 21.9421 103.767 21.4453V21.1582C103.767 20.6615 103.833 20.1921 103.965 19.75C104.102 19.3034 104.304 18.9092 104.573 18.5674C104.847 18.2256 105.188 17.9567 105.599 17.7607C106.013 17.5648 106.499 17.4668 107.055 17.4668C107.633 17.4668 108.139 17.5853 108.572 17.8223C109.005 18.0547 109.345 18.3737 109.591 18.7793C109.841 19.1803 109.978 19.6361 110.001 20.1465H108.798C108.775 19.8411 108.688 19.5654 108.538 19.3193C108.392 19.0732 108.192 18.8773 107.937 18.7314C107.686 18.5811 107.392 18.5059 107.055 18.5059C106.667 18.5059 106.341 18.5833 106.077 18.7383C105.817 18.8887 105.61 19.0938 105.455 19.3535C105.305 19.6087 105.195 19.8936 105.127 20.208C105.063 20.5179 105.031 20.8346 105.031 21.1582V21.4453C105.031 21.7689 105.063 22.0879 105.127 22.4023C105.191 22.7168 105.298 23.0016 105.448 23.2568C105.603 23.512 105.811 23.7171 106.07 23.8721C106.335 24.0225 106.663 24.0977 107.055 24.0977ZM112.688 18.7656V25H111.423V17.6035H112.653L112.688 18.7656ZM114.998 17.5625L114.991 18.7383C114.886 18.7155 114.786 18.7018 114.69 18.6973C114.599 18.6882 114.494 18.6836 114.376 18.6836C114.084 18.6836 113.827 18.7292 113.604 18.8203C113.38 18.9115 113.191 19.0391 113.036 19.2031C112.881 19.3672 112.758 19.5632 112.667 19.791C112.58 20.0143 112.523 20.2604 112.496 20.5293L112.141 20.7344C112.141 20.2878 112.184 19.8685 112.271 19.4766C112.362 19.0846 112.501 18.7383 112.688 18.4375C112.874 18.1322 113.111 17.8952 113.398 17.7266C113.69 17.5534 114.036 17.4668 114.438 17.4668C114.529 17.4668 114.633 17.4782 114.752 17.501C114.87 17.5192 114.952 17.5397 114.998 17.5625ZM117.541 17.6035V25H116.27V17.6035H117.541ZM116.174 15.6416C116.174 15.4365 116.235 15.2633 116.358 15.1221C116.486 14.9808 116.673 14.9102 116.919 14.9102C117.16 14.9102 117.345 14.9808 117.473 15.1221C117.605 15.2633 117.671 15.4365 117.671 15.6416C117.671 15.8376 117.605 16.0062 117.473 16.1475C117.345 16.2842 117.16 16.3525 116.919 16.3525C116.673 16.3525 116.486 16.2842 116.358 16.1475C116.235 16.0062 116.174 15.8376 116.174 15.6416ZM120.836 19.0254V27.8438H119.564V17.6035H120.727L120.836 19.0254ZM125.819 21.2402V21.3838C125.819 21.9215 125.756 22.4206 125.628 22.8809C125.5 23.3366 125.313 23.7331 125.067 24.0703C124.826 24.4076 124.527 24.6696 124.172 24.8564C123.816 25.0433 123.409 25.1367 122.948 25.1367C122.479 25.1367 122.064 25.0592 121.704 24.9043C121.344 24.7493 121.039 24.5238 120.788 24.2275C120.537 23.9313 120.337 23.5758 120.187 23.1611C120.041 22.7464 119.94 22.2793 119.886 21.7598V20.9941C119.94 20.4473 120.043 19.9574 120.193 19.5244C120.344 19.0915 120.542 18.7223 120.788 18.417C121.039 18.1071 121.342 17.8724 121.697 17.7129C122.053 17.5488 122.463 17.4668 122.928 17.4668C123.393 17.4668 123.805 17.5579 124.165 17.7402C124.525 17.918 124.828 18.1732 125.074 18.5059C125.32 18.8385 125.505 19.2373 125.628 19.7021C125.756 20.1624 125.819 20.6751 125.819 21.2402ZM124.548 21.3838V21.2402C124.548 20.8711 124.509 20.5247 124.432 20.2012C124.354 19.873 124.233 19.5859 124.069 19.3398C123.91 19.0892 123.705 18.8932 123.454 18.752C123.203 18.6061 122.905 18.5332 122.559 18.5332C122.24 18.5332 121.962 18.5879 121.725 18.6973C121.492 18.8066 121.294 18.9548 121.13 19.1416C120.966 19.3239 120.831 19.5335 120.727 19.7705C120.626 20.0029 120.551 20.2445 120.501 20.4951V22.2656C120.592 22.5846 120.72 22.8854 120.884 23.168C121.048 23.446 121.267 23.6715 121.54 23.8447C121.813 24.0133 122.158 24.0977 122.572 24.0977C122.914 24.0977 123.208 24.027 123.454 23.8857C123.705 23.7399 123.91 23.5417 124.069 23.291C124.233 23.0404 124.354 22.7533 124.432 22.4297C124.509 22.1016 124.548 21.7529 124.548 21.3838ZM130.529 17.6035V18.5742H126.53V17.6035H130.529ZM127.884 15.8057H129.148V23.168C129.148 23.4186 129.187 23.6077 129.265 23.7354C129.342 23.863 129.442 23.9473 129.565 23.9883C129.688 24.0293 129.821 24.0498 129.962 24.0498C130.067 24.0498 130.176 24.0407 130.29 24.0225C130.409 23.9997 130.497 23.9814 130.557 23.9678L130.563 25C130.463 25.0319 130.331 25.0615 130.167 25.0889C130.007 25.1208 129.814 25.1367 129.586 25.1367C129.276 25.1367 128.991 25.0752 128.731 24.9521C128.472 24.8291 128.264 24.624 128.109 24.3369C127.959 24.0452 127.884 23.6533 127.884 23.1611V15.8057ZM133.387 17.6035V25H132.115V17.6035H133.387ZM132.02 15.6416C132.02 15.4365 132.081 15.2633 132.204 15.1221C132.332 14.9808 132.519 14.9102 132.765 14.9102C133.006 14.9102 133.191 14.9808 133.318 15.1221C133.451 15.2633 133.517 15.4365 133.517 15.6416C133.517 15.8376 133.451 16.0062 133.318 16.1475C133.191 16.2842 133.006 16.3525 132.765 16.3525C132.519 16.3525 132.332 16.2842 132.204 16.1475C132.081 16.0062 132.02 15.8376 132.02 15.6416ZM135.082 21.3838V21.2266C135.082 20.6934 135.16 20.1989 135.314 19.7432C135.469 19.2829 135.693 18.8841 135.984 18.5469C136.276 18.2051 136.629 17.9408 137.044 17.7539C137.459 17.5625 137.924 17.4668 138.438 17.4668C138.958 17.4668 139.425 17.5625 139.84 17.7539C140.259 17.9408 140.615 18.2051 140.906 18.5469C141.202 18.8841 141.428 19.2829 141.583 19.7432C141.738 20.1989 141.815 20.6934 141.815 21.2266V21.3838C141.815 21.917 141.738 22.4115 141.583 22.8672C141.428 23.3229 141.202 23.7217 140.906 24.0635C140.615 24.4007 140.261 24.665 139.847 24.8564C139.437 25.0433 138.972 25.1367 138.452 25.1367C137.933 25.1367 137.465 25.0433 137.051 24.8564C136.636 24.665 136.281 24.4007 135.984 24.0635C135.693 23.7217 135.469 23.3229 135.314 22.8672C135.16 22.4115 135.082 21.917 135.082 21.3838ZM136.347 21.2266V21.3838C136.347 21.7529 136.39 22.1016 136.477 22.4297C136.563 22.7533 136.693 23.0404 136.866 23.291C137.044 23.5417 137.265 23.7399 137.529 23.8857C137.794 24.027 138.101 24.0977 138.452 24.0977C138.799 24.0977 139.102 24.027 139.361 23.8857C139.626 23.7399 139.844 23.5417 140.018 23.291C140.191 23.0404 140.321 22.7533 140.407 22.4297C140.498 22.1016 140.544 21.7529 140.544 21.3838V21.2266C140.544 20.862 140.498 20.5179 140.407 20.1943C140.321 19.8662 140.188 19.5768 140.011 19.3262C139.838 19.071 139.619 18.8704 139.354 18.7246C139.095 18.5788 138.789 18.5059 138.438 18.5059C138.092 18.5059 137.787 18.5788 137.522 18.7246C137.263 18.8704 137.044 19.071 136.866 19.3262C136.693 19.5768 136.563 19.8662 136.477 20.1943C136.39 20.5179 136.347 20.862 136.347 21.2266ZM144.666 19.1826V25H143.401V17.6035H144.598L144.666 19.1826ZM144.365 21.0215L143.839 21.001C143.843 20.4951 143.919 20.028 144.064 19.5996C144.21 19.1667 144.415 18.7907 144.68 18.4717C144.944 18.1527 145.258 17.9066 145.623 17.7334C145.992 17.5557 146.4 17.4668 146.847 17.4668C147.211 17.4668 147.539 17.5169 147.831 17.6172C148.123 17.7129 148.371 17.8678 148.576 18.082C148.786 18.2962 148.945 18.5742 149.055 18.916C149.164 19.2533 149.219 19.6657 149.219 20.1533V25H147.947V20.1396C147.947 19.7523 147.89 19.4424 147.776 19.21C147.662 18.973 147.496 18.8021 147.277 18.6973C147.059 18.5879 146.79 18.5332 146.471 18.5332C146.156 18.5332 145.869 18.5993 145.609 18.7314C145.354 18.8636 145.133 19.0459 144.946 19.2783C144.764 19.5107 144.62 19.7773 144.516 20.0781C144.415 20.3743 144.365 20.6888 144.365 21.0215ZM155.446 23.0381C155.446 22.8558 155.405 22.6872 155.323 22.5322C155.246 22.3727 155.084 22.2292 154.838 22.1016C154.596 21.9694 154.232 21.8555 153.744 21.7598C153.334 21.6732 152.963 21.5706 152.63 21.4521C152.302 21.3337 152.021 21.1901 151.789 21.0215C151.561 20.8529 151.386 20.6546 151.263 20.4268C151.14 20.1989 151.078 19.9323 151.078 19.627C151.078 19.3353 151.142 19.0596 151.27 18.7998C151.402 18.54 151.586 18.3099 151.823 18.1094C152.065 17.9089 152.354 17.7516 152.691 17.6377C153.029 17.5238 153.405 17.4668 153.819 17.4668C154.412 17.4668 154.918 17.5716 155.337 17.7812C155.756 17.9909 156.077 18.2712 156.301 18.6221C156.524 18.9684 156.636 19.3535 156.636 19.7773H155.371C155.371 19.5723 155.31 19.374 155.187 19.1826C155.068 18.9867 154.893 18.8249 154.66 18.6973C154.432 18.5697 154.152 18.5059 153.819 18.5059C153.468 18.5059 153.184 18.5605 152.965 18.6699C152.751 18.7747 152.593 18.9092 152.493 19.0732C152.397 19.2373 152.35 19.4105 152.35 19.5928C152.35 19.7295 152.372 19.8525 152.418 19.9619C152.468 20.0667 152.555 20.1647 152.678 20.2559C152.801 20.3424 152.974 20.4245 153.197 20.502C153.421 20.5794 153.705 20.6569 154.052 20.7344C154.658 20.8711 155.157 21.0352 155.549 21.2266C155.941 21.418 156.232 21.6527 156.424 21.9307C156.615 22.2087 156.711 22.5459 156.711 22.9424C156.711 23.266 156.643 23.5622 156.506 23.8311C156.374 24.0999 156.18 24.3324 155.925 24.5283C155.674 24.7197 155.373 24.8701 155.022 24.9795C154.676 25.0843 154.286 25.1367 153.854 25.1367C153.202 25.1367 152.65 25.0205 152.199 24.7881C151.748 24.5557 151.406 24.2549 151.174 23.8857C150.941 23.5166 150.825 23.127 150.825 22.7168H152.097C152.115 23.0632 152.215 23.3389 152.397 23.5439C152.58 23.7445 152.803 23.888 153.067 23.9746C153.332 24.0566 153.594 24.0977 153.854 24.0977C154.2 24.0977 154.489 24.0521 154.722 23.9609C154.959 23.8698 155.139 23.7445 155.262 23.585C155.385 23.4255 155.446 23.2432 155.446 23.0381Z" fill="#3A1116"/>
<defs>
<clipPath id="clip0_1013_4702">
<rect width="24" height="24" fill="white" transform="translate(24 8)"/>
</clipPath>
</defs>
</svg>
