<svg width="224" height="40" viewBox="0 0 224 40" fill="none" xmlns="http://www.w3.org/2000/svg">
<g clip-path="url(#clip0_1013_4843)">
<path d="M38 20C38 21.1 37.1 22 36 22C34.9 22 34 21.1 34 20C34 18.9 34.9 18 36 18C37.1 18 38 18.9 38 20ZM32.48 16.45L31.77 15.75C30.68 16.83 30 18.34 30 20C30 21.66 30.68 23.17 31.77 24.25L32.48 23.54C31.57 22.64 31 21.39 31 20C31 18.61 31.57 17.36 32.48 16.45ZM40.23 15.75L39.52 16.46C40.43 17.36 41 18.61 41 20C41 21.39 40.43 22.64 39.52 23.55L40.23 24.26C41.32 23.17 42 21.66 42 20C42 18.34 41.32 16.83 40.23 15.75ZM29.65 13.63L28.95 12.92C27.13 14.73 26 17.24 26 20C26 22.76 27.13 25.27 28.95 27.08L29.66 26.37C28.02 24.74 27 22.49 27 20C27 17.51 28.02 15.26 29.65 13.63ZM43.05 12.92L42.34 13.63C43.98 15.26 45 17.51 45 20C45 22.49 43.98 24.74 42.35 26.37L43.06 27.08C44.87 25.27 46 22.76 46 20C46 17.24 44.87 14.73 43.05 12.92Z" fill="#3A1116"/>
</g>
<path d="M79.1914 23.9268V25H74.2148V23.9268H79.1914ZM74.4746 15.0469V25H73.1553V15.0469H74.4746ZM81.8848 17.6035V25H80.6133V17.6035H81.8848ZM80.5176 15.6416C80.5176 15.4365 80.5791 15.2633 80.7021 15.1221C80.8298 14.9808 81.0166 14.9102 81.2627 14.9102C81.5042 14.9102 81.6888 14.9808 81.8164 15.1221C81.9486 15.2633 82.0146 15.4365 82.0146 15.6416C82.0146 15.8376 81.9486 16.0062 81.8164 16.1475C81.6888 16.2842 81.5042 16.3525 81.2627 16.3525C81.0166 16.3525 80.8298 16.2842 80.7021 16.1475C80.5791 16.0062 80.5176 15.8376 80.5176 15.6416ZM86.1641 23.8584L88.1875 17.6035H89.4795L86.8203 25H85.9727L86.1641 23.8584ZM84.4756 17.6035L86.5605 23.8926L86.7041 25H85.8564L83.1768 17.6035H84.4756ZM93.6699 25.1367C93.1549 25.1367 92.6878 25.0501 92.2686 24.877C91.8538 24.6992 91.4961 24.4508 91.1953 24.1318C90.8991 23.8128 90.6712 23.4346 90.5117 22.9971C90.3522 22.5596 90.2725 22.0811 90.2725 21.5615V21.2744C90.2725 20.6729 90.3613 20.1374 90.5391 19.668C90.7168 19.194 90.9583 18.793 91.2637 18.4648C91.569 18.1367 91.9154 17.8883 92.3027 17.7197C92.6901 17.5511 93.0911 17.4668 93.5059 17.4668C94.0345 17.4668 94.4902 17.5579 94.873 17.7402C95.2604 17.9225 95.5771 18.1777 95.8232 18.5059C96.0693 18.8294 96.2516 19.2122 96.3701 19.6543C96.4886 20.0918 96.5479 20.5703 96.5479 21.0898V21.6572H91.0244V20.625H95.2832V20.5293C95.265 20.2012 95.1966 19.8822 95.0781 19.5723C94.9642 19.2624 94.7819 19.0072 94.5312 18.8066C94.2806 18.6061 93.9388 18.5059 93.5059 18.5059C93.2188 18.5059 92.9544 18.5674 92.7129 18.6904C92.4714 18.8089 92.264 18.9867 92.0908 19.2236C91.9176 19.4606 91.7832 19.75 91.6875 20.0918C91.5918 20.4336 91.5439 20.8278 91.5439 21.2744V21.5615C91.5439 21.9124 91.5918 22.2428 91.6875 22.5527C91.7878 22.8581 91.9313 23.127 92.1182 23.3594C92.3096 23.5918 92.5397 23.7741 92.8086 23.9062C93.082 24.0384 93.3919 24.1045 93.7383 24.1045C94.1849 24.1045 94.5632 24.0133 94.873 23.8311C95.1829 23.6488 95.4541 23.4049 95.6865 23.0996L96.4521 23.708C96.2926 23.9495 96.0898 24.1797 95.8438 24.3984C95.5977 24.6172 95.2946 24.7949 94.9346 24.9316C94.5791 25.0684 94.1576 25.1367 93.6699 25.1367Z" fill="#3A1116"/>
<defs>
<clipPath id="clip0_1013_4843">
<rect width="24" height="24" fill="white" transform="translate(24 8)"/>
</clipPath>
</defs>
</svg>
