<svg width="362" height="40" viewBox="0 0 362 40" fill="none" xmlns="http://www.w3.org/2000/svg">
<g clip-path="url(#clip0_1013_4547)">
<path d="M0 2C0 0.895431 0.895431 0 2 0H362V40H2C0.895435 40 0 39.1046 0 38V2Z" fill="#F2CB64"/>
<rect y="39" width="362" height="1" fill="white"/>
<rect width="1" height="40" fill="white"/>
<rect width="362" height="1" fill="white"/>
<path d="M15.3828 22.125C15.3828 21.8594 15.3411 21.625 15.2578 21.4219C15.1797 21.2135 15.0391 21.026 14.8359 20.8594C14.638 20.6927 14.362 20.5339 14.0078 20.3828C13.6589 20.2318 13.2161 20.0781 12.6797 19.9219C12.1172 19.7552 11.6094 19.5703 11.1562 19.3672C10.7031 19.1589 10.3151 18.9219 9.99219 18.6562C9.66927 18.3906 9.42188 18.0859 9.25 17.7422C9.07812 17.3984 8.99219 17.0052 8.99219 16.5625C8.99219 16.1198 9.08333 15.7109 9.26562 15.3359C9.44792 14.9609 9.70833 14.6354 10.0469 14.3594C10.3906 14.0781 10.7995 13.8594 11.2734 13.7031C11.7474 13.5469 12.276 13.4688 12.8594 13.4688C13.7135 13.4688 14.4375 13.6328 15.0312 13.9609C15.6302 14.2839 16.0859 14.7083 16.3984 15.2344C16.7109 15.7552 16.8672 16.3125 16.8672 16.9062H15.3672C15.3672 16.4792 15.276 16.1016 15.0938 15.7734C14.9115 15.4401 14.6354 15.1797 14.2656 14.9922C13.8958 14.7995 13.4271 14.7031 12.8594 14.7031C12.3229 14.7031 11.8802 14.7839 11.5312 14.9453C11.1823 15.1068 10.9219 15.3255 10.75 15.6016C10.5833 15.8776 10.5 16.1927 10.5 16.5469C10.5 16.7865 10.5495 17.0052 10.6484 17.2031C10.7526 17.3958 10.9115 17.5755 11.125 17.7422C11.3438 17.9089 11.6198 18.0625 11.9531 18.2031C12.2917 18.3438 12.6953 18.4792 13.1641 18.6094C13.8099 18.7917 14.3672 18.9948 14.8359 19.2188C15.3047 19.4427 15.6901 19.6953 15.9922 19.9766C16.2995 20.2526 16.526 20.5677 16.6719 20.9219C16.8229 21.2708 16.8984 21.6667 16.8984 22.1094C16.8984 22.5729 16.8047 22.9922 16.6172 23.3672C16.4297 23.7422 16.1615 24.0625 15.8125 24.3281C15.4635 24.5938 15.0443 24.7995 14.5547 24.9453C14.0703 25.0859 13.5286 25.1562 12.9297 25.1562C12.4036 25.1562 11.8854 25.0833 11.375 24.9375C10.8698 24.7917 10.4089 24.5729 9.99219 24.2812C9.58073 23.9896 9.25 23.6302 9 23.2031C8.75521 22.7708 8.63281 22.2708 8.63281 21.7031H10.1328C10.1328 22.0938 10.2083 22.4297 10.3594 22.7109C10.5104 22.987 10.7161 23.2161 10.9766 23.3984C11.2422 23.5807 11.5417 23.7161 11.875 23.8047C12.2135 23.888 12.5651 23.9297 12.9297 23.9297C13.4557 23.9297 13.901 23.8568 14.2656 23.7109C14.6302 23.5651 14.9062 23.3568 15.0938 23.0859C15.2865 22.8151 15.3828 22.4948 15.3828 22.125ZM22.1094 25.1562C21.5208 25.1562 20.987 25.0573 20.5078 24.8594C20.0339 24.6562 19.625 24.3724 19.2812 24.0078C18.9427 23.6432 18.6823 23.2109 18.5 22.7109C18.3177 22.2109 18.2266 21.6641 18.2266 21.0703V20.7422C18.2266 20.0547 18.3281 19.4427 18.5312 18.9062C18.7344 18.3646 19.0104 17.9062 19.3594 17.5312C19.7083 17.1562 20.1042 16.8724 20.5469 16.6797C20.9896 16.487 21.4479 16.3906 21.9219 16.3906C22.526 16.3906 23.0469 16.4948 23.4844 16.7031C23.9271 16.9115 24.2891 17.2031 24.5703 17.5781C24.8516 17.9479 25.0599 18.3854 25.1953 18.8906C25.3307 19.3906 25.3984 19.9375 25.3984 20.5312V21.1797H19.0859V20H23.9531V19.8906C23.9323 19.5156 23.8542 19.151 23.7188 18.7969C23.5885 18.4427 23.3802 18.151 23.0938 17.9219C22.8073 17.6927 22.4167 17.5781 21.9219 17.5781C21.5938 17.5781 21.2917 17.6484 21.0156 17.7891C20.7396 17.9245 20.5026 18.1276 20.3047 18.3984C20.1068 18.6693 19.9531 19 19.8438 19.3906C19.7344 19.7812 19.6797 20.2318 19.6797 20.7422V21.0703C19.6797 21.4714 19.7344 21.849 19.8438 22.2031C19.9583 22.5521 20.1224 22.8594 20.3359 23.125C20.5547 23.3906 20.8177 23.599 21.125 23.75C21.4375 23.901 21.7917 23.9766 22.1875 23.9766C22.6979 23.9766 23.1302 23.8724 23.4844 23.6641C23.8385 23.4557 24.1484 23.1771 24.4141 22.8281L25.2891 23.5234C25.1068 23.7995 24.875 24.0625 24.5938 24.3125C24.3125 24.5625 23.9661 24.7656 23.5547 24.9219C23.1484 25.0781 22.6667 25.1562 22.1094 25.1562ZM32.0703 23.5547V19.2031C32.0703 18.8698 32.0026 18.5807 31.8672 18.3359C31.737 18.0859 31.5391 17.8932 31.2734 17.7578C31.0078 17.6224 30.6797 17.5547 30.2891 17.5547C29.9245 17.5547 29.6042 17.6172 29.3281 17.7422C29.0573 17.8672 28.8438 18.0312 28.6875 18.2344C28.5365 18.4375 28.4609 18.6562 28.4609 18.8906H27.0156C27.0156 18.5885 27.0938 18.2891 27.25 17.9922C27.4062 17.6953 27.6302 17.4271 27.9219 17.1875C28.2188 16.9427 28.5729 16.75 28.9844 16.6094C29.401 16.4635 29.8646 16.3906 30.375 16.3906C30.9896 16.3906 31.5312 16.4948 32 16.7031C32.474 16.9115 32.8438 17.2266 33.1094 17.6484C33.3802 18.0651 33.5156 18.5885 33.5156 19.2188V23.1562C33.5156 23.4375 33.5391 23.737 33.5859 24.0547C33.638 24.3724 33.7135 24.6458 33.8125 24.875V25H32.3047C32.2318 24.8333 32.1745 24.612 32.1328 24.3359C32.0911 24.0547 32.0703 23.7943 32.0703 23.5547ZM32.3203 19.875L32.3359 20.8906H30.875C30.4635 20.8906 30.0964 20.9245 29.7734 20.9922C29.4505 21.0547 29.1797 21.151 28.9609 21.2812C28.7422 21.4115 28.5755 21.5755 28.4609 21.7734C28.3464 21.9661 28.2891 22.1927 28.2891 22.4531C28.2891 22.7188 28.349 22.9609 28.4688 23.1797C28.5885 23.3984 28.7682 23.5729 29.0078 23.7031C29.2526 23.8281 29.5521 23.8906 29.9062 23.8906C30.349 23.8906 30.7396 23.7969 31.0781 23.6094C31.4167 23.4219 31.6849 23.1927 31.8828 22.9219C32.0859 22.651 32.1953 22.388 32.2109 22.1328L32.8281 22.8281C32.7917 23.0469 32.6927 23.2891 32.5312 23.5547C32.3698 23.8203 32.1536 24.0755 31.8828 24.3203C31.6172 24.5599 31.2995 24.7604 30.9297 24.9219C30.5651 25.0781 30.1536 25.1562 29.6953 25.1562C29.1224 25.1562 28.6198 25.0443 28.1875 24.8203C27.7604 24.5964 27.4271 24.2969 27.1875 23.9219C26.9531 23.5417 26.8359 23.1172 26.8359 22.6484C26.8359 22.1953 26.9245 21.7969 27.1016 21.4531C27.2786 21.1042 27.5339 20.8151 27.8672 20.5859C28.2005 20.3516 28.6016 20.1745 29.0703 20.0547C29.5391 19.9349 30.0625 19.875 30.6406 19.875H32.3203ZM37.2344 17.875V25H35.7891V16.5469H37.1953L37.2344 17.875ZM39.875 16.5L39.8672 17.8438C39.7474 17.8177 39.6328 17.8021 39.5234 17.7969C39.4193 17.7865 39.2995 17.7812 39.1641 17.7812C38.8307 17.7812 38.5365 17.8333 38.2812 17.9375C38.026 18.0417 37.8099 18.1875 37.6328 18.375C37.4557 18.5625 37.3151 18.7865 37.2109 19.0469C37.112 19.3021 37.0469 19.5833 37.0156 19.8906L36.6094 20.125C36.6094 19.6146 36.6589 19.1354 36.7578 18.6875C36.862 18.2396 37.0208 17.8438 37.2344 17.5C37.4479 17.151 37.7188 16.8802 38.0469 16.6875C38.3802 16.4896 38.776 16.3906 39.2344 16.3906C39.3385 16.3906 39.4583 16.4036 39.5938 16.4297C39.7292 16.4505 39.8229 16.474 39.875 16.5ZM44.4375 23.9688C44.7812 23.9688 45.099 23.8984 45.3906 23.7578C45.6823 23.6172 45.9219 23.4245 46.1094 23.1797C46.2969 22.9297 46.4036 22.6458 46.4297 22.3281H47.8047C47.7786 22.8281 47.6094 23.2943 47.2969 23.7266C46.9896 24.1536 46.5859 24.5 46.0859 24.7656C45.5859 25.026 45.0365 25.1562 44.4375 25.1562C43.8021 25.1562 43.2474 25.0443 42.7734 24.8203C42.3047 24.5964 41.9141 24.2891 41.6016 23.8984C41.2943 23.5078 41.0625 23.0599 40.9062 22.5547C40.7552 22.0443 40.6797 21.5052 40.6797 20.9375V20.6094C40.6797 20.0417 40.7552 19.5052 40.9062 19C41.0625 18.4896 41.2943 18.0391 41.6016 17.6484C41.9141 17.2578 42.3047 16.9505 42.7734 16.7266C43.2474 16.5026 43.8021 16.3906 44.4375 16.3906C45.099 16.3906 45.6771 16.526 46.1719 16.7969C46.6667 17.0625 47.0547 17.4271 47.3359 17.8906C47.6224 18.349 47.7786 18.8698 47.8047 19.4531H46.4297C46.4036 19.1042 46.3047 18.7891 46.1328 18.5078C45.9661 18.2266 45.737 18.0026 45.4453 17.8359C45.1589 17.6641 44.8229 17.5781 44.4375 17.5781C43.9948 17.5781 43.6224 17.6667 43.3203 17.8438C43.0234 18.0156 42.7865 18.25 42.6094 18.5469C42.4375 18.8385 42.3125 19.1641 42.2344 19.5234C42.1615 19.8776 42.125 20.2396 42.125 20.6094V20.9375C42.125 21.3073 42.1615 21.6719 42.2344 22.0312C42.3073 22.3906 42.4297 22.7161 42.6016 23.0078C42.7786 23.2995 43.0156 23.5339 43.3125 23.7109C43.6146 23.8828 43.9896 23.9688 44.4375 23.9688ZM50.875 13V25H49.4297V13H50.875ZM50.5312 20.4531L49.9297 20.4297C49.9349 19.8516 50.0208 19.3177 50.1875 18.8281C50.3542 18.3333 50.5885 17.9036 50.8906 17.5391C51.1927 17.1745 51.5521 16.8932 51.9688 16.6953C52.3906 16.4922 52.8568 16.3906 53.3672 16.3906C53.7839 16.3906 54.1589 16.4479 54.4922 16.5625C54.8255 16.6719 55.1094 16.849 55.3438 17.0938C55.5833 17.3385 55.7656 17.6562 55.8906 18.0469C56.0156 18.4323 56.0781 18.9036 56.0781 19.4609V25H54.625V19.4453C54.625 19.0026 54.5599 18.6484 54.4297 18.3828C54.2995 18.112 54.1094 17.9167 53.8594 17.7969C53.6094 17.6719 53.3021 17.6094 52.9375 17.6094C52.5781 17.6094 52.25 17.6849 51.9531 17.8359C51.6615 17.987 51.4089 18.1953 51.1953 18.4609C50.987 18.7266 50.8229 19.0312 50.7031 19.375C50.5885 19.7135 50.5312 20.0729 50.5312 20.4531Z" fill="white"/>
</g>
<defs>
<clipPath id="clip0_1013_4547">
<path d="M0 2C0 0.895431 0.895431 0 2 0H362V40H2C0.895435 40 0 39.1046 0 38V2Z" fill="white"/>
</clipPath>
</defs>
</svg>
